<svg xmlns="http://www.w3.org/2000/svg" width="41" height="40" viewBox="0 0 41 40"><g><g><path fill="#fecd30" d="M12.517 39.217C5.588 39.217-.05 33.579-.05 26.649v-13.76C-.05 5.959 5.588.323 12.517.323h15.614C35.061.323 40.7 5.96 40.7 12.889v13.76c0 6.93-5.639 12.568-12.568 12.568zm0-36.102c-5.39 0-9.774 4.384-9.774 9.773v13.76c0 5.39 4.384 9.775 9.774 9.775h15.614c5.39 0 9.775-4.385 9.775-9.775v-13.76c0-5.389-4.386-9.774-9.775-9.774z"/></g><g><path fill="#fecd30" d="M20.942 22.577c0 .842-.207 1.596-.63 2.262a3.92 3.92 0 0 1-1.003 1.112 3.884 3.884 0 0 1-1.599.714 9.844 9.844 0 0 1-2 .19H9.326V12.683h6.844c1.725.027 2.95.527 3.67 1.51.434.602.65 1.324.65 2.163 0 .868-.22 1.56-.656 2.086-.244.296-.603.565-1.08.807.722.265 1.27.68 1.636 1.251.367.571.552 1.266.552 2.077zm8.173-7.889h-5.708V13.27h5.708zm-16.52 3.583h2.998c.617 0 1.116-.119 1.498-.352.384-.234.576-.65.576-1.247 0-.658-.253-1.096-.76-1.307-.439-.146-.996-.22-1.674-.22h-2.639zm4.46 2.584c-.337-.154-.81-.234-1.418-.24h-3.043v3.777h2.994c.617 0 1.092-.079 1.436-.248.62-.308.932-.896.932-1.77 0-.736-.302-1.244-.902-1.519zm14.264 1.23h-7.39c.04 1.02.392 1.733 1.061 2.142.402.255.89.38 1.463.38.603 0 1.094-.152 1.472-.465.206-.166.388-.402.545-.697h2.71c-.072.603-.397 1.212-.984 1.835-.908.986-2.182 1.483-3.818 1.483-1.352 0-2.543-.419-3.576-1.25-1.03-.833-1.549-2.189-1.549-4.067 0-1.76.466-3.109 1.4-4.047.934-.94 2.141-1.407 3.63-1.407.882 0 1.677.157 2.387.474a4.117 4.117 0 0 1 1.752 1.503c.416.605.684 1.303.81 2.1.07.464.101 1.136.087 2.016zm-2.755-1.75c-.049-.706-.285-1.24-.71-1.605-.422-.368-.946-.55-1.572-.55-.684 0-1.209.195-1.585.581-.377.386-.61.91-.707 1.573z"/></g></g></svg>