<svg id="1bf87384-c599-4f6b-ab1d-7ffe9ef4c8c9" data-name="br_01" xmlns="http://www.w3.org/2000/svg" viewBox="0 0 1260 590"><title>br_power_1</title><path d="M410,311q0,22.56-15.45,34.58t-44.59,12h-46V214.19h94.37v31.09H342.89v21.88h5.59q30.11,0,45.81,10.94T410,311Zm-67.1,16.68h5.2q12.17,0,17.46-4t5.3-11.87c0-5.23-1.89-9.08-5.64-11.57s-9.54-3.73-17.32-3.73h-5Z" style="fill:#fecd30"/><path d="M538,259.8q0,24-14.17,37.13T483.56,310H472.67v47.58H433.92V214.19h49.64q27.17,0,40.81,11.87T538,259.8Zm-65.33,18.64h7.06q8.73,0,13.89-4.9T498.77,260q0-14.52-16.09-14.52h-10Z" style="fill:#fecd30"/><path d="M646,357.61H560.86V214.19H646v31.09h-46.4v22.57h43v31.09h-43V326H646Z" style="fill:#fecd30"/><path d="M794,357.61H755.1V299.14h-45v58.47h-39V214.19h39v53.17h45V214.19H794Z" style="fill:#fecd30"/><path d="M969.44,402.24H931.68V357.61H848.1v44.63H810.33V325.82H822.2Q835,304,843.39,275.45a298.46,298.46,0,0,0,10.79-61.26h95.64V325.82h19.62Zm-58.66-76.42V245.87h-25.5a237.83,237.83,0,0,1-22.08,79.95Z" style="fill:#fecd30"/><path d="M400.2,322.35q0,22.56-15.45,34.58t-44.58,12h-46V225.53h94.37v31.09H333.1V278.5h5.59q30.12,0,45.82,10.94T400.2,322.35ZM333.1,339h5.2q12.17,0,17.46-4t5.3-11.87q0-7.85-5.64-11.57t-17.31-3.73h-5Z" style="fill:none;stroke:#0c0c0c;stroke-miterlimit:10;stroke-width:3px"/><path d="M528.22,271.14q0,24-14.18,37.13t-40.26,13.1H462.89V369H424.14V225.53h49.64q27.17,0,40.8,11.87T528.22,271.14Zm-65.33,18.64H470q8.73,0,13.88-4.9T489,271.34q0-14.52-16.09-14.52h-10Z" style="fill:none;stroke:#0c0c0c;stroke-miterlimit:10;stroke-width:3px"/></svg>