<svg id="992589bb-9e85-4fa4-81d2-91fbfe356a87" data-name="br_03" xmlns="http://www.w3.org/2000/svg" viewBox="0 0 1260 590"><title>br_power_4</title><path d="M151.73,139.54,144,157.32a19.45,19.45,0,0,1-2.75,4.81,7.92,7.92,0,0,1-3,2.17,11.23,11.23,0,0,1-4.26.72,14.68,14.68,0,0,1-4-.52v-4.57a10,10,0,0,0,3.77.62,3.74,3.74,0,0,0,2.3-.66,4.94,4.94,0,0,0,1.46-2.3l-8.7-18.05h5.64l6.19,14h.17l.31-.86,5.19-13.15Z" style="fill:#fecd30"/><path d="M175.49,164.67h-5.31V153.82h-10v10.85h-5.33V139.54h5.33v9.85h10v-9.85h5.31Z" style="fill:#fecd30"/><path d="M181.84,139.54h4.79v12.13l-.07,3.25-.17,3.7h.1l11.61-19.08h6.38v25.13h-4.75V152.6c0-1.61.11-4,.31-7.18h-.13l-11.66,19.25h-6.41Z" style="fill:#fecd30"/><path d="M231.32,164.67h-6l-9.12-12.74v12.74h-5.33V139.54h5.33v12.17l9-12.17h5.68l-9.17,12.07Z" style="fill:#fecd30"/><path d="M249.87,164.67l-1.82-6h-9.17l-1.82,6h-5.74l8.87-25.24h6.52l8.9,25.24Zm-3.09-10.45q-2.53-8.13-2.85-9.2c-.21-.71-.36-1.27-.46-1.68q-.56,2.19-3.25,10.88Z" style="fill:#fecd30"/><path d="M278.67,164.67h-5.31V144H267.2l-.27,2.31c-.71,5.85-1.34,10-1.89,12.33a9.6,9.6,0,0,1-2.38,5,5.89,5.89,0,0,1-4.23,1.41,7.85,7.85,0,0,1-2.54-.38v-4.37a5.74,5.74,0,0,0,1.87.35,1.65,1.65,0,0,0,1.45-.84,10.25,10.25,0,0,0,1-3.09q.48-2.26,1.26-7.41c.52-3.44,1-6.68,1.33-9.74h15.87Z" style="fill:#fecd30"/><path d="M302.72,156.82q0,7.85-10.38,7.85H285V139.54h5.33v9.64h2.09q4.92,0,7.6,2A6.61,6.61,0,0,1,302.72,156.82Zm-12.37,3.49h1.78a7.08,7.08,0,0,0,4-.87,3,3,0,0,0,1.25-2.62,2.7,2.7,0,0,0-1.27-2.51,9,9,0,0,0-4.37-.76h-1.35Z" style="fill:#fecd30"/><path d="M328.09,164.67h-5.32V153.82h-9.95v10.85h-5.33V139.54h5.33v9.85h9.95v-9.85h5.32Z" style="fill:#fecd30"/><path d="M357.25,152.07q0,6.24-3.1,9.59T345.28,165q-5.77,0-8.87-3.36t-3.1-9.62q0-6.28,3.11-9.59t8.89-3.31q5.81,0,8.87,3.34T357.25,152.07Zm-18.35,0q0,4.22,1.6,6.34a5.57,5.57,0,0,0,4.78,2.14q6.38,0,6.38-8.48t-6.35-8.49a5.6,5.6,0,0,0-4.79,2.14Q338.9,147.85,338.9,152.07Z" style="fill:#fecd30"/><path d="M373.13,143.61a5.43,5.43,0,0,0-4.66,2.26,10.53,10.53,0,0,0-1.65,6.3q0,8.42,6.31,8.41a20,20,0,0,0,6.42-1.32v4.47a17.85,17.85,0,0,1-6.92,1.29q-5.47,0-8.39-3.33t-2.9-9.55a15.51,15.51,0,0,1,1.43-6.87,10.24,10.24,0,0,1,4.1-4.52,12.1,12.1,0,0,1,6.26-1.58,16.93,16.93,0,0,1,7.36,1.78l-1.72,4.33a27.27,27.27,0,0,0-2.83-1.17A8.6,8.6,0,0,0,373.13,143.61Z" style="fill:#fecd30"/><path d="M394.59,164.67h-5.33V144h-6.82v-4.43h19V144h-6.83Z" style="fill:#fecd30"/><path d="M423,156.82q0,7.85-10.39,7.85h-7.32V139.54h5.33v9.64h2.09c3.28,0,5.82.67,7.6,2A6.62,6.62,0,0,1,423,156.82Zm-12.38,3.49h1.78a7.08,7.08,0,0,0,4-.87,3,3,0,0,0,1.25-2.62,2.7,2.7,0,0,0-1.27-2.51,9,9,0,0,0-4.37-.76h-1.35Z" style="fill:#fecd30"/><path d="M567.52,550.77l-1.82-6h-9.17l-1.82,6H549l8.88-25.24h6.51l8.91,25.24Zm-3.1-10.45q-2.52-8.13-2.84-9.2c-.21-.71-.37-1.27-.46-1.69q-.57,2.21-3.25,10.89Z" style="fill:#fecd30"/><path d="M597,550.77h-5.31V539.92h-10v10.85h-5.33V525.64h5.33v9.85h10v-9.85H597Z" style="fill:#fecd30"/><path d="M618.75,550.77l-1.82-6h-9.16l-1.82,6H600.2l8.87-25.24h6.52l8.91,25.24Zm-3.09-10.45c-1.69-5.42-2.63-8.49-2.85-9.2s-.36-1.27-.45-1.69q-.57,2.21-3.25,10.89Z" style="fill:#fecd30"/><path d="M647.55,550.77h-5.31v-20.7h-6.15l-.28,2.3q-1.06,8.79-1.88,12.34a9.79,9.79,0,0,1-2.38,5,5.92,5.92,0,0,1-4.23,1.41,7.91,7.91,0,0,1-2.55-.38v-4.37a5.76,5.76,0,0,0,1.88.34,1.62,1.62,0,0,0,1.44-.83,10.3,10.3,0,0,0,1-3.09q.46-2.26,1.25-7.41c.52-3.44,1-6.68,1.33-9.74h15.87Z" style="fill:#fecd30"/><path d="M653.9,525.64h4.8v12.13l-.07,3.25-.17,3.7h.1l11.6-19.08h6.38v25.13H671.8V538.7c0-1.61.1-4,.31-7.18H672l-11.66,19.25H653.9Z" style="fill:#fecd30"/><path d="M700.25,531.52a5.19,5.19,0,0,1-1.72,4,8.41,8.41,0,0,1-4.66,2v.11a9.53,9.53,0,0,1,5.31,1.9,5.12,5.12,0,0,1,1.85,4.08,6.37,6.37,0,0,1-2.82,5.48q-2.81,2-7.77,2a24.26,24.26,0,0,1-8.9-1.36v-4.47a16.48,16.48,0,0,0,3.8,1.21,20.77,20.77,0,0,0,4.06.44q6.35,0,6.35-3.7c0-1.11-.68-2-2-2.56a15.62,15.62,0,0,0-6-.89h-2.35v-4.17h2.11a16.4,16.4,0,0,0,5.81-.75,2.59,2.59,0,0,0,1.83-2.51,2.36,2.36,0,0,0-1.15-2.06,6.2,6.2,0,0,0-3.43-.76,12.83,12.83,0,0,0-6.84,2L681.34,528a15.64,15.64,0,0,1,4.56-2.08,19.71,19.71,0,0,1,5.34-.67A11.26,11.26,0,0,1,697.8,527,5.29,5.29,0,0,1,700.25,531.52Z" style="fill:#fecd30"/><path d="M994.64,432.25q0,6.24-3.09,9.59c-2.07,2.24-5,3.36-8.88,3.36s-6.8-1.12-8.87-3.36-3.09-5.44-3.09-9.62,1-7.38,3.1-9.59,5-3.31,8.9-3.31,6.82,1.11,8.86,3.33S994.64,428.08,994.64,432.25Zm-18.35,0c0,2.81.54,4.92,1.6,6.34a5.58,5.58,0,0,0,4.78,2.14q6.39,0,6.38-8.48t-6.34-8.49a5.63,5.63,0,0,0-4.8,2.14Q976.29,428,976.29,432.25Z" style="fill:#fecd30"/><path d="M1019.74,444.85h-5.31v-20.7h-9.25v20.7h-5.33V419.72h19.89Z" style="fill:#fecd30"/><path d="M1035.79,444.85h-5.33v-20.7h-6.83v-4.43h19v4.43h-6.82Z" style="fill:#fecd30"/><path d="M1046.48,419.72h4.8v12.13l-.07,3.25-.17,3.7h.1l11.61-19.08h6.37v25.13h-4.74V432.78c0-1.61.1-4,.31-7.18h-.14l-11.66,19.25h-6.41Z" style="fill:#fecd30"/><path d="M1086.11,444.85l-6-19.72h-.16q.33,6,.33,8v11.69h-4.76V419.72h7.25l6,19.22h.11l6.31-19.22h7.25v25.13h-5V433c0-.56,0-1.21,0-1.94s.09-2.68.23-5.85h-.15L1091,444.85Z" style="fill:#fecd30"/><path d="M1108.67,419.72h4.8v12.13l-.07,3.25-.17,3.7h.1l11.61-19.08h6.37v25.13h-4.74V432.78c0-1.61.1-4,.31-7.18h-.14l-11.66,19.25h-6.41Z" style="fill:#fecd30"/><path d="M1155,425.6a5.19,5.19,0,0,1-1.72,4,8.38,8.38,0,0,1-4.66,2v.11a9.53,9.53,0,0,1,5.31,1.9,5.12,5.12,0,0,1,1.85,4.08,6.38,6.38,0,0,1-2.81,5.48q-2.82,2-7.78,2a24.2,24.2,0,0,1-8.89-1.36v-4.47a16.24,16.24,0,0,0,3.79,1.21,20.77,20.77,0,0,0,4.06.44q6.35,0,6.35-3.7c0-1.11-.68-2-2-2.56a15.56,15.56,0,0,0-6-.89h-2.36V429.7h2.11A16.5,16.5,0,0,0,1148,429a2.6,2.6,0,0,0,1.82-2.51,2.37,2.37,0,0,0-1.14-2.06,6.25,6.25,0,0,0-3.43-.76,12.84,12.84,0,0,0-6.85,2l-2.32-3.56a15.64,15.64,0,0,1,4.56-2.08,19.71,19.71,0,0,1,5.34-.67,11.26,11.26,0,0,1,6.56,1.72A5.29,5.29,0,0,1,1155,425.6Z" style="fill:#fecd30"/><path d="M1175.86,444.85l-1.82-6h-9.16l-1.83,6h-5.74l8.87-25.24h6.52l8.91,25.24Zm-3.09-10.45q-2.54-8.13-2.85-9.2c-.21-.71-.36-1.27-.45-1.69q-.57,2.21-3.25,10.89Z" style="fill:#fecd30"/><path d="M1204.66,440.62h3.75v11.56h-5.14v-7.33h-18.5V419.72h5.33v20.7h9.25v-20.7h5.31Z" style="fill:#fecd30"/><path d="M1212.26,419.72h4.8v12.13l-.07,3.25-.17,3.7h.1l11.61-19.08h6.38v25.13h-4.75V432.78c0-1.61.11-4,.31-7.18h-.14l-11.65,19.25h-6.42Z" style="fill:#fecd30"/><path d="M1249.71,435.21l-5.88,9.64h-5.91l7.15-11.05a6.76,6.76,0,0,1-3.27-2.66,7.74,7.74,0,0,1-1.13-4.24,6.27,6.27,0,0,1,2.45-5.32q2.45-1.86,7-1.86h8.18v25.13H1253v-9.64Zm3.3-11.13h-2.63a5.9,5.9,0,0,0-3.2.74,2.73,2.73,0,0,0-1.13,2.46,3.29,3.29,0,0,0,1.1,2.63,5,5,0,0,0,3.37,1H1253Z" style="fill:#fecd30"/><path d="M956.35,140.28H951v-20.7h-9.25v20.7h-5.33V115.15h19.89Z" style="fill:#fecd30"/><path d="M980.06,123a7.67,7.67,0,0,1-2.53,6.2c-1.69,1.44-4.1,2.15-7.22,2.15H968v8.94H962.7V115.15h8c3,0,5.36.65,6.95,2A7.19,7.19,0,0,1,980.06,123Zm-12,4h1.75a5.82,5.82,0,0,0,3.68-1,3.37,3.37,0,0,0,1.22-2.83,3.48,3.48,0,0,0-1-2.76,4.77,4.77,0,0,0-3.21-.9H968Z" style="fill:#fecd30"/><path d="M1000.2,140.28l-1.83-6h-9.16l-1.82,6h-5.75L990.52,115H997l8.91,25.24Zm-3.1-10.45q-2.52-8.13-2.84-9.2c-.22-.71-.37-1.27-.46-1.68q-.57,2.19-3.25,10.88Z" style="fill:#fecd30"/><path d="M1029.6,140.28h-6l-9.12-12.74v12.74h-5.33V115.15h5.33v12.17l9-12.17h5.68L1020,127.22Z" style="fill:#fecd30"/><path d="M1042.46,140.28h-5.33v-20.7h-6.83v-4.43h19v4.43h-6.83Z" style="fill:#fecd30"/><path d="M1053.15,115.15h4.8v12.13l-.07,3.25-.17,3.7h.1l11.61-19.08h6.38v25.13h-4.75V128.21c0-1.61.11-4,.31-7.18h-.14l-11.65,19.25h-6.42Z" style="fill:#fecd30"/><path d="M1101.45,140.28h-5.33v-9.71a34.64,34.64,0,0,1-4.41,1.22,18.27,18.27,0,0,1-3.36.33,8.11,8.11,0,0,1-5.55-1.73,6.15,6.15,0,0,1-2-4.86V115.15h5.31V124a3.94,3.94,0,0,0,.85,2.74,3.73,3.73,0,0,0,2.85.92,14.79,14.79,0,0,0,2.81-.28,27.76,27.76,0,0,0,3.45-1V115.15h5.33Z" style="fill:#fecd30"/><path d="M1128.37,140.28h-5.31V129.43h-10v10.85h-5.33V115.15h5.33V125h10v-9.85h5.31Z" style="fill:#fecd30"/><path d="M1157.54,127.68q0,6.24-3.1,9.59t-8.87,3.36q-5.77,0-8.87-3.36t-3.1-9.62q0-6.29,3.11-9.59t8.89-3.31q5.81,0,8.87,3.34T1157.54,127.68Zm-18.35,0q0,4.22,1.6,6.34a5.58,5.58,0,0,0,4.78,2.14q6.38,0,6.38-8.48t-6.35-8.49a5.6,5.6,0,0,0-4.79,2.14Q1139.19,123.46,1139.19,127.68Z" style="fill:#fecd30"/><path d="M1173.42,119.22a5.44,5.44,0,0,0-4.66,2.26,10.53,10.53,0,0,0-1.65,6.3q0,8.41,6.31,8.41a20,20,0,0,0,6.42-1.32v4.47a17.84,17.84,0,0,1-6.91,1.29q-5.49,0-8.39-3.33t-2.91-9.55a15.51,15.51,0,0,1,1.43-6.87,10.24,10.24,0,0,1,4.1-4.52,12.1,12.1,0,0,1,6.26-1.58,16.9,16.9,0,0,1,7.36,1.78l-1.72,4.33a27.27,27.27,0,0,0-2.83-1.17A8.55,8.55,0,0,0,1173.42,119.22Z" style="fill:#fecd30"/><path d="M1194.88,140.28h-5.33v-20.7h-6.83v-4.43h19v4.43h-6.83Z" style="fill:#fecd30"/><path d="M1223.29,132.43q0,7.84-10.39,7.85h-7.32V115.15h5.33v9.64H1213q4.92,0,7.6,2A6.61,6.61,0,0,1,1223.29,132.43Zm-12.38,3.49h1.78a7.08,7.08,0,0,0,4-.87,3,3,0,0,0,1.25-2.62,2.7,2.7,0,0,0-1.27-2.51,9,9,0,0,0-4.37-.76h-1.35Z" style="fill:#fecd30"/><path d="M536.87,114.26l-1.83-6h-9.16l-1.82,6h-5.75L527.19,89h6.51l8.91,25.24Zm-3.1-10.45-2.85-9.2q-.31-1.06-.45-1.68-.57,2.19-3.25,10.88Z" style="fill:#fecd30"/><path d="M566.27,114.26h-6.06l-9.11-12.74v12.74h-5.33V89.13h5.33V101.3l9-12.17h5.68l-9.17,12.07Z" style="fill:#fecd30"/><path d="M579.13,114.26H573.8V93.56H567V89.13h19v4.43h-6.82Z" style="fill:#fecd30"/><path d="M609.65,89.13l-7.78,17.77a19.07,19.07,0,0,1-2.74,4.82,7.92,7.92,0,0,1-3,2.17,11.24,11.24,0,0,1-4.27.72,14.66,14.66,0,0,1-4-.52v-4.57a10,10,0,0,0,3.76.62,3.77,3.77,0,0,0,2.31-.66,4.94,4.94,0,0,0,1.46-2.3l-8.7-18.05h5.64l6.19,14h.17l.31-.86,5.19-13.15Z" style="fill:#fecd30"/><path d="M628.2,114.26l-1.82-6h-9.17l-1.82,6h-5.74L618.52,89H625l8.9,25.24Zm-3.1-10.45q-2.52-8.13-2.84-9.2c-.21-.71-.37-1.27-.46-1.68q-.57,2.19-3.25,10.88Z" style="fill:#fecd30"/><path d="M657,114.26h-5.31V93.56h-6.16l-.28,2.31c-.71,5.85-1.33,10-1.88,12.33a9.67,9.67,0,0,1-2.38,5,5.89,5.89,0,0,1-4.23,1.41,7.85,7.85,0,0,1-2.54-.38v-4.37a5.74,5.74,0,0,0,1.87.35,1.65,1.65,0,0,0,1.45-.84,10.25,10.25,0,0,0,1-3.09c.32-1.51.73-4,1.26-7.41s1-6.68,1.33-9.74H657Z" style="fill:#fecd30"/><path d="M681.05,106.41q0,7.84-10.38,7.85h-7.33V89.13h5.33v9.64h2.1q4.92,0,7.6,2A6.61,6.61,0,0,1,681.05,106.41Zm-12.38,3.49h1.79a7.08,7.08,0,0,0,4-.87,3,3,0,0,0,1.25-2.62,2.7,2.7,0,0,0-1.27-2.51,9.06,9.06,0,0,0-4.37-.76h-1.36Z" style="fill:#fecd30"/><path d="M706.41,114.26H701.1V103.41h-10v10.85h-5.33V89.13h5.33V99h10V89.13h5.31Z" style="fill:#fecd30"/><path d="M735.57,101.66q0,6.24-3.09,9.59t-8.87,3.36c-3.86,0-6.81-1.12-8.88-3.36s-3.09-5.44-3.09-9.62,1-7.38,3.1-9.59,5-3.31,8.9-3.31,6.82,1.11,8.86,3.34S735.57,97.49,735.57,101.66Zm-18.34,0q0,4.22,1.6,6.34a5.57,5.57,0,0,0,4.78,2.14q6.38,0,6.38-8.48t-6.35-8.49a5.63,5.63,0,0,0-4.8,2.14Q717.23,97.44,717.23,101.66Z" style="fill:#fecd30"/><path d="M751.46,93.2a5.43,5.43,0,0,0-4.66,2.26,10.53,10.53,0,0,0-1.65,6.3q0,8.42,6.31,8.41a20,20,0,0,0,6.41-1.32v4.47a17.76,17.76,0,0,1-6.91,1.29q-5.48,0-8.39-3.33t-2.9-9.55a15.64,15.64,0,0,1,1.42-6.87,10.3,10.3,0,0,1,4.1-4.52,12.17,12.17,0,0,1,6.27-1.58,16.93,16.93,0,0,1,7.36,1.78l-1.72,4.33a27.42,27.42,0,0,0-2.84-1.17A8.49,8.49,0,0,0,751.46,93.2Z" style="fill:#fecd30"/><path d="M772.92,114.26h-5.33V93.56h-6.83V89.13h19v4.43h-6.82Z" style="fill:#fecd30"/><path d="M801.32,106.41q0,7.84-10.38,7.85h-7.33V89.13h5.33v9.64H791q4.92,0,7.6,2A6.61,6.61,0,0,1,801.32,106.41Zm-12.38,3.49h1.79a7.08,7.08,0,0,0,4-.87,3,3,0,0,0,1.25-2.62,2.7,2.7,0,0,0-1.27-2.51,9.06,9.06,0,0,0-4.37-.76h-1.36Z" style="fill:#fecd30"/><path d="M21.44,465.79H16.13v-20.7H6.88v20.7H1.55V440.65H21.44Z" style="fill:#fecd30"/><path d="M42.26,465.79H27.78V440.65H42.26V445H33.11v5.52h8.51v4.37H33.11v6.48h9.15Z" style="fill:#fecd30"/><path d="M64.87,448.49a7.65,7.65,0,0,1-2.54,6.21q-2.53,2.15-7.21,2.15H52.84v8.94H47.51V440.65h8q4.56,0,7,2A7.18,7.18,0,0,1,64.87,448.49Zm-12,4h1.75a5.82,5.82,0,0,0,3.68-1,3.41,3.41,0,0,0,1.22-2.83,3.46,3.46,0,0,0-1-2.76,4.81,4.81,0,0,0-3.21-.9H52.84Z" style="fill:#fecd30"/><path d="M80.29,444.73A5.43,5.43,0,0,0,75.63,447a10.53,10.53,0,0,0-1.65,6.3q0,8.41,6.31,8.41a20,20,0,0,0,6.42-1.32v4.47a17.85,17.85,0,0,1-6.92,1.29q-5.48,0-8.39-3.33t-2.9-9.55a15.44,15.44,0,0,1,1.43-6.87,10.24,10.24,0,0,1,4.1-4.52,12.1,12.1,0,0,1,6.26-1.58,16.92,16.92,0,0,1,7.36,1.77l-1.72,4.34a27.27,27.27,0,0,0-2.83-1.17A8.6,8.6,0,0,0,80.29,444.73Z" style="fill:#fecd30"/><path d="M114.87,453.19q0,6.24-3.09,9.59t-8.88,3.36q-5.78,0-8.87-3.36t-3.09-9.63q0-6.27,3.1-9.58t8.9-3.31q5.79,0,8.86,3.33T114.87,453.19Zm-18.35,0c0,2.81.54,4.92,1.6,6.34a5.6,5.6,0,0,0,4.78,2.13q6.39,0,6.38-8.47t-6.34-8.5a5.64,5.64,0,0,0-4.8,2.15Q96.52,449,96.52,453.19Z" style="fill:#fecd30"/><path d="M140.68,465.79h-5.31V454.94h-10v10.85h-5.33V440.65h5.33v9.86h10v-9.86h5.31Z" style="fill:#fecd30"/><path d="M162.41,465.79l-1.82-6h-9.17l-1.82,6h-5.74l8.87-25.24h6.52l8.9,25.24Zm-3.09-10.45q-2.53-8.13-2.85-9.2c-.21-.71-.36-1.27-.45-1.69q-.57,2.21-3.25,10.89Z" style="fill:#fecd30"/><path d="M191.21,465.79H185.9v-20.7h-6.16l-.27,2.3q-1.07,8.79-1.89,12.34a9.64,9.64,0,0,1-2.38,5,5.89,5.89,0,0,1-4.23,1.41,7.85,7.85,0,0,1-2.54-.38v-4.37a5.71,5.71,0,0,0,1.87.34,1.64,1.64,0,0,0,1.45-.83,10.36,10.36,0,0,0,1-3.09q.48-2.26,1.26-7.42t1.33-9.74h15.87Z" style="fill:#fecd30"/><path d="M215.26,457.93q0,7.86-10.38,7.86h-7.33V440.65h5.33v9.65H205q4.92,0,7.6,2A6.61,6.61,0,0,1,215.26,457.93Zm-12.38,3.49h1.79a7.09,7.09,0,0,0,4-.86,3,3,0,0,0,1.25-2.63,2.69,2.69,0,0,0-1.27-2.5,9,9,0,0,0-4.37-.76h-1.36Z" style="fill:#fecd30"/><path d="M240.62,465.79h-5.31V454.94h-9.95v10.85H220V440.65h5.33v9.86h9.95v-9.86h5.31Z" style="fill:#fecd30"/><path d="M264.16,457.93a6.92,6.92,0,0,1-2.6,5.89c-1.74,1.32-4.31,2-7.71,2H247V440.65h5.33v9.65H254q4.83,0,7.49,2A6.66,6.66,0,0,1,264.16,457.93Zm-11.86,3.49h1.39a6.71,6.71,0,0,0,3.85-.86,3,3,0,0,0,1.23-2.63,2.78,2.78,0,0,0-1.18-2.51,8.24,8.24,0,0,0-4.14-.75H252.3Zm20.24,4.37h-5.32V440.65h5.32Z" style="fill:#fecd30"/><path d="M278.87,440.65h4.79v12.14l-.07,3.25-.17,3.7h.1l11.61-19.09h6.38v25.14h-4.75V453.72c0-1.61.11-4,.31-7.19h-.13l-11.66,19.26h-6.41Zm19.65-8.16a6.13,6.13,0,0,1-2.43,4.68,10.47,10.47,0,0,1-6,1.47q-4.08,0-6-1.41t-2.19-4.74h4.7a3.64,3.64,0,0,0,.88,2.48,4,4,0,0,0,2.74.72,3.17,3.17,0,0,0,3.63-3.2Z" style="fill:#fecd30"/><path d="M18.6,488.82v19.23H13.34V492.76h-7v15.29H1.13V488.82Z" style="fill:#fecd30"/><path d="M41.56,498.4a10.32,10.32,0,0,1-2.48,7.34,9,9,0,0,1-6.89,2.65,9.64,9.64,0,0,1-4.89-1.21,8.11,8.11,0,0,1-3.25-3.48,11.82,11.82,0,0,1-1.13-5.3q0-4.71,2.46-7.32a9,9,0,0,1,6.91-2.62,9.63,9.63,0,0,1,4.88,1.21,8,8,0,0,1,3.25,3.45A11.54,11.54,0,0,1,41.56,498.4Zm-13.29,0a8.16,8.16,0,0,0,.93,4.32,3.36,3.36,0,0,0,3.05,1.46,3.31,3.31,0,0,0,3-1.45,8.23,8.23,0,0,0,.92-4.33,7.93,7.93,0,0,0-.93-4.28,3.36,3.36,0,0,0-3-1.43,3.37,3.37,0,0,0-3,1.42A8,8,0,0,0,28.27,498.4Z" style="fill:#fecd30"/><path d="M66,514.94H61.28v-6.89H48.35v6.89H43.64V504.21h1.61A24,24,0,0,0,48,497.75a47.78,47.78,0,0,0,1.57-8.93H63.17v15.39H66Zm-8.06-10.73V492.76H54a51.39,51.39,0,0,1-1.18,6.07,25,25,0,0,1-2.07,5.38Z" style="fill:#fecd30"/><path d="M73.21,498.23,67,488.82h6L76.7,495l3.77-6.13h6l-6.26,9.41,6.55,9.82h-6l-4-6.59-4.06,6.59h-6Z" style="fill:#fecd30"/><path d="M107.1,498.4a10.32,10.32,0,0,1-2.48,7.34,9,9,0,0,1-6.89,2.65,9.6,9.6,0,0,1-4.88-1.21,8.05,8.05,0,0,1-3.25-3.48,11.69,11.69,0,0,1-1.14-5.3q0-4.71,2.46-7.32a9,9,0,0,1,6.91-2.62,9.6,9.6,0,0,1,4.88,1.21,8,8,0,0,1,3.25,3.45A11.54,11.54,0,0,1,107.1,498.4Zm-13.29,0a8.05,8.05,0,0,0,.94,4.32,3.35,3.35,0,0,0,3,1.46,3.3,3.3,0,0,0,3-1.45,8.13,8.13,0,0,0,.92-4.33,7.94,7.94,0,0,0-.92-4.28,3.94,3.94,0,0,0-6.07,0A7.94,7.94,0,0,0,93.81,498.4Z" style="fill:#fecd30"/><path d="M131.53,514.94h-4.71v-6.89H113.89v6.89h-4.71V504.21h1.62a24,24,0,0,0,2.76-6.46,47.78,47.78,0,0,0,1.57-8.93h13.58v15.39h2.82Zm-8.06-10.73V492.76h-3.94a51.39,51.39,0,0,1-1.18,6.07,25,25,0,0,1-2.07,5.38Z" style="fill:#fecd30"/></svg>