<?xml version="1.0" encoding="utf-8"?>
<!-- Generator: Adobe Illustrator 24.3.0, SVG Export Plug-In . SVG Version: 6.00 Build 0)  -->
<svg version="1.1" id="brand" xmlns="http://www.w3.org/2000/svg" xmlns:xlink="http://www.w3.org/1999/xlink" x="0px" y="0px"
	 viewBox="0 0 167 809.8" style="enable-background:new 0 0 167 809.8;" xml:space="preserve">
<style type="text/css">
	.st0{fill:none;stroke:#FFFFFF;stroke-width:2;}
</style>
<g>
	<path class="st0" d="M165.1,770.8H1.8v-39.3c0-13.4,3.1-23.1,9.2-29.4c6.1-6.2,15.6-9.3,28.3-9.3h5.8c16.7,0,27.6,5.6,32.9,16.9
		c5-13,16.6-19.4,34.9-19.4h13.3c12.6,0,22.2,3.3,28.8,10.1c6.6,6.8,9.9,16.5,9.9,29.5L165.1,770.8L165.1,770.8z M68.3,744.8v-10.2
		c0-5.2-1.3-9.1-4-11.7c-2.6-2.6-7.1-4-13.3-4h-9c-5.8,0-10.1,1-12.8,3.1s-4,5.4-4,10.1v12.7L68.3,744.8L68.3,744.8z M141.7,744.8
		v-14.9c0-4.6-1.2-7.9-3.6-10.2c-2.4-2.3-6.6-3.3-12.4-3.3h-14.2c-7.5,0-12.6,1.3-15.5,3.9c-2.9,2.6-4.3,6.9-4.3,12.9v11.6H141.7z"
		/>
	<path class="st0" d="M165.1,674.8H1.8v-39.3c0-13.3,3.1-23.1,9.2-29.3s15.6-9.3,28.3-9.3h12.9c16.8,0,27.8,5.7,33.2,17
		c2.6-6.2,6.8-10.6,12.5-13.3c5.7-2.6,13.2-4,22.2-4h25.2c9,0,15.6-0.8,19.8-2.4v26c-1.9,0.6-3.3,1-4.3,1.2
		c-0.9,0.2-2.8,0.5-5.4,0.8c-2.7,0.2-6.1,0.4-10.3,0.4h-25.6c-7.5,0-12.9,1.3-16.1,4s-4.8,7-4.8,13v9h66.5L165.1,674.8L165.1,674.8z
		 M75.4,648.8v-10.2c0-5.2-1.3-9.1-4-11.6c-2.6-2.6-7.1-4-13.4-4H42c-5.8,0-10.1,1-12.8,3.1s-4,5.4-4,10.1v12.6L75.4,648.8
		L75.4,648.8z"/>
	<path class="st0" d="M165.1,586.5L1.8,560v-40.2L165,493.5v26l-29.6,4.5v31.9l29.6,4.5L165.1,586.5L165.1,586.5z M113.3,552.5
		v-25.1L31.1,540L113.3,552.5z"/>
	<path class="st0" d="M165.1,483.5H1.8v-35.1l97.8-26.7H1.8v-23.2H165v26.8L46.9,457.4H165L165.1,483.5L165.1,483.5z"/>
	<path class="st0" d="M165.1,382.2H1.8V341c0-12.9,3.4-22.6,10.3-29.1s16.9-9.8,30.1-9.8h82.5c13.1,0,23.1,3.3,30,9.8
		S165,328.1,165,341v41.2H165.1z M141.7,356.1v-14.7c0-4.3-1.2-7.6-3.7-9.9s-6.5-3.4-12.1-3.4H41c-5.6,0-9.6,1.2-12.1,3.4
		c-2.5,2.3-3.7,5.6-3.7,9.9v14.7H141.7z"/>
	<path class="st0" d="M165.1,249.1H1.8V213l116.3-19.2l-116.3-18v-37.5H165v26H48l117,18V207L49.9,226.5h115.2V249.1z"/>
	<path class="st0" d="M165.1,120.9H1.8v-71h23.3v45h45.5V59.2h23.2v35.6h47.8v-45H165L165.1,120.9L165.1,120.9z"/>
</g>
</svg>
