<svg id="d433b76f-4d3b-4584-aa4f-2d3f3cab4920" data-name="br_02" xmlns="http://www.w3.org/2000/svg" viewBox="0 0 1260 590"><title>br_power_3</title><g id="8b23f816-3b27-41f1-a91f-e8b19418ce6f" data-name="13"><polygon points="1154.88 302.04 1154.88 339.27 1144.45 337.65 1144.45 303.66 1154.88 302.04" style="fill:none;stroke:#0c0c0c;stroke-linecap:round;stroke-linejoin:round;stroke-width:3px"/><polyline points="1136.96 307.18 1121.41 300.22 1083.32 314.77 1083.32 320.65" style="fill:none;stroke:#0c0c0c;stroke-linecap:round;stroke-linejoin:round;stroke-width:3px"/><polyline points="1083.32 326.84 1121.41 341.39 1135.53 335.08 1144.45 335.12 1144.45 335.12" style="fill:none;stroke:#0c0c0c;stroke-linecap:round;stroke-linejoin:round;stroke-width:3px"/><line x1="1083.32" y1="320.65" x2="1116.28" y2="320.65" style="fill:none;stroke:#0c0c0c;stroke-linecap:round;stroke-linejoin:round;stroke-width:3px"/><path d="M1122.14,315.77a5.06,5.06,0,1,1-5.05,5.05A5.05,5.05,0,0,1,1122.14,315.77Z" style="fill:none;stroke:#0c0c0c;stroke-linecap:round;stroke-linejoin:round;stroke-width:3px"/><rect x="1068.01" y="317.19" width="7.26" height="7.26" transform="translate(750.82 1392.47) rotate(-90)" style="fill:none;stroke:#0c0c0c;stroke-linecap:round;stroke-linejoin:round;stroke-width:3px"/><rect x="1068.01" y="281.28" width="7.26" height="7.26" transform="translate(786.74 1356.56) rotate(-90)" style="fill:none;stroke:#0c0c0c;stroke-linecap:round;stroke-linejoin:round;stroke-width:3px"/><rect x="1101.57" y="281.18" width="7.26" height="7.26" style="fill:none;stroke:#0c0c0c;stroke-linecap:round;stroke-linejoin:round;stroke-width:3px"/><rect x="1101.57" y="353.1" width="7.26" height="7.26" style="fill:none;stroke:#0c0c0c;stroke-linecap:round;stroke-linejoin:round;stroke-width:3px"/><rect x="1068.01" y="353.1" width="7.26" height="7.26" transform="translate(714.91 1428.38) rotate(-90)" style="fill:none;stroke:#0c0c0c;stroke-linecap:round;stroke-linejoin:round;stroke-width:3px"/><path d="M1101.58,356.45c-8.27-1.05-28-8.4-29.78-32" style="fill:none;stroke:#0c0c0c;stroke-linecap:round;stroke-linejoin:round;stroke-width:3px"/><path d="M1072.55,311.9c0-8.51,10-24.57,23.23-26.23" style="fill:none;stroke:#0c0c0c;stroke-linecap:round;stroke-linejoin:round;stroke-width:3px"/><line x1="1071.8" y1="293.71" x2="1071.65" y2="311.9" style="fill:none;stroke:#0c0c0c;stroke-linecap:round;stroke-linejoin:round;stroke-width:3px"/><line x1="1071.8" y1="324.45" x2="1071.8" y2="345.12" style="fill:none;stroke:#0c0c0c;stroke-linecap:round;stroke-linejoin:round;stroke-width:3px"/></g><g id="b61e9c53-09d2-4d6f-b2af-c79177e21ed5" data-name="8"><polyline points="1131.54 86.07 1132.4 89.44 1115.2 85.06 1056.86 26.71" style="fill:none;stroke:#0c0c0c;stroke-linecap:round;stroke-linejoin:round;stroke-width:3px"/><polyline points="1069.67 13.9 1128.01 72.25 1129.86 79.5" style="fill:none;stroke:#0c0c0c;stroke-linecap:round;stroke-linejoin:round;stroke-width:3px"/><line x1="1061.19" y1="22.37" x2="1069.67" y2="13.9" style="fill:none;stroke:#0c0c0c;stroke-linecap:round;stroke-linejoin:round;stroke-width:3px"/><path d="M1069.67,13.9l-2.62-2.62a5.16,5.16,0,0,0-7.29,0l-5.52,5.52a5.14,5.14,0,0,0,0,7.29l2.62,2.62" style="fill:none;stroke:#0c0c0c;stroke-linecap:round;stroke-linejoin:round;stroke-width:3px"/><line x1="1063.26" y1="20.31" x2="1115.6" y2="72.64" style="fill:none;stroke:#0c0c0c;stroke-linecap:round;stroke-linejoin:round;stroke-width:3px"/><line x1="1116.5" y1="83.34" x2="1122.43" y2="77.41" style="fill:none;stroke:#0c0c0c;stroke-linecap:round;stroke-linejoin:round;stroke-width:3px"/><line x1="1133.16" y1="26.73" x2="1108.09" y2="51.8" style="fill:none;stroke:#0c0c0c;stroke-linecap:round;stroke-linejoin:round;stroke-width:3px"/><polyline points="1094.59 28.39 1121.32 1.67 1139.77 20.12" style="fill:none;stroke:#0c0c0c;stroke-linecap:round;stroke-linejoin:round;stroke-width:3px"/><polyline points="1088.99 70.9 1063.54 96.36 1045.07 77.91 1076.12 46.88" style="fill:none;stroke:#0c0c0c;stroke-linecap:round;stroke-linejoin:round;stroke-width:3px"/><line x1="1113.38" y1="10.2" x2="1116.76" y2="13.58" style="fill:none;stroke:#0c0c0c;stroke-linecap:round;stroke-linejoin:round;stroke-width:3px"/><line x1="1105.9" y1="17.67" x2="1109.29" y2="21.05" style="fill:none;stroke:#0c0c0c;stroke-linecap:round;stroke-linejoin:round;stroke-width:3px"/><line x1="1098.43" y1="25.14" x2="1101.82" y2="28.52" style="fill:none;stroke:#0c0c0c;stroke-linecap:round;stroke-linejoin:round;stroke-width:3px"/><line x1="1068.55" y1="55.02" x2="1071.94" y2="58.4" style="fill:none;stroke:#0c0c0c;stroke-linecap:round;stroke-linejoin:round;stroke-width:3px"/><line x1="1061.08" y1="62.49" x2="1066.55" y2="67.95" style="fill:none;stroke:#0c0c0c;stroke-linecap:round;stroke-linejoin:round;stroke-width:3px"/><line x1="1053.61" y1="69.96" x2="1057" y2="73.34" style="fill:none;stroke:#0c0c0c;stroke-linecap:round;stroke-linejoin:round;stroke-width:3px"/><line x1="1105.9" y1="17.67" x2="1111.37" y2="23.13" style="fill:none;stroke:#0c0c0c;stroke-linecap:round;stroke-linejoin:round;stroke-width:3px"/></g><line x1="1190.62" y1="82.08" x2="1198.12" y2="89.58" style="fill:none;stroke:#0c0c0c;stroke-linecap:round;stroke-linejoin:round;stroke-width:3px"/><line x1="1198.12" y1="82.08" x2="1190.62" y2="89.58" style="fill:none;stroke:#0c0c0c;stroke-linecap:round;stroke-linejoin:round;stroke-width:3px"/><circle cx="1013.63" cy="86.58" r="4.5" style="fill:none;stroke:#0c0c0c;stroke-linecap:round;stroke-linejoin:round;stroke-width:3px"/><line x1="1001.43" y1="50.58" x2="997.93" y2="47.08" style="fill:none;stroke:#0c0c0c;stroke-linecap:round;stroke-linejoin:round;stroke-width:3px"/><line x1="989.63" y1="38.78" x2="986.13" y2="35.28" style="fill:none;stroke:#0c0c0c;stroke-linecap:round;stroke-linejoin:round;stroke-width:3px"/><line x1="989.63" y1="47.08" x2="986.13" y2="50.58" style="fill:none;stroke:#0c0c0c;stroke-linecap:round;stroke-linejoin:round;stroke-width:3px"/><line x1="1001.43" y1="35.28" x2="997.93" y2="38.78" style="fill:none;stroke:#0c0c0c;stroke-linecap:round;stroke-linejoin:round;stroke-width:3px"/><polygon points="416.69 392.17 426.65 412.34 448.91 415.57 432.8 431.28 436.6 453.45 416.69 442.98 396.78 453.45 400.58 431.28 384.47 415.57 406.74 412.34 416.69 392.17" style="fill:none;stroke:#0c0c0c;stroke-linecap:round;stroke-linejoin:round;stroke-width:3px"/><line x1="786.1" y1="18.85" x2="793.88" y2="18.85" style="fill:none;stroke:#0c0c0c;stroke-linecap:round;stroke-linejoin:round;stroke-width:3px"/><line x1="754.57" y1="29.98" x2="777.05" y2="29.98" style="fill:none;stroke:#0c0c0c;stroke-linecap:round;stroke-linejoin:round;stroke-width:3px"/><line x1="754.57" y1="18.85" x2="762.76" y2="18.85" style="fill:none;stroke:#0c0c0c;stroke-linecap:round;stroke-linejoin:round;stroke-width:3px"/><line x1="772.73" y1="18.85" x2="776.09" y2="18.85" style="fill:none;stroke:#0c0c0c;stroke-linecap:round;stroke-linejoin:round;stroke-width:3px"/><line x1="786.1" y1="29.98" x2="789.46" y2="29.98" style="fill:none;stroke:#0c0c0c;stroke-linecap:round;stroke-linejoin:round;stroke-width:3px"/><path d="M795.91,8.68h-44.7a7.87,7.87,0,0,0-7.87,7.87V32.29a7.87,7.87,0,0,0,7.87,7.87H785l5.15,8.92,5.15-8.92h.62a7.87,7.87,0,0,0,7.87-7.87V16.55A7.87,7.87,0,0,0,795.91,8.68Z" style="fill:none;stroke:#0c0c0c;stroke-linecap:round;stroke-linejoin:round;stroke-width:3px"/><polyline points="434.04 100.53 434.04 110.74 444.25 110.74" style="fill:none;stroke:#0c0c0c;stroke-linecap:round;stroke-linejoin:round;stroke-width:3px"/><polyline points="492.07 110.74 502.28 110.74 502.28 100.53" style="fill:none;stroke:#0c0c0c;stroke-linecap:round;stroke-linejoin:round;stroke-width:3px"/><polyline points="444.25 42.49 434.04 42.49 434.04 52.71" style="fill:none;stroke:#0c0c0c;stroke-linecap:round;stroke-linejoin:round;stroke-width:3px"/><polyline points="502.28 52.71 502.28 42.49 492.07 42.49" style="fill:none;stroke:#0c0c0c;stroke-linecap:round;stroke-linejoin:round;stroke-width:3px"/><path d="M475,76.62a4.84,4.84,0,0,1,0,.53,6.79,6.79,0,0,1-13.54,0,4.84,4.84,0,0,1,0-.53,6.8,6.8,0,1,1,13.6,0Z" style="fill:none;stroke:#0c0c0c;stroke-linecap:round;stroke-linejoin:round;stroke-width:3px"/><line x1="468.16" y1="91.49" x2="468.16" y2="83.42" style="fill:none;stroke:#0c0c0c;stroke-linecap:round;stroke-linejoin:round;stroke-width:3px"/><line x1="468.16" y1="69.82" x2="468.16" y2="62.8" style="fill:none;stroke:#0c0c0c;stroke-linecap:round;stroke-linejoin:round;stroke-width:3px"/><line x1="461.39" y1="77.15" x2="453.81" y2="77.15" style="fill:none;stroke:#0c0c0c;stroke-linecap:round;stroke-linejoin:round;stroke-width:3px"/><line x1="482.5" y1="77.15" x2="474.94" y2="77.15" style="fill:none;stroke:#0c0c0c;stroke-linecap:round;stroke-linejoin:round;stroke-width:3px"/><g id="0a7657a7-39ad-4cc4-8c1b-60babe1eed59" data-name="1"><rect x="154.62" y="498.42" width="63.35" height="24.75" style="fill:none;stroke:#0c0c0c;stroke-linecap:round;stroke-linejoin:round;stroke-width:3px"/><line x1="154.62" y1="536.1" x2="217.97" y2="536.37" style="fill:none;stroke:#0c0c0c;stroke-linecap:round;stroke-linejoin:round;stroke-width:3px"/><line x1="154.62" y1="540.69" x2="154.62" y2="538.65" style="fill:none;stroke:#0c0c0c;stroke-linecap:round;stroke-linejoin:round;stroke-width:3px"/><line x1="217.97" y1="540.69" x2="217.97" y2="536.37" style="fill:none;stroke:#0c0c0c;stroke-linecap:round;stroke-linejoin:round;stroke-width:3px"/><line x1="186.29" y1="540.69" x2="186.29" y2="537.74" style="fill:none;stroke:#0c0c0c;stroke-linecap:round;stroke-linejoin:round;stroke-width:3px"/><line x1="186.29" y1="527.95" x2="186.29" y2="524.92" style="fill:none;stroke:#0c0c0c;stroke-linecap:round;stroke-linejoin:round;stroke-width:3px"/><line x1="186.29" y1="571.15" x2="186.29" y2="561.75" style="fill:none;stroke:#0c0c0c;stroke-linecap:round;stroke-linejoin:round;stroke-width:3px"/><line x1="217.97" y1="571.15" x2="217.97" y2="561.75" style="fill:none;stroke:#0c0c0c;stroke-linecap:round;stroke-linejoin:round;stroke-width:3px"/><rect x="148.29" y="549.09" width="12.65" height="12.65" style="fill:none;stroke:#0c0c0c;stroke-linecap:round;stroke-linejoin:round;stroke-width:3px"/><path d="M186.29,583.8h0a6.32,6.32,0,0,1-6.32-6.33h0a6.32,6.32,0,0,1,6.32-6.32h0a6.32,6.32,0,0,1,6.33,6.32h0A6.32,6.32,0,0,1,186.29,583.8Z" style="fill:none;stroke:#0c0c0c;stroke-linecap:round;stroke-linejoin:round;stroke-width:3px"/><rect x="211.64" y="571.15" width="12.65" height="12.65" rx="6.33" ry="6.33" style="fill:none;stroke:#0c0c0c;stroke-linecap:round;stroke-linejoin:round;stroke-width:3px"/><rect x="179.97" y="549.08" width="44.33" height="12.67" style="fill:none;stroke:#0c0c0c;stroke-linecap:round;stroke-linejoin:round;stroke-width:3px"/><line x1="161.24" y1="555.42" x2="171.3" y2="555.42" style="fill:none;stroke:#0c0c0c;stroke-linecap:round;stroke-linejoin:round;stroke-width:3px"/></g><line x1="139.32" y1="62.23" x2="131.82" y2="54.73" style="fill:none;stroke:#0c0c0c;stroke-linecap:round;stroke-linejoin:round;stroke-width:3px"/><line x1="131.82" y1="62.23" x2="139.32" y2="54.73" style="fill:none;stroke:#0c0c0c;stroke-linecap:round;stroke-linejoin:round;stroke-width:3px"/><circle cx="109.32" cy="32.23" r="4.5" style="fill:none;stroke:#0c0c0c;stroke-linecap:round;stroke-linejoin:round;stroke-width:3px"/><circle cx="435.15" cy="488.05" r="4.5" style="fill:none;stroke:#0c0c0c;stroke-linecap:round;stroke-linejoin:round;stroke-width:3px"/><line x1="479.16" y1="440.76" x2="482.66" y2="444.26" style="fill:none;stroke:#0c0c0c;stroke-linecap:round;stroke-linejoin:round;stroke-width:3px"/><line x1="490.96" y1="452.56" x2="494.46" y2="456.06" style="fill:none;stroke:#0c0c0c;stroke-linecap:round;stroke-linejoin:round;stroke-width:3px"/><line x1="490.96" y1="444.26" x2="494.46" y2="440.76" style="fill:none;stroke:#0c0c0c;stroke-linecap:round;stroke-linejoin:round;stroke-width:3px"/><line x1="479.16" y1="456.06" x2="482.66" y2="452.56" style="fill:none;stroke:#0c0c0c;stroke-linecap:round;stroke-linejoin:round;stroke-width:3px"/><path d="M210.82,188.62c-7.4,0-7.4-10-14.8-10s-7.41,10-14.81,10-7.41-10-14.81-10-7.41,10-14.82,10-7.4-10-14.81-10" style="fill:none;stroke:#0c0c0c;stroke-linecap:round;stroke-linejoin:round;stroke-width:3px"/><line x1="833.51" y1="441.07" x2="841.01" y2="433.57" style="fill:none;stroke:#0c0c0c;stroke-linecap:round;stroke-linejoin:round;stroke-width:3px"/><line x1="841.01" y1="441.07" x2="833.51" y2="433.57" style="fill:none;stroke:#0c0c0c;stroke-linecap:round;stroke-linejoin:round;stroke-width:3px"/><line x1="817.33" y1="385.25" x2="812.38" y2="385.25" style="fill:none;stroke:#0c0c0c;stroke-linecap:round;stroke-linejoin:round;stroke-width:3px"/><line x1="800.65" y1="385.25" x2="795.7" y2="385.25" style="fill:none;stroke:#0c0c0c;stroke-linecap:round;stroke-linejoin:round;stroke-width:3px"/><line x1="806.51" y1="379.38" x2="806.51" y2="374.43" style="fill:none;stroke:#0c0c0c;stroke-linecap:round;stroke-linejoin:round;stroke-width:3px"/><line x1="806.51" y1="396.07" x2="806.51" y2="391.12" style="fill:none;stroke:#0c0c0c;stroke-linecap:round;stroke-linejoin:round;stroke-width:3px"/><line x1="1228.8" y1="489.78" x2="1236.3" y2="497.28" style="fill:none;stroke:#0c0c0c;stroke-linecap:round;stroke-linejoin:round;stroke-width:3px"/><line x1="1236.3" y1="489.78" x2="1228.8" y2="497.28" style="fill:none;stroke:#0c0c0c;stroke-linecap:round;stroke-linejoin:round;stroke-width:3px"/><circle cx="1199.12" cy="529.2" r="4.5" style="fill:none;stroke:#0c0c0c;stroke-linecap:round;stroke-linejoin:round;stroke-width:3px"/><line x1="426.84" y1="9.65" x2="434.34" y2="17.15" style="fill:none;stroke:#0c0c0c;stroke-linecap:round;stroke-linejoin:round;stroke-width:3px"/><line x1="434.34" y1="9.65" x2="426.84" y2="17.15" style="fill:none;stroke:#0c0c0c;stroke-linecap:round;stroke-linejoin:round;stroke-width:3px"/><circle cx="397.16" cy="49.08" r="4.5" style="fill:none;stroke:#0c0c0c;stroke-linecap:round;stroke-linejoin:round;stroke-width:3px"/><path d="M1107.67,159.3c7.4,0,7.4,10,14.8,10s7.41-10,14.81-10,7.41,10,14.81,10,7.41-10,14.81-10,7.41,10,14.82,10" style="fill:none;stroke:#0c0c0c;stroke-linecap:round;stroke-linejoin:round;stroke-width:3px"/><line x1="28.51" y1="537.43" x2="28.51" y2="542.38" style="fill:none;stroke:#0c0c0c;stroke-linecap:round;stroke-linejoin:round;stroke-width:3px"/><line x1="28.51" y1="554.12" x2="28.51" y2="559.07" style="fill:none;stroke:#0c0c0c;stroke-linecap:round;stroke-linejoin:round;stroke-width:3px"/><line x1="34.38" y1="548.25" x2="39.33" y2="548.25" style="fill:none;stroke:#0c0c0c;stroke-linecap:round;stroke-linejoin:round;stroke-width:3px"/><line x1="17.7" y1="548.25" x2="22.65" y2="548.25" style="fill:none;stroke:#0c0c0c;stroke-linecap:round;stroke-linejoin:round;stroke-width:3px"/><polyline points="921.49 480.94 934.18 490.94 946.88 480.94 959.58 490.94 972.28 480.94 984.99 490.94" style="fill:none;stroke:#0c0c0c;stroke-linecap:round;stroke-linejoin:round;stroke-width:3px"/><polyline points="601.46 125.9 614.15 135.9 626.85 125.9 639.55 135.9 652.25 125.9 664.96 135.9" style="fill:none;stroke:#0c0c0c;stroke-linecap:round;stroke-linejoin:round;stroke-width:3px"/><line x1="970.01" y1="155.06" x2="970.01" y2="227.06" style="fill:none;stroke:#0c0c0c;stroke-linecap:round;stroke-linejoin:round;stroke-width:3px;stroke-dasharray:8"/><g id="8f2be4d5-ba7b-4711-8fc6-1e5f235d7705" data-name="7"><line x1="87.32" y1="402.68" x2="118.24" y2="402.68" style="fill:none;stroke:#0c0c0c;stroke-linecap:round;stroke-linejoin:round;stroke-width:3px"/><line x1="87.32" y1="394.3" x2="118.24" y2="394.3" style="fill:none;stroke:#0c0c0c;stroke-linecap:round;stroke-linejoin:round;stroke-width:3px"/><line x1="88.26" y1="385.92" x2="121.27" y2="385.92" style="fill:none;stroke:#0c0c0c;stroke-linecap:round;stroke-linejoin:round;stroke-width:3px"/><line x1="96.39" y1="411.06" x2="109.16" y2="411.06" style="fill:none;stroke:#0c0c0c;stroke-linecap:round;stroke-linejoin:round;stroke-width:3px"/><path d="M121.71,377.35a51.4,51.4,0,0,1,8.34-20.69,32.91,32.91,0,1,0-54.06.71,46.68,46.68,0,0,1,8.42,27.26v1.29h36.73" style="fill:none;stroke:#0c0c0c;stroke-linecap:round;stroke-linejoin:round;stroke-width:3px"/><path d="M99.36,385.45S97,354.07,96.58,345.27c-.24-4.86-.61-11.46-6.86-11.46-4,0-7,2.6-7,7.3,0,7.13,8.8,6.65,13.91,6.4h5" style="fill:none;stroke:#0c0c0c;stroke-linecap:round;stroke-linejoin:round;stroke-width:3px"/><path d="M106.19,385.45s2.28-30.58,2.78-40.18c.25-4.86.61-11.46,6.86-11.46,4,0,7,2.6,7,7.3,0,4.11-2.47,6.14-6.38,6.25h-.59" style="fill:none;stroke:#0c0c0c;stroke-linecap:round;stroke-linejoin:round;stroke-width:3px"/><line x1="102.78" y1="296.42" x2="102.78" y2="294.79" style="fill:none;stroke:#0c0c0c;stroke-linecap:round;stroke-linejoin:round;stroke-width:3px"/><line x1="102.78" y1="296.42" x2="102.78" y2="294.79" style="fill:none;stroke:#0c0c0c;stroke-linecap:round;stroke-linejoin:round;stroke-width:3px"/><line x1="78.96" y1="304.16" x2="78" y2="302.84" style="fill:none;stroke:#0c0c0c;stroke-linecap:round;stroke-linejoin:round;stroke-width:3px"/><line x1="64.23" y1="324.42" x2="62.68" y2="323.92" style="fill:none;stroke:#0c0c0c;stroke-linecap:round;stroke-linejoin:round;stroke-width:3px"/><line x1="142.87" y1="349.97" x2="141.32" y2="349.47" style="fill:none;stroke:#0c0c0c;stroke-linecap:round;stroke-linejoin:round;stroke-width:3px"/><line x1="64.23" y1="349.47" x2="62.68" y2="349.97" style="fill:none;stroke:#0c0c0c;stroke-linecap:round;stroke-linejoin:round;stroke-width:3px"/><line x1="142.87" y1="323.92" x2="141.32" y2="324.42" style="fill:none;stroke:#0c0c0c;stroke-linecap:round;stroke-linejoin:round;stroke-width:3px"/><line x1="127.56" y1="302.84" x2="126.6" y2="304.16" style="fill:none;stroke:#0c0c0c;stroke-linecap:round;stroke-linejoin:round;stroke-width:3px"/></g><line x1="296.64" y1="507.66" x2="304.14" y2="515.16" style="fill:none;stroke:#0c0c0c;stroke-linecap:round;stroke-linejoin:round;stroke-width:3px"/><line x1="304.14" y1="507.66" x2="296.64" y2="515.16" style="fill:none;stroke:#0c0c0c;stroke-linecap:round;stroke-linejoin:round;stroke-width:3px"/><circle cx="326.64" cy="537.66" r="4.5" style="fill:none;stroke:#0c0c0c;stroke-linecap:round;stroke-linejoin:round;stroke-width:3px"/><g id="9fbbf7a9-2a1a-4f5d-bbec-ade79248adb3" data-name="19"><polyline points="1082.81 521.61 1082.81 495.02 1066.52 478.72 1011.15 478.72 1011.15 576.45 1059.96 576.45" style="fill:none;stroke:#050505;stroke-linecap:round;stroke-linejoin:round;stroke-width:3px"/><polyline points="1066.52 489.21 1066.52 478.72 1082.8 495.02 1069.81 495.02" style="fill:none;stroke:#050505;stroke-linecap:round;stroke-linejoin:round;stroke-width:3px"/><polyline points="1066.52 486.87 1066.52 495.02 1069.81 495.02" style="fill:none;stroke:#050505;stroke-linecap:round;stroke-linejoin:round;stroke-width:3px"/><polyline points="1106.05 532.68 1130.97 532.68 1130.97 576.46 1070.37 576.46 1070.37 532.68 1106.05 532.68" style="fill:none;stroke:#050505;stroke-linecap:round;stroke-linejoin:round;stroke-width:3px"/><polyline points="1080.62 541.62 1100.8 555.28 1121.23 541.46" style="fill:none;stroke:#050505;stroke-linecap:round;stroke-linejoin:round;stroke-width:3px"/><line x1="1021.19" y1="514.69" x2="1062.02" y2="514.69" style="fill:none;stroke:#050505;stroke-linecap:round;stroke-linejoin:round;stroke-width:3px"/><line x1="1021.19" y1="524.7" x2="1062.02" y2="524.7" style="fill:none;stroke:#050505;stroke-linecap:round;stroke-linejoin:round;stroke-width:3px"/><line x1="1021.19" y1="534.72" x2="1041.6" y2="534.72" style="fill:none;stroke:#050505;stroke-linecap:round;stroke-linejoin:round;stroke-width:3px"/><rect x="1091.01" y="496.01" width="40.09" height="25.6" style="fill:none;stroke:#050505;stroke-linecap:round;stroke-linejoin:round;stroke-width:3px"/><polygon points="1148.72 564.93 1144.82 572.04 1143.59 572.04 1139.7 564.93 1139.7 509 1148.72 509 1148.72 564.93" style="fill:none;stroke:#050505;stroke-linecap:round;stroke-linejoin:round;stroke-width:3px"/><line x1="1144.21" y1="572.04" x2="1144.21" y2="576.33" style="fill:none;stroke:#050505;stroke-linecap:round;stroke-linejoin:round;stroke-width:3px"/><polyline points="1155.7 530.88 1155.7 516.11 1149.99 516.11" style="fill:none;stroke:#050505;stroke-linecap:round;stroke-linejoin:round;stroke-width:3px"/><path d="M1034.83,497.72a5.88,5.88,0,1,0-5.88,5.88A5.87,5.87,0,0,0,1034.83,497.72Z" style="fill:none;stroke:#050505;stroke-linecap:round;stroke-linejoin:round;stroke-width:3px"/><path d="M1122.35,563a4.37,4.37,0,1,0-4.37,4.37A4.37,4.37,0,0,0,1122.35,563Z" style="fill:none;stroke:#050505;stroke-linecap:round;stroke-linejoin:round;stroke-width:3px"/><line x1="1099.71" y1="504.48" x2="1117.01" y2="504.48" style="fill:none;stroke:#050505;stroke-linecap:round;stroke-linejoin:round;stroke-width:3px"/><line x1="1099.71" y1="512.34" x2="1122.41" y2="512.34" style="fill:none;stroke:#050505;stroke-linecap:round;stroke-linejoin:round;stroke-width:3px"/></g><g id="ba2b40f7-1978-4ba2-af9c-ac89bcd3c015" data-name="2"><rect x="626.05" y="401.12" width="130.73" height="85.96" style="fill:none;stroke:#0c0c0c;stroke-linecap:round;stroke-linejoin:round;stroke-width:3px"/><polyline points="626.05 401.13 649.54 431.93 671.83 431.93" style="fill:none;stroke:#0c0c0c;stroke-linecap:round;stroke-linejoin:round;stroke-width:3px"/><polyline points="704.32 431.93 733.29 431.93 746.91 414.07" style="fill:none;stroke:#0c0c0c;stroke-linecap:round;stroke-linejoin:round;stroke-width:3px"/><path d="M673.74,401.13V389.41a3.69,3.69,0,0,1,3.69-3.69h28a3.69,3.69,0,0,1,3.69,3.69v1.88" style="fill:none;stroke:#0c0c0c;stroke-linecap:round;stroke-linejoin:round;stroke-width:3px"/><rect x="678.51" y="424.57" width="25.8" height="14.73" style="fill:none;stroke:#0c0c0c;stroke-linecap:round;stroke-linejoin:round;stroke-width:3px"/><polyline points="736.03 455.03 736.03 469.76 646.8 469.76 646.8 462.39" style="fill:none;stroke:#0c0c0c;stroke-linecap:round;stroke-linejoin:round;stroke-width:3px"/></g><circle cx="59.82" cy="123.13" r="38.64" style="fill:none;stroke:#0c0c0c;stroke-linecap:round;stroke-linejoin:round;stroke-width:3px"/><polyline points="59.82 116.23 59.82 123.13 74.56 113.43" style="fill:none;stroke:#0c0c0c;stroke-linecap:round;stroke-linejoin:round;stroke-width:3px"/><line x1="59.82" y1="84.49" x2="59.82" y2="93.54" style="fill:none;stroke:#0c0c0c;stroke-linecap:round;stroke-linejoin:round;stroke-width:3px"/><line x1="40.5" y1="89.67" x2="45.02" y2="97.5" style="fill:none;stroke:#0c0c0c;stroke-linecap:round;stroke-linejoin:round;stroke-width:3px"/><line x1="26.36" y1="103.81" x2="34.19" y2="108.33" style="fill:none;stroke:#0c0c0c;stroke-linecap:round;stroke-linejoin:round;stroke-width:3px"/><line x1="21.18" y1="123.13" x2="30.23" y2="123.13" style="fill:none;stroke:#0c0c0c;stroke-linecap:round;stroke-linejoin:round;stroke-width:3px"/><line x1="26.36" y1="142.45" x2="34.19" y2="137.93" style="fill:none;stroke:#0c0c0c;stroke-linecap:round;stroke-linejoin:round;stroke-width:3px"/><line x1="40.5" y1="156.59" x2="45.02" y2="148.76" style="fill:none;stroke:#0c0c0c;stroke-linecap:round;stroke-linejoin:round;stroke-width:3px"/><line x1="59.82" y1="161.77" x2="59.82" y2="152.73" style="fill:none;stroke:#0c0c0c;stroke-linecap:round;stroke-linejoin:round;stroke-width:3px"/><line x1="79.14" y1="156.59" x2="74.62" y2="148.76" style="fill:none;stroke:#0c0c0c;stroke-linecap:round;stroke-linejoin:round;stroke-width:3px"/><line x1="93.28" y1="142.45" x2="85.45" y2="137.93" style="fill:none;stroke:#0c0c0c;stroke-linecap:round;stroke-linejoin:round;stroke-width:3px"/><line x1="98.46" y1="123.13" x2="89.42" y2="123.13" style="fill:none;stroke:#0c0c0c;stroke-linecap:round;stroke-linejoin:round;stroke-width:3px"/><line x1="93.28" y1="103.81" x2="85.45" y2="108.33" style="fill:none;stroke:#0c0c0c;stroke-linecap:round;stroke-linejoin:round;stroke-width:3px"/><line x1="79.14" y1="89.67" x2="74.62" y2="97.5" style="fill:none;stroke:#0c0c0c;stroke-linecap:round;stroke-linejoin:round;stroke-width:3px"/><path d="M30.85,89.13,45.32,79A17.69,17.69,0,0,0,16.38,99.31Z" style="fill:none;stroke:#0c0c0c;stroke-linecap:round;stroke-linejoin:round;stroke-width:3px"/><path d="M87.86,89.13,73.39,79a17.69,17.69,0,1,1,28.94,20.36Z" style="fill:none;stroke:#0c0c0c;stroke-linecap:round;stroke-linejoin:round;stroke-width:3px"/><line x1="22.53" y1="164.92" x2="31.26" y2="149.8" style="fill:none;stroke:#0c0c0c;stroke-linecap:round;stroke-linejoin:round;stroke-width:3px"/><line x1="97.11" y1="164.92" x2="88.38" y2="149.8" style="fill:none;stroke:#0c0c0c;stroke-linecap:round;stroke-linejoin:round;stroke-width:3px"/><line x1="17.26" y1="70.42" x2="20.67" y2="74.66" style="fill:none;stroke:#0c0c0c;stroke-linecap:round;stroke-linejoin:round;stroke-width:3px"/><line x1="101.44" y1="70.42" x2="98.04" y2="74.66" style="fill:none;stroke:#0c0c0c;stroke-linecap:round;stroke-linejoin:round;stroke-width:3px"/></svg>