<svg xmlns="http://www.w3.org/2000/svg" width="463" height="463" viewBox="0 0 463 463"><defs><clipPath id="que3a"><path d="M67.901 67.503c-90.299 90.301-90.299 236.707 0 327.006 90.301 90.301 236.707 90.301 327.006 0 90.301-90.299 90.301-236.705 0-327.006C349.758 22.353 290.581-.222 231.405-.222c-59.177 0-118.353 22.575-163.504 67.725z"/></clipPath><clipPath id="que3b"><path d="M67.901 67.503c-90.299 90.301-90.299 236.707 0 327.006 90.301 90.301 236.707 90.301 327.006 0 90.301-90.299 90.301-236.705 0-327.006C349.758 22.353 290.581-.222 231.405-.222c-59.177 0-118.353 22.575-163.504 67.725z"/></clipPath><clipPath id="que3c"><path d="M67.901 67.503c-90.299 90.301-90.299 236.707 0 327.006 90.301 90.301 236.707 90.301 327.006 0 90.301-90.299 90.301-236.705 0-327.006C349.758 22.353 290.581-.222 231.405-.222c-59.177 0-118.353 22.575-163.504 67.725z"/></clipPath><clipPath id="que3d"><path d="M67.901 67.503c-90.299 90.301-90.299 236.707 0 327.006 90.301 90.301 236.707 90.301 327.006 0 90.301-90.299 90.301-236.705 0-327.006C349.758 22.353 290.581-.222 231.405-.222c-59.177 0-118.353 22.575-163.504 67.725z"/></clipPath><clipPath id="que3e"><path d="M67.901 67.503c-90.299 90.301-90.299 236.707 0 327.006 90.301 90.301 236.707 90.301 327.006 0 90.301-90.299 90.301-236.705 0-327.006C349.758 22.353 290.581-.222 231.405-.222c-59.177 0-118.353 22.575-163.504 67.725z"/></clipPath><clipPath id="que3f"><path d="M67.901 67.503c-90.299 90.301-90.299 236.707 0 327.006 90.301 90.301 236.707 90.301 327.006 0 90.301-90.299 90.301-236.705 0-327.006C349.758 22.353 290.581-.222 231.405-.222c-59.177 0-118.353 22.575-163.504 67.725z"/></clipPath><clipPath id="que3g"><path d="M67.901 67.503c-90.299 90.301-90.299 236.707 0 327.006 90.301 90.301 236.707 90.301 327.006 0 90.301-90.299 90.301-236.705 0-327.006C349.758 22.353 290.581-.222 231.405-.222c-59.177 0-118.353 22.575-163.504 67.725z"/></clipPath><clipPath id="que3h"><path d="M67.901 67.503c-90.299 90.301-90.299 236.707 0 327.006 90.301 90.301 236.707 90.301 327.006 0 90.301-90.299 90.301-236.705 0-327.006C349.758 22.353 290.581-.222 231.405-.222c-59.177 0-118.353 22.575-163.504 67.725z"/></clipPath><clipPath id="que3i"><path d="M67.901 67.503c-90.299 90.301-90.299 236.707 0 327.006 90.301 90.301 236.707 90.301 327.006 0 90.301-90.299 90.301-236.705 0-327.006C349.758 22.353 290.581-.222 231.405-.222c-59.177 0-118.353 22.575-163.504 67.725z"/></clipPath><clipPath id="que3j"><path d="M67.901 67.503c-90.299 90.301-90.299 236.707 0 327.006 90.301 90.301 236.707 90.301 327.006 0 90.301-90.299 90.301-236.705 0-327.006C349.758 22.353 290.581-.222 231.405-.222c-59.177 0-118.353 22.575-163.504 67.725z"/></clipPath><clipPath id="que3k"><path d="M67.901 67.503c-90.299 90.301-90.299 236.707 0 327.006 90.301 90.301 236.707 90.301 327.006 0 90.301-90.299 90.301-236.705 0-327.006C349.758 22.353 290.581-.222 231.405-.222c-59.177 0-118.353 22.575-163.504 67.725z"/></clipPath><clipPath id="que3l"><path d="M67.901 67.503c-90.299 90.301-90.299 236.707 0 327.006 90.301 90.301 236.707 90.301 327.006 0 90.301-90.299 90.301-236.705 0-327.006C349.758 22.353 290.581-.222 231.405-.222c-59.177 0-118.353 22.575-163.504 67.725z"/></clipPath><clipPath id="que3m"><path d="M67.901 67.503c-90.299 90.301-90.299 236.707 0 327.006 90.301 90.301 236.707 90.301 327.006 0 90.301-90.299 90.301-236.705 0-327.006C349.758 22.353 290.581-.222 231.405-.222c-59.177 0-118.353 22.575-163.504 67.725z"/></clipPath><clipPath id="que3n"><path d="M67.901 67.503c-90.299 90.301-90.299 236.707 0 327.006 90.301 90.301 236.707 90.301 327.006 0 90.301-90.299 90.301-236.705 0-327.006C349.758 22.353 290.581-.222 231.405-.222c-59.177 0-118.353 22.575-163.504 67.725z"/></clipPath><clipPath id="que3o"><path d="M67.901 67.503c-90.299 90.301-90.299 236.707 0 327.006 90.301 90.301 236.707 90.301 327.006 0 90.301-90.299 90.301-236.705 0-327.006C349.758 22.353 290.581-.222 231.405-.222c-59.177 0-118.353 22.575-163.504 67.725z"/></clipPath><clipPath id="que3p"><path d="M67.901 67.503c-90.299 90.301-90.299 236.707 0 327.006 90.301 90.301 236.707 90.301 327.006 0 90.301-90.299 90.301-236.705 0-327.006C349.758 22.353 290.581-.222 231.405-.222c-59.177 0-118.353 22.575-163.504 67.725z"/></clipPath><clipPath id="que3q"><path d="M67.901 67.503c-90.299 90.301-90.299 236.707 0 327.006 90.301 90.301 236.707 90.301 327.006 0 90.301-90.299 90.301-236.705 0-327.006C349.758 22.353 290.581-.222 231.405-.222c-59.177 0-118.353 22.575-163.504 67.725z"/></clipPath><clipPath id="que3r"><path d="M67.901 67.503c-90.299 90.301-90.299 236.707 0 327.006 90.301 90.301 236.707 90.301 327.006 0 90.301-90.299 90.301-236.705 0-327.006C349.758 22.353 290.581-.222 231.405-.222c-59.177 0-118.353 22.575-163.504 67.725z"/></clipPath><clipPath id="que3s"><path d="M67.901 67.503c-90.299 90.301-90.299 236.707 0 327.006 90.301 90.301 236.707 90.301 327.006 0 90.301-90.299 90.301-236.705 0-327.006C349.758 22.353 290.581-.222 231.405-.222c-59.177 0-118.353 22.575-163.504 67.725z"/></clipPath><clipPath id="que3t"><path d="M67.901 67.503c-90.299 90.301-90.299 236.707 0 327.006 90.301 90.301 236.707 90.301 327.006 0 90.301-90.299 90.301-236.705 0-327.006C349.758 22.353 290.581-.222 231.405-.222c-59.177 0-118.353 22.575-163.504 67.725z"/></clipPath><clipPath id="que3u"><path d="M67.901 67.503c-90.299 90.301-90.299 236.707 0 327.006 90.301 90.301 236.707 90.301 327.006 0 90.301-90.299 90.301-236.705 0-327.006C349.758 22.353 290.581-.222 231.405-.222c-59.177 0-118.353 22.575-163.504 67.725z"/></clipPath><clipPath id="que3v"><path d="M67.901 67.503c-90.299 90.301-90.299 236.707 0 327.006 90.301 90.301 236.707 90.301 327.006 0 90.301-90.299 90.301-236.705 0-327.006C349.758 22.353 290.581-.222 231.405-.222c-59.177 0-118.353 22.575-163.504 67.725z"/></clipPath><clipPath id="que3w"><path d="M67.901 67.503c-90.299 90.301-90.299 236.707 0 327.006 90.301 90.301 236.707 90.301 327.006 0 90.301-90.299 90.301-236.705 0-327.006C349.758 22.353 290.581-.222 231.405-.222c-59.177 0-118.353 22.575-163.504 67.725z"/></clipPath><clipPath id="que3x"><path d="M67.901 67.503c-90.299 90.301-90.299 236.707 0 327.006 90.301 90.301 236.707 90.301 327.006 0 90.301-90.299 90.301-236.705 0-327.006C349.758 22.353 290.581-.222 231.405-.222c-59.177 0-118.353 22.575-163.504 67.725z"/></clipPath><clipPath id="que3y"><path d="M67.901 67.503c-90.299 90.301-90.299 236.707 0 327.006 90.301 90.301 236.707 90.301 327.006 0 90.301-90.299 90.301-236.705 0-327.006C349.758 22.353 290.581-.222 231.405-.222c-59.177 0-118.353 22.575-163.504 67.725z"/></clipPath><clipPath id="que3z"><path d="M67.901 67.503c-90.299 90.301-90.299 236.707 0 327.006 90.301 90.301 236.707 90.301 327.006 0 90.301-90.299 90.301-236.705 0-327.006C349.758 22.353 290.581-.222 231.405-.222c-59.177 0-118.353 22.575-163.504 67.725z"/></clipPath></defs><g><g/><g clip-path="url(#que3a)"><path fill="none" stroke="#fff" stroke-miterlimit="20" d="M-108.038 243.443l351.88-351.88"/></g><g/><g clip-path="url(#que3b)"><path fill="none" stroke="#fff" stroke-miterlimit="20" d="M-94.718 256.764l351.881-351.88"/></g><g/><g clip-path="url(#que3c)"><path fill="none" stroke="#fff" stroke-miterlimit="20" d="M-81.397 270.085l351.88-351.881"/></g><g/><g clip-path="url(#que3d)"><path fill="none" stroke="#fff" stroke-miterlimit="20" d="M-68.077 283.405l351.88-351.88"/></g><g/><g clip-path="url(#que3e)"><path fill="none" stroke="#fff" stroke-miterlimit="20" d="M-54.757 296.726L297.124-55.155"/></g><g/><g clip-path="url(#que3f)"><path fill="none" stroke="#fff" stroke-miterlimit="20" d="M-41.437 310.046L310.444-41.835"/></g><g/><g clip-path="url(#que3g)"><path fill="none" stroke="#fff" stroke-miterlimit="20" d="M-28.116 323.366l351.88-351.88"/></g><g/><g clip-path="url(#que3h)"><path fill="none" stroke="#fff" stroke-miterlimit="20" d="M-14.796 336.687L337.085-15.194"/></g><g/><g clip-path="url(#que3i)"><path fill="none" stroke="#fff" stroke-miterlimit="20" d="M-1.476 350.007L350.405-1.874"/></g><g/><g clip-path="url(#que3j)"><path fill="none" stroke="#fff" stroke-miterlimit="20" d="M11.845 363.327l351.88-351.88"/></g><g/><g clip-path="url(#que3k)"><path fill="none" stroke="#fff" stroke-miterlimit="20" d="M25.166 376.648l351.88-351.881"/></g><g/><g clip-path="url(#que3l)"><path fill="none" stroke="#fff" stroke-miterlimit="20" d="M38.486 389.968l351.881-351.88"/></g><g/><g clip-path="url(#que3m)"><path fill="none" stroke="#fff" stroke-miterlimit="20" d="M51.807 403.29l351.88-351.882"/></g><g/><g clip-path="url(#que3n)"><path fill="none" stroke="#fff" stroke-miterlimit="20" d="M65.127 416.61L417.008 64.729"/></g><g/><g clip-path="url(#que3o)"><path fill="none" stroke="#fff" stroke-miterlimit="20" d="M78.447 429.93L430.328 78.049"/></g><g/><g clip-path="url(#que3p)"><path fill="none" stroke="#fff" stroke-miterlimit="20" d="M91.768 443.25l351.88-351.88"/></g><g/><g clip-path="url(#que3q)"><path fill="none" stroke="#fff" stroke-miterlimit="20" d="M105.088 456.57l351.88-351.88"/></g><g/><g clip-path="url(#que3r)"><path fill="none" stroke="#fff" stroke-miterlimit="20" d="M118.408 469.89L470.29 118.01"/></g><g/><g clip-path="url(#que3s)"><path fill="none" stroke="#fff" stroke-miterlimit="20" d="M131.728 483.211L483.61 131.33"/></g><g/><g clip-path="url(#que3t)"><path fill="none" stroke="#fff" stroke-miterlimit="20" d="M145.049 496.531l351.88-351.88"/></g><g/><g clip-path="url(#que3u)"><path fill="none" stroke="#fff" stroke-miterlimit="20" d="M158.37 509.852L510.25 157.97"/></g><g/><g clip-path="url(#que3v)"><path fill="none" stroke="#fff" stroke-miterlimit="20" d="M171.69 523.172l351.881-351.88"/></g><g/><g clip-path="url(#que3w)"><path fill="none" stroke="#fff" stroke-miterlimit="20" d="M185.01 536.493l351.882-351.88"/></g><g/><g clip-path="url(#que3x)"><path fill="none" stroke="#fff" stroke-miterlimit="20" d="M198.331 549.814l351.881-351.881"/></g><g/><g clip-path="url(#que3y)"><path fill="none" stroke="#fff" stroke-miterlimit="20" d="M211.651 563.134l351.881-351.881"/></g><g/><g clip-path="url(#que3z)"><path fill="none" stroke="#fff" stroke-miterlimit="20" d="M224.972 576.454l351.88-351.88"/></g></g></svg>