<svg xmlns="http://www.w3.org/2000/svg" viewBox="0 0 254.83 175.19"><defs><style>.ec18e196-9b30-45d2-b788-12cf195656f6{font-size:140px;fill:#fecd30;font-family:BebasNeueBold, Bebas Neue;}.a858f42e-7aa8-4424-9290-699c7ce85e32,.b18626d5-b4e2-409f-9484-e43c37f3aaba{fill:none;stroke-linecap:round;stroke-linejoin:round;stroke-width:3px;}.b18626d5-b4e2-409f-9484-e43c37f3aaba{stroke:#fecd30;}.a858f42e-7aa8-4424-9290-699c7ce85e32{stroke:#fff;}</style></defs><g id="b0d4786e-6c03-4965-838d-b9ace6b30277" data-name="Layer 2"><g id="b6af68f3-f461-4a8e-ab06-67f8afb8a40b" data-name="Слой 1"><text class="ec18e196-9b30-45d2-b788-12cf195656f6" transform="translate(143.95 151.61)">01</text><line class="b18626d5-b4e2-409f-9484-e43c37f3aaba" x1="36" y1="1.5" x2="28.5" y2="9"/><line class="b18626d5-b4e2-409f-9484-e43c37f3aaba" x1="36" y1="9" x2="28.5" y2="1.5"/><circle class="b18626d5-b4e2-409f-9484-e43c37f3aaba" cx="6" cy="31.5" r="4.5"/><circle class="b18626d5-b4e2-409f-9484-e43c37f3aaba" cx="177.39" cy="31.19" r="4.5"/><line class="b18626d5-b4e2-409f-9484-e43c37f3aaba" x1="196.59" y1="173.69" x2="200.09" y2="170.19"/><line class="b18626d5-b4e2-409f-9484-e43c37f3aaba" x1="208.39" y1="161.89" x2="211.89" y2="158.39"/><line class="b18626d5-b4e2-409f-9484-e43c37f3aaba" x1="200.09" y1="161.89" x2="196.59" y2="158.39"/><line class="b18626d5-b4e2-409f-9484-e43c37f3aaba" x1="211.89" y1="173.69" x2="208.39" y2="170.19"/><polyline class="b18626d5-b4e2-409f-9484-e43c37f3aaba" points="104.47 171.59 89.66 161.59 74.85 171.59 60.05 161.59 45.23 171.59 30.42 161.59"/><path class="a858f42e-7aa8-4424-9290-699c7ce85e32" d="M75.23,60.73h61A2.73,2.73,0,0,1,139,63.46v51.28l-8.51-8.52a2.72,2.72,0,0,0-1.94-.81h-52a5.29,5.29,0,0,1-5.29-5.29V64.75A4,4,0,0,1,75.23,60.73Z"/><path class="a858f42e-7aa8-4424-9290-699c7ce85e32" d="M88.11,55.36V33.16a3.91,3.91,0,0,0-3.9-3.9h-59a2.65,2.65,0,0,0-2.65,2.65V81.63l8.26-8.27a2.61,2.61,0,0,1,1.87-.78H65.83"/><path class="a858f42e-7aa8-4424-9290-699c7ce85e32" d="M65.83,93.85H25.21a2.65,2.65,0,0,0-2.65,2.65v49.71L30.82,138a2.61,2.61,0,0,1,1.87-.78H83A5.13,5.13,0,0,0,88.11,132V110.79"/><line class="a858f42e-7aa8-4424-9290-699c7ce85e32" x1="41.19" y1="44.15" x2="69.68" y2="44.15"/><line class="a858f42e-7aa8-4424-9290-699c7ce85e32" x1="41.19" y1="56.57" x2="69.68" y2="56.57"/><path class="a858f42e-7aa8-4424-9290-699c7ce85e32" d="M97.37,90.3V87.93a5.15,5.15,0,0,1,2.83-4.6h0a5.55,5.55,0,0,0,3.1-4.82c0-.11,0-.22,0-.33a5.93,5.93,0,0,0-11.85.25"/><path class="a858f42e-7aa8-4424-9290-699c7ce85e32" d="M97.46,95.46a.09.09,0,1,1-.18,0,.09.09,0,1,1,.18,0Z"/><path class="a858f42e-7aa8-4424-9290-699c7ce85e32" d="M113.4,95.46a.09.09,0,1,1-.18,0,.09.09,0,1,1,.18,0Z"/><line class="a858f42e-7aa8-4424-9290-699c7ce85e32" x1="113.31" y1="72.51" x2="113.31" y2="90.3"/><path class="a858f42e-7aa8-4424-9290-699c7ce85e32" d="M55.33,105.82l2.38,4.81a3.55,3.55,0,0,0,2.67,1.94l5.3.77h0l-3.84,3.74a3.58,3.58,0,0,0-1,3.14l.91,5.28L57,123a3.51,3.51,0,0,0-3.3,0l-4.74,2.49.91-5.28a3.58,3.58,0,0,0-1-3.14L45,113.34h0l5.3-.77A3.55,3.55,0,0,0,53,110.63Z"/></g></g></svg>