<svg xmlns="http://www.w3.org/2000/svg" viewBox="0 0 252.51 163.86"><defs><style>.b2b9f646-8bdc-4769-b8e2-dfc56b14b7cc{font-size:140px;fill:#fecd30;font-family:BebasNeueBold, Bebas Neue;}.bb9cf68d-54f5-48ad-9e0d-5c5f22004bbe,.f371e6b1-2f0e-4d34-a880-10439c4435a9{fill:none;stroke-linecap:round;stroke-linejoin:round;stroke-width:3px;}.f371e6b1-2f0e-4d34-a880-10439c4435a9{stroke:#fecd30;}.bb9cf68d-54f5-48ad-9e0d-5c5f22004bbe{stroke:#fff;}</style></defs><g id="a08f59f5-a116-4c05-875b-84b02fd46f03" data-name="Layer 2"><g id="b7ecefca-1fa3-49e8-81de-3916f0810b87" data-name="Слой 1"><text class="b2b9f646-8bdc-4769-b8e2-dfc56b14b7cc" transform="translate(141.63 143.29)">03</text><line class="f371e6b1-2f0e-4d34-a880-10439c4435a9" x1="35.49" y1="152.29" x2="42.99" y2="159.79"/><line class="f371e6b1-2f0e-4d34-a880-10439c4435a9" x1="42.99" y1="152.29" x2="35.49" y2="159.79"/><circle class="f371e6b1-2f0e-4d34-a880-10439c4435a9" cx="158.21" cy="6" r="4.5"/><path class="f371e6b1-2f0e-4d34-a880-10439c4435a9" d="M1.5,96.79c0-7.4,10-7.4,10-14.81s-10-7.4-10-14.81,10-7.4,10-14.8S1.5,45,1.5,37.55s10-7.4,10-14.81"/><polygon class="f371e6b1-2f0e-4d34-a880-10439c4435a9" points="204.8 23.02 188.97 13.88 188.97 32.16 204.8 23.02"/><rect class="bb9cf68d-54f5-48ad-9e0d-5c5f22004bbe" x="19.78" y="74.66" width="30.56" height="16.98" rx="2.01" transform="translate(70.13 166.29) rotate(180)"/><rect class="bb9cf68d-54f5-48ad-9e0d-5c5f22004bbe" x="62.21" y="74.66" width="30.55" height="16.98" rx="2.01"/><rect class="bb9cf68d-54f5-48ad-9e0d-5c5f22004bbe" x="62.21" y="114.68" width="30.55" height="16.98" rx="2.01"/><rect class="bb9cf68d-54f5-48ad-9e0d-5c5f22004bbe" x="62.21" y="34.63" width="30.55" height="16.98" rx="2.01"/><rect class="bb9cf68d-54f5-48ad-9e0d-5c5f22004bbe" x="104.64" y="74.66" width="30.55" height="16.98" rx="2.01"/><path class="bb9cf68d-54f5-48ad-9e0d-5c5f22004bbe" d="M35.06,74.66V66.88a3.75,3.75,0,0,1,3.75-3.75H77.49V51.61"/><path class="bb9cf68d-54f5-48ad-9e0d-5c5f22004bbe" d="M119.91,74.66V66.88a3.74,3.74,0,0,0-3.74-3.75H77.49"/><line class="bb9cf68d-54f5-48ad-9e0d-5c5f22004bbe" x1="77.49" y1="74.66" x2="77.49" y2="63.13"/><line class="bb9cf68d-54f5-48ad-9e0d-5c5f22004bbe" x1="77.49" y1="91.63" x2="77.49" y2="114.68"/></g></g></svg>