<svg xmlns="http://www.w3.org/2000/svg" viewBox="0 0 264.21 194.12"><defs><style>.b202f2f8-75cc-42b4-ba5f-81fdbed50515{font-size:140px;fill:#fecd30;font-family:BebasNeueBold, Bebas Neue;}.aa1c8d22-4dea-4fa2-9357-833ecc17c09b,.fdf8bea0-ae1e-4fcf-9cb2-44f630aa26aa{fill:none;stroke-linecap:round;stroke-linejoin:round;stroke-width:3px;}.fdf8bea0-ae1e-4fcf-9cb2-44f630aa26aa{stroke:#fecd30;}.aa1c8d22-4dea-4fa2-9357-833ecc17c09b{stroke:#fff;}</style></defs><g id="beb59a00-3edc-44d7-b35b-74327ae0cd3a" data-name="Layer 2"><g id="e70144b3-1a68-4960-82c7-0fb0c4c28bd2" data-name="Слой 1"><text class="b202f2f8-75cc-42b4-ba5f-81fdbed50515" transform="translate(153.33 163.75)">02</text><line class="fdf8bea0-ae1e-4fcf-9cb2-44f630aa26aa" x1="158.58" y1="21.73" x2="166.36" y2="21.73"/><line class="fdf8bea0-ae1e-4fcf-9cb2-44f630aa26aa" x1="127.05" y1="32.63" x2="149.53" y2="32.63"/><line class="fdf8bea0-ae1e-4fcf-9cb2-44f630aa26aa" x1="127.05" y1="21.73" x2="135.24" y2="21.73"/><line class="fdf8bea0-ae1e-4fcf-9cb2-44f630aa26aa" x1="145.21" y1="21.73" x2="148.58" y2="21.73"/><line class="fdf8bea0-ae1e-4fcf-9cb2-44f630aa26aa" x1="158.58" y1="32.63" x2="161.94" y2="32.63"/><polygon class="fdf8bea0-ae1e-4fcf-9cb2-44f630aa26aa" points="139.49 183.48 123.66 174.34 123.66 192.62 139.49 183.48"/><line class="fdf8bea0-ae1e-4fcf-9cb2-44f630aa26aa" x1="172.17" y1="9" x2="179.67" y2="1.5"/><line class="fdf8bea0-ae1e-4fcf-9cb2-44f630aa26aa" x1="179.67" y1="9" x2="172.17" y2="1.5"/><circle class="fdf8bea0-ae1e-4fcf-9cb2-44f630aa26aa" cx="46.73" cy="8.33" r="4.5"/><line class="fdf8bea0-ae1e-4fcf-9cb2-44f630aa26aa" x1="23.14" y1="56.33" x2="18.19" y2="56.33"/><line class="fdf8bea0-ae1e-4fcf-9cb2-44f630aa26aa" x1="6.45" y1="56.33" x2="1.5" y2="56.33"/><line class="fdf8bea0-ae1e-4fcf-9cb2-44f630aa26aa" x1="12.32" y1="50.46" x2="12.32" y2="45.51"/><line class="fdf8bea0-ae1e-4fcf-9cb2-44f630aa26aa" x1="12.32" y1="67.15" x2="12.32" y2="62.2"/><path class="aa1c8d22-4dea-4fa2-9357-833ecc17c09b" d="M87.73,111.59s17.39-8,35.5,6.3l-7.82,3.45a11,11,0,0,0,10.69,3.3s5.54,5.25,6.14,9.22l-3.08,1a3.43,3.43,0,0,0,.2,6.58,15,15,0,0,0,7.33.07s7.92,13.86,3,22"/><path class="aa1c8d22-4dea-4fa2-9357-833ecc17c09b" d="M87.73,111.59s-8,17.39,6.3,35.5l3.45-7.82a11,11,0,0,1,3.3,10.69s5.25,5.54,9.22,6.15l1-3.1a3.43,3.43,0,0,1,6.57.21,15.09,15.09,0,0,1,.09,7.34s13.85,7.91,22,3"/><line class="aa1c8d22-4dea-4fa2-9357-833ecc17c09b" x1="74.27" y1="98.13" x2="133.66" y2="157.52"/><path class="aa1c8d22-4dea-4fa2-9357-833ecc17c09b" d="M85.48,150.19H50.17V46.08H110a5,5,0,0,1,5,5v6.26h6.25a5,5,0,0,1,5,5v48.08"/><line class="aa1c8d22-4dea-4fa2-9357-833ecc17c09b" x1="74.27" y1="86.99" x2="100.26" y2="86.99"/><line class="aa1c8d22-4dea-4fa2-9357-833ecc17c09b" x1="74.27" y1="74.95" x2="100.26" y2="74.95"/></g></g></svg>