<svg xmlns="http://www.w3.org/2000/svg" viewBox="0 0 248.85 155.62"><defs><style>.b6391921-1f83-4720-a3e2-82c15264a962{font-size:140px;fill:#fecd30;font-family:BebasNeueBold, Bebas Neue;}.b94e3a87-5baa-48d0-a13e-af0395450d1f,.f0470ed2-3545-4467-892a-4ed50b7b2d70{fill:none;stroke-linecap:round;stroke-linejoin:round;stroke-width:3px;}.f0470ed2-3545-4467-892a-4ed50b7b2d70{stroke:#fecd30;}.b94e3a87-5baa-48d0-a13e-af0395450d1f{stroke:#fff;}</style></defs><g id="fd4dff68-36ff-4e0f-a4cf-266f47cbf0c9" data-name="Layer 2"><g id="efa778c3-0aca-4762-8904-d9f9132f47dc" data-name="Слой 1"><text class="b6391921-1f83-4720-a3e2-82c15264a962" transform="translate(137.97 131.62)">05</text><g id="ae1b4ba6-66e3-45a5-995d-804cfd5b6225" data-name="19"><line class="f0470ed2-3545-4467-892a-4ed50b7b2d70" x1="44" y1="146.62" x2="51.5" y2="154.12"/><line class="f0470ed2-3545-4467-892a-4ed50b7b2d70" x1="51.5" y1="146.62" x2="44" y2="154.12"/><circle class="f0470ed2-3545-4467-892a-4ed50b7b2d70" cx="166.71" cy="6" r="4.5"/><line class="f0470ed2-3545-4467-892a-4ed50b7b2d70" x1="215.53" y1="28.14" x2="212.03" y2="24.64"/><line class="f0470ed2-3545-4467-892a-4ed50b7b2d70" x1="203.74" y1="16.34" x2="200.24" y2="12.84"/><line class="f0470ed2-3545-4467-892a-4ed50b7b2d70" x1="203.74" y1="24.64" x2="200.24" y2="28.14"/><line class="f0470ed2-3545-4467-892a-4ed50b7b2d70" x1="215.53" y1="12.84" x2="212.03" y2="16.34"/><path class="f0470ed2-3545-4467-892a-4ed50b7b2d70" d="M1.5,91.12c0-7.4,10-7.4,10-14.8s-10-7.41-10-14.81,10-7.41,10-14.81-10-7.41-10-14.82,10-7.4,10-14.81"/><path class="b94e3a87-5baa-48d0-a13e-af0395450d1f" d="M88.92,47.92h44.15V116a8.76,8.76,0,0,1-8.77,8.77H19V56.68a8.77,8.77,0,0,1,8.77-8.76H63.4"/><line class="b94e3a87-5baa-48d0-a13e-af0395450d1f" x1="37.08" y1="47.92" x2="37.08" y2="124.77"/><line class="b94e3a87-5baa-48d0-a13e-af0395450d1f" x1="114.98" y1="47.92" x2="114.98" y2="124.77"/><line class="b94e3a87-5baa-48d0-a13e-af0395450d1f" x1="18.98" y1="64.12" x2="37.08" y2="64.12"/><line class="b94e3a87-5baa-48d0-a13e-af0395450d1f" x1="18.98" y1="78.94" x2="37.08" y2="78.94"/><line class="b94e3a87-5baa-48d0-a13e-af0395450d1f" x1="18.98" y1="93.75" x2="37.08" y2="93.75"/><line class="b94e3a87-5baa-48d0-a13e-af0395450d1f" x1="18.98" y1="108.57" x2="37.08" y2="108.57"/><line class="b94e3a87-5baa-48d0-a13e-af0395450d1f" x1="114.98" y1="64.12" x2="133.07" y2="64.12"/><line class="b94e3a87-5baa-48d0-a13e-af0395450d1f" x1="114.98" y1="78.94" x2="133.07" y2="78.94"/><line class="b94e3a87-5baa-48d0-a13e-af0395450d1f" x1="114.98" y1="93.75" x2="133.07" y2="93.75"/><line class="b94e3a87-5baa-48d0-a13e-af0395450d1f" x1="114.98" y1="108.57" x2="133.07" y2="108.57"/><line class="b94e3a87-5baa-48d0-a13e-af0395450d1f" x1="74.61" y1="40.07" x2="61.83" y2="66.43"/><path class="b94e3a87-5baa-48d0-a13e-af0395450d1f" d="M78.21,32.65l5.14-10.59L88.72,11a6,6,0,0,1,7.94-2.75h0a5.94,5.94,0,0,1,2.75,7.94l-2.78,5.72a5.93,5.93,0,0,1-7.93,2.76l-5.35-2.59"/><line class="b94e3a87-5baa-48d0-a13e-af0395450d1f" x1="77.88" y1="40.2" x2="90.6" y2="66.43"/><path class="b94e3a87-5baa-48d0-a13e-af0395450d1f" d="M74.29,32.81,69.05,22l-.36-.74L63.71,11a6,6,0,0,0-7.94-2.75h0A5.93,5.93,0,0,0,53,16.17l2.77,5.72a5.94,5.94,0,0,0,7.94,2.76h0l5.14-3"/><path class="b94e3a87-5baa-48d0-a13e-af0395450d1f" d="M76.4,40.48a4.13,4.13,0,1,1,4.12-4.13A4.12,4.12,0,0,1,76.4,40.48Z"/><line class="b94e3a87-5baa-48d0-a13e-af0395450d1f" x1="76.4" y1="57.08" x2="76.4" y2="66.33"/><line class="b94e3a87-5baa-48d0-a13e-af0395450d1f" x1="76.4" y1="73.74" x2="76.4" y2="82.99"/><line class="b94e3a87-5baa-48d0-a13e-af0395450d1f" x1="76.4" y1="90.4" x2="76.4" y2="99.65"/><line class="b94e3a87-5baa-48d0-a13e-af0395450d1f" x1="76.4" y1="107.06" x2="76.4" y2="116.31"/></g></g></g></svg>