<svg xmlns="http://www.w3.org/2000/svg" viewBox="0 0 251.41 154.33"><defs><style>.ab3deb96-fd4b-4062-b48c-7f79783e7c04{font-size:140px;fill:#fecd30;font-family:BebasNeueBold, Bebas Neue;}.a25cecd4-0966-411f-a619-952cd368fc1a,.b9b8ce3f-8ed5-4f4e-b453-dff4a6733ee8{fill:none;stroke-linecap:round;stroke-linejoin:round;stroke-width:3px;}.a25cecd4-0966-411f-a619-952cd368fc1a{stroke:#fecd30;}.b9b8ce3f-8ed5-4f4e-b453-dff4a6733ee8{stroke:#fff;}</style></defs><g id="a2fcdf35-c238-4ecd-aa62-f5fb0b6ac445" data-name="Layer 2"><g id="ed9a9313-79a0-4fa3-8728-a7e7dcf63bbd" data-name="Слой 1"><text class="ab3deb96-fd4b-4062-b48c-7f79783e7c04" transform="translate(140.53 127.45)">04</text><line class="a25cecd4-0966-411f-a619-952cd368fc1a" x1="11.42" y1="36" x2="18.92" y2="28.5"/><line class="a25cecd4-0966-411f-a619-952cd368fc1a" x1="18.92" y1="36" x2="11.42" y2="28.5"/><line class="a25cecd4-0966-411f-a619-952cd368fc1a" x1="156.42" y1="152.83" x2="163.92" y2="145.33"/><line class="a25cecd4-0966-411f-a619-952cd368fc1a" x1="163.92" y1="152.83" x2="156.42" y2="145.33"/><circle class="a25cecd4-0966-411f-a619-952cd368fc1a" cx="41.42" cy="6" r="4.5"/><line class="a25cecd4-0966-411f-a619-952cd368fc1a" x1="151.04" y1="24.66" x2="146.09" y2="24.66"/><line class="a25cecd4-0966-411f-a619-952cd368fc1a" x1="134.35" y1="24.66" x2="129.4" y2="24.66"/><line class="a25cecd4-0966-411f-a619-952cd368fc1a" x1="140.22" y1="18.79" x2="140.22" y2="13.84"/><line class="a25cecd4-0966-411f-a619-952cd368fc1a" x1="140.22" y1="35.48" x2="140.22" y2="30.53"/><polyline class="a25cecd4-0966-411f-a619-952cd368fc1a" points="32.26 141.22 44.95 151.22 57.65 141.22 70.35 151.22 83.05 141.22 95.76 151.22"/><polygon class="b9b8ce3f-8ed5-4f4e-b453-dff4a6733ee8" points="75.05 80.73 79.25 89.25 88.63 90.61 81.84 97.23 83.44 106.58 75.05 102.17 66.65 106.58 68.25 97.23 61.45 90.61 70.85 89.25 75.05 80.73"/><path class="b9b8ce3f-8ed5-4f4e-b453-dff4a6733ee8" d="M112,69.54a6,6,0,0,1,6,6V92.41l6.85-3.5a2.08,2.08,0,0,1,3,1.85v13.47a2.08,2.08,0,0,1-3,1.85L118,102.57v22.87H108a7.07,7.07,0,0,1-6.82-5.19l-.82-3H45.83l-.82,3a7.05,7.05,0,0,1-6.81,5.19H31.71v-13.9l-11.49,3.62a2.14,2.14,0,0,1-2.79-2V81.91a2.14,2.14,0,0,1,2.81-2l11.47,3.77v-8.1a6,6,0,0,1,6-6"/><path class="b9b8ce3f-8ed5-4f4e-b453-dff4a6733ee8" d="M113.09,69.65A26,26,0,1,0,74.83,35.09,26,26,0,1,0,36.45,69.54"/><path class="b9b8ce3f-8ed5-4f4e-b453-dff4a6733ee8" d="M53.6,59.37A9.34,9.34,0,1,1,58,41.78"/><path class="b9b8ce3f-8ed5-4f4e-b453-dff4a6733ee8" d="M96.06,40.7a9.34,9.34,0,1,1-3.92,17.81"/><line class="b9b8ce3f-8ed5-4f4e-b453-dff4a6733ee8" x1="57.95" y1="41.78" x2="92.14" y2="58.51"/><path class="b9b8ce3f-8ed5-4f4e-b453-dff4a6733ee8" d="M52.8,50a.8.8,0,1,1,.8.8A.8.8,0,0,1,52.8,50Z"/><path class="b9b8ce3f-8ed5-4f4e-b453-dff4a6733ee8" d="M95.26,50a.81.81,0,0,1,1.61,0,.81.81,0,0,1-1.61,0Z"/><line class="b9b8ce3f-8ed5-4f4e-b453-dff4a6733ee8" x1="52.47" y1="69.54" x2="52.47" y2="69.54"/><line class="b9b8ce3f-8ed5-4f4e-b453-dff4a6733ee8" x1="58.06" y1="69.54" x2="94.4" y2="69.54"/><line class="b9b8ce3f-8ed5-4f4e-b453-dff4a6733ee8" x1="97.19" y1="69.54" x2="97.19" y2="69.54"/><line class="b9b8ce3f-8ed5-4f4e-b453-dff4a6733ee8" x1="37.7" y1="69.54" x2="44.26" y2="69.54"/><line class="b9b8ce3f-8ed5-4f4e-b453-dff4a6733ee8" x1="105.4" y1="69.54" x2="111.97" y2="69.54"/><line class="b9b8ce3f-8ed5-4f4e-b453-dff4a6733ee8" x1="9.43" y1="97.49" x2="1.5" y2="97.49"/><line class="b9b8ce3f-8ed5-4f4e-b453-dff4a6733ee8" x1="9.43" y1="91.38" x2="2.38" y2="87.75"/><line class="b9b8ce3f-8ed5-4f4e-b453-dff4a6733ee8" x1="9.43" y1="103.6" x2="2.38" y2="107.23"/></g></g></svg>