<svg xmlns="http://www.w3.org/2000/svg" viewBox="0 0 248.85 155.62"><defs><style>.e77b8ce8-918f-4d7b-bf66-a3eb2db573e1{font-size:140px;fill:#fecd30;font-family:BebasNeueBold, Bebas Neue;}.b251e39d-8548-4d85-af11-edd43eb0d62d,.feda7a93-fa1b-478c-bbc3-90eb575caac8{fill:none;stroke-linecap:round;stroke-linejoin:round;stroke-width:3px;}.feda7a93-fa1b-478c-bbc3-90eb575caac8{stroke:#fecd30;}.b251e39d-8548-4d85-af11-edd43eb0d62d{stroke:#fff;}</style></defs><g id="a25633be-77f6-45bb-80a7-5000c92659f3" data-name="Layer 2"><g id="b31f2a43-ed3b-495c-a0f3-32879d93b8d7" data-name="Слой 1"><text class="e77b8ce8-918f-4d7b-bf66-a3eb2db573e1" transform="translate(137.97 131.62)">06</text><g id="a76d3d23-7cb8-4227-9fcd-c16696f1bd6c" data-name="19"><line class="feda7a93-fa1b-478c-bbc3-90eb575caac8" x1="44" y1="146.62" x2="51.5" y2="154.12"/><line class="feda7a93-fa1b-478c-bbc3-90eb575caac8" x1="51.5" y1="146.62" x2="44" y2="154.12"/><circle class="feda7a93-fa1b-478c-bbc3-90eb575caac8" cx="166.71" cy="6" r="4.5"/><line class="feda7a93-fa1b-478c-bbc3-90eb575caac8" x1="215.53" y1="28.14" x2="212.03" y2="24.64"/><line class="feda7a93-fa1b-478c-bbc3-90eb575caac8" x1="203.74" y1="16.34" x2="200.24" y2="12.84"/><line class="feda7a93-fa1b-478c-bbc3-90eb575caac8" x1="203.74" y1="24.64" x2="200.24" y2="28.14"/><line class="feda7a93-fa1b-478c-bbc3-90eb575caac8" x1="215.53" y1="12.84" x2="212.03" y2="16.34"/><path class="feda7a93-fa1b-478c-bbc3-90eb575caac8" d="M1.5,91.12c0-7.4,10-7.4,10-14.8s-10-7.41-10-14.81,10-7.41,10-14.81-10-7.41-10-14.82,10-7.4,10-14.81"/><path class="b251e39d-8548-4d85-af11-edd43eb0d62d" d="M35,99.7V96.5a2.69,2.69,0,0,1,2.69-2.7H56.29A2.69,2.69,0,0,1,59,96.5v3.2"/><path class="b251e39d-8548-4d85-af11-edd43eb0d62d" d="M35,99.7v20.62a2.09,2.09,0,0,1-2.1,2.09H28a2.08,2.08,0,0,1-2.09-2.09v-1.76a2.09,2.09,0,0,1,2.09-2.1h2.43"/><path class="b251e39d-8548-4d85-af11-edd43eb0d62d" d="M59,99.7v20.62a2.08,2.08,0,0,1-2.09,2.09H52a2.09,2.09,0,0,1-2.09-2.09v-1.76a2.1,2.1,0,0,1,2.09-2.1h2.44"/><line class="b251e39d-8548-4d85-af11-edd43eb0d62d" x1="40.83" y1="100.57" x2="53.1" y2="100.57"/><path class="b251e39d-8548-4d85-af11-edd43eb0d62d" d="M95.94,68.64l12.17,4.8a4,4,0,0,0,5.07-2l2.48-5.24,2.55-5.35a4,4,0,0,0-1.62-5.22L67.33,28"/><line class="b251e39d-8548-4d85-af11-edd43eb0d62d" x1="55.57" y1="52.71" x2="71.93" y2="59.17"/><path class="b251e39d-8548-4d85-af11-edd43eb0d62d" d="M54.5,12.35A22.32,22.32,0,1,1,24.76,22.91,22.32,22.32,0,0,1,54.5,12.35Z"/><path class="b251e39d-8548-4d85-af11-edd43eb0d62d" d="M71.94,59.28V72.9a7.22,7.22,0,0,0,7.22,7.22h9.56A7.23,7.23,0,0,0,96,72.9V57.27L79.66,48.85a5.29,5.29,0,0,0-7.72,4.7Z"/><line class="b251e39d-8548-4d85-af11-edd43eb0d62d" x1="83.94" y1="80.12" x2="83.94" y2="114.81"/><path class="b251e39d-8548-4d85-af11-edd43eb0d62d" d="M105.47,116.4c26.31-.64,38.61-38.36,13.27-48.95l-3.08-1.29"/><path class="b251e39d-8548-4d85-af11-edd43eb0d62d" d="M85.29,64.19a1.35,1.35,0,1,1-1.35-1.35A1.34,1.34,0,0,1,85.29,64.19Z"/></g></g></g></svg>