<svg xmlns="http://www.w3.org/2000/svg" width="463" height="463" viewBox="0 0 463 463"><defs><clipPath id="xrwza"><path d="M67.901 67.503c-90.299 90.301-90.299 236.707 0 327.006 90.301 90.301 236.707 90.301 327.006 0 90.301-90.299 90.301-236.705 0-327.006C349.758 22.353 290.581-.222 231.405-.222c-59.177 0-118.353 22.575-163.504 67.725z"/></clipPath><clipPath id="xrwzb"><path d="M67.901 67.503c-90.299 90.301-90.299 236.707 0 327.006 90.301 90.301 236.707 90.301 327.006 0 90.301-90.299 90.301-236.705 0-327.006C349.758 22.353 290.581-.222 231.405-.222c-59.177 0-118.353 22.575-163.504 67.725z"/></clipPath><clipPath id="xrwzc"><path d="M67.901 67.503c-90.299 90.301-90.299 236.707 0 327.006 90.301 90.301 236.707 90.301 327.006 0 90.301-90.299 90.301-236.705 0-327.006C349.758 22.353 290.581-.222 231.405-.222c-59.177 0-118.353 22.575-163.504 67.725z"/></clipPath><clipPath id="xrwzd"><path d="M67.901 67.503c-90.299 90.301-90.299 236.707 0 327.006 90.301 90.301 236.707 90.301 327.006 0 90.301-90.299 90.301-236.705 0-327.006C349.758 22.353 290.581-.222 231.405-.222c-59.177 0-118.353 22.575-163.504 67.725z"/></clipPath><clipPath id="xrwze"><path d="M67.901 67.503c-90.299 90.301-90.299 236.707 0 327.006 90.301 90.301 236.707 90.301 327.006 0 90.301-90.299 90.301-236.705 0-327.006C349.758 22.353 290.581-.222 231.405-.222c-59.177 0-118.353 22.575-163.504 67.725z"/></clipPath><clipPath id="xrwzf"><path d="M67.901 67.503c-90.299 90.301-90.299 236.707 0 327.006 90.301 90.301 236.707 90.301 327.006 0 90.301-90.299 90.301-236.705 0-327.006C349.758 22.353 290.581-.222 231.405-.222c-59.177 0-118.353 22.575-163.504 67.725z"/></clipPath><clipPath id="xrwzg"><path d="M67.901 67.503c-90.299 90.301-90.299 236.707 0 327.006 90.301 90.301 236.707 90.301 327.006 0 90.301-90.299 90.301-236.705 0-327.006C349.758 22.353 290.581-.222 231.405-.222c-59.177 0-118.353 22.575-163.504 67.725z"/></clipPath><clipPath id="xrwzh"><path d="M67.901 67.503c-90.299 90.301-90.299 236.707 0 327.006 90.301 90.301 236.707 90.301 327.006 0 90.301-90.299 90.301-236.705 0-327.006C349.758 22.353 290.581-.222 231.405-.222c-59.177 0-118.353 22.575-163.504 67.725z"/></clipPath><clipPath id="xrwzi"><path d="M67.901 67.503c-90.299 90.301-90.299 236.707 0 327.006 90.301 90.301 236.707 90.301 327.006 0 90.301-90.299 90.301-236.705 0-327.006C349.758 22.353 290.581-.222 231.405-.222c-59.177 0-118.353 22.575-163.504 67.725z"/></clipPath><clipPath id="xrwzj"><path d="M67.901 67.503c-90.299 90.301-90.299 236.707 0 327.006 90.301 90.301 236.707 90.301 327.006 0 90.301-90.299 90.301-236.705 0-327.006C349.758 22.353 290.581-.222 231.405-.222c-59.177 0-118.353 22.575-163.504 67.725z"/></clipPath><clipPath id="xrwzk"><path d="M67.901 67.503c-90.299 90.301-90.299 236.707 0 327.006 90.301 90.301 236.707 90.301 327.006 0 90.301-90.299 90.301-236.705 0-327.006C349.758 22.353 290.581-.222 231.405-.222c-59.177 0-118.353 22.575-163.504 67.725z"/></clipPath><clipPath id="xrwzl"><path d="M67.901 67.503c-90.299 90.301-90.299 236.707 0 327.006 90.301 90.301 236.707 90.301 327.006 0 90.301-90.299 90.301-236.705 0-327.006C349.758 22.353 290.581-.222 231.405-.222c-59.177 0-118.353 22.575-163.504 67.725z"/></clipPath><clipPath id="xrwzm"><path d="M67.901 67.503c-90.299 90.301-90.299 236.707 0 327.006 90.301 90.301 236.707 90.301 327.006 0 90.301-90.299 90.301-236.705 0-327.006C349.758 22.353 290.581-.222 231.405-.222c-59.177 0-118.353 22.575-163.504 67.725z"/></clipPath><clipPath id="xrwzn"><path d="M67.901 67.503c-90.299 90.301-90.299 236.707 0 327.006 90.301 90.301 236.707 90.301 327.006 0 90.301-90.299 90.301-236.705 0-327.006C349.758 22.353 290.581-.222 231.405-.222c-59.177 0-118.353 22.575-163.504 67.725z"/></clipPath><clipPath id="xrwzo"><path d="M67.901 67.503c-90.299 90.301-90.299 236.707 0 327.006 90.301 90.301 236.707 90.301 327.006 0 90.301-90.299 90.301-236.705 0-327.006C349.758 22.353 290.581-.222 231.405-.222c-59.177 0-118.353 22.575-163.504 67.725z"/></clipPath><clipPath id="xrwzp"><path d="M67.901 67.503c-90.299 90.301-90.299 236.707 0 327.006 90.301 90.301 236.707 90.301 327.006 0 90.301-90.299 90.301-236.705 0-327.006C349.758 22.353 290.581-.222 231.405-.222c-59.177 0-118.353 22.575-163.504 67.725z"/></clipPath><clipPath id="xrwzq"><path d="M67.901 67.503c-90.299 90.301-90.299 236.707 0 327.006 90.301 90.301 236.707 90.301 327.006 0 90.301-90.299 90.301-236.705 0-327.006C349.758 22.353 290.581-.222 231.405-.222c-59.177 0-118.353 22.575-163.504 67.725z"/></clipPath><clipPath id="xrwzr"><path d="M67.901 67.503c-90.299 90.301-90.299 236.707 0 327.006 90.301 90.301 236.707 90.301 327.006 0 90.301-90.299 90.301-236.705 0-327.006C349.758 22.353 290.581-.222 231.405-.222c-59.177 0-118.353 22.575-163.504 67.725z"/></clipPath><clipPath id="xrwzs"><path d="M67.901 67.503c-90.299 90.301-90.299 236.707 0 327.006 90.301 90.301 236.707 90.301 327.006 0 90.301-90.299 90.301-236.705 0-327.006C349.758 22.353 290.581-.222 231.405-.222c-59.177 0-118.353 22.575-163.504 67.725z"/></clipPath><clipPath id="xrwzt"><path d="M67.901 67.503c-90.299 90.301-90.299 236.707 0 327.006 90.301 90.301 236.707 90.301 327.006 0 90.301-90.299 90.301-236.705 0-327.006C349.758 22.353 290.581-.222 231.405-.222c-59.177 0-118.353 22.575-163.504 67.725z"/></clipPath><clipPath id="xrwzu"><path d="M67.901 67.503c-90.299 90.301-90.299 236.707 0 327.006 90.301 90.301 236.707 90.301 327.006 0 90.301-90.299 90.301-236.705 0-327.006C349.758 22.353 290.581-.222 231.405-.222c-59.177 0-118.353 22.575-163.504 67.725z"/></clipPath><clipPath id="xrwzv"><path d="M67.901 67.503c-90.299 90.301-90.299 236.707 0 327.006 90.301 90.301 236.707 90.301 327.006 0 90.301-90.299 90.301-236.705 0-327.006C349.758 22.353 290.581-.222 231.405-.222c-59.177 0-118.353 22.575-163.504 67.725z"/></clipPath><clipPath id="xrwzw"><path d="M67.901 67.503c-90.299 90.301-90.299 236.707 0 327.006 90.301 90.301 236.707 90.301 327.006 0 90.301-90.299 90.301-236.705 0-327.006C349.758 22.353 290.581-.222 231.405-.222c-59.177 0-118.353 22.575-163.504 67.725z"/></clipPath><clipPath id="xrwzx"><path d="M67.901 67.503c-90.299 90.301-90.299 236.707 0 327.006 90.301 90.301 236.707 90.301 327.006 0 90.301-90.299 90.301-236.705 0-327.006C349.758 22.353 290.581-.222 231.405-.222c-59.177 0-118.353 22.575-163.504 67.725z"/></clipPath><clipPath id="xrwzy"><path d="M67.901 67.503c-90.299 90.301-90.299 236.707 0 327.006 90.301 90.301 236.707 90.301 327.006 0 90.301-90.299 90.301-236.705 0-327.006C349.758 22.353 290.581-.222 231.405-.222c-59.177 0-118.353 22.575-163.504 67.725z"/></clipPath><clipPath id="xrwzz"><path d="M67.901 67.503c-90.299 90.301-90.299 236.707 0 327.006 90.301 90.301 236.707 90.301 327.006 0 90.301-90.299 90.301-236.705 0-327.006C349.758 22.353 290.581-.222 231.405-.222c-59.177 0-118.353 22.575-163.504 67.725z"/></clipPath></defs><g><g/><g clip-path="url(#xrwza)"><path fill="none" stroke="#a7a9ac" stroke-miterlimit="20" d="M-108.038 243.443l351.88-351.88"/></g><g/><g clip-path="url(#xrwzb)"><path fill="none" stroke="#a7a9ac" stroke-miterlimit="20" d="M-94.718 256.764l351.881-351.88"/></g><g/><g clip-path="url(#xrwzc)"><path fill="none" stroke="#a7a9ac" stroke-miterlimit="20" d="M-81.397 270.085l351.88-351.881"/></g><g/><g clip-path="url(#xrwzd)"><path fill="none" stroke="#a7a9ac" stroke-miterlimit="20" d="M-68.077 283.405l351.88-351.88"/></g><g/><g clip-path="url(#xrwze)"><path fill="none" stroke="#a7a9ac" stroke-miterlimit="20" d="M-54.757 296.726L297.124-55.155"/></g><g/><g clip-path="url(#xrwzf)"><path fill="none" stroke="#a7a9ac" stroke-miterlimit="20" d="M-41.437 310.046L310.444-41.835"/></g><g/><g clip-path="url(#xrwzg)"><path fill="none" stroke="#a7a9ac" stroke-miterlimit="20" d="M-28.116 323.366l351.88-351.88"/></g><g/><g clip-path="url(#xrwzh)"><path fill="none" stroke="#a7a9ac" stroke-miterlimit="20" d="M-14.796 336.687L337.085-15.194"/></g><g/><g clip-path="url(#xrwzi)"><path fill="none" stroke="#a7a9ac" stroke-miterlimit="20" d="M-1.476 350.007L350.405-1.874"/></g><g/><g clip-path="url(#xrwzj)"><path fill="none" stroke="#a7a9ac" stroke-miterlimit="20" d="M11.845 363.327l351.88-351.88"/></g><g/><g clip-path="url(#xrwzk)"><path fill="none" stroke="#a7a9ac" stroke-miterlimit="20" d="M25.166 376.648l351.88-351.881"/></g><g/><g clip-path="url(#xrwzl)"><path fill="none" stroke="#a7a9ac" stroke-miterlimit="20" d="M38.486 389.968l351.881-351.88"/></g><g/><g clip-path="url(#xrwzm)"><path fill="none" stroke="#a7a9ac" stroke-miterlimit="20" d="M51.807 403.29l351.88-351.882"/></g><g/><g clip-path="url(#xrwzn)"><path fill="none" stroke="#a7a9ac" stroke-miterlimit="20" d="M65.127 416.61L417.008 64.729"/></g><g/><g clip-path="url(#xrwzo)"><path fill="none" stroke="#a7a9ac" stroke-miterlimit="20" d="M78.447 429.93L430.328 78.049"/></g><g/><g clip-path="url(#xrwzp)"><path fill="none" stroke="#a7a9ac" stroke-miterlimit="20" d="M91.768 443.25l351.88-351.88"/></g><g/><g clip-path="url(#xrwzq)"><path fill="none" stroke="#a7a9ac" stroke-miterlimit="20" d="M105.088 456.57l351.88-351.88"/></g><g/><g clip-path="url(#xrwzr)"><path fill="none" stroke="#a7a9ac" stroke-miterlimit="20" d="M118.408 469.89L470.29 118.01"/></g><g/><g clip-path="url(#xrwzs)"><path fill="none" stroke="#a7a9ac" stroke-miterlimit="20" d="M131.728 483.211L483.61 131.33"/></g><g/><g clip-path="url(#xrwzt)"><path fill="none" stroke="#a7a9ac" stroke-miterlimit="20" d="M145.049 496.531l351.88-351.88"/></g><g/><g clip-path="url(#xrwzu)"><path fill="none" stroke="#a7a9ac" stroke-miterlimit="20" d="M158.37 509.852L510.25 157.97"/></g><g/><g clip-path="url(#xrwzv)"><path fill="none" stroke="#a7a9ac" stroke-miterlimit="20" d="M171.69 523.172l351.881-351.88"/></g><g/><g clip-path="url(#xrwzw)"><path fill="none" stroke="#a7a9ac" stroke-miterlimit="20" d="M185.01 536.493l351.882-351.88"/></g><g/><g clip-path="url(#xrwzx)"><path fill="none" stroke="#a7a9ac" stroke-miterlimit="20" d="M198.331 549.814l351.881-351.881"/></g><g/><g clip-path="url(#xrwzy)"><path fill="none" stroke="#a7a9ac" stroke-miterlimit="20" d="M211.651 563.134l351.881-351.881"/></g><g/><g clip-path="url(#xrwzz)"><path fill="none" stroke="#a7a9ac" stroke-miterlimit="20" d="M224.972 576.454l351.88-351.88"/></g></g></svg>