<svg xmlns="http://www.w3.org/2000/svg" width="350" height="212" viewBox="0 0 350 212"><g><g><path fill="#a7a9ac" d="M4.338 2.28A1.954 1.954 0 1 1 .431 2.28a1.954 1.954 0 0 1 3.907.001z"/></g><g><path fill="#a7a9ac" d="M17.617 2.28a1.954 1.954 0 1 1-3.908-.001 1.954 1.954 0 0 1 3.908.001z"/></g><g><path fill="#a7a9ac" d="M30.895 2.28a1.954 1.954 0 1 1-3.908-.001 1.954 1.954 0 0 1 3.908.001z"/></g><g><path fill="#a7a9ac" d="M44.173 2.28a1.954 1.954 0 1 1-3.908-.001 1.954 1.954 0 0 1 3.908.001z"/></g><g><path fill="#a7a9ac" d="M57.45 2.28a1.954 1.954 0 1 1-3.907-.001 1.954 1.954 0 0 1 3.908.001z"/></g><g><path fill="#a7a9ac" d="M70.728 2.28a1.953 1.953 0 1 1-3.906 0 1.953 1.953 0 0 1 3.906 0z"/></g><g><path fill="#a7a9ac" d="M84.007 2.28a1.954 1.954 0 1 1-3.908-.001 1.954 1.954 0 0 1 3.908.001z"/></g><g><path fill="#a7a9ac" d="M97.285 2.28a1.954 1.954 0 1 1-3.908-.001 1.954 1.954 0 0 1 3.908.001z"/></g><g><path fill="#a7a9ac" d="M110.563 2.28a1.954 1.954 0 1 1-3.908-.001 1.954 1.954 0 0 1 3.908.001z"/></g><g><path fill="#a7a9ac" d="M123.84 2.28a1.954 1.954 0 1 1-3.907-.001 1.954 1.954 0 0 1 3.908.001z"/></g><g><path fill="#a7a9ac" d="M137.12 2.28a1.954 1.954 0 1 1-3.908-.001 1.954 1.954 0 0 1 3.907.001z"/></g><g><path fill="#a7a9ac" d="M150.397 2.28a1.954 1.954 0 1 1-3.908-.001 1.954 1.954 0 0 1 3.908.001z"/></g><g><path fill="#a7a9ac" d="M163.675 2.28a1.954 1.954 0 1 1-3.907-.001 1.954 1.954 0 0 1 3.907.001z"/></g><g><path fill="#a7a9ac" d="M176.953 2.28a1.954 1.954 0 1 1-3.907-.001 1.954 1.954 0 0 1 3.907.001z"/></g><g><path fill="#a7a9ac" d="M190.231 2.28a1.953 1.953 0 1 1-3.906 0 1.953 1.953 0 0 1 3.906 0z"/></g><g><path fill="#a7a9ac" d="M203.51 2.28a1.954 1.954 0 1 1-3.908-.001 1.954 1.954 0 0 1 3.907.001z"/></g><g><path fill="#a7a9ac" d="M216.787 2.28a1.953 1.953 0 1 1-3.906 0 1.953 1.953 0 0 1 3.906 0z"/></g><g><path fill="#a7a9ac" d="M230.065 2.28a1.954 1.954 0 1 1-3.907-.001 1.954 1.954 0 0 1 3.907.001z"/></g><g><path fill="#a7a9ac" d="M243.343 2.28a1.954 1.954 0 1 1-3.907-.001 1.954 1.954 0 0 1 3.907.001z"/></g><g><path fill="#a7a9ac" d="M256.622 2.28a1.954 1.954 0 1 1-3.908-.001 1.954 1.954 0 0 1 3.908.001z"/></g><g><path fill="#a7a9ac" d="M269.9 2.28a1.954 1.954 0 1 1-3.908-.001 1.954 1.954 0 0 1 3.907.001z"/></g><g><path fill="#a7a9ac" d="M283.178 2.28a1.954 1.954 0 1 1-3.908-.001 1.954 1.954 0 0 1 3.908.001z"/></g><g><path fill="#a7a9ac" d="M296.456 2.28a1.954 1.954 0 1 1-3.908-.001 1.954 1.954 0 0 1 3.908.001z"/></g><g><path fill="#a7a9ac" d="M309.734 2.28a1.954 1.954 0 1 1-3.908-.002 1.954 1.954 0 0 1 3.908.002z"/></g><g><path fill="#a7a9ac" d="M323.012 2.28a1.954 1.954 0 1 1-3.908-.001 1.954 1.954 0 0 1 3.908.001z"/></g><g><path fill="#a7a9ac" d="M336.29 2.28a1.953 1.953 0 1 1-3.907 0 1.953 1.953 0 0 1 3.907 0z"/></g><g><path fill="#a7a9ac" d="M349.568 2.28a1.954 1.954 0 1 1-3.908-.001 1.954 1.954 0 0 1 3.908.001z"/></g><g><path fill="#a7a9ac" d="M4.338 17.113a1.953 1.953 0 1 1-3.906 0 1.953 1.953 0 0 1 3.906 0z"/></g><g><path fill="#a7a9ac" d="M17.617 17.113a1.953 1.953 0 1 1-3.907 0 1.953 1.953 0 0 1 3.907 0z"/></g><g><path fill="#a7a9ac" d="M30.895 17.113a1.953 1.953 0 1 1-3.907 0 1.953 1.953 0 0 1 3.907 0z"/></g><g><path fill="#a7a9ac" d="M44.173 17.113a1.953 1.953 0 1 1-3.906 0 1.953 1.953 0 0 1 3.906 0z"/></g><g><path fill="#a7a9ac" d="M57.45 17.113a1.953 1.953 0 1 1-3.906 0 1.953 1.953 0 0 1 3.907 0z"/></g><g><path fill="#a7a9ac" d="M70.728 17.113a1.953 1.953 0 1 1-3.905.001 1.953 1.953 0 0 1 3.906 0z"/></g><g><path fill="#a7a9ac" d="M84.007 17.113a1.953 1.953 0 1 1-3.906 0 1.953 1.953 0 0 1 3.906 0z"/></g><g><path fill="#a7a9ac" d="M97.285 17.113a1.953 1.953 0 1 1-3.907 0 1.953 1.953 0 0 1 3.907 0z"/></g><g><path fill="#a7a9ac" d="M110.563 17.113a1.953 1.953 0 1 1-3.906 0 1.953 1.953 0 0 1 3.906 0z"/></g><g><path fill="#a7a9ac" d="M123.84 17.113a1.953 1.953 0 1 1-3.905 0 1.953 1.953 0 0 1 3.906 0z"/></g><g><path fill="#a7a9ac" d="M137.12 17.113a1.953 1.953 0 1 1-3.907 0 1.953 1.953 0 0 1 3.906 0z"/></g><g><path fill="#a7a9ac" d="M150.397 17.113a1.953 1.953 0 1 1-3.906 0 1.953 1.953 0 0 1 3.906 0z"/></g><g><path fill="#a7a9ac" d="M163.675 17.113a1.953 1.953 0 1 1-3.906 0 1.953 1.953 0 0 1 3.906 0z"/></g><g><path fill="#a7a9ac" d="M176.953 17.113a1.953 1.953 0 1 1-3.906 0 1.953 1.953 0 0 1 3.906 0z"/></g><g><path fill="#a7a9ac" d="M190.231 17.113a1.953 1.953 0 1 1-3.905.001 1.953 1.953 0 0 1 3.905 0z"/></g><g><path fill="#a7a9ac" d="M203.51 17.113a1.953 1.953 0 1 1-3.907 0 1.953 1.953 0 0 1 3.906 0z"/></g><g><path fill="#a7a9ac" d="M216.787 17.113a1.953 1.953 0 1 1-3.905.001 1.953 1.953 0 0 1 3.905 0z"/></g><g><path fill="#a7a9ac" d="M230.065 17.113a1.953 1.953 0 1 1-3.906 0 1.953 1.953 0 0 1 3.906 0z"/></g><g><path fill="#a7a9ac" d="M243.343 17.113a1.953 1.953 0 1 1-3.906 0 1.953 1.953 0 0 1 3.906 0z"/></g><g><path fill="#a7a9ac" d="M256.622 17.113a1.953 1.953 0 1 1-3.907 0 1.953 1.953 0 0 1 3.907 0z"/></g><g><path fill="#a7a9ac" d="M269.9 17.113a1.953 1.953 0 1 1-3.907 0 1.953 1.953 0 0 1 3.906 0z"/></g><g><path fill="#a7a9ac" d="M283.178 17.113a1.953 1.953 0 1 1-3.907 0 1.953 1.953 0 0 1 3.907 0z"/></g><g><path fill="#a7a9ac" d="M296.456 17.113a1.953 1.953 0 1 1-3.907 0 1.953 1.953 0 0 1 3.907 0z"/></g><g><path fill="#a7a9ac" d="M309.734 17.113a1.953 1.953 0 1 1-3.907 0 1.953 1.953 0 0 1 3.907 0z"/></g><g><path fill="#a7a9ac" d="M323.012 17.113a1.953 1.953 0 1 1-3.907 0 1.953 1.953 0 0 1 3.907 0z"/></g><g><path fill="#a7a9ac" d="M336.29 17.113a1.953 1.953 0 1 1-3.905.001 1.953 1.953 0 0 1 3.905 0z"/></g><g><path fill="#a7a9ac" d="M349.568 17.113a1.953 1.953 0 1 1-3.906 0 1.953 1.953 0 0 1 3.906 0z"/></g><g><path fill="#a7a9ac" d="M4.338 31.946a1.953 1.953 0 1 1-3.906 0 1.953 1.953 0 0 1 3.906 0z"/></g><g><path fill="#a7a9ac" d="M17.617 31.946a1.953 1.953 0 1 1-3.907 0 1.953 1.953 0 0 1 3.907 0z"/></g><g><path fill="#a7a9ac" d="M30.895 31.946a1.953 1.953 0 1 1-3.907 0 1.953 1.953 0 0 1 3.907 0z"/></g><g><path fill="#a7a9ac" d="M44.173 31.946a1.953 1.953 0 1 1-3.906 0 1.953 1.953 0 0 1 3.906 0z"/></g><g><path fill="#a7a9ac" d="M57.45 31.946a1.953 1.953 0 1 1-3.906 0 1.953 1.953 0 0 1 3.907 0z"/></g><g><path fill="#a7a9ac" d="M70.728 31.946a1.953 1.953 0 1 1-3.905.001 1.953 1.953 0 0 1 3.906 0z"/></g><g><path fill="#a7a9ac" d="M84.007 31.946a1.953 1.953 0 1 1-3.906 0 1.953 1.953 0 0 1 3.906 0z"/></g><g><path fill="#a7a9ac" d="M97.285 31.946a1.953 1.953 0 1 1-3.907 0 1.953 1.953 0 0 1 3.907 0z"/></g><g><path fill="#a7a9ac" d="M110.563 31.946a1.953 1.953 0 1 1-3.906 0 1.953 1.953 0 0 1 3.906 0z"/></g><g><path fill="#a7a9ac" d="M123.84 31.946a1.953 1.953 0 1 1-3.905 0 1.953 1.953 0 0 1 3.906 0z"/></g><g><path fill="#a7a9ac" d="M137.12 31.946a1.953 1.953 0 1 1-3.907 0 1.953 1.953 0 0 1 3.906 0z"/></g><g><path fill="#a7a9ac" d="M150.397 31.946a1.953 1.953 0 1 1-3.906 0 1.953 1.953 0 0 1 3.906 0z"/></g><g><path fill="#a7a9ac" d="M163.675 31.946a1.953 1.953 0 1 1-3.906 0 1.953 1.953 0 0 1 3.906 0z"/></g><g><path fill="#a7a9ac" d="M176.953 31.946a1.953 1.953 0 1 1-3.906 0 1.953 1.953 0 0 1 3.906 0z"/></g><g><path fill="#a7a9ac" d="M190.231 31.946a1.953 1.953 0 1 1-3.905.001 1.953 1.953 0 0 1 3.905 0z"/></g><g><path fill="#a7a9ac" d="M203.51 31.946a1.953 1.953 0 1 1-3.907 0 1.953 1.953 0 0 1 3.906 0z"/></g><g><path fill="#a7a9ac" d="M216.787 31.946a1.953 1.953 0 1 1-3.905.001 1.953 1.953 0 0 1 3.905 0z"/></g><g><path fill="#a7a9ac" d="M230.065 31.946a1.953 1.953 0 1 1-3.906 0 1.953 1.953 0 0 1 3.906 0z"/></g><g><path fill="#a7a9ac" d="M243.343 31.946a1.953 1.953 0 1 1-3.906 0 1.953 1.953 0 0 1 3.906 0z"/></g><g><path fill="#a7a9ac" d="M256.622 31.946a1.953 1.953 0 1 1-3.907 0 1.953 1.953 0 0 1 3.907 0z"/></g><g><path fill="#a7a9ac" d="M269.9 31.946a1.953 1.953 0 1 1-3.907 0 1.953 1.953 0 0 1 3.906 0z"/></g><g><path fill="#a7a9ac" d="M283.178 31.946a1.953 1.953 0 1 1-3.907 0 1.953 1.953 0 0 1 3.907 0z"/></g><g><path fill="#a7a9ac" d="M296.456 31.946a1.953 1.953 0 1 1-3.907 0 1.953 1.953 0 0 1 3.907 0z"/></g><g><path fill="#a7a9ac" d="M309.734 31.946a1.953 1.953 0 1 1-3.907 0 1.953 1.953 0 0 1 3.907 0z"/></g><g><path fill="#a7a9ac" d="M323.012 31.946a1.953 1.953 0 1 1-3.907 0 1.953 1.953 0 0 1 3.907 0z"/></g><g><path fill="#a7a9ac" d="M336.29 31.946a1.953 1.953 0 1 1-3.905.001 1.953 1.953 0 0 1 3.905 0z"/></g><g><path fill="#a7a9ac" d="M349.568 31.946a1.953 1.953 0 1 1-3.906 0 1.953 1.953 0 0 1 3.906 0z"/></g><g><path fill="#a7a9ac" d="M4.338 46.78a1.954 1.954 0 1 1-3.907-.001 1.954 1.954 0 0 1 3.907.001z"/></g><g><path fill="#a7a9ac" d="M17.617 46.78a1.954 1.954 0 1 1-3.908-.001 1.954 1.954 0 0 1 3.908.001z"/></g><g><path fill="#a7a9ac" d="M30.895 46.78a1.954 1.954 0 1 1-3.908-.001 1.954 1.954 0 0 1 3.908.001z"/></g><g><path fill="#a7a9ac" d="M44.173 46.78a1.954 1.954 0 1 1-3.908-.001 1.954 1.954 0 0 1 3.908.001z"/></g><g><path fill="#a7a9ac" d="M57.45 46.78a1.954 1.954 0 1 1-3.907-.001 1.954 1.954 0 0 1 3.908.001z"/></g><g><path fill="#a7a9ac" d="M70.728 46.78a1.953 1.953 0 1 1-3.906 0 1.953 1.953 0 0 1 3.906 0z"/></g><g><path fill="#a7a9ac" d="M84.007 46.78a1.954 1.954 0 1 1-3.908-.001 1.954 1.954 0 0 1 3.908.001z"/></g><g><path fill="#a7a9ac" d="M97.285 46.78a1.954 1.954 0 1 1-3.908-.001 1.954 1.954 0 0 1 3.908.001z"/></g><g><path fill="#a7a9ac" d="M110.563 46.78a1.954 1.954 0 1 1-3.908-.001 1.954 1.954 0 0 1 3.908.001z"/></g><g><path fill="#a7a9ac" d="M123.84 46.78a1.954 1.954 0 1 1-3.907-.001 1.954 1.954 0 0 1 3.908.001z"/></g><g><path fill="#a7a9ac" d="M137.12 46.78a1.954 1.954 0 1 1-3.908-.001 1.954 1.954 0 0 1 3.907.001z"/></g><g><path fill="#a7a9ac" d="M150.397 46.78a1.954 1.954 0 1 1-3.908-.001 1.954 1.954 0 0 1 3.908.001z"/></g><g><path fill="#a7a9ac" d="M163.675 46.78a1.954 1.954 0 1 1-3.907-.001 1.954 1.954 0 0 1 3.907.001z"/></g><g><path fill="#a7a9ac" d="M176.953 46.78a1.954 1.954 0 1 1-3.907-.001 1.954 1.954 0 0 1 3.907.001z"/></g><g><path fill="#a7a9ac" d="M190.231 46.78a1.953 1.953 0 1 1-3.906 0 1.953 1.953 0 0 1 3.906 0z"/></g><g><path fill="#a7a9ac" d="M203.51 46.78a1.954 1.954 0 1 1-3.908-.001 1.954 1.954 0 0 1 3.907.001z"/></g><g><path fill="#a7a9ac" d="M216.787 46.78a1.953 1.953 0 1 1-3.906 0 1.953 1.953 0 0 1 3.906 0z"/></g><g><path fill="#a7a9ac" d="M230.065 46.78a1.954 1.954 0 1 1-3.907-.001 1.954 1.954 0 0 1 3.907.001z"/></g><g><path fill="#a7a9ac" d="M243.343 46.78a1.954 1.954 0 1 1-3.907-.001 1.954 1.954 0 0 1 3.907.001z"/></g><g><path fill="#a7a9ac" d="M256.622 46.78a1.954 1.954 0 1 1-3.908-.001 1.954 1.954 0 0 1 3.908.001z"/></g><g><path fill="#a7a9ac" d="M269.9 46.78a1.954 1.954 0 1 1-3.908-.001 1.954 1.954 0 0 1 3.907.001z"/></g><g><path fill="#a7a9ac" d="M283.178 46.78a1.954 1.954 0 1 1-3.908-.001 1.954 1.954 0 0 1 3.908.001z"/></g><g><path fill="#a7a9ac" d="M296.456 46.78a1.954 1.954 0 1 1-3.908-.001 1.954 1.954 0 0 1 3.908.001z"/></g><g><path fill="#a7a9ac" d="M309.734 46.78a1.954 1.954 0 1 1-3.908-.002 1.954 1.954 0 0 1 3.908.002z"/></g><g><path fill="#a7a9ac" d="M323.012 46.78a1.954 1.954 0 1 1-3.908-.001 1.954 1.954 0 0 1 3.908.001z"/></g><g><path fill="#a7a9ac" d="M336.29 46.78a1.953 1.953 0 1 1-3.907 0 1.953 1.953 0 0 1 3.907 0z"/></g><g><path fill="#a7a9ac" d="M349.568 46.78a1.954 1.954 0 1 1-3.908-.001 1.954 1.954 0 0 1 3.908.001z"/></g><g><path fill="#a7a9ac" d="M4.338 61.613a1.954 1.954 0 1 1-3.907-.001 1.954 1.954 0 0 1 3.907.001z"/></g><g><path fill="#a7a9ac" d="M17.617 61.613a1.954 1.954 0 1 1-3.908-.001 1.954 1.954 0 0 1 3.908.001z"/></g><g><path fill="#a7a9ac" d="M30.895 61.613a1.954 1.954 0 1 1-3.908-.001 1.954 1.954 0 0 1 3.908.001z"/></g><g><path fill="#a7a9ac" d="M44.173 61.613a1.954 1.954 0 1 1-3.908-.001 1.954 1.954 0 0 1 3.908.001z"/></g><g><path fill="#a7a9ac" d="M57.45 61.613a1.954 1.954 0 1 1-3.907-.001 1.954 1.954 0 0 1 3.908.001z"/></g><g><path fill="#a7a9ac" d="M70.728 61.613a1.953 1.953 0 1 1-3.906 0 1.953 1.953 0 0 1 3.906 0z"/></g><g><path fill="#a7a9ac" d="M84.007 61.613a1.954 1.954 0 1 1-3.908-.001 1.954 1.954 0 0 1 3.908.001z"/></g><g><path fill="#a7a9ac" d="M97.285 61.613a1.954 1.954 0 1 1-3.908-.001 1.954 1.954 0 0 1 3.908.001z"/></g><g><path fill="#a7a9ac" d="M110.563 61.613a1.954 1.954 0 1 1-3.908-.001 1.954 1.954 0 0 1 3.908.001z"/></g><g><path fill="#a7a9ac" d="M123.84 61.613a1.954 1.954 0 1 1-3.907-.001 1.954 1.954 0 0 1 3.908.001z"/></g><g><path fill="#a7a9ac" d="M137.12 61.613a1.954 1.954 0 1 1-3.908-.001 1.954 1.954 0 0 1 3.907.001z"/></g><g><path fill="#a7a9ac" d="M150.397 61.613a1.954 1.954 0 1 1-3.908-.001 1.954 1.954 0 0 1 3.908.001z"/></g><g><path fill="#a7a9ac" d="M163.675 61.613a1.954 1.954 0 1 1-3.907-.001 1.954 1.954 0 0 1 3.907.001z"/></g><g><path fill="#a7a9ac" d="M176.953 61.613a1.954 1.954 0 1 1-3.907-.001 1.954 1.954 0 0 1 3.907.001z"/></g><g><path fill="#a7a9ac" d="M190.231 61.613a1.953 1.953 0 1 1-3.906 0 1.953 1.953 0 0 1 3.906 0z"/></g><g><path fill="#a7a9ac" d="M203.51 61.613a1.954 1.954 0 1 1-3.908-.001 1.954 1.954 0 0 1 3.907.001z"/></g><g><path fill="#a7a9ac" d="M216.787 61.613a1.953 1.953 0 1 1-3.906 0 1.953 1.953 0 0 1 3.906 0z"/></g><g><path fill="#a7a9ac" d="M230.065 61.613a1.954 1.954 0 1 1-3.907-.001 1.954 1.954 0 0 1 3.907.001z"/></g><g><path fill="#a7a9ac" d="M243.343 61.613a1.954 1.954 0 1 1-3.907-.001 1.954 1.954 0 0 1 3.907.001z"/></g><g><path fill="#a7a9ac" d="M256.622 61.613a1.954 1.954 0 1 1-3.908-.001 1.954 1.954 0 0 1 3.908.001z"/></g><g><path fill="#a7a9ac" d="M269.9 61.613a1.954 1.954 0 1 1-3.908-.001 1.954 1.954 0 0 1 3.907.001z"/></g><g><path fill="#a7a9ac" d="M283.178 61.613a1.954 1.954 0 1 1-3.908-.001 1.954 1.954 0 0 1 3.908.001z"/></g><g><path fill="#a7a9ac" d="M296.456 61.613a1.954 1.954 0 1 1-3.908-.001 1.954 1.954 0 0 1 3.908.001z"/></g><g><path fill="#a7a9ac" d="M309.734 61.613a1.954 1.954 0 1 1-3.908-.002 1.954 1.954 0 0 1 3.908.002z"/></g><g><path fill="#a7a9ac" d="M323.012 61.613a1.954 1.954 0 1 1-3.908-.001 1.954 1.954 0 0 1 3.908.001z"/></g><g><path fill="#a7a9ac" d="M336.29 61.613a1.953 1.953 0 1 1-3.907 0 1.953 1.953 0 0 1 3.907 0z"/></g><g><path fill="#a7a9ac" d="M349.568 61.613a1.954 1.954 0 1 1-3.908-.001 1.954 1.954 0 0 1 3.908.001z"/></g><g><path fill="#a7a9ac" d="M4.338 76.446a1.953 1.953 0 1 1-3.906 0 1.953 1.953 0 0 1 3.906 0z"/></g><g><path fill="#a7a9ac" d="M17.617 76.446a1.953 1.953 0 1 1-3.907 0 1.953 1.953 0 0 1 3.907 0z"/></g><g><path fill="#a7a9ac" d="M30.895 76.446a1.953 1.953 0 1 1-3.907 0 1.953 1.953 0 0 1 3.907 0z"/></g><g><path fill="#a7a9ac" d="M44.173 76.446a1.953 1.953 0 1 1-3.906 0 1.953 1.953 0 0 1 3.906 0z"/></g><g><path fill="#a7a9ac" d="M57.45 76.446a1.953 1.953 0 1 1-3.906 0 1.953 1.953 0 0 1 3.907 0z"/></g><g><path fill="#a7a9ac" d="M70.728 76.446a1.953 1.953 0 1 1-3.905.001 1.953 1.953 0 0 1 3.906 0z"/></g><g><path fill="#a7a9ac" d="M84.007 76.446a1.953 1.953 0 1 1-3.906 0 1.953 1.953 0 0 1 3.906 0z"/></g><g><path fill="#a7a9ac" d="M97.285 76.446a1.953 1.953 0 1 1-3.907 0 1.953 1.953 0 0 1 3.907 0z"/></g><g><path fill="#a7a9ac" d="M110.563 76.446a1.953 1.953 0 1 1-3.906 0 1.953 1.953 0 0 1 3.906 0z"/></g><g><path fill="#a7a9ac" d="M123.84 76.446a1.953 1.953 0 1 1-3.905 0 1.953 1.953 0 0 1 3.906 0z"/></g><g><path fill="#a7a9ac" d="M137.12 76.446a1.953 1.953 0 1 1-3.907 0 1.953 1.953 0 0 1 3.906 0z"/></g><g><path fill="#a7a9ac" d="M150.397 76.446a1.953 1.953 0 1 1-3.906 0 1.953 1.953 0 0 1 3.906 0z"/></g><g><path fill="#a7a9ac" d="M163.675 76.446a1.953 1.953 0 1 1-3.906 0 1.953 1.953 0 0 1 3.906 0z"/></g><g><path fill="#a7a9ac" d="M176.953 76.446a1.953 1.953 0 1 1-3.906 0 1.953 1.953 0 0 1 3.906 0z"/></g><g><path fill="#a7a9ac" d="M190.231 76.446a1.953 1.953 0 1 1-3.905.001 1.953 1.953 0 0 1 3.905 0z"/></g><g><path fill="#a7a9ac" d="M203.51 76.446a1.953 1.953 0 1 1-3.907 0 1.953 1.953 0 0 1 3.906 0z"/></g><g><path fill="#a7a9ac" d="M216.787 76.446a1.953 1.953 0 1 1-3.905.001 1.953 1.953 0 0 1 3.905 0z"/></g><g><path fill="#a7a9ac" d="M230.065 76.446a1.953 1.953 0 1 1-3.906 0 1.953 1.953 0 0 1 3.906 0z"/></g><g><path fill="#a7a9ac" d="M243.343 76.446a1.953 1.953 0 1 1-3.906 0 1.953 1.953 0 0 1 3.906 0z"/></g><g><path fill="#a7a9ac" d="M256.622 76.446a1.953 1.953 0 1 1-3.907 0 1.953 1.953 0 0 1 3.907 0z"/></g><g><path fill="#a7a9ac" d="M269.9 76.446a1.953 1.953 0 1 1-3.907 0 1.953 1.953 0 0 1 3.906 0z"/></g><g><path fill="#a7a9ac" d="M283.178 76.446a1.953 1.953 0 1 1-3.907 0 1.953 1.953 0 0 1 3.907 0z"/></g><g><path fill="#a7a9ac" d="M296.456 76.446a1.953 1.953 0 1 1-3.907 0 1.953 1.953 0 0 1 3.907 0z"/></g><g><path fill="#a7a9ac" d="M309.734 76.446a1.953 1.953 0 1 1-3.907 0 1.953 1.953 0 0 1 3.907 0z"/></g><g><path fill="#a7a9ac" d="M323.012 76.446a1.953 1.953 0 1 1-3.907 0 1.953 1.953 0 0 1 3.907 0z"/></g><g><path fill="#a7a9ac" d="M336.29 76.446a1.953 1.953 0 1 1-3.905.001 1.953 1.953 0 0 1 3.905 0z"/></g><g><path fill="#a7a9ac" d="M349.568 76.446a1.953 1.953 0 1 1-3.906 0 1.953 1.953 0 0 1 3.906 0z"/></g><g><path fill="#a7a9ac" d="M4.338 91.28a1.953 1.953 0 1 1-3.906 0 1.953 1.953 0 0 1 3.906 0z"/></g><g><path fill="#a7a9ac" d="M17.617 91.28a1.953 1.953 0 1 1-3.907 0 1.953 1.953 0 0 1 3.907 0z"/></g><g><path fill="#a7a9ac" d="M30.895 91.28a1.953 1.953 0 1 1-3.907 0 1.953 1.953 0 0 1 3.907 0z"/></g><g><path fill="#a7a9ac" d="M44.173 91.28a1.953 1.953 0 1 1-3.906 0 1.953 1.953 0 0 1 3.906 0z"/></g><g><path fill="#a7a9ac" d="M57.45 91.28a1.953 1.953 0 1 1-3.906 0 1.953 1.953 0 0 1 3.907 0z"/></g><g><path fill="#a7a9ac" d="M70.728 91.28a1.953 1.953 0 1 1-3.905 0 1.953 1.953 0 0 1 3.906 0z"/></g><g><path fill="#a7a9ac" d="M84.007 91.28a1.953 1.953 0 1 1-3.906 0 1.953 1.953 0 0 1 3.906 0z"/></g><g><path fill="#a7a9ac" d="M97.285 91.28a1.953 1.953 0 1 1-3.907 0 1.953 1.953 0 0 1 3.907 0z"/></g><g><path fill="#a7a9ac" d="M110.563 91.28a1.953 1.953 0 1 1-3.906 0 1.953 1.953 0 0 1 3.906 0z"/></g><g><path fill="#a7a9ac" d="M123.84 91.28a1.953 1.953 0 1 1-3.905 0 1.953 1.953 0 0 1 3.906 0z"/></g><g><path fill="#a7a9ac" d="M137.12 91.28a1.953 1.953 0 1 1-3.907 0 1.953 1.953 0 0 1 3.906 0z"/></g><g><path fill="#a7a9ac" d="M150.397 91.28a1.953 1.953 0 1 1-3.906 0 1.953 1.953 0 0 1 3.906 0z"/></g><g><path fill="#a7a9ac" d="M163.675 91.28a1.953 1.953 0 1 1-3.906 0 1.953 1.953 0 0 1 3.906 0z"/></g><g><path fill="#a7a9ac" d="M176.953 91.28a1.953 1.953 0 1 1-3.906 0 1.953 1.953 0 0 1 3.906 0z"/></g><g><path fill="#a7a9ac" d="M190.231 91.28a1.953 1.953 0 1 1-3.905 0 1.953 1.953 0 0 1 3.905 0z"/></g><g><path fill="#a7a9ac" d="M203.51 91.28a1.953 1.953 0 1 1-3.907 0 1.953 1.953 0 0 1 3.906 0z"/></g><g><path fill="#a7a9ac" d="M216.787 91.28a1.953 1.953 0 1 1-3.905 0 1.953 1.953 0 0 1 3.905 0z"/></g><g><path fill="#a7a9ac" d="M230.065 91.28a1.953 1.953 0 1 1-3.906 0 1.953 1.953 0 0 1 3.906 0z"/></g><g><path fill="#a7a9ac" d="M243.343 91.28a1.953 1.953 0 1 1-3.906 0 1.953 1.953 0 0 1 3.906 0z"/></g><g><path fill="#a7a9ac" d="M256.622 91.28a1.953 1.953 0 1 1-3.907 0 1.953 1.953 0 0 1 3.907 0z"/></g><g><path fill="#a7a9ac" d="M269.9 91.28a1.953 1.953 0 1 1-3.907 0 1.953 1.953 0 0 1 3.906 0z"/></g><g><path fill="#a7a9ac" d="M283.178 91.28a1.953 1.953 0 1 1-3.907 0 1.953 1.953 0 0 1 3.907 0z"/></g><g><path fill="#a7a9ac" d="M296.456 91.28a1.953 1.953 0 1 1-3.907 0 1.953 1.953 0 0 1 3.907 0z"/></g><g><path fill="#a7a9ac" d="M309.734 91.28a1.953 1.953 0 1 1-3.907-.001 1.953 1.953 0 0 1 3.907 0z"/></g><g><path fill="#a7a9ac" d="M323.012 91.28a1.953 1.953 0 1 1-3.907 0 1.953 1.953 0 0 1 3.907 0z"/></g><g><path fill="#a7a9ac" d="M336.29 91.28a1.953 1.953 0 1 1-3.905 0 1.953 1.953 0 0 1 3.905 0z"/></g><g><path fill="#a7a9ac" d="M349.568 91.28a1.953 1.953 0 1 1-3.906 0 1.953 1.953 0 0 1 3.906 0z"/></g><g><path fill="#a7a9ac" d="M4.338 106.113a1.954 1.954 0 1 1-3.907-.001 1.954 1.954 0 0 1 3.907.001z"/></g><g><path fill="#a7a9ac" d="M17.617 106.113a1.954 1.954 0 1 1-3.908-.001 1.954 1.954 0 0 1 3.908.001z"/></g><g><path fill="#a7a9ac" d="M30.895 106.113a1.954 1.954 0 1 1-3.908-.001 1.954 1.954 0 0 1 3.908.001z"/></g><g><path fill="#a7a9ac" d="M44.173 106.113a1.954 1.954 0 1 1-3.908-.001 1.954 1.954 0 0 1 3.908.001z"/></g><g><path fill="#a7a9ac" d="M57.45 106.113a1.954 1.954 0 1 1-3.907-.001 1.954 1.954 0 0 1 3.908.001z"/></g><g><path fill="#a7a9ac" d="M70.728 106.113a1.953 1.953 0 1 1-3.906 0 1.953 1.953 0 0 1 3.906 0z"/></g><g><path fill="#a7a9ac" d="M84.007 106.113a1.954 1.954 0 1 1-3.908-.001 1.954 1.954 0 0 1 3.908.001z"/></g><g><path fill="#a7a9ac" d="M97.285 106.113a1.954 1.954 0 1 1-3.908-.001 1.954 1.954 0 0 1 3.908.001z"/></g><g><path fill="#a7a9ac" d="M110.563 106.113a1.954 1.954 0 1 1-3.908-.001 1.954 1.954 0 0 1 3.908.001z"/></g><g><path fill="#a7a9ac" d="M123.84 106.113a1.954 1.954 0 1 1-3.907-.001 1.954 1.954 0 0 1 3.908.001z"/></g><g><path fill="#a7a9ac" d="M137.12 106.113a1.954 1.954 0 1 1-3.908-.001 1.954 1.954 0 0 1 3.907.001z"/></g><g><path fill="#a7a9ac" d="M150.397 106.113a1.954 1.954 0 1 1-3.908-.001 1.954 1.954 0 0 1 3.908.001z"/></g><g><path fill="#a7a9ac" d="M163.675 106.113a1.954 1.954 0 1 1-3.907-.001 1.954 1.954 0 0 1 3.907.001z"/></g><g><path fill="#a7a9ac" d="M176.953 106.113a1.954 1.954 0 1 1-3.907-.001 1.954 1.954 0 0 1 3.907.001z"/></g><g><path fill="#a7a9ac" d="M190.231 106.113a1.953 1.953 0 1 1-3.906 0 1.953 1.953 0 0 1 3.906 0z"/></g><g><path fill="#a7a9ac" d="M203.51 106.113a1.954 1.954 0 1 1-3.908-.001 1.954 1.954 0 0 1 3.907.001z"/></g><g><path fill="#a7a9ac" d="M216.787 106.113a1.953 1.953 0 1 1-3.906 0 1.953 1.953 0 0 1 3.906 0z"/></g><g><path fill="#a7a9ac" d="M230.065 106.113a1.954 1.954 0 1 1-3.907-.001 1.954 1.954 0 0 1 3.907.001z"/></g><g><path fill="#a7a9ac" d="M243.343 106.113a1.954 1.954 0 1 1-3.907-.001 1.954 1.954 0 0 1 3.907.001z"/></g><g><path fill="#a7a9ac" d="M256.622 106.113a1.954 1.954 0 1 1-3.908-.001 1.954 1.954 0 0 1 3.908.001z"/></g><g><path fill="#a7a9ac" d="M269.9 106.113a1.954 1.954 0 1 1-3.908-.001 1.954 1.954 0 0 1 3.907.001z"/></g><g><path fill="#a7a9ac" d="M283.178 106.113a1.954 1.954 0 1 1-3.908-.001 1.954 1.954 0 0 1 3.908.001z"/></g><g><path fill="#a7a9ac" d="M296.456 106.113a1.954 1.954 0 1 1-3.908-.001 1.954 1.954 0 0 1 3.908.001z"/></g><g><path fill="#a7a9ac" d="M309.734 106.113a1.954 1.954 0 1 1-3.908-.002 1.954 1.954 0 0 1 3.908.002z"/></g><g><path fill="#a7a9ac" d="M323.012 106.113a1.954 1.954 0 1 1-3.908-.001 1.954 1.954 0 0 1 3.908.001z"/></g><g><path fill="#a7a9ac" d="M336.29 106.113a1.953 1.953 0 1 1-3.907 0 1.953 1.953 0 0 1 3.907 0z"/></g><g><path fill="#a7a9ac" d="M349.568 106.113a1.954 1.954 0 1 1-3.908-.001 1.954 1.954 0 0 1 3.908.001z"/></g><g><path fill="#a7a9ac" d="M4.338 120.946a1.954 1.954 0 1 1-3.907-.001 1.954 1.954 0 0 1 3.907.001z"/></g><g><path fill="#a7a9ac" d="M17.617 120.946a1.954 1.954 0 1 1-3.908-.001 1.954 1.954 0 0 1 3.908.001z"/></g><g><path fill="#a7a9ac" d="M30.895 120.946a1.954 1.954 0 1 1-3.908-.001 1.954 1.954 0 0 1 3.908.001z"/></g><g><path fill="#a7a9ac" d="M44.173 120.946a1.954 1.954 0 1 1-3.908-.001 1.954 1.954 0 0 1 3.908.001z"/></g><g><path fill="#a7a9ac" d="M57.45 120.946a1.954 1.954 0 1 1-3.907-.001 1.954 1.954 0 0 1 3.908.001z"/></g><g><path fill="#a7a9ac" d="M70.728 120.946a1.953 1.953 0 1 1-3.906 0 1.953 1.953 0 0 1 3.906 0z"/></g><g><path fill="#a7a9ac" d="M84.007 120.946a1.954 1.954 0 1 1-3.908-.001 1.954 1.954 0 0 1 3.908.001z"/></g><g><path fill="#a7a9ac" d="M97.285 120.946a1.954 1.954 0 1 1-3.908-.001 1.954 1.954 0 0 1 3.908.001z"/></g><g><path fill="#a7a9ac" d="M110.563 120.946a1.954 1.954 0 1 1-3.908-.001 1.954 1.954 0 0 1 3.908.001z"/></g><g><path fill="#a7a9ac" d="M123.84 120.946a1.954 1.954 0 1 1-3.907-.001 1.954 1.954 0 0 1 3.908.001z"/></g><g><path fill="#a7a9ac" d="M137.12 120.946a1.954 1.954 0 1 1-3.908-.001 1.954 1.954 0 0 1 3.907.001z"/></g><g><path fill="#a7a9ac" d="M150.397 120.946a1.954 1.954 0 1 1-3.908-.001 1.954 1.954 0 0 1 3.908.001z"/></g><g><path fill="#a7a9ac" d="M163.675 120.946a1.954 1.954 0 1 1-3.907-.001 1.954 1.954 0 0 1 3.907.001z"/></g><g><path fill="#a7a9ac" d="M176.953 120.946a1.954 1.954 0 1 1-3.907-.001 1.954 1.954 0 0 1 3.907.001z"/></g><g><path fill="#a7a9ac" d="M190.231 120.946a1.953 1.953 0 1 1-3.906 0 1.953 1.953 0 0 1 3.906 0z"/></g><g><path fill="#a7a9ac" d="M203.51 120.946a1.954 1.954 0 1 1-3.908-.001 1.954 1.954 0 0 1 3.907.001z"/></g><g><path fill="#a7a9ac" d="M216.787 120.946a1.953 1.953 0 1 1-3.906 0 1.953 1.953 0 0 1 3.906 0z"/></g><g><path fill="#a7a9ac" d="M230.065 120.946a1.954 1.954 0 1 1-3.907-.001 1.954 1.954 0 0 1 3.907.001z"/></g><g><path fill="#a7a9ac" d="M243.343 120.946a1.954 1.954 0 1 1-3.907-.001 1.954 1.954 0 0 1 3.907.001z"/></g><g><path fill="#a7a9ac" d="M256.622 120.946a1.954 1.954 0 1 1-3.908-.001 1.954 1.954 0 0 1 3.908.001z"/></g><g><path fill="#a7a9ac" d="M269.9 120.946a1.954 1.954 0 1 1-3.908-.001 1.954 1.954 0 0 1 3.907.001z"/></g><g><path fill="#a7a9ac" d="M283.178 120.946a1.954 1.954 0 1 1-3.908-.001 1.954 1.954 0 0 1 3.908.001z"/></g><g><path fill="#a7a9ac" d="M296.456 120.946a1.954 1.954 0 1 1-3.908-.001 1.954 1.954 0 0 1 3.908.001z"/></g><g><path fill="#a7a9ac" d="M309.734 120.946a1.954 1.954 0 1 1-3.908-.002 1.954 1.954 0 0 1 3.908.002z"/></g><g><path fill="#a7a9ac" d="M323.012 120.946a1.954 1.954 0 1 1-3.908-.001 1.954 1.954 0 0 1 3.908.001z"/></g><g><path fill="#a7a9ac" d="M336.29 120.946a1.953 1.953 0 1 1-3.907 0 1.953 1.953 0 0 1 3.907 0z"/></g><g><path fill="#a7a9ac" d="M349.568 120.946a1.954 1.954 0 1 1-3.908-.001 1.954 1.954 0 0 1 3.908.001z"/></g><g><path fill="#a7a9ac" d="M4.338 135.78a1.953 1.953 0 1 1-3.906 0 1.953 1.953 0 0 1 3.906 0z"/></g><g><path fill="#a7a9ac" d="M17.617 135.78a1.953 1.953 0 1 1-3.907 0 1.953 1.953 0 0 1 3.907 0z"/></g><g><path fill="#a7a9ac" d="M30.895 135.78a1.953 1.953 0 1 1-3.907 0 1.953 1.953 0 0 1 3.907 0z"/></g><g><path fill="#a7a9ac" d="M44.173 135.78a1.953 1.953 0 1 1-3.906 0 1.953 1.953 0 0 1 3.906 0z"/></g><g><path fill="#a7a9ac" d="M57.45 135.78a1.953 1.953 0 1 1-3.906 0 1.953 1.953 0 0 1 3.907 0z"/></g><g><path fill="#a7a9ac" d="M70.728 135.78a1.953 1.953 0 1 1-3.905 0 1.953 1.953 0 0 1 3.906 0z"/></g><g><path fill="#a7a9ac" d="M84.007 135.78a1.953 1.953 0 1 1-3.906 0 1.953 1.953 0 0 1 3.906 0z"/></g><g><path fill="#a7a9ac" d="M97.285 135.78a1.953 1.953 0 1 1-3.907 0 1.953 1.953 0 0 1 3.907 0z"/></g><g><path fill="#a7a9ac" d="M110.563 135.78a1.953 1.953 0 1 1-3.906 0 1.953 1.953 0 0 1 3.906 0z"/></g><g><path fill="#a7a9ac" d="M123.84 135.78a1.953 1.953 0 1 1-3.905 0 1.953 1.953 0 0 1 3.906 0z"/></g><g><path fill="#a7a9ac" d="M137.12 135.78a1.953 1.953 0 1 1-3.907 0 1.953 1.953 0 0 1 3.906 0z"/></g><g><path fill="#a7a9ac" d="M150.397 135.78a1.953 1.953 0 1 1-3.906 0 1.953 1.953 0 0 1 3.906 0z"/></g><g><path fill="#a7a9ac" d="M163.675 135.78a1.953 1.953 0 1 1-3.906 0 1.953 1.953 0 0 1 3.906 0z"/></g><g><path fill="#a7a9ac" d="M176.953 135.78a1.953 1.953 0 1 1-3.906 0 1.953 1.953 0 0 1 3.906 0z"/></g><g><path fill="#a7a9ac" d="M190.231 135.78a1.953 1.953 0 1 1-3.905 0 1.953 1.953 0 0 1 3.905 0z"/></g><g><path fill="#a7a9ac" d="M203.51 135.78a1.953 1.953 0 1 1-3.907 0 1.953 1.953 0 0 1 3.906 0z"/></g><g><path fill="#a7a9ac" d="M216.787 135.78a1.953 1.953 0 1 1-3.905 0 1.953 1.953 0 0 1 3.905 0z"/></g><g><path fill="#a7a9ac" d="M230.065 135.78a1.953 1.953 0 1 1-3.906 0 1.953 1.953 0 0 1 3.906 0z"/></g><g><path fill="#a7a9ac" d="M243.343 135.78a1.953 1.953 0 1 1-3.906 0 1.953 1.953 0 0 1 3.906 0z"/></g><g><path fill="#a7a9ac" d="M256.622 135.78a1.953 1.953 0 1 1-3.907 0 1.953 1.953 0 0 1 3.907 0z"/></g><g><path fill="#a7a9ac" d="M269.9 135.78a1.953 1.953 0 1 1-3.907 0 1.953 1.953 0 0 1 3.906 0z"/></g><g><path fill="#a7a9ac" d="M283.178 135.78a1.953 1.953 0 1 1-3.907 0 1.953 1.953 0 0 1 3.907 0z"/></g><g><path fill="#a7a9ac" d="M296.456 135.78a1.953 1.953 0 1 1-3.907 0 1.953 1.953 0 0 1 3.907 0z"/></g><g><path fill="#a7a9ac" d="M309.734 135.78a1.953 1.953 0 1 1-3.907-.001 1.953 1.953 0 0 1 3.907 0z"/></g><g><path fill="#a7a9ac" d="M323.012 135.78a1.953 1.953 0 1 1-3.907 0 1.953 1.953 0 0 1 3.907 0z"/></g><g><path fill="#a7a9ac" d="M336.29 135.78a1.953 1.953 0 1 1-3.905 0 1.953 1.953 0 0 1 3.905 0z"/></g><g><path fill="#a7a9ac" d="M349.568 135.78a1.953 1.953 0 1 1-3.906 0 1.953 1.953 0 0 1 3.906 0z"/></g><g><path fill="#a7a9ac" d="M4.338 150.612a1.953 1.953 0 1 1-3.906 0 1.953 1.953 0 0 1 3.906 0z"/></g><g><path fill="#a7a9ac" d="M17.617 150.612a1.953 1.953 0 1 1-3.907 0 1.953 1.953 0 0 1 3.907 0z"/></g><g><path fill="#a7a9ac" d="M30.895 150.612a1.953 1.953 0 1 1-3.907 0 1.953 1.953 0 0 1 3.907 0z"/></g><g><path fill="#a7a9ac" d="M44.173 150.612a1.953 1.953 0 1 1-3.906 0 1.953 1.953 0 0 1 3.906 0z"/></g><g><path fill="#a7a9ac" d="M57.45 150.612a1.953 1.953 0 1 1-3.906 0 1.953 1.953 0 0 1 3.907 0z"/></g><g><path fill="#a7a9ac" d="M70.728 150.612a1.953 1.953 0 1 1-3.905.001 1.953 1.953 0 0 1 3.906 0z"/></g><g><path fill="#a7a9ac" d="M84.007 150.612a1.953 1.953 0 1 1-3.906 0 1.953 1.953 0 0 1 3.906 0z"/></g><g><path fill="#a7a9ac" d="M97.285 150.612a1.953 1.953 0 1 1-3.907 0 1.953 1.953 0 0 1 3.907 0z"/></g><g><path fill="#a7a9ac" d="M110.563 150.612a1.953 1.953 0 1 1-3.906 0 1.953 1.953 0 0 1 3.906 0z"/></g><g><path fill="#a7a9ac" d="M123.84 150.612a1.953 1.953 0 1 1-3.905 0 1.953 1.953 0 0 1 3.906 0z"/></g><g><path fill="#a7a9ac" d="M137.12 150.612a1.953 1.953 0 1 1-3.907 0 1.953 1.953 0 0 1 3.906 0z"/></g><g><path fill="#a7a9ac" d="M150.397 150.612a1.953 1.953 0 1 1-3.906 0 1.953 1.953 0 0 1 3.906 0z"/></g><g><path fill="#a7a9ac" d="M163.675 150.612a1.953 1.953 0 1 1-3.906 0 1.953 1.953 0 0 1 3.906 0z"/></g><g><path fill="#a7a9ac" d="M176.953 150.612a1.953 1.953 0 1 1-3.906 0 1.953 1.953 0 0 1 3.906 0z"/></g><g><path fill="#a7a9ac" d="M190.231 150.612a1.953 1.953 0 1 1-3.905.001 1.953 1.953 0 0 1 3.905 0z"/></g><g><path fill="#a7a9ac" d="M203.51 150.612a1.953 1.953 0 1 1-3.907 0 1.953 1.953 0 0 1 3.906 0z"/></g><g><path fill="#a7a9ac" d="M216.787 150.612a1.953 1.953 0 1 1-3.905.001 1.953 1.953 0 0 1 3.905 0z"/></g><g><path fill="#a7a9ac" d="M230.065 150.612a1.953 1.953 0 1 1-3.906 0 1.953 1.953 0 0 1 3.906 0z"/></g><g><path fill="#a7a9ac" d="M243.343 150.612a1.953 1.953 0 1 1-3.906 0 1.953 1.953 0 0 1 3.906 0z"/></g><g><path fill="#a7a9ac" d="M256.622 150.612a1.953 1.953 0 1 1-3.907 0 1.953 1.953 0 0 1 3.907 0z"/></g><g><path fill="#a7a9ac" d="M269.9 150.612a1.953 1.953 0 1 1-3.907 0 1.953 1.953 0 0 1 3.906 0z"/></g><g><path fill="#a7a9ac" d="M283.178 150.612a1.953 1.953 0 1 1-3.907 0 1.953 1.953 0 0 1 3.907 0z"/></g><g><path fill="#a7a9ac" d="M296.456 150.612a1.953 1.953 0 1 1-3.907 0 1.953 1.953 0 0 1 3.907 0z"/></g><g><path fill="#a7a9ac" d="M309.734 150.612a1.953 1.953 0 1 1-3.907 0 1.953 1.953 0 0 1 3.907 0z"/></g><g><path fill="#a7a9ac" d="M323.012 150.612a1.953 1.953 0 1 1-3.907 0 1.953 1.953 0 0 1 3.907 0z"/></g><g><path fill="#a7a9ac" d="M336.29 150.612a1.953 1.953 0 1 1-3.905.001 1.953 1.953 0 0 1 3.905 0z"/></g><g><path fill="#a7a9ac" d="M349.568 150.612a1.953 1.953 0 1 1-3.906 0 1.953 1.953 0 0 1 3.906 0z"/></g><g><path fill="#a7a9ac" d="M4.338 165.446a1.954 1.954 0 1 1-3.907-.001 1.954 1.954 0 0 1 3.907.001z"/></g><g><path fill="#a7a9ac" d="M17.617 165.446a1.954 1.954 0 1 1-3.908-.001 1.954 1.954 0 0 1 3.908.001z"/></g><g><path fill="#a7a9ac" d="M30.895 165.446a1.954 1.954 0 1 1-3.908-.001 1.954 1.954 0 0 1 3.908.001z"/></g><g><path fill="#a7a9ac" d="M44.173 165.446a1.954 1.954 0 1 1-3.908-.001 1.954 1.954 0 0 1 3.908.001z"/></g><g><path fill="#a7a9ac" d="M57.45 165.446a1.954 1.954 0 1 1-3.907-.001 1.954 1.954 0 0 1 3.908.001z"/></g><g><path fill="#a7a9ac" d="M70.728 165.446a1.953 1.953 0 1 1-3.906 0 1.953 1.953 0 0 1 3.906 0z"/></g><g><path fill="#a7a9ac" d="M84.007 165.446a1.954 1.954 0 1 1-3.908-.001 1.954 1.954 0 0 1 3.908.001z"/></g><g><path fill="#a7a9ac" d="M97.285 165.446a1.954 1.954 0 1 1-3.908-.001 1.954 1.954 0 0 1 3.908.001z"/></g><g><path fill="#a7a9ac" d="M110.563 165.446a1.954 1.954 0 1 1-3.908-.001 1.954 1.954 0 0 1 3.908.001z"/></g><g><path fill="#a7a9ac" d="M123.84 165.446a1.954 1.954 0 1 1-3.907-.001 1.954 1.954 0 0 1 3.908.001z"/></g><g><path fill="#a7a9ac" d="M137.12 165.446a1.954 1.954 0 1 1-3.908-.001 1.954 1.954 0 0 1 3.907.001z"/></g><g><path fill="#a7a9ac" d="M150.397 165.446a1.954 1.954 0 1 1-3.908-.001 1.954 1.954 0 0 1 3.908.001z"/></g><g><path fill="#a7a9ac" d="M163.675 165.446a1.954 1.954 0 1 1-3.907-.001 1.954 1.954 0 0 1 3.907.001z"/></g><g><path fill="#a7a9ac" d="M176.953 165.446a1.954 1.954 0 1 1-3.907-.001 1.954 1.954 0 0 1 3.907.001z"/></g><g><path fill="#a7a9ac" d="M190.231 165.446a1.953 1.953 0 1 1-3.906 0 1.953 1.953 0 0 1 3.906 0z"/></g><g><path fill="#a7a9ac" d="M203.51 165.446a1.954 1.954 0 1 1-3.908-.001 1.954 1.954 0 0 1 3.907.001z"/></g><g><path fill="#a7a9ac" d="M216.787 165.446a1.953 1.953 0 1 1-3.906 0 1.953 1.953 0 0 1 3.906 0z"/></g><g><path fill="#a7a9ac" d="M230.065 165.446a1.954 1.954 0 1 1-3.907-.001 1.954 1.954 0 0 1 3.907.001z"/></g><g><path fill="#a7a9ac" d="M243.343 165.446a1.954 1.954 0 1 1-3.907-.001 1.954 1.954 0 0 1 3.907.001z"/></g><g><path fill="#a7a9ac" d="M256.622 165.446a1.954 1.954 0 1 1-3.908-.001 1.954 1.954 0 0 1 3.908.001z"/></g><g><path fill="#a7a9ac" d="M269.9 165.446a1.954 1.954 0 1 1-3.908-.001 1.954 1.954 0 0 1 3.907.001z"/></g><g><path fill="#a7a9ac" d="M283.178 165.446a1.954 1.954 0 1 1-3.908-.001 1.954 1.954 0 0 1 3.908.001z"/></g><g><path fill="#a7a9ac" d="M296.456 165.446a1.954 1.954 0 1 1-3.908-.001 1.954 1.954 0 0 1 3.908.001z"/></g><g><path fill="#a7a9ac" d="M309.734 165.446a1.954 1.954 0 1 1-3.908-.002 1.954 1.954 0 0 1 3.908.002z"/></g><g><path fill="#a7a9ac" d="M323.012 165.446a1.954 1.954 0 1 1-3.908-.001 1.954 1.954 0 0 1 3.908.001z"/></g><g><path fill="#a7a9ac" d="M336.29 165.446a1.953 1.953 0 1 1-3.907 0 1.953 1.953 0 0 1 3.907 0z"/></g><g><path fill="#a7a9ac" d="M349.568 165.446a1.954 1.954 0 1 1-3.908-.001 1.954 1.954 0 0 1 3.908.001z"/></g><g><path fill="#a7a9ac" d="M4.338 180.28a1.954 1.954 0 1 1-3.907-.002 1.954 1.954 0 0 1 3.907.001z"/></g><g><path fill="#a7a9ac" d="M17.617 180.28a1.954 1.954 0 1 1-3.908-.002 1.954 1.954 0 0 1 3.908.001z"/></g><g><path fill="#a7a9ac" d="M30.895 180.28a1.954 1.954 0 1 1-3.908-.002 1.954 1.954 0 0 1 3.908.001z"/></g><g><path fill="#a7a9ac" d="M44.173 180.28a1.954 1.954 0 1 1-3.908-.002 1.954 1.954 0 0 1 3.908.001z"/></g><g><path fill="#a7a9ac" d="M57.45 180.28a1.954 1.954 0 1 1-3.907-.002 1.954 1.954 0 0 1 3.908.001z"/></g><g><path fill="#a7a9ac" d="M70.728 180.28a1.953 1.953 0 1 1-3.906 0 1.953 1.953 0 0 1 3.906 0z"/></g><g><path fill="#a7a9ac" d="M84.007 180.28a1.954 1.954 0 1 1-3.908-.002 1.954 1.954 0 0 1 3.908.001z"/></g><g><path fill="#a7a9ac" d="M97.285 180.28a1.954 1.954 0 1 1-3.908-.002 1.954 1.954 0 0 1 3.908.001z"/></g><g><path fill="#a7a9ac" d="M110.563 180.28a1.954 1.954 0 1 1-3.908-.002 1.954 1.954 0 0 1 3.908.001z"/></g><g><path fill="#a7a9ac" d="M123.84 180.28a1.954 1.954 0 1 1-3.907-.002 1.954 1.954 0 0 1 3.908.001z"/></g><g><path fill="#a7a9ac" d="M137.12 180.28a1.954 1.954 0 1 1-3.908-.002 1.954 1.954 0 0 1 3.907.001z"/></g><g><path fill="#a7a9ac" d="M150.397 180.28a1.954 1.954 0 1 1-3.908-.002 1.954 1.954 0 0 1 3.908.001z"/></g><g><path fill="#a7a9ac" d="M163.675 180.28a1.954 1.954 0 1 1-3.907-.002 1.954 1.954 0 0 1 3.907.001z"/></g><g><path fill="#a7a9ac" d="M176.953 180.28a1.954 1.954 0 1 1-3.907-.002 1.954 1.954 0 0 1 3.907.001z"/></g><g><path fill="#a7a9ac" d="M190.231 180.28a1.953 1.953 0 1 1-3.906 0 1.953 1.953 0 0 1 3.906 0z"/></g><g><path fill="#a7a9ac" d="M203.51 180.28a1.954 1.954 0 1 1-3.908-.002 1.954 1.954 0 0 1 3.907.001z"/></g><g><path fill="#a7a9ac" d="M216.787 180.28a1.953 1.953 0 1 1-3.906 0 1.953 1.953 0 0 1 3.906 0z"/></g><g><path fill="#a7a9ac" d="M230.065 180.28a1.954 1.954 0 1 1-3.907-.002 1.954 1.954 0 0 1 3.907.001z"/></g><g><path fill="#a7a9ac" d="M243.343 180.28a1.954 1.954 0 1 1-3.907-.002 1.954 1.954 0 0 1 3.907.001z"/></g><g><path fill="#a7a9ac" d="M256.622 180.28a1.954 1.954 0 1 1-3.908-.002 1.954 1.954 0 0 1 3.908.001z"/></g><g><path fill="#a7a9ac" d="M269.9 180.28a1.954 1.954 0 1 1-3.908-.002 1.954 1.954 0 0 1 3.907.001z"/></g><g><path fill="#a7a9ac" d="M283.178 180.28a1.954 1.954 0 1 1-3.908-.002 1.954 1.954 0 0 1 3.908.001z"/></g><g><path fill="#a7a9ac" d="M296.456 180.28a1.954 1.954 0 1 1-3.908-.002 1.954 1.954 0 0 1 3.908.001z"/></g><g><path fill="#a7a9ac" d="M309.734 180.28a1.954 1.954 0 1 1-3.908-.003 1.954 1.954 0 0 1 3.908.002z"/></g><g><path fill="#a7a9ac" d="M323.012 180.28a1.954 1.954 0 1 1-3.908-.002 1.954 1.954 0 0 1 3.908.001z"/></g><g><path fill="#a7a9ac" d="M336.29 180.28a1.953 1.953 0 1 1-3.907 0 1.953 1.953 0 0 1 3.907 0z"/></g><g><path fill="#a7a9ac" d="M349.568 180.28a1.954 1.954 0 1 1-3.908-.002 1.954 1.954 0 0 1 3.908.001z"/></g><g><path fill="#a7a9ac" d="M4.338 195.112a1.953 1.953 0 1 1-3.906 0 1.953 1.953 0 0 1 3.906 0z"/></g><g><path fill="#a7a9ac" d="M17.617 195.112a1.953 1.953 0 1 1-3.907 0 1.953 1.953 0 0 1 3.907 0z"/></g><g><path fill="#a7a9ac" d="M30.895 195.112a1.953 1.953 0 1 1-3.907 0 1.953 1.953 0 0 1 3.907 0z"/></g><g><path fill="#a7a9ac" d="M44.173 195.112a1.953 1.953 0 1 1-3.906 0 1.953 1.953 0 0 1 3.906 0z"/></g><g><path fill="#a7a9ac" d="M57.45 195.112a1.953 1.953 0 1 1-3.906 0 1.953 1.953 0 0 1 3.907 0z"/></g><g><path fill="#a7a9ac" d="M70.728 195.112a1.953 1.953 0 1 1-3.905.001 1.953 1.953 0 0 1 3.906 0z"/></g><g><path fill="#a7a9ac" d="M84.007 195.112a1.953 1.953 0 1 1-3.906 0 1.953 1.953 0 0 1 3.906 0z"/></g><g><path fill="#a7a9ac" d="M97.285 195.112a1.953 1.953 0 1 1-3.907 0 1.953 1.953 0 0 1 3.907 0z"/></g><g><path fill="#a7a9ac" d="M110.563 195.112a1.953 1.953 0 1 1-3.906 0 1.953 1.953 0 0 1 3.906 0z"/></g><g><path fill="#a7a9ac" d="M123.84 195.112a1.953 1.953 0 1 1-3.905 0 1.953 1.953 0 0 1 3.906 0z"/></g><g><path fill="#a7a9ac" d="M137.12 195.112a1.953 1.953 0 1 1-3.907 0 1.953 1.953 0 0 1 3.906 0z"/></g><g><path fill="#a7a9ac" d="M150.397 195.112a1.953 1.953 0 1 1-3.906 0 1.953 1.953 0 0 1 3.906 0z"/></g><g><path fill="#a7a9ac" d="M163.675 195.112a1.953 1.953 0 1 1-3.906 0 1.953 1.953 0 0 1 3.906 0z"/></g><g><path fill="#a7a9ac" d="M176.953 195.112a1.953 1.953 0 1 1-3.906 0 1.953 1.953 0 0 1 3.906 0z"/></g><g><path fill="#a7a9ac" d="M190.231 195.112a1.953 1.953 0 1 1-3.905.001 1.953 1.953 0 0 1 3.905 0z"/></g><g><path fill="#a7a9ac" d="M203.51 195.112a1.953 1.953 0 1 1-3.907 0 1.953 1.953 0 0 1 3.906 0z"/></g><g><path fill="#a7a9ac" d="M216.787 195.112a1.953 1.953 0 1 1-3.905.001 1.953 1.953 0 0 1 3.905 0z"/></g><g><path fill="#a7a9ac" d="M230.065 195.112a1.953 1.953 0 1 1-3.906 0 1.953 1.953 0 0 1 3.906 0z"/></g><g><path fill="#a7a9ac" d="M243.343 195.112a1.953 1.953 0 1 1-3.906 0 1.953 1.953 0 0 1 3.906 0z"/></g><g><path fill="#a7a9ac" d="M256.622 195.112a1.953 1.953 0 1 1-3.907 0 1.953 1.953 0 0 1 3.907 0z"/></g><g><path fill="#a7a9ac" d="M269.9 195.112a1.953 1.953 0 1 1-3.907 0 1.953 1.953 0 0 1 3.906 0z"/></g><g><path fill="#a7a9ac" d="M283.178 195.112a1.953 1.953 0 1 1-3.907 0 1.953 1.953 0 0 1 3.907 0z"/></g><g><path fill="#a7a9ac" d="M296.456 195.112a1.953 1.953 0 1 1-3.907 0 1.953 1.953 0 0 1 3.907 0z"/></g><g><path fill="#a7a9ac" d="M309.734 195.112a1.953 1.953 0 1 1-3.907 0 1.953 1.953 0 0 1 3.907 0z"/></g><g><path fill="#a7a9ac" d="M323.012 195.112a1.953 1.953 0 1 1-3.907 0 1.953 1.953 0 0 1 3.907 0z"/></g><g><path fill="#a7a9ac" d="M336.29 195.112a1.953 1.953 0 1 1-3.905.001 1.953 1.953 0 0 1 3.905 0z"/></g><g><path fill="#a7a9ac" d="M349.568 195.112a1.953 1.953 0 1 1-3.906 0 1.953 1.953 0 0 1 3.906 0z"/></g><g><path fill="#a7a9ac" d="M4.338 209.945a1.953 1.953 0 1 1-3.906 0 1.953 1.953 0 0 1 3.906 0z"/></g><g><path fill="#a7a9ac" d="M17.617 209.945a1.953 1.953 0 1 1-3.907 0 1.953 1.953 0 0 1 3.907 0z"/></g><g><path fill="#a7a9ac" d="M30.895 209.945a1.953 1.953 0 1 1-3.907 0 1.953 1.953 0 0 1 3.907 0z"/></g><g><path fill="#a7a9ac" d="M44.173 209.945a1.953 1.953 0 1 1-3.906 0 1.953 1.953 0 0 1 3.906 0z"/></g><g><path fill="#a7a9ac" d="M57.45 209.945a1.953 1.953 0 1 1-3.906 0 1.953 1.953 0 0 1 3.907 0z"/></g><g><path fill="#a7a9ac" d="M70.728 209.945a1.953 1.953 0 1 1-3.905.001 1.953 1.953 0 0 1 3.906 0z"/></g><g><path fill="#a7a9ac" d="M84.007 209.945a1.953 1.953 0 1 1-3.906 0 1.953 1.953 0 0 1 3.906 0z"/></g><g><path fill="#a7a9ac" d="M97.285 209.945a1.953 1.953 0 1 1-3.907 0 1.953 1.953 0 0 1 3.907 0z"/></g><g><path fill="#a7a9ac" d="M110.563 209.945a1.953 1.953 0 1 1-3.906 0 1.953 1.953 0 0 1 3.906 0z"/></g><g><path fill="#a7a9ac" d="M123.84 209.945a1.953 1.953 0 1 1-3.905 0 1.953 1.953 0 0 1 3.906 0z"/></g><g><path fill="#a7a9ac" d="M137.12 209.945a1.953 1.953 0 1 1-3.907 0 1.953 1.953 0 0 1 3.906 0z"/></g><g><path fill="#a7a9ac" d="M150.397 209.945a1.953 1.953 0 1 1-3.906 0 1.953 1.953 0 0 1 3.906 0z"/></g><g><path fill="#a7a9ac" d="M163.675 209.945a1.953 1.953 0 1 1-3.906 0 1.953 1.953 0 0 1 3.906 0z"/></g><g><path fill="#a7a9ac" d="M176.953 209.945a1.953 1.953 0 1 1-3.906 0 1.953 1.953 0 0 1 3.906 0z"/></g><g><path fill="#a7a9ac" d="M190.231 209.945a1.953 1.953 0 1 1-3.905.001 1.953 1.953 0 0 1 3.905 0z"/></g><g><path fill="#a7a9ac" d="M203.51 209.945a1.953 1.953 0 1 1-3.907 0 1.953 1.953 0 0 1 3.906 0z"/></g><g><path fill="#a7a9ac" d="M216.787 209.945a1.953 1.953 0 1 1-3.905.001 1.953 1.953 0 0 1 3.905 0z"/></g><g><path fill="#a7a9ac" d="M230.065 209.945a1.953 1.953 0 1 1-3.906 0 1.953 1.953 0 0 1 3.906 0z"/></g><g><path fill="#a7a9ac" d="M243.343 209.945a1.953 1.953 0 1 1-3.906 0 1.953 1.953 0 0 1 3.906 0z"/></g><g><path fill="#a7a9ac" d="M256.622 209.945a1.953 1.953 0 1 1-3.907 0 1.953 1.953 0 0 1 3.907 0z"/></g><g><path fill="#a7a9ac" d="M269.9 209.945a1.953 1.953 0 1 1-3.907 0 1.953 1.953 0 0 1 3.906 0z"/></g><g><path fill="#a7a9ac" d="M283.178 209.945a1.953 1.953 0 1 1-3.907 0 1.953 1.953 0 0 1 3.907 0z"/></g><g><path fill="#a7a9ac" d="M296.456 209.945a1.953 1.953 0 1 1-3.907 0 1.953 1.953 0 0 1 3.907 0z"/></g><g><path fill="#a7a9ac" d="M309.734 209.945a1.953 1.953 0 1 1-3.907 0 1.953 1.953 0 0 1 3.907 0z"/></g><g><path fill="#a7a9ac" d="M323.012 209.945a1.953 1.953 0 1 1-3.907 0 1.953 1.953 0 0 1 3.907 0z"/></g><g><path fill="#a7a9ac" d="M336.29 209.945a1.953 1.953 0 1 1-3.905.001 1.953 1.953 0 0 1 3.905 0z"/></g><g><path fill="#a7a9ac" d="M349.568 209.945a1.953 1.953 0 1 1-3.906 0 1.953 1.953 0 0 1 3.906 0z"/></g></g></svg>