<svg xmlns="http://www.w3.org/2000/svg" width="288" height="475" viewBox="0 0 288 475"><g><g><path fill="#fecd30" d="M2.632 469.613a2.652 2.652 0 1 1 0 5.306 2.652 2.652 0 0 1 0-5.306z"/></g><g><path fill="#fecd30" d="M2.632 451.576a2.653 2.653 0 1 1 .001 5.305 2.653 2.653 0 0 1 0-5.305z"/></g><g><path fill="#fecd30" d="M2.632 433.54a2.653 2.653 0 1 1 .001 5.305 2.653 2.653 0 0 1 0-5.305z"/></g><g><path fill="#fecd30" d="M2.632 415.504a2.653 2.653 0 1 1 .001 5.305 2.653 2.653 0 0 1 0-5.305z"/></g><g><path fill="#fecd30" d="M2.632 397.467a2.652 2.652 0 1 1 0 5.307 2.652 2.652 0 0 1 0-5.307z"/></g><g><path fill="#fecd30" d="M2.632 379.431a2.652 2.652 0 1 1 0 5.306 2.652 2.652 0 0 1 0-5.306z"/></g><g><path fill="#fecd30" d="M2.632 361.395a2.653 2.653 0 1 1 .001 5.305 2.653 2.653 0 0 1 0-5.305z"/></g><g><path fill="#fecd30" d="M2.632 343.359a2.653 2.653 0 1 1 .001 5.305 2.653 2.653 0 0 1 0-5.305z"/></g><g><path fill="#fecd30" d="M2.632 325.322a2.653 2.653 0 1 1 .001 5.306 2.653 2.653 0 0 1 0-5.305z"/></g><g><path fill="#fecd30" d="M2.632 307.286a2.652 2.652 0 1 1 0 5.306 2.652 2.652 0 0 1 0-5.306z"/></g><g><path fill="#fecd30" d="M2.632 289.25a2.653 2.653 0 1 1 .001 5.305 2.653 2.653 0 0 1 0-5.305z"/></g><g><path fill="#fecd30" d="M2.632 271.214a2.653 2.653 0 1 1 .001 5.305 2.653 2.653 0 0 1 0-5.305z"/></g><g><path fill="#fecd30" d="M2.632 253.178a2.653 2.653 0 1 1 .001 5.305 2.653 2.653 0 0 1 0-5.305z"/></g><g><path fill="#fecd30" d="M2.632 235.141a2.652 2.652 0 1 1 0 5.306 2.652 2.652 0 0 1 0-5.306z"/></g><g><path fill="#fecd30" d="M2.632 217.105a2.652 2.652 0 1 1 0 5.306 2.652 2.652 0 0 1 0-5.306z"/></g><g><path fill="#fecd30" d="M2.632 199.069a2.653 2.653 0 1 1 .001 5.305 2.653 2.653 0 0 1 0-5.305z"/></g><g><path fill="#fecd30" d="M2.632 181.032a2.653 2.653 0 1 1 .001 5.306 2.653 2.653 0 0 1 0-5.305z"/></g><g><path fill="#fecd30" d="M2.632 162.996a2.652 2.652 0 1 1 0 5.306 2.652 2.652 0 0 1 0-5.306z"/></g><g><path fill="#fecd30" d="M2.632 144.96a2.652 2.652 0 1 1 0 5.306 2.652 2.652 0 0 1 0-5.306z"/></g><g><path fill="#fecd30" d="M2.632 126.924a2.653 2.653 0 1 1 .001 5.305 2.653 2.653 0 0 1 0-5.305z"/></g><g><path fill="#fecd30" d="M2.632 108.887a2.653 2.653 0 1 1 .001 5.306 2.653 2.653 0 0 1 0-5.306z"/></g><g><path fill="#fecd30" d="M2.632 90.851a2.653 2.653 0 1 1 .001 5.306 2.653 2.653 0 0 1 0-5.306z"/></g><g><path fill="#fecd30" d="M2.632 72.815a2.652 2.652 0 1 1 0 5.306 2.652 2.652 0 0 1 0-5.306z"/></g><g><path fill="#fecd30" d="M2.632 54.779a2.653 2.653 0 1 1 .001 5.305 2.653 2.653 0 0 1 0-5.306z"/></g><g><path fill="#fecd30" d="M2.632 36.742a2.653 2.653 0 1 1 .001 5.306 2.653 2.653 0 0 1 0-5.306z"/></g><g><path fill="#fecd30" d="M2.632 18.706a2.653 2.653 0 1 1 .001 5.306 2.653 2.653 0 0 1 0-5.306z"/></g><g><path fill="#fecd30" d="M2.632.67a2.652 2.652 0 1 1 0 5.306 2.652 2.652 0 0 1 0-5.306z"/></g><g><path fill="#fecd30" d="M22.782 469.613a2.653 2.653 0 1 1 0 5.305 2.653 2.653 0 0 1 0-5.305z"/></g><g><path fill="#fecd30" d="M22.782 451.576a2.653 2.653 0 1 1 0 5.306 2.653 2.653 0 0 1 0-5.306z"/></g><g><path fill="#fecd30" d="M22.782 433.54a2.653 2.653 0 1 1 0 5.306 2.653 2.653 0 0 1 0-5.306z"/></g><g><path fill="#fecd30" d="M22.782 415.504a2.653 2.653 0 1 1 0 5.306 2.653 2.653 0 0 1 0-5.306z"/></g><g><path fill="#fecd30" d="M22.782 397.467a2.653 2.653 0 1 1 0 5.306 2.653 2.653 0 0 1 0-5.306z"/></g><g><path fill="#fecd30" d="M22.782 379.431a2.653 2.653 0 1 1 0 5.306 2.653 2.653 0 0 1 0-5.306z"/></g><g><path fill="#fecd30" d="M22.782 361.395a2.653 2.653 0 1 1 0 5.306 2.653 2.653 0 0 1 0-5.306z"/></g><g><path fill="#fecd30" d="M22.782 343.359a2.653 2.653 0 1 1 0 5.306 2.653 2.653 0 0 1 0-5.306z"/></g><g><path fill="#fecd30" d="M22.782 325.322a2.653 2.653 0 1 1 0 5.307 2.653 2.653 0 0 1 0-5.307z"/></g><g><path fill="#fecd30" d="M22.782 307.286a2.653 2.653 0 1 1 0 5.306 2.653 2.653 0 0 1 0-5.306z"/></g><g><path fill="#fecd30" d="M22.782 289.25a2.653 2.653 0 1 1 0 5.306 2.653 2.653 0 0 1 0-5.306z"/></g><g><path fill="#fecd30" d="M22.782 271.214a2.653 2.653 0 1 1 0 5.306 2.653 2.653 0 0 1 0-5.306z"/></g><g><path fill="#fecd30" d="M22.782 253.178a2.653 2.653 0 1 1 0 5.306 2.653 2.653 0 0 1 0-5.306z"/></g><g><path fill="#fecd30" d="M22.782 235.141a2.653 2.653 0 1 1 0 5.306 2.653 2.653 0 0 1 0-5.306z"/></g><g><path fill="#fecd30" d="M22.782 217.105a2.653 2.653 0 1 1 0 5.305 2.653 2.653 0 0 1 0-5.305z"/></g><g><path fill="#fecd30" d="M22.782 199.069a2.653 2.653 0 1 1 0 5.306 2.653 2.653 0 0 1 0-5.306z"/></g><g><path fill="#fecd30" d="M22.782 181.032a2.653 2.653 0 1 1 0 5.307 2.653 2.653 0 0 1 0-5.306z"/></g><g><path fill="#fecd30" d="M22.782 162.996a2.653 2.653 0 1 1 0 5.306 2.653 2.653 0 0 1 0-5.306z"/></g><g><path fill="#fecd30" d="M22.782 144.96a2.653 2.653 0 1 1 0 5.305 2.653 2.653 0 0 1 0-5.305z"/></g><g><path fill="#fecd30" d="M22.782 126.924a2.653 2.653 0 1 1 0 5.306 2.653 2.653 0 0 1 0-5.306z"/></g><g><path fill="#fecd30" d="M22.782 108.887a2.653 2.653 0 1 1 0 5.307 2.653 2.653 0 0 1 0-5.307z"/></g><g><path fill="#fecd30" d="M22.782 90.851a2.653 2.653 0 1 1 0 5.307 2.653 2.653 0 0 1 0-5.307z"/></g><g><path fill="#fecd30" d="M22.782 72.815a2.653 2.653 0 1 1 0 5.305 2.653 2.653 0 0 1 0-5.305z"/></g><g><path fill="#fecd30" d="M22.782 54.779a2.653 2.653 0 1 1 0 5.306 2.653 2.653 0 0 1 0-5.306z"/></g><g><path fill="#fecd30" d="M22.782 36.742a2.653 2.653 0 1 1 0 5.307 2.653 2.653 0 0 1 0-5.307z"/></g><g><path fill="#fecd30" d="M22.782 18.706a2.653 2.653 0 1 1 0 5.307 2.653 2.653 0 0 1 0-5.307z"/></g><g><path fill="#fecd30" d="M22.782.67a2.653 2.653 0 1 1 0 5.305 2.653 2.653 0 0 1 0-5.305z"/></g><g><path fill="#fecd30" d="M42.93 469.613a2.652 2.652 0 1 1 0 5.306 2.653 2.653 0 0 1 0-5.306z"/></g><g><path fill="#fecd30" d="M42.93 451.576a2.653 2.653 0 1 1 .001 5.305 2.653 2.653 0 0 1 0-5.305z"/></g><g><path fill="#fecd30" d="M42.93 433.54a2.653 2.653 0 1 1 .001 5.305 2.653 2.653 0 0 1 0-5.305z"/></g><g><path fill="#fecd30" d="M42.93 415.504a2.653 2.653 0 1 1 .001 5.305 2.653 2.653 0 0 1 0-5.305z"/></g><g><path fill="#fecd30" d="M42.93 397.467a2.652 2.652 0 1 1 0 5.307 2.653 2.653 0 0 1 0-5.307z"/></g><g><path fill="#fecd30" d="M42.93 379.431a2.652 2.652 0 1 1 0 5.306 2.653 2.653 0 0 1 0-5.306z"/></g><g><path fill="#fecd30" d="M42.93 361.395a2.653 2.653 0 1 1 .001 5.305 2.653 2.653 0 0 1 0-5.305z"/></g><g><path fill="#fecd30" d="M42.93 343.359a2.653 2.653 0 1 1 .001 5.305 2.653 2.653 0 0 1 0-5.305z"/></g><g><path fill="#fecd30" d="M42.93 325.322a2.653 2.653 0 1 1 .001 5.306 2.653 2.653 0 0 1 0-5.305z"/></g><g><path fill="#fecd30" d="M42.93 307.286a2.652 2.652 0 1 1 0 5.306 2.653 2.653 0 0 1 0-5.306z"/></g><g><path fill="#fecd30" d="M42.93 289.25a2.653 2.653 0 1 1 .001 5.305 2.653 2.653 0 0 1 0-5.305z"/></g><g><path fill="#fecd30" d="M42.93 271.214a2.653 2.653 0 1 1 .001 5.305 2.653 2.653 0 0 1 0-5.305z"/></g><g><path fill="#fecd30" d="M42.93 253.178a2.653 2.653 0 1 1 .001 5.305 2.653 2.653 0 0 1 0-5.305z"/></g><g><path fill="#fecd30" d="M42.93 235.141a2.652 2.652 0 1 1 0 5.306 2.653 2.653 0 0 1 0-5.306z"/></g><g><path fill="#fecd30" d="M42.93 217.105a2.652 2.652 0 1 1 0 5.306 2.653 2.653 0 0 1 0-5.306z"/></g><g><path fill="#fecd30" d="M42.93 199.069a2.653 2.653 0 1 1 .001 5.305 2.653 2.653 0 0 1 0-5.305z"/></g><g><path fill="#fecd30" d="M42.93 181.032a2.653 2.653 0 1 1 .001 5.306 2.653 2.653 0 0 1 0-5.305z"/></g><g><path fill="#fecd30" d="M42.93 162.996a2.652 2.652 0 1 1 0 5.306 2.653 2.653 0 0 1 0-5.306z"/></g><g><path fill="#fecd30" d="M42.93 144.96a2.652 2.652 0 1 1 0 5.306 2.653 2.653 0 0 1 0-5.306z"/></g><g><path fill="#fecd30" d="M42.93 126.924a2.653 2.653 0 1 1 .001 5.305 2.653 2.653 0 0 1 0-5.305z"/></g><g><path fill="#fecd30" d="M42.93 108.887a2.653 2.653 0 1 1 .001 5.306 2.653 2.653 0 0 1 0-5.306z"/></g><g><path fill="#fecd30" d="M42.93 90.851a2.653 2.653 0 1 1 .001 5.306 2.653 2.653 0 0 1 0-5.306z"/></g><g><path fill="#fecd30" d="M42.93 72.815a2.652 2.652 0 1 1 0 5.306 2.653 2.653 0 0 1 0-5.306z"/></g><g><path fill="#fecd30" d="M42.93 54.779a2.653 2.653 0 1 1 .001 5.305 2.653 2.653 0 0 1 0-5.306z"/></g><g><path fill="#fecd30" d="M42.93 36.742a2.653 2.653 0 1 1 .001 5.306 2.653 2.653 0 0 1 0-5.306z"/></g><g><path fill="#fecd30" d="M42.93 18.706a2.653 2.653 0 1 1 .001 5.306 2.653 2.653 0 0 1 0-5.306z"/></g><g><path fill="#fecd30" d="M42.93.67a2.652 2.652 0 1 1 0 5.306 2.653 2.653 0 0 1 0-5.306z"/></g><g><path fill="#fecd30" d="M63.079 469.613a2.652 2.652 0 1 1 0 5.306 2.652 2.652 0 0 1 0-5.306z"/></g><g><path fill="#fecd30" d="M63.079 451.576a2.653 2.653 0 1 1 0 5.305 2.653 2.653 0 0 1 0-5.305z"/></g><g><path fill="#fecd30" d="M63.079 433.54a2.653 2.653 0 1 1 0 5.305 2.653 2.653 0 0 1 0-5.305z"/></g><g><path fill="#fecd30" d="M63.079 415.504a2.653 2.653 0 1 1 0 5.305 2.653 2.653 0 0 1 0-5.305z"/></g><g><path fill="#fecd30" d="M63.079 397.467a2.652 2.652 0 1 1 0 5.307 2.652 2.652 0 0 1 0-5.307z"/></g><g><path fill="#fecd30" d="M63.079 379.431a2.652 2.652 0 1 1 0 5.306 2.652 2.652 0 0 1 0-5.306z"/></g><g><path fill="#fecd30" d="M63.079 361.395a2.653 2.653 0 1 1 0 5.305 2.653 2.653 0 0 1 0-5.305z"/></g><g><path fill="#fecd30" d="M63.079 343.359a2.653 2.653 0 1 1 0 5.305 2.653 2.653 0 0 1 0-5.305z"/></g><g><path fill="#fecd30" d="M63.079 325.322a2.653 2.653 0 1 1 0 5.306 2.653 2.653 0 0 1 0-5.305z"/></g><g><path fill="#fecd30" d="M63.079 307.286a2.652 2.652 0 1 1 0 5.306 2.652 2.652 0 0 1 0-5.306z"/></g><g><path fill="#fecd30" d="M63.079 289.25a2.653 2.653 0 1 1 0 5.305 2.653 2.653 0 0 1 0-5.305z"/></g><g><path fill="#fecd30" d="M63.079 271.214a2.653 2.653 0 1 1 0 5.305 2.653 2.653 0 0 1 0-5.305z"/></g><g><path fill="#fecd30" d="M63.079 253.178a2.653 2.653 0 1 1 0 5.305 2.653 2.653 0 0 1 0-5.305z"/></g><g><path fill="#fecd30" d="M63.079 235.141a2.652 2.652 0 1 1 0 5.306 2.652 2.652 0 0 1 0-5.306z"/></g><g><path fill="#fecd30" d="M63.079 217.105a2.652 2.652 0 1 1 0 5.306 2.652 2.652 0 0 1 0-5.306z"/></g><g><path fill="#fecd30" d="M63.079 199.069a2.653 2.653 0 1 1 0 5.305 2.653 2.653 0 0 1 0-5.305z"/></g><g><path fill="#fecd30" d="M63.079 181.032a2.653 2.653 0 1 1 0 5.306 2.653 2.653 0 0 1 0-5.305z"/></g><g><path fill="#fecd30" d="M63.079 162.996a2.652 2.652 0 1 1 0 5.306 2.652 2.652 0 0 1 0-5.306z"/></g><g><path fill="#fecd30" d="M63.079 144.96a2.652 2.652 0 1 1 0 5.306 2.652 2.652 0 0 1 0-5.306z"/></g><g><path fill="#fecd30" d="M63.079 126.924a2.653 2.653 0 1 1 0 5.305 2.653 2.653 0 0 1 0-5.305z"/></g><g><path fill="#fecd30" d="M63.079 108.887a2.653 2.653 0 1 1 0 5.306 2.653 2.653 0 0 1 0-5.306z"/></g><g><path fill="#fecd30" d="M63.079 90.851a2.653 2.653 0 1 1 0 5.306 2.653 2.653 0 0 1 0-5.306z"/></g><g><path fill="#fecd30" d="M63.079 72.815a2.652 2.652 0 1 1 0 5.306 2.652 2.652 0 0 1 0-5.306z"/></g><g><path fill="#fecd30" d="M63.079 54.779a2.653 2.653 0 1 1 0 5.305 2.653 2.653 0 0 1 0-5.306z"/></g><g><path fill="#fecd30" d="M63.079 36.742a2.653 2.653 0 1 1 0 5.306 2.653 2.653 0 0 1 0-5.306z"/></g><g><path fill="#fecd30" d="M63.079 18.706a2.653 2.653 0 1 1 0 5.306 2.653 2.653 0 0 1 0-5.306z"/></g><g><path fill="#fecd30" d="M63.079.67a2.652 2.652 0 1 1 0 5.306 2.652 2.652 0 0 1 0-5.306z"/></g><g><path fill="#fecd30" d="M83.228 469.613a2.652 2.652 0 1 1 0 5.307 2.652 2.652 0 0 1 0-5.308z"/></g><g><path fill="#fecd30" d="M83.228 451.576a2.652 2.652 0 1 1 0 5.305 2.652 2.652 0 0 1 0-5.305z"/></g><g><path fill="#fecd30" d="M83.228 433.54a2.652 2.652 0 1 1 0 5.305 2.652 2.652 0 0 1 0-5.305z"/></g><g><path fill="#fecd30" d="M83.228 415.504a2.652 2.652 0 1 1 0 5.304 2.652 2.652 0 0 1 0-5.304z"/></g><g><path fill="#fecd30" d="M83.228 397.467a2.652 2.652 0 1 1 0 5.307 2.652 2.652 0 0 1 0-5.307z"/></g><g><path fill="#fecd30" d="M83.228 379.431a2.652 2.652 0 1 1 0 5.307 2.652 2.652 0 0 1 0-5.307z"/></g><g><path fill="#fecd30" d="M83.228 361.395a2.652 2.652 0 1 1 0 5.305 2.652 2.652 0 0 1 0-5.305z"/></g><g><path fill="#fecd30" d="M83.228 343.359a2.652 2.652 0 1 1 0 5.304 2.652 2.652 0 0 1 0-5.304z"/></g><g><path fill="#fecd30" d="M83.228 325.322a2.652 2.652 0 1 1 0 5.305 2.652 2.652 0 0 1 0-5.305z"/></g><g><path fill="#fecd30" d="M83.228 307.286a2.652 2.652 0 1 1 0 5.307 2.652 2.652 0 0 1 0-5.307z"/></g><g><path fill="#fecd30" d="M83.228 289.25a2.652 2.652 0 1 1 0 5.305 2.652 2.652 0 0 1 0-5.305z"/></g><g><path fill="#fecd30" d="M83.228 271.214a2.652 2.652 0 1 1 0 5.304 2.652 2.652 0 0 1 0-5.304z"/></g><g><path fill="#fecd30" d="M83.228 253.178a2.652 2.652 0 1 1 0 5.304 2.652 2.652 0 0 1 0-5.305z"/></g><g><path fill="#fecd30" d="M83.228 235.141a2.652 2.652 0 1 1 0 5.307 2.652 2.652 0 0 1 0-5.307z"/></g><g><path fill="#fecd30" d="M83.228 217.105a2.652 2.652 0 1 1 0 5.307 2.652 2.652 0 0 1 0-5.307z"/></g><g><path fill="#fecd30" d="M83.228 199.069a2.652 2.652 0 1 1 0 5.304 2.652 2.652 0 0 1 0-5.304z"/></g><g><path fill="#fecd30" d="M83.228 181.032a2.652 2.652 0 1 1 0 5.305 2.652 2.652 0 0 1 0-5.304z"/></g><g><path fill="#fecd30" d="M83.228 162.996a2.652 2.652 0 1 1 0 5.307 2.652 2.652 0 0 1 0-5.307z"/></g><g><path fill="#fecd30" d="M83.228 144.96a2.652 2.652 0 1 1 0 5.307 2.652 2.652 0 0 1 0-5.307z"/></g><g><path fill="#fecd30" d="M83.228 126.924a2.652 2.652 0 1 1 0 5.304 2.652 2.652 0 0 1 0-5.304z"/></g><g><path fill="#fecd30" d="M83.228 108.887a2.652 2.652 0 1 1 0 5.305 2.652 2.652 0 0 1 0-5.305z"/></g><g><path fill="#fecd30" d="M83.228 90.851a2.652 2.652 0 1 1 0 5.305 2.652 2.652 0 0 1 0-5.305z"/></g><g><path fill="#fecd30" d="M83.228 72.815a2.652 2.652 0 1 1 0 5.307 2.652 2.652 0 0 1 0-5.307z"/></g><g><path fill="#fecd30" d="M83.228 54.779a2.652 2.652 0 1 1 0 5.304 2.652 2.652 0 0 1 0-5.304z"/></g><g><path fill="#fecd30" d="M83.228 36.742a2.652 2.652 0 1 1 0 5.305 2.652 2.652 0 0 1 0-5.305z"/></g><g><path fill="#fecd30" d="M83.228 18.706a2.652 2.652 0 1 1 0 5.305 2.652 2.652 0 0 1 0-5.305z"/></g><g><path fill="#fecd30" d="M83.228.67a2.652 2.652 0 1 1 0 5.307 2.652 2.652 0 0 1 0-5.307z"/></g><g><path fill="#fecd30" d="M103.377 469.613a2.653 2.653 0 1 1 0 5.305 2.653 2.653 0 0 1 0-5.305z"/></g><g><path fill="#fecd30" d="M103.377 451.576a2.653 2.653 0 1 1 0 5.306 2.653 2.653 0 0 1 0-5.306z"/></g><g><path fill="#fecd30" d="M103.377 433.54a2.653 2.653 0 1 1 0 5.306 2.653 2.653 0 0 1 0-5.306z"/></g><g><path fill="#fecd30" d="M103.377 415.504a2.653 2.653 0 1 1 0 5.306 2.653 2.653 0 0 1 0-5.306z"/></g><g><path fill="#fecd30" d="M103.377 397.467a2.653 2.653 0 1 1 0 5.306 2.653 2.653 0 0 1 0-5.306z"/></g><g><path fill="#fecd30" d="M103.377 379.431a2.653 2.653 0 1 1 0 5.306 2.653 2.653 0 0 1 0-5.306z"/></g><g><path fill="#fecd30" d="M103.377 361.395a2.653 2.653 0 1 1 0 5.306 2.653 2.653 0 0 1 0-5.306z"/></g><g><path fill="#fecd30" d="M103.377 343.359a2.653 2.653 0 1 1 0 5.306 2.653 2.653 0 0 1 0-5.306z"/></g><g><path fill="#fecd30" d="M103.377 325.322a2.653 2.653 0 1 1 0 5.307 2.653 2.653 0 0 1 0-5.307z"/></g><g><path fill="#fecd30" d="M103.377 307.286a2.653 2.653 0 1 1 0 5.306 2.653 2.653 0 0 1 0-5.306z"/></g><g><path fill="#fecd30" d="M103.377 289.25a2.653 2.653 0 1 1 0 5.306 2.653 2.653 0 0 1 0-5.306z"/></g><g><path fill="#fecd30" d="M103.377 271.214a2.653 2.653 0 1 1 0 5.306 2.653 2.653 0 0 1 0-5.306z"/></g><g><path fill="#fecd30" d="M103.377 253.178a2.653 2.653 0 1 1 0 5.306 2.653 2.653 0 0 1 0-5.306z"/></g><g><path fill="#fecd30" d="M103.377 235.141a2.653 2.653 0 1 1 0 5.306 2.653 2.653 0 0 1 0-5.306z"/></g><g><path fill="#fecd30" d="M103.377 217.105a2.653 2.653 0 1 1 0 5.305 2.653 2.653 0 0 1 0-5.305z"/></g><g><path fill="#fecd30" d="M103.377 199.069a2.653 2.653 0 1 1 0 5.306 2.653 2.653 0 0 1 0-5.306z"/></g><g><path fill="#fecd30" d="M103.377 181.032a2.653 2.653 0 1 1 0 5.307 2.653 2.653 0 0 1 0-5.306z"/></g><g><path fill="#fecd30" d="M103.377 162.996a2.653 2.653 0 1 1 0 5.306 2.653 2.653 0 0 1 0-5.306z"/></g><g><path fill="#fecd30" d="M103.377 144.96a2.653 2.653 0 1 1 0 5.305 2.653 2.653 0 0 1 0-5.305z"/></g><g><path fill="#fecd30" d="M103.377 126.924a2.653 2.653 0 1 1 0 5.306 2.653 2.653 0 0 1 0-5.306z"/></g><g><path fill="#fecd30" d="M103.377 108.887a2.653 2.653 0 1 1 0 5.307 2.653 2.653 0 0 1 0-5.307z"/></g><g><path fill="#fecd30" d="M103.377 90.851a2.653 2.653 0 1 1 0 5.307 2.653 2.653 0 0 1 0-5.307z"/></g><g><path fill="#fecd30" d="M103.377 72.815a2.653 2.653 0 1 1 0 5.305 2.653 2.653 0 0 1 0-5.305z"/></g><g><path fill="#fecd30" d="M103.377 54.779a2.653 2.653 0 1 1 0 5.306 2.653 2.653 0 0 1 0-5.306z"/></g><g><path fill="#fecd30" d="M103.377 36.742a2.653 2.653 0 1 1 0 5.307 2.653 2.653 0 0 1 0-5.307z"/></g><g><path fill="#fecd30" d="M103.377 18.706a2.653 2.653 0 1 1 0 5.307 2.653 2.653 0 0 1 0-5.307z"/></g><g><path fill="#fecd30" d="M103.377.67a2.653 2.653 0 1 1 0 5.305 2.653 2.653 0 0 1 0-5.305z"/></g><g><path fill="#fecd30" d="M123.525 469.613a2.652 2.652 0 1 1 0 5.306 2.652 2.652 0 0 1 0-5.306z"/></g><g><path fill="#fecd30" d="M123.525 451.576a2.653 2.653 0 1 1 0 5.305 2.653 2.653 0 0 1 0-5.305z"/></g><g><path fill="#fecd30" d="M123.525 433.54a2.653 2.653 0 1 1 0 5.305 2.653 2.653 0 0 1 0-5.305z"/></g><g><path fill="#fecd30" d="M123.525 415.504a2.653 2.653 0 1 1 0 5.305 2.653 2.653 0 0 1 0-5.305z"/></g><g><path fill="#fecd30" d="M123.525 397.467a2.652 2.652 0 1 1 0 5.307 2.652 2.652 0 0 1 0-5.307z"/></g><g><path fill="#fecd30" d="M123.525 379.431a2.652 2.652 0 1 1 0 5.306 2.652 2.652 0 0 1 0-5.306z"/></g><g><path fill="#fecd30" d="M123.525 361.395a2.653 2.653 0 1 1 0 5.305 2.653 2.653 0 0 1 0-5.305z"/></g><g><path fill="#fecd30" d="M123.525 343.359a2.653 2.653 0 1 1 0 5.305 2.653 2.653 0 0 1 0-5.305z"/></g><g><path fill="#fecd30" d="M123.525 325.322a2.653 2.653 0 1 1 0 5.306 2.653 2.653 0 0 1 0-5.305z"/></g><g><path fill="#fecd30" d="M123.525 307.286a2.652 2.652 0 1 1 0 5.306 2.652 2.652 0 0 1 0-5.306z"/></g><g><path fill="#fecd30" d="M123.525 289.25a2.653 2.653 0 1 1 0 5.305 2.653 2.653 0 0 1 0-5.305z"/></g><g><path fill="#fecd30" d="M123.525 271.214a2.653 2.653 0 1 1 0 5.305 2.653 2.653 0 0 1 0-5.305z"/></g><g><path fill="#fecd30" d="M123.525 253.178a2.653 2.653 0 1 1 0 5.305 2.653 2.653 0 0 1 0-5.305z"/></g><g><path fill="#fecd30" d="M123.525 235.141a2.652 2.652 0 1 1 0 5.306 2.652 2.652 0 0 1 0-5.306z"/></g><g><path fill="#fecd30" d="M123.525 217.105a2.652 2.652 0 1 1 0 5.306 2.652 2.652 0 0 1 0-5.306z"/></g><g><path fill="#fecd30" d="M123.525 199.069a2.653 2.653 0 1 1 0 5.305 2.653 2.653 0 0 1 0-5.305z"/></g><g><path fill="#fecd30" d="M123.525 181.032a2.653 2.653 0 1 1 0 5.306 2.653 2.653 0 0 1 0-5.305z"/></g><g><path fill="#fecd30" d="M123.525 162.996a2.652 2.652 0 1 1 0 5.306 2.652 2.652 0 0 1 0-5.306z"/></g><g><path fill="#fecd30" d="M123.525 144.96a2.652 2.652 0 1 1 0 5.306 2.652 2.652 0 0 1 0-5.306z"/></g><g><path fill="#fecd30" d="M123.525 126.924a2.653 2.653 0 1 1 0 5.305 2.653 2.653 0 0 1 0-5.305z"/></g><g><path fill="#fecd30" d="M123.525 108.887a2.653 2.653 0 1 1 0 5.306 2.653 2.653 0 0 1 0-5.306z"/></g><g><path fill="#fecd30" d="M123.525 90.851a2.653 2.653 0 1 1 0 5.306 2.653 2.653 0 0 1 0-5.306z"/></g><g><path fill="#fecd30" d="M123.525 72.815a2.652 2.652 0 1 1 0 5.306 2.652 2.652 0 0 1 0-5.306z"/></g><g><path fill="#fecd30" d="M123.525 54.779a2.653 2.653 0 1 1 0 5.305 2.653 2.653 0 0 1 0-5.306z"/></g><g><path fill="#fecd30" d="M123.525 36.742a2.653 2.653 0 1 1 0 5.306 2.653 2.653 0 0 1 0-5.306z"/></g><g><path fill="#fecd30" d="M123.525 18.706a2.653 2.653 0 1 1 0 5.306 2.653 2.653 0 0 1 0-5.306z"/></g><g><path fill="#fecd30" d="M123.525.67a2.652 2.652 0 1 1 0 5.306 2.652 2.652 0 0 1 0-5.306z"/></g><g><path fill="#fecd30" d="M143.674 469.613a2.652 2.652 0 1 1 0 5.307 2.652 2.652 0 0 1 0-5.308z"/></g><g><path fill="#fecd30" d="M143.674 451.576a2.652 2.652 0 1 1 0 5.305 2.652 2.652 0 0 1 0-5.305z"/></g><g><path fill="#fecd30" d="M143.674 433.54a2.652 2.652 0 1 1 0 5.305 2.652 2.652 0 0 1 0-5.305z"/></g><g><path fill="#fecd30" d="M143.674 415.504a2.652 2.652 0 1 1 0 5.304 2.652 2.652 0 0 1 0-5.304z"/></g><g><path fill="#fecd30" d="M143.674 397.467a2.652 2.652 0 1 1 0 5.307 2.652 2.652 0 0 1 0-5.307z"/></g><g><path fill="#fecd30" d="M143.674 379.431a2.652 2.652 0 1 1 0 5.307 2.652 2.652 0 0 1 0-5.307z"/></g><g><path fill="#fecd30" d="M143.674 361.395a2.652 2.652 0 1 1 0 5.305 2.652 2.652 0 0 1 0-5.305z"/></g><g><path fill="#fecd30" d="M143.674 343.359a2.652 2.652 0 1 1 0 5.304 2.652 2.652 0 0 1 0-5.304z"/></g><g><path fill="#fecd30" d="M143.674 325.322a2.652 2.652 0 1 1 0 5.305 2.652 2.652 0 0 1 0-5.305z"/></g><g><path fill="#fecd30" d="M143.674 307.286a2.652 2.652 0 1 1 0 5.307 2.652 2.652 0 0 1 0-5.307z"/></g><g><path fill="#fecd30" d="M143.674 289.25a2.652 2.652 0 1 1 0 5.305 2.652 2.652 0 0 1 0-5.305z"/></g><g><path fill="#fecd30" d="M143.674 271.214a2.652 2.652 0 1 1 0 5.304 2.652 2.652 0 0 1 0-5.304z"/></g><g><path fill="#fecd30" d="M143.674 253.178a2.652 2.652 0 1 1 0 5.304 2.652 2.652 0 0 1 0-5.305z"/></g><g><path fill="#fecd30" d="M143.674 235.141a2.652 2.652 0 1 1 0 5.307 2.652 2.652 0 0 1 0-5.307z"/></g><g><path fill="#fecd30" d="M143.674 217.105a2.652 2.652 0 1 1 0 5.307 2.652 2.652 0 0 1 0-5.307z"/></g><g><path fill="#fecd30" d="M143.674 199.069a2.652 2.652 0 1 1 0 5.304 2.652 2.652 0 0 1 0-5.304z"/></g><g><path fill="#fecd30" d="M143.674 181.032a2.652 2.652 0 1 1 0 5.305 2.652 2.652 0 0 1 0-5.304z"/></g><g><path fill="#fecd30" d="M143.674 162.996a2.652 2.652 0 1 1 0 5.307 2.652 2.652 0 0 1 0-5.307z"/></g><g><path fill="#fecd30" d="M143.674 144.96a2.652 2.652 0 1 1 0 5.307 2.652 2.652 0 0 1 0-5.307z"/></g><g><path fill="#fecd30" d="M143.674 126.924a2.652 2.652 0 1 1 0 5.304 2.652 2.652 0 0 1 0-5.304z"/></g><g><path fill="#fecd30" d="M143.674 108.887a2.652 2.652 0 1 1 0 5.305 2.652 2.652 0 0 1 0-5.305z"/></g><g><path fill="#fecd30" d="M143.674 90.851a2.652 2.652 0 1 1 0 5.305 2.652 2.652 0 0 1 0-5.305z"/></g><g><path fill="#fecd30" d="M143.674 72.815a2.652 2.652 0 1 1 0 5.307 2.652 2.652 0 0 1 0-5.307z"/></g><g><path fill="#fecd30" d="M143.674 54.779a2.652 2.652 0 1 1 0 5.304 2.652 2.652 0 0 1 0-5.304z"/></g><g><path fill="#fecd30" d="M143.674 36.742a2.652 2.652 0 1 1 0 5.305 2.652 2.652 0 0 1 0-5.305z"/></g><g><path fill="#fecd30" d="M143.674 18.706a2.652 2.652 0 1 1 0 5.305 2.652 2.652 0 0 1 0-5.305z"/></g><g><path fill="#fecd30" d="M143.674.67a2.652 2.652 0 1 1 0 5.307 2.652 2.652 0 0 1 0-5.307z"/></g><g><path fill="#fecd30" d="M163.823 469.613a2.653 2.653 0 1 1 0 5.305 2.653 2.653 0 0 1 0-5.305z"/></g><g><path fill="#fecd30" d="M163.823 451.576a2.653 2.653 0 1 1 0 5.306 2.653 2.653 0 0 1 0-5.306z"/></g><g><path fill="#fecd30" d="M163.823 433.54a2.653 2.653 0 1 1 0 5.306 2.653 2.653 0 0 1 0-5.306z"/></g><g><path fill="#fecd30" d="M163.823 415.504a2.653 2.653 0 1 1 0 5.306 2.653 2.653 0 0 1 0-5.306z"/></g><g><path fill="#fecd30" d="M163.823 397.467a2.653 2.653 0 1 1 0 5.306 2.653 2.653 0 0 1 0-5.306z"/></g><g><path fill="#fecd30" d="M163.823 379.431a2.653 2.653 0 1 1 0 5.306 2.653 2.653 0 0 1 0-5.306z"/></g><g><path fill="#fecd30" d="M163.823 361.395a2.653 2.653 0 1 1 0 5.306 2.653 2.653 0 0 1 0-5.306z"/></g><g><path fill="#fecd30" d="M163.823 343.359a2.653 2.653 0 1 1 0 5.306 2.653 2.653 0 0 1 0-5.306z"/></g><g><path fill="#fecd30" d="M163.823 325.322a2.653 2.653 0 1 1 0 5.307 2.653 2.653 0 0 1 0-5.307z"/></g><g><path fill="#fecd30" d="M163.823 307.286a2.653 2.653 0 1 1 0 5.306 2.653 2.653 0 0 1 0-5.306z"/></g><g><path fill="#fecd30" d="M163.823 289.25a2.653 2.653 0 1 1 0 5.306 2.653 2.653 0 0 1 0-5.306z"/></g><g><path fill="#fecd30" d="M163.823 271.214a2.653 2.653 0 1 1 0 5.306 2.653 2.653 0 0 1 0-5.306z"/></g><g><path fill="#fecd30" d="M163.823 253.178a2.653 2.653 0 1 1 0 5.306 2.653 2.653 0 0 1 0-5.306z"/></g><g><path fill="#fecd30" d="M163.823 235.141a2.653 2.653 0 1 1 0 5.306 2.653 2.653 0 0 1 0-5.306z"/></g><g><path fill="#fecd30" d="M163.823 217.105a2.653 2.653 0 1 1 0 5.305 2.653 2.653 0 0 1 0-5.305z"/></g><g><path fill="#fecd30" d="M163.823 199.069a2.653 2.653 0 1 1 0 5.306 2.653 2.653 0 0 1 0-5.306z"/></g><g><path fill="#fecd30" d="M163.823 181.032a2.653 2.653 0 1 1 0 5.307 2.653 2.653 0 0 1 0-5.306z"/></g><g><path fill="#fecd30" d="M163.823 162.996a2.653 2.653 0 1 1 0 5.306 2.653 2.653 0 0 1 0-5.306z"/></g><g><path fill="#fecd30" d="M163.823 144.96a2.653 2.653 0 1 1 0 5.305 2.653 2.653 0 0 1 0-5.305z"/></g><g><path fill="#fecd30" d="M163.823 126.924a2.653 2.653 0 1 1 0 5.306 2.653 2.653 0 0 1 0-5.306z"/></g><g><path fill="#fecd30" d="M163.823 108.887a2.653 2.653 0 1 1 0 5.307 2.653 2.653 0 0 1 0-5.307z"/></g><g><path fill="#fecd30" d="M163.823 90.851a2.653 2.653 0 1 1 0 5.307 2.653 2.653 0 0 1 0-5.307z"/></g><g><path fill="#fecd30" d="M163.823 72.815a2.653 2.653 0 1 1 0 5.305 2.653 2.653 0 0 1 0-5.305z"/></g><g><path fill="#fecd30" d="M163.823 54.779a2.653 2.653 0 1 1 0 5.306 2.653 2.653 0 0 1 0-5.306z"/></g><g><path fill="#fecd30" d="M163.823 36.742a2.653 2.653 0 1 1 0 5.307 2.653 2.653 0 0 1 0-5.307z"/></g><g><path fill="#fecd30" d="M163.823 18.706a2.653 2.653 0 1 1 0 5.307 2.653 2.653 0 0 1 0-5.307z"/></g><g><path fill="#fecd30" d="M163.823.67a2.653 2.653 0 1 1 0 5.305 2.653 2.653 0 0 1 0-5.305z"/></g><g><path fill="#fecd30" d="M183.971 469.613a2.652 2.652 0 1 1 0 5.306 2.652 2.652 0 0 1 0-5.306z"/></g><g><path fill="#fecd30" d="M183.971 451.576a2.653 2.653 0 1 1 .001 5.305 2.653 2.653 0 0 1 0-5.305z"/></g><g><path fill="#fecd30" d="M183.971 433.54a2.653 2.653 0 1 1 .001 5.305 2.653 2.653 0 0 1 0-5.305z"/></g><g><path fill="#fecd30" d="M183.971 415.504a2.653 2.653 0 1 1 .001 5.305 2.653 2.653 0 0 1 0-5.305z"/></g><g><path fill="#fecd30" d="M183.971 397.467a2.652 2.652 0 1 1 0 5.307 2.652 2.652 0 0 1 0-5.307z"/></g><g><path fill="#fecd30" d="M183.971 379.431a2.652 2.652 0 1 1 0 5.306 2.652 2.652 0 0 1 0-5.306z"/></g><g><path fill="#fecd30" d="M183.971 361.395a2.653 2.653 0 1 1 .001 5.305 2.653 2.653 0 0 1 0-5.305z"/></g><g><path fill="#fecd30" d="M183.971 343.359a2.653 2.653 0 1 1 .001 5.305 2.653 2.653 0 0 1 0-5.305z"/></g><g><path fill="#fecd30" d="M183.971 325.322a2.653 2.653 0 1 1 .001 5.306 2.653 2.653 0 0 1 0-5.305z"/></g><g><path fill="#fecd30" d="M183.971 307.286a2.652 2.652 0 1 1 0 5.306 2.652 2.652 0 0 1 0-5.306z"/></g><g><path fill="#fecd30" d="M183.971 289.25a2.653 2.653 0 1 1 .001 5.305 2.653 2.653 0 0 1 0-5.305z"/></g><g><path fill="#fecd30" d="M183.971 271.214a2.653 2.653 0 1 1 .001 5.305 2.653 2.653 0 0 1 0-5.305z"/></g><g><path fill="#fecd30" d="M183.971 253.178a2.653 2.653 0 1 1 .001 5.305 2.653 2.653 0 0 1 0-5.305z"/></g><g><path fill="#fecd30" d="M183.971 235.141a2.652 2.652 0 1 1 0 5.306 2.652 2.652 0 0 1 0-5.306z"/></g><g><path fill="#fecd30" d="M183.971 217.105a2.652 2.652 0 1 1 0 5.306 2.652 2.652 0 0 1 0-5.306z"/></g><g><path fill="#fecd30" d="M183.971 199.069a2.653 2.653 0 1 1 .001 5.305 2.653 2.653 0 0 1 0-5.305z"/></g><g><path fill="#fecd30" d="M183.971 181.032a2.653 2.653 0 1 1 .001 5.306 2.653 2.653 0 0 1 0-5.305z"/></g><g><path fill="#fecd30" d="M183.971 162.996a2.652 2.652 0 1 1 0 5.306 2.652 2.652 0 0 1 0-5.306z"/></g><g><path fill="#fecd30" d="M183.971 144.96a2.652 2.652 0 1 1 0 5.306 2.652 2.652 0 0 1 0-5.306z"/></g><g><path fill="#fecd30" d="M183.971 126.924a2.653 2.653 0 1 1 .001 5.305 2.653 2.653 0 0 1 0-5.305z"/></g><g><path fill="#fecd30" d="M183.971 108.887a2.653 2.653 0 1 1 .001 5.306 2.653 2.653 0 0 1 0-5.306z"/></g><g><path fill="#fecd30" d="M183.971 90.851a2.653 2.653 0 1 1 .001 5.306 2.653 2.653 0 0 1 0-5.306z"/></g><g><path fill="#fecd30" d="M183.971 72.815a2.652 2.652 0 1 1 0 5.306 2.652 2.652 0 0 1 0-5.306z"/></g><g><path fill="#fecd30" d="M183.971 54.779a2.653 2.653 0 1 1 .001 5.305 2.653 2.653 0 0 1 0-5.306z"/></g><g><path fill="#fecd30" d="M183.971 36.742a2.653 2.653 0 1 1 .001 5.306 2.653 2.653 0 0 1 0-5.306z"/></g><g><path fill="#fecd30" d="M183.971 18.706a2.653 2.653 0 1 1 .001 5.306 2.653 2.653 0 0 1 0-5.306z"/></g><g><path fill="#fecd30" d="M183.971.67a2.652 2.652 0 1 1 0 5.306 2.652 2.652 0 0 1 0-5.306z"/></g><g><path fill="#fecd30" d="M204.12 469.613a2.652 2.652 0 1 1 0 5.307 2.652 2.652 0 0 1 0-5.308z"/></g><g><path fill="#fecd30" d="M204.12 451.576a2.652 2.652 0 1 1 0 5.305 2.652 2.652 0 0 1 0-5.305z"/></g><g><path fill="#fecd30" d="M204.12 433.54a2.652 2.652 0 1 1 0 5.305 2.652 2.652 0 0 1 0-5.305z"/></g><g><path fill="#fecd30" d="M204.12 415.504a2.652 2.652 0 1 1 0 5.304 2.652 2.652 0 0 1 0-5.304z"/></g><g><path fill="#fecd30" d="M204.12 397.467a2.652 2.652 0 1 1 0 5.307 2.652 2.652 0 0 1 0-5.307z"/></g><g><path fill="#fecd30" d="M204.12 379.431a2.652 2.652 0 1 1 0 5.307 2.652 2.652 0 0 1 0-5.307z"/></g><g><path fill="#fecd30" d="M204.12 361.395a2.652 2.652 0 1 1 0 5.305 2.652 2.652 0 0 1 0-5.305z"/></g><g><path fill="#fecd30" d="M204.12 343.359a2.652 2.652 0 1 1 0 5.304 2.652 2.652 0 0 1 0-5.304z"/></g><g><path fill="#fecd30" d="M204.12 325.322a2.652 2.652 0 1 1 0 5.305 2.652 2.652 0 0 1 0-5.305z"/></g><g><path fill="#fecd30" d="M204.12 307.286a2.652 2.652 0 1 1 0 5.307 2.652 2.652 0 0 1 0-5.307z"/></g><g><path fill="#fecd30" d="M204.12 289.25a2.652 2.652 0 1 1 0 5.305 2.652 2.652 0 0 1 0-5.305z"/></g><g><path fill="#fecd30" d="M204.12 271.214a2.652 2.652 0 1 1 0 5.304 2.652 2.652 0 0 1 0-5.304z"/></g><g><path fill="#fecd30" d="M204.12 253.178a2.652 2.652 0 1 1 0 5.304 2.652 2.652 0 0 1 0-5.305z"/></g><g><path fill="#fecd30" d="M204.12 235.141a2.652 2.652 0 1 1 0 5.307 2.652 2.652 0 0 1 0-5.307z"/></g><g><path fill="#fecd30" d="M204.12 217.105a2.652 2.652 0 1 1 0 5.307 2.652 2.652 0 0 1 0-5.307z"/></g><g><path fill="#fecd30" d="M204.12 199.069a2.652 2.652 0 1 1 0 5.304 2.652 2.652 0 0 1 0-5.304z"/></g><g><path fill="#fecd30" d="M204.12 181.032a2.652 2.652 0 1 1 0 5.305 2.652 2.652 0 0 1 0-5.304z"/></g><g><path fill="#fecd30" d="M204.12 162.996a2.652 2.652 0 1 1 0 5.307 2.652 2.652 0 0 1 0-5.307z"/></g><g><path fill="#fecd30" d="M204.12 144.96a2.652 2.652 0 1 1 0 5.307 2.652 2.652 0 0 1 0-5.307z"/></g><g><path fill="#fecd30" d="M204.12 126.924a2.652 2.652 0 1 1 0 5.304 2.652 2.652 0 0 1 0-5.304z"/></g><g><path fill="#fecd30" d="M204.12 108.887a2.652 2.652 0 1 1 0 5.305 2.652 2.652 0 0 1 0-5.305z"/></g><g><path fill="#fecd30" d="M204.12 90.851a2.652 2.652 0 1 1 0 5.305 2.652 2.652 0 0 1 0-5.305z"/></g><g><path fill="#fecd30" d="M204.12 72.815a2.652 2.652 0 1 1 0 5.307 2.652 2.652 0 0 1 0-5.307z"/></g><g><path fill="#fecd30" d="M204.12 54.779a2.652 2.652 0 1 1 0 5.304 2.652 2.652 0 0 1 0-5.304z"/></g><g><path fill="#fecd30" d="M204.12 36.742a2.652 2.652 0 1 1 0 5.305 2.652 2.652 0 0 1 0-5.305z"/></g><g><path fill="#fecd30" d="M204.12 18.706a2.652 2.652 0 1 1 0 5.305 2.652 2.652 0 0 1 0-5.305z"/></g><g><path fill="#fecd30" d="M204.12.67a2.652 2.652 0 1 1 0 5.307 2.652 2.652 0 0 1 0-5.307z"/></g><g><path fill="#fecd30" d="M224.27 469.613a2.653 2.653 0 1 1 0 5.305 2.653 2.653 0 0 1 0-5.305z"/></g><g><path fill="#fecd30" d="M224.27 451.576a2.653 2.653 0 1 1-.001 5.306 2.653 2.653 0 0 1 0-5.306z"/></g><g><path fill="#fecd30" d="M224.27 433.54a2.653 2.653 0 1 1-.001 5.306 2.653 2.653 0 0 1 0-5.306z"/></g><g><path fill="#fecd30" d="M224.27 415.504a2.653 2.653 0 1 1-.001 5.306 2.653 2.653 0 0 1 0-5.306z"/></g><g><path fill="#fecd30" d="M224.27 397.467a2.653 2.653 0 1 1 0 5.306 2.653 2.653 0 0 1 0-5.306z"/></g><g><path fill="#fecd30" d="M224.27 379.431a2.653 2.653 0 1 1 0 5.306 2.653 2.653 0 0 1 0-5.306z"/></g><g><path fill="#fecd30" d="M224.27 361.395a2.653 2.653 0 1 1-.001 5.306 2.653 2.653 0 0 1 0-5.306z"/></g><g><path fill="#fecd30" d="M224.27 343.359a2.653 2.653 0 1 1-.001 5.306 2.653 2.653 0 0 1 0-5.306z"/></g><g><path fill="#fecd30" d="M224.27 325.322a2.653 2.653 0 1 1-.001 5.307 2.653 2.653 0 0 1 0-5.307z"/></g><g><path fill="#fecd30" d="M224.27 307.286a2.653 2.653 0 1 1 0 5.306 2.653 2.653 0 0 1 0-5.306z"/></g><g><path fill="#fecd30" d="M224.27 289.25a2.653 2.653 0 1 1-.001 5.306 2.653 2.653 0 0 1 0-5.306z"/></g><g><path fill="#fecd30" d="M224.27 271.214a2.653 2.653 0 1 1-.001 5.306 2.653 2.653 0 0 1 0-5.306z"/></g><g><path fill="#fecd30" d="M224.27 253.178a2.653 2.653 0 1 1-.001 5.306 2.653 2.653 0 0 1 0-5.306z"/></g><g><path fill="#fecd30" d="M224.27 235.141a2.653 2.653 0 1 1 0 5.306 2.653 2.653 0 0 1 0-5.306z"/></g><g><path fill="#fecd30" d="M224.27 217.105a2.653 2.653 0 1 1 0 5.305 2.653 2.653 0 0 1 0-5.305z"/></g><g><path fill="#fecd30" d="M224.27 199.069a2.653 2.653 0 1 1-.001 5.306 2.653 2.653 0 0 1 0-5.306z"/></g><g><path fill="#fecd30" d="M224.27 181.032a2.653 2.653 0 1 1-.001 5.307 2.653 2.653 0 0 1 0-5.306z"/></g><g><path fill="#fecd30" d="M224.27 162.996a2.653 2.653 0 1 1 0 5.306 2.653 2.653 0 0 1 0-5.306z"/></g><g><path fill="#fecd30" d="M224.27 144.96a2.653 2.653 0 1 1 0 5.305 2.653 2.653 0 0 1 0-5.305z"/></g><g><path fill="#fecd30" d="M224.27 126.924a2.653 2.653 0 1 1-.001 5.306 2.653 2.653 0 0 1 0-5.306z"/></g><g><path fill="#fecd30" d="M224.27 108.887a2.653 2.653 0 1 1-.001 5.307 2.653 2.653 0 0 1 0-5.307z"/></g><g><path fill="#fecd30" d="M224.27 90.851a2.653 2.653 0 1 1-.001 5.307 2.653 2.653 0 0 1 0-5.307z"/></g><g><path fill="#fecd30" d="M224.27 72.815a2.653 2.653 0 1 1 0 5.305 2.653 2.653 0 0 1 0-5.305z"/></g><g><path fill="#fecd30" d="M224.27 54.779a2.653 2.653 0 1 1-.001 5.306 2.653 2.653 0 0 1 0-5.306z"/></g><g><path fill="#fecd30" d="M224.27 36.742a2.653 2.653 0 1 1-.001 5.307 2.653 2.653 0 0 1 0-5.307z"/></g><g><path fill="#fecd30" d="M224.27 18.706a2.653 2.653 0 1 1-.001 5.307 2.653 2.653 0 0 1 0-5.307z"/></g><g><path fill="#fecd30" d="M224.27.67a2.653 2.653 0 1 1 0 5.305 2.653 2.653 0 0 1 0-5.305z"/></g><g><path fill="#fecd30" d="M244.418 469.613a2.652 2.652 0 1 1 0 5.306 2.653 2.653 0 0 1 0-5.306z"/></g><g><path fill="#fecd30" d="M244.418 451.576a2.653 2.653 0 1 1 0 5.305 2.653 2.653 0 0 1 0-5.305z"/></g><g><path fill="#fecd30" d="M244.418 433.54a2.653 2.653 0 1 1 0 5.305 2.653 2.653 0 0 1 0-5.305z"/></g><g><path fill="#fecd30" d="M244.418 415.504a2.653 2.653 0 1 1 0 5.305 2.653 2.653 0 0 1 0-5.305z"/></g><g><path fill="#fecd30" d="M244.418 397.467a2.652 2.652 0 1 1 0 5.307 2.653 2.653 0 0 1 0-5.307z"/></g><g><path fill="#fecd30" d="M244.418 379.431a2.652 2.652 0 1 1 0 5.306 2.653 2.653 0 0 1 0-5.306z"/></g><g><path fill="#fecd30" d="M244.418 361.395a2.653 2.653 0 1 1 0 5.305 2.653 2.653 0 0 1 0-5.305z"/></g><g><path fill="#fecd30" d="M244.418 343.359a2.653 2.653 0 1 1 0 5.305 2.653 2.653 0 0 1 0-5.305z"/></g><g><path fill="#fecd30" d="M244.418 325.322a2.653 2.653 0 1 1 0 5.306 2.653 2.653 0 0 1 0-5.305z"/></g><g><path fill="#fecd30" d="M244.418 307.286a2.652 2.652 0 1 1 0 5.306 2.653 2.653 0 0 1 0-5.306z"/></g><g><path fill="#fecd30" d="M244.418 289.25a2.653 2.653 0 1 1 0 5.305 2.653 2.653 0 0 1 0-5.305z"/></g><g><path fill="#fecd30" d="M244.418 271.214a2.653 2.653 0 1 1 0 5.305 2.653 2.653 0 0 1 0-5.305z"/></g><g><path fill="#fecd30" d="M244.418 253.178a2.653 2.653 0 1 1 0 5.305 2.653 2.653 0 0 1 0-5.305z"/></g><g><path fill="#fecd30" d="M244.418 235.141a2.652 2.652 0 1 1 0 5.306 2.653 2.653 0 0 1 0-5.306z"/></g><g><path fill="#fecd30" d="M244.418 217.105a2.652 2.652 0 1 1 0 5.306 2.653 2.653 0 0 1 0-5.306z"/></g><g><path fill="#fecd30" d="M244.418 199.069a2.653 2.653 0 1 1 0 5.305 2.653 2.653 0 0 1 0-5.305z"/></g><g><path fill="#fecd30" d="M244.418 181.032a2.653 2.653 0 1 1 0 5.306 2.653 2.653 0 0 1 0-5.305z"/></g><g><path fill="#fecd30" d="M244.418 162.996a2.652 2.652 0 1 1 0 5.306 2.653 2.653 0 0 1 0-5.306z"/></g><g><path fill="#fecd30" d="M244.418 144.96a2.652 2.652 0 1 1 0 5.306 2.653 2.653 0 0 1 0-5.306z"/></g><g><path fill="#fecd30" d="M244.418 126.924a2.653 2.653 0 1 1 0 5.305 2.653 2.653 0 0 1 0-5.305z"/></g><g><path fill="#fecd30" d="M244.418 108.887a2.653 2.653 0 1 1 0 5.306 2.653 2.653 0 0 1 0-5.306z"/></g><g><path fill="#fecd30" d="M244.418 90.851a2.653 2.653 0 1 1 0 5.306 2.653 2.653 0 0 1 0-5.306z"/></g><g><path fill="#fecd30" d="M244.418 72.815a2.652 2.652 0 1 1 0 5.306 2.653 2.653 0 0 1 0-5.306z"/></g><g><path fill="#fecd30" d="M244.418 54.779a2.653 2.653 0 1 1 0 5.305 2.653 2.653 0 0 1 0-5.306z"/></g><g><path fill="#fecd30" d="M244.418 36.742a2.653 2.653 0 1 1 0 5.306 2.653 2.653 0 0 1 0-5.306z"/></g><g><path fill="#fecd30" d="M244.418 18.706a2.653 2.653 0 1 1 0 5.306 2.653 2.653 0 0 1 0-5.306z"/></g><g><path fill="#fecd30" d="M244.418.67a2.652 2.652 0 1 1 0 5.306 2.653 2.653 0 0 1 0-5.306z"/></g><g><path fill="#fecd30" d="M264.567 469.613a2.652 2.652 0 1 1 0 5.307 2.652 2.652 0 0 1 0-5.308z"/></g><g><path fill="#fecd30" d="M264.567 451.576a2.652 2.652 0 1 1 0 5.305 2.652 2.652 0 0 1 0-5.305z"/></g><g><path fill="#fecd30" d="M264.567 433.54a2.652 2.652 0 1 1 0 5.305 2.652 2.652 0 0 1 0-5.305z"/></g><g><path fill="#fecd30" d="M264.567 415.504a2.652 2.652 0 1 1 0 5.304 2.652 2.652 0 0 1 0-5.304z"/></g><g><path fill="#fecd30" d="M264.567 397.467a2.652 2.652 0 1 1 0 5.307 2.652 2.652 0 0 1 0-5.307z"/></g><g><path fill="#fecd30" d="M264.567 379.431a2.652 2.652 0 1 1 0 5.307 2.652 2.652 0 0 1 0-5.307z"/></g><g><path fill="#fecd30" d="M264.567 361.395a2.652 2.652 0 1 1 0 5.305 2.652 2.652 0 0 1 0-5.305z"/></g><g><path fill="#fecd30" d="M264.567 343.359a2.652 2.652 0 1 1 0 5.304 2.652 2.652 0 0 1 0-5.304z"/></g><g><path fill="#fecd30" d="M264.567 325.322a2.652 2.652 0 1 1 0 5.305 2.652 2.652 0 0 1 0-5.305z"/></g><g><path fill="#fecd30" d="M264.567 307.286a2.652 2.652 0 1 1 0 5.307 2.652 2.652 0 0 1 0-5.307z"/></g><g><path fill="#fecd30" d="M264.567 289.25a2.652 2.652 0 1 1 0 5.305 2.652 2.652 0 0 1 0-5.305z"/></g><g><path fill="#fecd30" d="M264.567 271.214a2.652 2.652 0 1 1 0 5.304 2.652 2.652 0 0 1 0-5.304z"/></g><g><path fill="#fecd30" d="M264.567 253.178a2.652 2.652 0 1 1 0 5.304 2.652 2.652 0 0 1 0-5.305z"/></g><g><path fill="#fecd30" d="M264.567 235.141a2.652 2.652 0 1 1 0 5.307 2.652 2.652 0 0 1 0-5.307z"/></g><g><path fill="#fecd30" d="M264.567 217.105a2.652 2.652 0 1 1 0 5.307 2.652 2.652 0 0 1 0-5.307z"/></g><g><path fill="#fecd30" d="M264.567 199.069a2.652 2.652 0 1 1 0 5.304 2.652 2.652 0 0 1 0-5.304z"/></g><g><path fill="#fecd30" d="M264.567 181.032a2.652 2.652 0 1 1 0 5.305 2.652 2.652 0 0 1 0-5.304z"/></g><g><path fill="#fecd30" d="M264.567 162.996a2.652 2.652 0 1 1 0 5.307 2.652 2.652 0 0 1 0-5.307z"/></g><g><path fill="#fecd30" d="M264.567 144.96a2.652 2.652 0 1 1 0 5.307 2.652 2.652 0 0 1 0-5.307z"/></g><g><path fill="#fecd30" d="M264.567 126.924a2.652 2.652 0 1 1 0 5.304 2.652 2.652 0 0 1 0-5.304z"/></g><g><path fill="#fecd30" d="M264.567 108.887a2.652 2.652 0 1 1 0 5.305 2.652 2.652 0 0 1 0-5.305z"/></g><g><path fill="#fecd30" d="M264.567 90.851a2.652 2.652 0 1 1 0 5.305 2.652 2.652 0 0 1 0-5.305z"/></g><g><path fill="#fecd30" d="M264.567 72.815a2.652 2.652 0 1 1 0 5.307 2.652 2.652 0 0 1 0-5.307z"/></g><g><path fill="#fecd30" d="M264.567 54.779a2.652 2.652 0 1 1 0 5.304 2.652 2.652 0 0 1 0-5.304z"/></g><g><path fill="#fecd30" d="M264.567 36.742a2.652 2.652 0 1 1 0 5.305 2.652 2.652 0 0 1 0-5.305z"/></g><g><path fill="#fecd30" d="M264.567 18.706a2.652 2.652 0 1 1 0 5.305 2.652 2.652 0 0 1 0-5.305z"/></g><g><path fill="#fecd30" d="M264.567.67a2.652 2.652 0 1 1 0 5.307 2.652 2.652 0 0 1 0-5.307z"/></g><g><path fill="#fecd30" d="M284.716 469.613a2.653 2.653 0 1 1 0 5.305 2.653 2.653 0 0 1 0-5.305z"/></g><g><path fill="#fecd30" d="M284.716 451.576a2.653 2.653 0 1 1-.001 5.306 2.653 2.653 0 0 1 0-5.306z"/></g><g><path fill="#fecd30" d="M284.716 433.54a2.653 2.653 0 1 1-.001 5.306 2.653 2.653 0 0 1 0-5.306z"/></g><g><path fill="#fecd30" d="M284.716 415.504a2.653 2.653 0 1 1-.001 5.306 2.653 2.653 0 0 1 0-5.306z"/></g><g><path fill="#fecd30" d="M284.716 397.467a2.653 2.653 0 1 1 0 5.306 2.653 2.653 0 0 1 0-5.306z"/></g><g><path fill="#fecd30" d="M284.716 379.431a2.653 2.653 0 1 1 0 5.306 2.653 2.653 0 0 1 0-5.306z"/></g><g><path fill="#fecd30" d="M284.716 361.395a2.653 2.653 0 1 1-.001 5.306 2.653 2.653 0 0 1 0-5.306z"/></g><g><path fill="#fecd30" d="M284.716 343.359a2.653 2.653 0 1 1-.001 5.306 2.653 2.653 0 0 1 0-5.306z"/></g><g><path fill="#fecd30" d="M284.716 325.322a2.653 2.653 0 1 1-.001 5.307 2.653 2.653 0 0 1 0-5.307z"/></g><g><path fill="#fecd30" d="M284.716 307.286a2.653 2.653 0 1 1 0 5.306 2.653 2.653 0 0 1 0-5.306z"/></g><g><path fill="#fecd30" d="M284.716 289.25a2.653 2.653 0 1 1-.001 5.306 2.653 2.653 0 0 1 0-5.306z"/></g><g><path fill="#fecd30" d="M284.716 271.214a2.653 2.653 0 1 1-.001 5.306 2.653 2.653 0 0 1 0-5.306z"/></g><g><path fill="#fecd30" d="M284.716 253.178a2.653 2.653 0 1 1-.001 5.306 2.653 2.653 0 0 1 0-5.306z"/></g><g><path fill="#fecd30" d="M284.716 235.141a2.653 2.653 0 1 1 0 5.306 2.653 2.653 0 0 1 0-5.306z"/></g><g><path fill="#fecd30" d="M284.716 217.105a2.653 2.653 0 1 1 0 5.305 2.653 2.653 0 0 1 0-5.305z"/></g><g><path fill="#fecd30" d="M284.716 199.069a2.653 2.653 0 1 1-.001 5.306 2.653 2.653 0 0 1 0-5.306z"/></g><g><path fill="#fecd30" d="M284.716 181.032a2.653 2.653 0 1 1-.001 5.307 2.653 2.653 0 0 1 0-5.306z"/></g><g><path fill="#fecd30" d="M284.716 162.996a2.653 2.653 0 1 1 0 5.306 2.653 2.653 0 0 1 0-5.306z"/></g><g><path fill="#fecd30" d="M284.716 144.96a2.653 2.653 0 1 1 0 5.305 2.653 2.653 0 0 1 0-5.305z"/></g><g><path fill="#fecd30" d="M284.716 126.924a2.653 2.653 0 1 1-.001 5.306 2.653 2.653 0 0 1 0-5.306z"/></g><g><path fill="#fecd30" d="M284.716 108.887a2.653 2.653 0 1 1-.001 5.307 2.653 2.653 0 0 1 0-5.307z"/></g><g><path fill="#fecd30" d="M284.716 90.851a2.653 2.653 0 1 1-.001 5.307 2.653 2.653 0 0 1 0-5.307z"/></g><g><path fill="#fecd30" d="M284.716 72.815a2.653 2.653 0 1 1 0 5.305 2.653 2.653 0 0 1 0-5.305z"/></g><g><path fill="#fecd30" d="M284.716 54.779a2.653 2.653 0 1 1-.001 5.306 2.653 2.653 0 0 1 0-5.306z"/></g><g><path fill="#fecd30" d="M284.716 36.742a2.653 2.653 0 1 1-.001 5.307 2.653 2.653 0 0 1 0-5.307z"/></g><g><path fill="#fecd30" d="M284.716 18.706a2.653 2.653 0 1 1-.001 5.307 2.653 2.653 0 0 1 0-5.307z"/></g><g><path fill="#fecd30" d="M284.716.67a2.653 2.653 0 1 1 0 5.305 2.653 2.653 0 0 1 0-5.305z"/></g></g></svg>