<?xml version="1.0" encoding="utf-8"?>
<!-- Generator: Adobe Illustrator 22.0.0, SVG Export Plug-In . SVG Version: 6.00 Build 0)  -->
<svg version="1.1" id="extended" xmlns="http://www.w3.org/2000/svg" xmlns:xlink="http://www.w3.org/1999/xlink" x="0px" y="0px"
	 viewBox="0 0 400 88.9" style="enable-background:new 0 0 400 88.9;" xml:space="preserve">
<style type="text/css">
	.st0{fill:#0C0C0C;}
</style>
<path class="st0" d="M39.2,88.9V77.2H14.4V50.8h19.7V38H14.4V12.9h24.8V0H0v88.9H39.2z M129.4,88.9v-76h15.1V0H100v12.9h15v76H129.4
	z M189.9,88.9V77.2h-24.8V50.8h19.7V38h-19.7V12.9h24.8V0h-39.2v88.9H189.9z M285.7,88.9c3.1-0.9,5.6-2.4,7.6-4.5
	c3.6-3.8,5.4-9.3,5.4-16.5V22.3c0-7.2-1.8-12.8-5.4-16.6s-8.9-5.7-16-5.7h-22.7v88.9H285.7z M347,88.9V77.2h-24.8V50.8h19.7V38
	h-19.7V12.9H347V0h-39.2v88.9H347z M387,88.9c3.1-0.9,5.6-2.4,7.6-4.5c3.6-3.8,5.4-9.3,5.4-16.6V22.3c0-7.2-1.8-12.8-5.4-16.6
	s-8.9-5.7-16-5.7h-22.7v88.9H387z M268.9,12.9h8.1c2.4,0,4.2,0.7,5.5,2c1.3,1.4,1.9,3.6,1.9,6.7v46.8c0,3.1-0.6,5.3-1.9,6.7
	c-1.3,1.4-3.1,2-5.5,2h-8.1V12.9z M213,88.9v-64l17.5,64h15.2V0h-12.8v53.9L218,0h-19.4v88.9H213z M59.5,88.9l10.8-32.3L81,88.9
	h14.3L79.7,44.2L94.7,0H82.1l-11,33.4L60.2,0H45.8l15.1,43.6L45.2,88.9H59.5z M370.2,12.9h8.1c2.4,0,4.2,0.7,5.5,2
	c1.3,1.4,1.9,3.6,1.9,6.7v46.8c0,3.1-0.6,5.3-1.9,6.7c-1.3,1.4-3.1,2-5.5,2h-8.1V12.9z"/>
</svg>
