<svg xmlns="http://www.w3.org/2000/svg" width="42" height="40" viewBox="0 0 42 40"><g><g><path fill="#fecd30" d="M29.132.7c6.928 0 12.567 5.638 12.567 12.567v13.759c0 6.93-5.64 12.568-12.567 12.568H13.517C6.589 39.594.95 33.956.95 27.026v-13.76C.95 6.339 6.589.7 13.517.7zm9.774 12.567c0-5.39-4.385-9.774-9.774-9.774H13.517c-5.39 0-9.773 4.385-9.773 9.774v13.759c0 5.39 4.384 9.774 9.773 9.774h.853V24.922h-1.862a.548.548 0 0 1-.548-.547v-4.876a.55.55 0 0 1 .548-.548h1.862v-3.068c0-5.095 2.138-7.78 7.725-7.78h2.027c.274 0 .549.164.549.548v4.93c0 .384-.275.549-.55.549h-.82c-1.424 0-2.027.602-2.027 2.246v2.575h2.848c.274 0 .549.164.549.548v4.876c0 .383-.275.547-.55.547h-2.847V36.8h7.858c5.389 0 9.774-4.384 9.774-9.774z"/></g></g></svg>