<svg xmlns="http://www.w3.org/2000/svg" viewBox="0 0 187.42 927.53"><defs><style>.e830655c-0cd8-40ce-ae01-cd2bb59b8f46{fill:none;stroke:#a7a9ac;stroke-width:2px;}</style></defs><g id="ac1e4140-a8cd-4670-af24-ddf4a81a2838" data-name="Layer 2"><g id="b93cf728-1f46-40fb-bdc7-bc121c95cdab" data-name="Слой 2"><path class="e830655c-0cd8-40ce-ae01-cd2bb59b8f46" d="M175.81,926.53H2.93V854.68H27.64v44.73H79.72V864.32h24.72v35.09h71.37Z"/><path class="e830655c-0cd8-40ce-ae01-cd2bb59b8f46" d="M175.81,852,2.93,824.51v-41.9L175.81,755.1v27.12L144.46,787V820.2l31.35,4.7ZM121,816.67V790.49l-87,13.13Z"/><path class="e830655c-0cd8-40ce-ae01-cd2bb59b8f46" d="M134.34,747H44.4q-20.73,0-32.07-10.68T1,705.73q0-19.93,11.33-30.55T44.4,664.56h89.94q14.7,0,24.23,5.16a4.71,4.71,0,0,0,3-2.41,14.33,14.33,0,0,0,.67-5.19v-2.41h24.23v3.62q0,17.43-11.82,23.43a56.22,56.22,0,0,1,3.14,19q0,19.86-11.33,30.58T134.34,747ZM136,719.89q17.11,0,17.12-14.16T136,691.68H42.71q-17,0-17,14.05t17,14.16Z"/><path class="e830655c-0cd8-40ce-ae01-cd2bb59b8f46" d="M61.52,614.89H44.4q-20.85,0-32.13-10.72T1,572.6q0-20.85,11.32-31t32.26-10.14a80.8,80.8,0,0,1,17.23,1.74,60.38,60.38,0,0,1,13.81,4.62,112.37,112.37,0,0,1,11.08,6.24q5.24,3.36,10,6.78c3.17,2.28,6.32,4.38,9.44,6.27a44.18,44.18,0,0,0,22.82,6.3,45,45,0,0,0,9.74-1v26.37a32.92,32.92,0,0,1-10.83,1.72,52.11,52.11,0,0,1-19.11-3.37,63.83,63.83,0,0,1-15-8.14q-6.39-4.75-13-9.35a63.87,63.87,0,0,0-16.25-7.84,67.82,67.82,0,0,0-21.61-3.24q-9,0-13.09,3.55c-2.71,2.37-4.08,5.93-4.08,10.67q0,15,17,15H61.52Zm114.29-24.75h-25v-28.5h25Z"/><path class="e830655c-0cd8-40ce-ae01-cd2bb59b8f46" d="M75.62,519.89H2.93V492.76H75.62l63.08,3.38v20.25Zm100.19-.49h-25V493.24h25Z"/><path class="e830655c-0cd8-40ce-ae01-cd2bb59b8f46" d="M175.81,434.77H2.93V362.92H27.64v44.73H79.72V372.56h24.72v35.09h71.37Z"/><path class="e830655c-0cd8-40ce-ae01-cd2bb59b8f46" d="M175.81,360.27,2.93,332.75v-41.9l172.88-27.51v27.12l-31.35,4.73v33.25l31.35,4.7ZM121,324.91V298.73l-87,13.13Z"/><path class="e830655c-0cd8-40ce-ae01-cd2bb59b8f46" d="M134.34,255.26H44.4q-20.73,0-32.07-10.68T1,214Q1,194,12.33,183.42T44.4,172.8h89.94q14.7,0,24.23,5.16a4.71,4.71,0,0,0,3-2.41,14.33,14.33,0,0,0,.67-5.19V168h24.23v3.62q0,17.43-11.82,23.43a56.22,56.22,0,0,1,3.14,19q0,19.86-11.33,30.58T134.34,255.26ZM136,228.13q17.11,0,17.12-14.16T136,199.92H42.71q-17,0-17,14.05t17,14.16Z"/><path class="e830655c-0cd8-40ce-ae01-cd2bb59b8f46" d="M61.52,123.13H44.4q-20.85,0-32.13-10.72T1,80.84Q1,60,12.32,49.84T44.58,39.7a80.8,80.8,0,0,1,17.23,1.74,60.38,60.38,0,0,1,13.81,4.62A112.37,112.37,0,0,1,86.7,52.3q5.24,3.36,10,6.78t9.44,6.27a43.76,43.76,0,0,0,10.53,4.58,43.15,43.15,0,0,0,12.29,1.72,45,45,0,0,0,9.74-1V97.05a32.92,32.92,0,0,1-10.83,1.72,52.11,52.11,0,0,1-19.11-3.37,63.83,63.83,0,0,1-15-8.14q-6.39-4.76-13-9.35a63.53,63.53,0,0,0-16.25-7.83,67.54,67.54,0,0,0-21.61-3.25q-9,0-13.09,3.55c-2.71,2.37-4.08,5.93-4.08,10.67q0,15,17,15H61.52ZM175.81,98.38h-25V69.88h25Z"/><path class="e830655c-0cd8-40ce-ae01-cd2bb59b8f46" d="M75.62,28.13H2.93V1H75.62L138.7,4.38V24.63Zm100.19-.49h-25V1.48h25Z"/></g></g></svg>