<svg version="1.1" id="l_3" xmlns="http://www.w3.org/2000/svg" xmlns:xlink="http://www.w3.org/1999/xlink" x="0px"
     y="0px" viewBox="0 0 197 152.7" style="enable-background:new 0 0 197 152.7;" xml:space="preserve">
<style type="text/css">
	.st0{fill:none;stroke:#FFFFFF;stroke-width:3;stroke-linecap:round;stroke-linejoin:round;stroke-miterlimit:10;}
	.st1{fill:none;stroke:#FECD30;stroke-width:3;stroke-linecap:round;stroke-linejoin:round;stroke-miterlimit:10;}
</style>
    <g>
	<g id="_x33__1_">
		<rect x="36.7" y="27.5" class="st0" width="115.1" height="92"/>
        <line class="st0" x1="36.7" y1="40.2" x2="139.6" y2="40.2"/>
        <line class="st0" x1="43.9" y1="33.9" x2="48.1" y2="33.9"/>
        <line class="st0" x1="52.2" y1="33.9" x2="56.4" y2="33.9"/>
        <line class="st0" x1="60.5" y1="33.9" x2="64.7" y2="33.9"/>
        <line class="st0" x1="49.6" y1="52.8" x2="62" y2="52.8"/>
        <line class="st0" x1="49.6" y1="74.6" x2="67.7" y2="74.6"/>
        <line class="st0" x1="49.6" y1="63.7" x2="57.8" y2="63.7"/>
        <line class="st0" x1="77" y1="74.6" x2="85.2" y2="74.6"/>
        <line class="st0" x1="67.1" y1="63.7" x2="70.4" y2="63.7"/>
        <g>
			<line class="st0" x1="81.1" y1="96.4" x2="88.9" y2="96.4"/>
            <line class="st0" x1="49.6" y1="107.3" x2="72.1" y2="107.3"/>
            <line class="st0" x1="49.6" y1="96.4" x2="57.8" y2="96.4"/>
            <line class="st0" x1="67.7" y1="96.4" x2="71.1" y2="96.4"/>
            <line class="st0" x1="81.1" y1="107.3" x2="84.5" y2="107.3"/>
		</g>
        <line class="st0" x1="77" y1="85.5" x2="62.9" y2="85.5"/>
        <line class="st0" x1="52.9" y1="85.5" x2="49.6" y2="85.5"/>
        <polyline class="st0" points="106.9,77 99.9,85.3 106.9,93.6 		"/>
        <polyline class="st0" points="129.8,93.6 136.8,85.3 129.8,77 		"/>
        <line class="st0" x1="114.7" y1="95.9" x2="122" y2="74.6"/>
	</g>
        <g>
		<line class="st1" x1="195.5" y1="36" x2="188" y2="28.5"/>
            <line class="st1" x1="188" y1="36" x2="195.5" y2="28.5"/>
            <circle class="st1" cx="165.5" cy="6" r="4.5"/>
            <circle class="st1" cx="47.5" cy="146.7" r="4.5"/>
            <line class="st1" x1="1.5" y1="101.9" x2="5" y2="105.4"/>
            <line class="st1" x1="13.3" y1="113.6" x2="16.8" y2="117.1"/>
            <line class="st1" x1="13.3" y1="105.4" x2="16.8" y2="101.9"/>
            <line class="st1" x1="1.5" y1="117.1" x2="5" y2="113.6"/>
            <g>
			<path class="st1" d="M94.9,13.6c-7.4,0-7.4-10-14.8-10c-7.4,0-7.4,10-14.8,10c-7.4,0-7.4-10-14.8-10c-7.4,0-7.4,10-14.8,10
				c-7.4,0-7.4-10-14.8-10"/>
		</g>
	</g>
</g>
</svg>
