<svg version="1.1" id="layer_35" xmlns="http://www.w3.org/2000/svg" xmlns:xlink="http://www.w3.org/1999/xlink" x="0px"
     y="0px" viewBox="0 0 217 155.6" style="enable-background:new 0 0 217 155.6;" xml:space="preserve">
<style type="text/css">
	.st0{fill:none;stroke:#FFFFFF;stroke-width:3;stroke-linecap:round;stroke-linejoin:round;stroke-miterlimit:10;}
	.st1{fill:none;stroke:#FECD30;stroke-width:3;stroke-linecap:round;stroke-linejoin:round;stroke-miterlimit:10;}
</style>
    <g>
	<g id="_x31_7">

			<rect x="64" y="7.9" transform="matrix(-1.836970e-16 1 -1 -1.836970e-16 191.5685 -28.5049)" class="st0" width="92" height="147.3"/>
        <polygon class="st0" points="102.4,66.6 102.4,84.4 116.7,75.5 		"/>
        <line class="st0" x1="86.2" y1="111.9" x2="169.8" y2="111.9"/>
        <line class="st0" x1="68.4" y1="111.9" x2="77.2" y2="111.9"/>
        <line class="st0" x1="79.3" y1="118.2" x2="79.3" y2="105.7"/>
        <line class="st0" x1="58.7" y1="118.2" x2="58.7" y2="105.7"/>
        <line class="st0" x1="49.7" y1="118.2" x2="49.7" y2="105.7"/>
        <path class="st0" d="M125,64.1c2.1,3.3,3.3,7.2,3.3,11.4c0,11.9-9.6,21.5-21.5,21.5s-21.5-9.6-21.5-21.5S94.8,54,106.7,54
			c3.6,0,7,0.9,9.9,2.4"/>
	</g>
        <g>
		<g>
			<line class="st1" x1="44" y1="146.6" x2="51.5" y2="154.1"/>
            <line class="st1" x1="51.5" y1="146.6" x2="44" y2="154.1"/>
		</g>
            <circle class="st1" cx="166.7" cy="6" r="4.5"/>
            <g>
			<line class="st1" x1="215.5" y1="50.8" x2="212" y2="47.3"/>
                <line class="st1" x1="203.7" y1="39" x2="200.2" y2="35.5"/>
                <line class="st1" x1="203.7" y1="47.3" x2="200.2" y2="50.8"/>
                <line class="st1" x1="215.5" y1="35.5" x2="212" y2="39"/>
		</g>
            <g>
			<path class="st1" d="M1.5,91.1c0-7.4,10-7.4,10-14.8c0-7.4-10-7.4-10-14.8c0-7.4,10-7.4,10-14.8c0-7.4-10-7.4-10-14.8
				s10-7.4,10-14.8"/>
		</g>
	</g>
</g>
</svg>
