<svg version="1.1" id="ln_35" xmlns="http://www.w3.org/2000/svg" xmlns:xlink="http://www.w3.org/1999/xlink" x="0px"
     y="0px" viewBox="0 0 191.6 152.7" style="enable-background:new 0 0 191.6 152.7;" xml:space="preserve">
<style type="text/css">
	.st0{fill:none;stroke:#FFFFFF;stroke-width:3;stroke-linecap:round;stroke-linejoin:round;stroke-miterlimit:10;}
	.st1{fill:none;stroke:#FECD30;stroke-width:3;stroke-linecap:round;stroke-linejoin:round;stroke-miterlimit:10;}
</style>
    <g id="_x31_6_1_">
	<polyline class="st0" points="143.5,35.5 36.2,35.5 36.2,97.4 36.2,109.8 75.8,109.8 103.9,109.8 127.3,109.8 	"/>
        <line class="st0" x1="143.5" y1="65.2" x2="143.5" y2="46.1"/>
        <polyline class="st0" points="103.9,114.9 103.9,124.4 75.8,124.4 75.8,109.8 103.9,109.8 	"/>
        <line class="st0" x1="65.7" y1="124.4" x2="114" y2="124.4"/>
        <line class="st0" x1="116.2" y1="97.4" x2="36.2" y2="97.4"/>
        <polyline class="st0" points="174.1,127.5 127.3,127.5 127.3,65.2 174.1,65.2 174.1,78.1 	"/>
        <line class="st0" x1="148.3" y1="118.4" x2="153.9" y2="118.4"/>
        <rect x="166.6" y="88.7" class="st0" width="23.5" height="38.8"/>
        <line class="st0" x1="177.5" y1="119.5" x2="179.2" y2="119.5"/>
        <g>
		<line class="st1" x1="1.5" y1="116.7" x2="9" y2="124.2"/>
            <line class="st1" x1="9" y1="116.7" x2="1.5" y2="124.2"/>
            <circle class="st1" cx="31.5" cy="146.7" r="4.5"/>
            <circle class="st1" cx="149.5" cy="6" r="4.5"/>
            <line class="st1" x1="184.1" y1="50.8" x2="180.6" y2="47.3"/>
            <line class="st1" x1="172.4" y1="39" x2="168.9" y2="35.5"/>
            <line class="st1" x1="172.4" y1="47.3" x2="168.9" y2="50.8"/>
            <line class="st1" x1="184.1" y1="35.5" x2="180.6" y2="39"/>
            <g>
			<line class="st1" x1="39.9" y1="13.3" x2="47.7" y2="13.3"/>
                <line class="st1" x1="8.4" y1="24.2" x2="30.8" y2="24.2"/>
                <line class="st1" x1="8.4" y1="13.3" x2="16.5" y2="13.3"/>
                <line class="st1" x1="26.5" y1="13.3" x2="29.9" y2="13.3"/>
                <line class="st1" x1="39.9" y1="24.2" x2="43.3" y2="24.2"/>
		</g>
	</g>
</g>
</svg>
