<svg xmlns="http://www.w3.org/2000/svg" width="41" height="40" viewBox="0 0 41 40"><g><g><path fill="#fecd30" d="M12.517 39.801C5.588 39.801-.05 34.163-.05 27.232V13.473C-.05 6.544 5.588.906 12.517.906h15.614c6.93 0 12.568 5.638 12.568 12.567v13.76c0 6.93-5.639 12.568-12.568 12.568zm0-36.102c-5.39 0-9.774 4.385-9.774 9.774v13.76c0 5.39 4.384 9.775 9.774 9.775h15.614c5.39 0 9.775-4.385 9.775-9.776V13.473c0-5.389-4.386-9.774-9.775-9.774z"/></g><g><path fill="#fecd30" d="M9.137 20.354c0-6.169 5.019-11.187 11.188-11.187 6.168 0 11.187 5.018 11.187 11.187 0 6.168-5.02 11.187-11.187 11.187-6.17 0-11.188-5.019-11.188-11.187zm2.793 0c0 4.627 3.766 8.393 8.395 8.393 4.628 0 8.394-3.766 8.394-8.393 0-4.629-3.766-8.395-8.394-8.395-4.63 0-8.395 3.766-8.395 8.395z"/></g><g><path fill="#fecd30" d="M33.66 9.511a2.322 2.322 0 1 1-2.32-2.321 2.32 2.32 0 0 1 2.32 2.321z"/></g></g></svg>