<svg xmlns="http://www.w3.org/2000/svg" width="268" height="138" viewBox="0 0 268 138"><g><g><path fill="#ffffff" d="M0 137.978V.75h34.068c10.653 0 18.676 2.904 24.067 8.71 5.39 5.803 8.086 14.228 8.086 25.263v69.38c0 11.038-2.695 19.442-8.086 25.214-5.391 5.775-13.414 8.661-24.067 8.661zm21.53-19.617h12.155c3.572 0 6.299-1.037 8.183-3.11 1.88-2.07 2.822-5.468 2.822-10.194V33.67c0-4.72-.942-8.118-2.822-10.19-1.884-2.072-4.611-3.112-8.183-3.112H21.53z"/></g><g><path fill="#0c0c0c" d="M116.063 39.591V13.393c0-4.05 1.002-7.17 3.006-9.358C121.075 1.843 124.014.75 127.89.75c3.876 0 6.877 1.093 9.004 3.285 2.127 2.187 3.19 5.307 3.19 9.358v4.916h-7.902v-5.408c0-3.3-1.233-4.952-3.7-4.952-3.012 0-4.518 1.651-4.518 4.952v27.182c0 3.278 1.506 4.916 4.517 4.916 2.468 0 3.701-1.638 3.701-4.916v-9.27h-3.16v-7.2h11.062V39.59c0 4.05-1.063 7.171-3.19 9.358-2.127 2.191-5.128 3.285-9.004 3.285-3.876 0-6.815-1.094-8.82-3.285-2.005-2.187-3.007-5.308-3.007-9.358z"/></g><g><path fill="#0c0c0c" d="M179.996 51.672V1.312h11.923c4.044 0 7.005.949 8.888 2.845 1.882 1.897 2.823 4.811 2.823 8.744v3.969c0 5.174-1.724 8.58-5.17 10.219 1.886.796 3.231 2.084 4.035 3.863.803 1.779 1.206 4.062 1.206 6.848v7.761c0 2.787.246 4.823.737 6.111h-7.9a19.385 19.385 0 0 1-.388-1.318c-.07-.291-.146-.852-.228-1.686-.082-.829-.123-1.889-.123-3.177V37.59c0-2.318-.41-3.969-1.229-4.952-.819-.983-2.13-1.475-3.933-1.475h-2.739v20.509zm7.902-27.673h3.09c1.568 0 2.751-.405 3.547-1.21.796-.811 1.194-2.185 1.194-4.128v-4.952c0-1.802-.316-3.118-.948-3.952-.632-.828-1.65-1.245-3.056-1.245h-3.827z"/></g><g><path fill="#0c0c0c" d="M243.474 13.393c0-4.027 1.037-7.141 3.11-9.341C248.66 1.851 251.633.75 255.503.75c3.87 0 6.835 1.101 8.898 3.302 2.063 2.2 3.094 5.314 3.094 9.341v26.198c0 4.027-1.031 7.141-3.094 9.342-2.063 2.201-5.028 3.301-8.898 3.301s-6.843-1.1-8.917-3.301-3.111-5.315-3.111-9.342zm7.9 26.69c0 3.325 1.377 4.987 4.128 4.987 2.727 0 4.09-1.662 4.09-4.987V12.901c0-3.3-1.363-4.951-4.09-4.951-2.751 0-4.127 1.651-4.127 4.951z"/></g><g><path fill="#0c0c0c" d="M116.08 125.336v-38.35h7.902v38.842c0 3.278 1.37 4.916 4.11 4.916 2.716 0 4.073-1.638 4.073-4.916V86.987h7.902v38.349c0 4.05-1.057 7.17-3.173 9.358-2.114 2.19-5.104 3.285-8.972 3.285-3.867 0-6.807-1.094-8.82-3.285-2.014-2.187-3.021-5.308-3.021-9.358z"/></g><g><path fill="#0c0c0c" d="M180.506 137.979v-50.36h11.64c3.905 0 6.844 1.065 8.82 3.196 1.975 2.13 2.963 5.22 2.963 9.27v6.533c0 4.05-.987 7.136-2.96 9.253-1.975 2.12-4.913 3.179-8.813 3.179h-3.75v18.929zm7.9-26.093h3.759c1.31 0 2.282-.363 2.915-1.09.632-.724.948-1.953.948-3.686v-7.551c0-1.732-.316-2.957-.948-3.668-.633-.716-1.605-1.072-2.915-1.072h-3.758z"/></g><g><path fill="#0c0c0c" d="M243.684 125.336v-3.09h8.112v3.582c0 3.278 1.264 4.916 3.793 4.916 2.53 0 3.792-1.638 3.792-4.916a9.494 9.494 0 0 0-.844-3.97 13.302 13.302 0 0 0-2.172-3.351 42.115 42.115 0 0 0-2.949-2.988 211.164 211.164 0 0 1-3.318-3.123 29.178 29.178 0 0 1-3.075-3.46c-.917-1.218-1.669-2.67-2.253-4.355-.584-1.685-.875-3.5-.875-5.443 0-4.051 1.074-7.171 3.225-9.358 2.15-2.192 5.047-3.285 8.691-3.285 3.644 0 6.456 1.093 8.435 3.285 1.978 2.187 2.967 5.307 2.967 9.358v1.615h-7.48v-2.107c0-3.301-1.328-4.952-3.986-4.952-1.317 0-2.305.394-2.962 1.176-.66.786-.989 2.044-.989 3.776a9.3 9.3 0 0 0 .865 3.969 13.116 13.116 0 0 0 2.222 3.352c.905.997 1.91 1.99 3.016 2.988a94.251 94.251 0 0 1 3.308 3.123 29.99 29.99 0 0 1 3.003 3.46c.902 1.217 1.64 2.669 2.213 4.355.573 1.685.861 3.5.861 5.443 0 4.05-1.007 7.17-3.02 9.358-2.015 2.19-4.856 3.285-8.526 3.285s-6.598-1.094-8.78-3.285c-2.183-2.187-3.274-5.308-3.274-9.358z"/></g><g><path fill="#ffffff" d="M85.364 126.421h11.557v11.557H85.364z"/></g></g></svg>