<svg xmlns="http://www.w3.org/2000/svg" width="392" height="202" viewBox="0 0 392 202"><g><g><path fill="#fecd30" d="M.289 201.387V.413h49.893c15.602 0 27.352 4.252 35.247 12.753 7.895 8.501 11.843 20.84 11.843 37.002v101.608c0 16.165-3.948 28.474-11.843 36.927-7.895 8.457-19.645 12.683-35.247 12.683zm31.533-28.73h17.8c5.23 0 9.225-1.519 11.983-4.556 2.753-3.032 4.134-8.007 4.134-14.928V48.623c0-6.913-1.381-11.888-4.134-14.925-2.758-3.033-6.753-4.556-11.983-4.556h-17.8z"/></g><g><path fill="#fff" d="M170.267 57.296V18.93c0-5.933 1.467-10.503 4.402-13.705 2.937-3.21 7.242-4.81 12.918-4.81 5.676 0 10.072 1.6 13.187 4.81 3.115 3.202 4.672 7.772 4.672 13.705v7.2h-11.573v-7.92c0-4.835-1.806-7.253-5.42-7.253-4.41 0-6.615 2.418-6.615 7.252v39.81c0 4.8 2.205 7.2 6.615 7.2 3.614 0 5.42-2.4 5.42-7.2V44.438h-4.628V33.895h16.201v23.401c0 5.933-1.557 10.503-4.672 13.705-3.115 3.21-7.51 4.811-13.187 4.811-5.676 0-9.98-1.602-12.918-4.81-2.935-3.203-4.402-7.773-4.402-13.706z"/></g><g><path fill="#fff" d="M263.898 74.988V1.235h17.461c5.923 0 10.26 1.39 13.017 4.166 2.757 2.778 4.135 7.047 4.135 12.807v5.812c0 7.578-2.525 12.567-7.574 14.966 2.763 1.166 4.733 3.052 5.911 5.66 1.177 2.604 1.767 5.947 1.767 10.027V66.04c0 4.08.36 7.063 1.08 8.948h-11.573a29.455 29.455 0 0 1-.566-1.929c-.103-.426-.214-1.248-.334-2.469-.12-1.214-.18-2.768-.18-4.653V54.364c0-3.394-.6-5.81-1.8-7.252-1.2-1.439-3.12-2.159-5.76-2.159h-4.012v30.035zm11.572-40.527h4.525c2.298 0 4.03-.594 5.196-1.773 1.166-1.186 1.748-3.199 1.748-6.045v-7.25c0-2.642-.463-4.569-1.389-5.789-.926-1.214-2.417-1.825-4.475-1.825h-5.605z"/></g><g><path fill="#fff" d="M356.863 18.929c0-5.898 1.518-10.458 4.556-13.682 3.038-3.222 7.391-4.834 13.06-4.834 5.666 0 10.01 1.612 13.031 4.834 3.021 3.224 4.531 7.784 4.531 13.682v38.367c0 5.898-1.51 10.458-4.53 13.682-3.023 3.223-7.366 4.834-13.033 4.834-5.668 0-10.02-1.611-13.059-4.834-3.038-3.224-4.556-7.784-4.556-13.682zm11.571 39.088c0 4.868 2.015 7.303 6.044 7.303 3.994 0 5.991-2.435 5.991-7.303v-39.81c0-4.833-1.997-7.251-5.99-7.251-4.03 0-6.045 2.418-6.045 7.252z"/></g><g><path fill="#fff" d="M170.293 182.872v-56.164h11.572v56.884c0 4.8 2.006 7.2 6.018 7.2 3.977 0 5.966-2.4 5.966-7.2v-56.884h11.572v56.164c0 5.932-1.548 10.502-4.647 13.704-3.095 3.21-7.476 4.811-13.14 4.811-5.664 0-9.97-1.6-12.918-4.81-2.948-3.203-4.423-7.773-4.423-13.705z"/></g><g><path fill="#fff" d="M264.644 201.387v-73.753h17.05c5.716 0 10.021 1.561 12.916 4.681 2.891 3.12 4.338 7.646 4.338 13.578v9.566c0 5.932-1.445 10.45-4.336 13.55-2.89 3.106-7.193 4.656-12.905 4.656h-5.49v27.722zm11.572-38.213h5.503c1.92 0 3.343-.532 4.268-1.595.926-1.063 1.39-2.863 1.39-5.4v-11.058c0-2.537-.464-4.33-1.39-5.373-.925-1.049-2.348-1.57-4.268-1.57h-5.503z"/></g><g><path fill="#fff" d="M357.172 182.872v-4.526h11.88v5.246c0 4.8 1.85 7.2 5.555 7.2 3.703 0 5.554-2.4 5.554-7.2a13.91 13.91 0 0 0-1.237-5.812 19.388 19.388 0 0 0-3.181-4.91 61.665 61.665 0 0 0-4.318-4.375 311.326 311.326 0 0 1-4.86-4.574 42.915 42.915 0 0 1-4.504-5.068c-1.342-1.783-2.443-3.909-3.298-6.377-.856-2.469-1.282-5.126-1.282-7.972 0-5.932 1.573-10.503 4.722-13.705 3.15-3.209 7.393-4.81 12.73-4.81 5.337 0 9.455 1.601 12.35 4.81 2.899 3.202 4.348 7.773 4.348 13.705v2.365h-10.955v-3.086c0-4.834-1.946-7.25-5.838-7.25-1.93 0-3.375.574-4.34 1.72-.964 1.152-1.446 2.993-1.446 5.53 0 2.058.422 3.995 1.266 5.813a19.265 19.265 0 0 0 3.255 4.91 62.892 62.892 0 0 0 4.416 4.375 138.922 138.922 0 0 1 4.847 4.573 44.255 44.255 0 0 1 4.398 5.068c1.32 1.784 2.4 3.91 3.24 6.377.84 2.47 1.26 5.126 1.26 7.973 0 5.932-1.475 10.502-4.423 13.704-2.95 3.21-7.112 4.811-12.487 4.811-5.376 0-9.662-1.6-12.857-4.81-3.197-3.203-4.795-7.773-4.795-13.705z"/></g><g><path fill="#fecd30" d="M125.306 184.461h16.926v16.926h-16.926z"/></g></g></svg>