<svg xmlns="http://www.w3.org/2000/svg" width="57" height="61" viewBox="0 0 57 61"><g><g><path fill="#fecd30" d="M32.499.356h-1.96c-7.122 0-13.811 2.658-19.88 7.899C3.578 15.099-.022 23.264-.022 32.51v2.092c0 7.245 2.609 13.594 7.75 18.868 5.517 4.8 11.458 7.244 17.633 7.244h2.457c2.128 0 4.164-.21 6.054-.621 7.467-1.643 8.273-3.005 8.273-3.513v-.5c0-.15 0-.602-.973-.911a.661.661 0 0 0-.256.053c-3.584 2.139-8.045 3.23-13.23 3.23H25.36c-1.64 0-3.817-.326-6.471-.974C7.739 53.388 2.107 45.317 2.107 33.473c0-7.093 2.093-13.62 6.22-19.395C14.459 6.446 21.96 2.585 30.64 2.585h1.992c5.272 0 10.062 1.695 14.234 5.037 5.089 4.706 7.657 10.67 7.657 17.752 0 2.634-.418 5.486-1.243 8.474-2.64 6.562-6.03 9.865-10.091 9.865h-.631c-2.058 0-3.102-1.826-3.102-5.426 0-1.921.248-4.182.738-6.718 1.718-7.62 2.664-12.03 2.819-13.125l-.004-.308c0-1.602-1.163-2.674-3.555-3.272-1.268.014-2.316.6-3.205 1.792-.213.384-.718 2.112-1.75 7.927-1.702 13.194-5.437 19.893-11.097 19.893-1.203 0-2.621-.346-4.213-1.03-2.95-1.496-4.432-4.267-4.432-8.246v-.233c0-4.435 1.604-8.7 4.77-12.674 3.762-3.945 7.907-5.931 12.34-5.931 1.16 0 2.543-.165 2.543-.948v-.498c0-.288-.1-.64-.861-.816h-1.183c-3.838 0-7.681 1.26-11.424 3.749-5.591 4.842-8.447 10.612-8.447 17.118v.1c0 2.74.727 5.28 2.16 7.547 2.348 2.698 5.259 4.09 8.615 4.09 3.804 0 7.034-2.33 9.599-6.925 1.45-2.622 2.844-7.95 4.136-15.834.84-6.336 1.403-6.853 2-6.853.477.055 1.775.213 1.775 1.143l-.012.6c-2.372 9.438-3.574 15.939-3.574 19.319 0 1.2.164 2.45.486 3.717.89 2.753 2.532 4.103 5.01 4.103h.233c1.82 0 3.784-.606 5.834-1.802 5.22-4.415 7.895-10.262 7.895-17.338v-2.325c0-4.052-1.145-8.322-3.406-12.69C48.368 4.224 41.38.356 32.499.356z"/></g></g></svg>