<svg xmlns="http://www.w3.org/2000/svg" width="367" height="871" viewBox="0 0 367 871"><g><g><path fill="#ffdd7d" d="M156.798 255.166c-2.95-3.394-5.163-6.123-6.634-8.184-1.77-2.066-3.836-4.203-6.193-6.415-2.363-2.209-4.278-4.354-5.75-6.412-.594-.595-1.259-1.549-1.99-2.875-.739-1.328-1.701-2.288-2.876-2.875-.885-1.48-2.143-2.73-3.76-3.76-1.624-1.037-3.172-1.549-4.644-1.549l-1.326-.884c-.594 0-1.549-.519-2.875-1.549a30.435 30.435 0 0 0-3.982-2.654c-1.327-.738-2.288-1.182-2.875-1.327-.595-.152-.297.665.885 2.433 1.472 2.654 3.828 5.31 7.076 7.962 3.242 2.654 6.193 5.453 8.848 8.406 1.471 1.173 2.135 1.77 1.99 1.77-.152 0-.739-.375-1.77-1.108a119.113 119.113 0 0 1-3.539-2.653c-1.326-1.038-2.141-1.847-2.432-2.434a20565.759 20565.759 0 0 0-20.789-19.905 629.979 629.979 0 0 1-19.905-19.904 31.876 31.876 0 0 0-2.212-1.99 34.174 34.174 0 0 1-2.211-1.99c-1.182-.886-2.067-1.77-2.654-2.655 0-.594.443-.884 1.327-.884h1.327c0-.348-.076-.668-.227-.962l.227.078c1.174.587 2.059.441 2.654-.444.587-.297.733-.595.442-.884-.298-.298-.739-.663-1.326-1.106a11.709 11.709 0 0 0-1.77-1.106c-.594-.298-.884-.595-.884-.885a7.845 7.845 0 0 1 2.212-2.212c.587-.297 1.029-.593 1.326-.884.885.587.885.146 0-1.326-.884-1.479-1.182-2.364-.884-2.655 1.471-.595 2.357-.595 2.653 0 .29.587 1.175.146 2.655-1.326-.595-.595-.885-1.038-.885-1.327-.298-.298-.373-.595-.222-.885.146-.297.512-.297 1.107 0 .587-.595 1.175-.96 1.768-1.106a9.412 9.412 0 0 0 1.77-.663l.442-3.539c2.06-2.067 4.201-2.875 6.414-2.432 2.212.441 4.347.81 6.413 1.104a1505.902 1505.902 0 0 1 37.598 19.021 490.028 490.028 0 0 1 38.041 22.116c8.846 6.483 18.577 13.05 29.193 19.683a2343.971 2343.971 0 0 1 30.962 19.683c1.175 0 2.799.733 4.866 2.213a11.816 11.816 0 0 1 3.096 2.212c1.175.587 1.251.221.222-1.106-1.037-1.328-1.7-1.845-1.99-1.548a1296.144 1296.144 0 0 1-7.298-11.058c-2.51-3.837-4.501-7.673-5.972-11.502-1.77-2.95-4.058-5.97-6.857-9.067a113.918 113.918 0 0 1-7.741-9.51c-.593-.595-1.181-1.327-1.768-2.212-1.182-1.769-1.77-2.95-1.77-3.538.29-.594.663-.74 1.106-.443.442.291.808.665 1.106 1.106.289.443.443.81.443 1.106a.548.548 0 0 1-.003.064c5.705 6.597 10.57 12.918 14.598 18.957 4.127 6.193 8.55 12.675 13.271 19.461 2.059 3.54 4.568 6.636 7.518 9.29l5.309 7.962c.885-.885.221-2.51-1.99-4.866-2.212-2.364-3.319-3.98-3.319-4.865-3.835-6.49-7.74-12.462-11.72-17.914-3.982-5.46-8.336-11.723-13.049-18.799l-3.096-3.98c.587.586 1.326 1.027 2.211 1.325 1.77.588 2.944 1.03 3.539 1.327 1.175 1.174 2.654 3.021 4.423 5.53a302.945 302.945 0 0 1 3.539 5.085c2.357 1.474 3.021 1.474 1.99 0-1.037-1.479-1.845-2.507-2.432-3.096-4.424-9.73-11.21-19.759-20.348-30.077a4009.032 4009.032 0 0 0-26.097-29.194c-8.556-8.557-16.808-16.44-24.77-23.664a3465.554 3465.554 0 0 1-23.885-21.896c-2.067-1.479-3.615-2.509-4.645-3.097-1.038-.594-2.73-1.623-5.087-3.096a5.853 5.853 0 0 1-1.327-1.99 5.94 5.94 0 0 0-1.327-1.99c-2.363-1.48-3.836-1.77-4.423-.885-.594.884-2.211.732-4.866-.44a177.924 177.924 0 0 1-3.095-3.982c-.886-1.182-2.365-2.213-4.424-3.097-.885-.595-1.327-.816-1.327-.665 0 .146.221.59.664 1.328.442.733 1.105 1.471 1.99 2.212.885.733 1.768 1.25 2.653 1.547 1.175.885 2.212 1.771 3.097 2.656 1.473 1.471 1.769 2.356.885 2.653-2.067-1.182-3.691-2.364-4.867-3.538l-3.316-3.318c-1.037-1.036-1.549-1.845-1.549-2.434-4.423-2.95-8.259-5.528-11.5-7.74-3.249-2.212-7.374-5.087-12.386-8.625-.296 0-.815-.443-1.547-1.327a304.758 304.758 0 0 0-2.433-2.875c-.885-1.037-1.77-1.92-2.653-2.654-.886-.74-1.771-.96-2.655-.664-1.182-.594-1.106-.076.221 1.55 1.327 1.616 2.28 2.431 2.876 2.431 4.713 3.242 8.549 6.636 11.499 10.173 2.061 1.176 2.876 1.693 2.434 1.55-.444-.154-1.327-.665-2.655-1.55a61.323 61.323 0 0 1-4.202-3.096c-1.478-1.182-2.211-1.92-2.211-2.212a104.95 104.95 0 0 1-5.123-3.253c.987.81 1.81 1.6 2.469 2.37.29.883-.076 1.25-1.106 1.105-1.037-.152-2.143-.442-3.318-.885a85.963 85.963 0 0 0-3.096-1.106c-.884-.298-1.036-.152-.442.443 4.126 2.945 7.299 5.598 9.51 7.962 2.212 2.356 4.934 5.453 8.183 9.288 1.175 0 2.356.291 3.539.886l1.769.885c0 .884-1.037 1.028-3.097.441l-2.654-.885-6.191-6.634a867.514 867.514 0 0 0-6.414-3.98 23.92 23.92 0 0 0-5.972-2.656c-2.654-2.067-5.972-4.72-9.952-7.962a13661.62 13661.62 0 0 1-10.837-8.846 411.667 411.667 0 0 0-11.723-7.519c-4.269-2.654-7.442-4.72-9.509-6.193a183.488 183.488 0 0 0-5.308-5.087c-2.06-1.92-5.156-4.2-9.288-6.856-.291-.593-2.06-1.48-5.308-2.653-3.242-1.182-5.598-2.364-7.078-3.538-.29-.595 0-.962.885-1.106.885-.154 2.066.068 3.539.663 1.181.29 2.806.884 4.865 1.77 1.48.586 1.99.22 1.548-1.107-.442-1.326-1.396-1.99-2.875-1.99l-8.846-3.539c.884-.297 2.066-.297 3.538 0 1.479.29 2.73.663 3.76 1.106 1.037.442 1.7.733 1.99.885.298.146-.29-.222-1.768-1.106-.588-.595-1.328-1.182-2.212-1.769-.885-.595-1.03-1.328-.443-2.212-1.769 0-3.683-.519-5.75-1.548-2.06-1.038-3.096-2.287-3.096-3.76.594-.594 1.402-.96 2.432-1.107a6.945 6.945 0 0 0 2.875-1.104c-.29-.297-.442-.589-.442-.887-.588-.586-.588-1.325 0-2.209.298-.292.74-.589 1.327-.885.297-.29.885-1.176 1.77-2.655 1.478-.885 3.392-2.653 5.75-5.307C16.733.606 19.09-.424 21.447.165c.885.297 2.806 1.401 5.75 3.316 2.952 1.922 4.721 3.47 5.308 4.646 3.248 2.066 6.047 3.537 8.405 4.422 2.363.884 5.163 2.066 8.404 3.54 10.021 7.961 20.789 15.404 32.29 22.336 11.499 6.926 23 14.08 34.501 21.454a2418.106 2418.106 0 0 0 39.588 24.105 4286.623 4286.623 0 0 0 38.703 22.78 58.023 58.023 0 0 1 9.29 5.31 58.294 58.294 0 0 0 9.288 5.307c1.769 1.472 4.348 2.943 7.74 4.422 3.387 1.472 5.972 3.387 7.742 5.75a328.89 328.89 0 0 1 17.693 9.953c5.598 3.388 11.646 6.415 18.135 9.068 1.472.587 2.578 1.395 3.318 2.433a57.163 57.163 0 0 1 2.433 3.76c4.423.587 8.403 2.356 11.942 5.308 1.175.587 2.944 1.548 5.308 2.875a27.53 27.53 0 0 0 7.519 2.875c.291 1.174.885 1.915 1.77 2.212.885.29 2.059.731 3.538 1.326 2.945 1.474 6.263 3.318 9.953 5.53a72.828 72.828 0 0 0 11.278 5.528c2.655 1.77 5.378 3.76 8.184 5.972 2.799 2.212 4.935 3.608 6.414 4.202.884.29 2.135.068 3.759-.664a45.136 45.136 0 0 1 4.424-1.769c1.327-.442 2.433-.442 3.317 0 .885.443 1.176 2.136.885 5.087 0 1.471-.518 3.166-1.548 5.087-1.036 1.915-2.364 3.76-3.982 5.528a53.265 53.265 0 0 1-5.086 4.868c-1.769 1.471-3.539 2.653-5.308 3.537-1.48 1.471-3.317 2.502-5.529 3.097-2.211.587-4.057 1.617-5.53 3.096-1.768 1.472-3.172 2.723-4.201 3.76-1.037 1.03-2.288 1.251-3.761.662-.883-.297-2.066-.44-3.537-.44h-1.77l-2.654 1.325c-3.249 0-6.047-.663-8.405-1.99-2.362-1.326-5.161-3.173-8.403-5.529-.885-.297-2.143-1.036-3.76-2.212-1.624-1.182-2.73-1.92-3.317-2.212l.885-.884c.29-.298.144-.739-.443-1.326.587-.884-.297-2.212-2.654-3.98-2.363-1.772-4.721-2.808-7.077-3.098-.594-1.768-1.77-3.096-3.539-3.98-1.769-.885-3.538-1.769-5.308-2.656-.298-.295-.442-.739-.442-1.326-.297-.594-.443-1.036-.443-1.327 0-.298-.297-.739-.884-1.328-.594-.295-1.037-.517-1.328-.663-.296-.15-.738-.22-1.326-.22-.594-.297-1.036-.443-1.327-.443.291-1.18.809-1.768 1.549-1.768.732 0 1.251-.298 1.548-.887-.886-1.18-2.731-2.729-5.53-4.644-2.805-1.92-4.644-2.875-5.529-2.875-1.182-1.479-2.433-2.509-3.76-3.096-1.327-.595-2.729-1.769-4.202-3.538a41.938 41.938 0 0 0-.502-.734c.394.242 1.445.488 3.156.734.885 0 2.654.952 5.308 2.875 2.653 1.915 4.865 3.164 6.635 3.76.885 0 2.136.07 3.76.221 1.617.146 1.251-.076-1.106-.663-2.654-3.25-5.826-5.682-9.511-7.299-3.69-1.625-6.565-3.172-8.624-4.644-.595-.595-.962-1.106-1.106-1.549-.151-.44-.373-.96-.664-1.547l-.884-1.77a657.747 657.747 0 0 1-13.712-7.077c-5.018-2.655-8.999-4.72-11.943-6.193-2.067-2.363-3.836-3.835-5.309-4.424-1.181-1.18-2.432-1.699-3.759-1.547-1.327.146-2.288-.222-2.875-1.106-1.479-.595-2.952-1.625-4.423-3.097-1.479-1.479-2.655-2.509-3.538-3.096-2.067-.885-3.029-1.106-2.875-.663.144.441.732 1.106 1.768 1.991 1.03.884 2.212 1.838 3.539 2.875 1.326 1.03 2.281 1.838 2.875 2.431a42.733 42.733 0 0 0 1.99 3.54 17.347 17.347 0 0 0 2.433 3.096 1801.447 1801.447 0 0 0 25.213 28.308 202.356 202.356 0 0 1 23.443 31.407 912.615 912.615 0 0 1 21.453 31.404c6.925 10.615 14.375 21.233 22.337 31.848a101.88 101.88 0 0 1 5.75 8.183c1.77 2.8 3.829 5.818 6.194 9.066 1.174 1.474 1.768 3.242 1.768 5.31.885 0 1.328.884 1.328 2.652a8.48 8.48 0 0 1-.443 2.655l-3.981 5.75c-1.769.587-3.615 0-5.529-1.769-1.921-1.768-3.47-2.655-4.644-2.655-.885-.593-1.48-.662-1.769-.22-.298.442-1.182.512-2.654.22 0-.593-.961-1.623-2.875-3.094-1.922-1.48-3.614-2.212-5.087-2.212-1.182-.298-2.067-.152-2.654.441-.297.291-.594.732-.885 1.328-1.48-.596-2.806-1.328-3.981-2.212a71.525 71.525 0 0 1-3.317-1.769c-1.037-.596-1.7-1.037-1.99-1.328a30.578 30.578 0 0 1-2.875-2.21 9.833 9.833 0 0 1-2.433-3.097c-5.018-2.95-9.884-5.606-14.598-7.962a77.75 77.75 0 0 1-13.269-8.405c-2.654-1.479-5.385-3.394-8.184-5.749a130.76 130.76 0 0 1-8.182-7.519c-5.605-.887-9.144-2.51-10.616-4.866-4.721-2.655-9.663-5.46-14.818-8.405-5.163-2.95-10.692-6.345-16.588-10.174-.594-1.479-1.478-2.653-2.653-3.537-1.182-.885-3.394-2.067-6.635-3.54a32.638 32.638 0 0 0-2.212-1.99c-.885-.739-1.921-1.402-3.095-1.99-1.183-.886-2.655-1.624-4.424-2.21-.595 0-.519.51.22 1.546a47.067 47.067 0 0 0 2.212 2.875c.734.884 1.251 1.328 1.549 1.328.195 0-.074-.472-.814-1.412a303.514 303.514 0 0 0 11.429 12.911c4.423 4.714 8.993 10.464 13.713 17.252 7.076 7.366 14.223 15.404 21.452 24.107a865.469 865.469 0 0 1 21.011 26.317c14.445 17.985 27.715 37.3 39.81 57.946 2.058 3.827 4.346 8.03 6.855 12.606 2.502 4.568 4.492 9.211 5.972 13.933a60.843 60.843 0 0 1 2.654 14.596c.289 5.011-.442 10.023-2.212 15.04-.884 3.242-3.249 6.041-7.078 8.405-3.835 2.355-7.815 2.501-11.942.441-1.183-.595-2.364-.96-3.538-1.106-1.182-.152-2.212-.517-3.097-1.106-3.248-.297-6.489-1.48-9.731-3.538-3.248-2.066-6.635-4.424-10.173-7.077a358.426 358.426 0 0 0-15.04-7.519c-5.017-2.364-9.144-5.606-12.385-9.733-.885-.593-1.402-1.258-1.548-1.99-.152-.739-.663-1.402-1.549-1.99-.594-1.478-1.92-2.806-3.98-3.982a296.359 296.359 0 0 1-5.308-3.094 169.141 169.141 0 0 0-15.04-11.724 560.523 560.523 0 0 0-15.48-10.393 36.572 36.572 0 0 0-3.538-1.549c-1.183-.44-2.067-1.258-2.655-2.432v-.884c0-.298-.442-.444-1.327-.444-.595-2.066-2.142-3.689-4.644-4.865-2.509-1.182-4.499-2.805-5.972-4.866l.885.885c.29.29.511.443.663.443.145 0-.075-.297-.663-.884v-.887c0-.44-.074-.625-.22-.554l.22-.33c-1.182-1.182-3.691-2.805-7.519-4.866-3.837-2.066-6.934-3.835-9.29-5.306-5.308-4.722-11.058-9.22-17.25-13.492-6.192-4.279-11.943-8.625-17.251-13.049-2.654-.593-4.576-1.326-5.751-2.21-1.181-.887-2.066-2.069-2.653-3.54l-.884-.44h-.443v-.888l-.885.443c-.594 0-1.036-.373-1.326-1.105a5.951 5.951 0 0 0-1.327-1.99l-1.51-2.265a1997.815 1997.815 0 0 1 32.471 21.284 30285.672 30285.672 0 0 1 99.967 67.233 156.464 156.464 0 0 0 11.058 8.405c3.242 1.77 5.895 3.097 7.962 3.981 2.059.885 4.126 2.06 6.192 3.538 2.06.885 4.646 2.212 7.74 3.981 3.097 1.77 6.118 3.167 9.069 4.203 2.943 1.03 5.597 1.173 7.962.441 2.356-.739 3.98-3.027 4.865-6.856 1.175-2.653.954-5.528-.664-8.624-1.624-3.097-2.729-5.683-3.317-7.74.588-.596.588-1.183 0-1.77-.594-.595-.594 0 0 1.77-.297 2.057-.74 2.501-1.327 1.326-.594-1.18-.594-2.363 0-3.539-1.181-1.182-1.922-2.066-2.212-2.653-.296-.595-.593-1.038-.884-1.328-1.48-.884-2.288-2.432-2.433-4.644-.151-2.212-.96-3.47-2.433-3.759l-3.096-3.54 1.77 5.31c1.175 3.24 2.357 5.305 3.537 6.192.291.884.147.884-.442 0-.594-.887-1.326-2.144-2.211-3.762a68.507 68.507 0 0 0-3.097-5.087c-1.181-1.769-1.921-2.805-2.212-3.094-.593-1.182-1.326-1.923-2.211-2.212-.884-.298-1.037-.74-.442-1.328-1.479-.884-2.212-1.92-2.212-3.097-.296-.884-.296-1.623 0-2.21-.885 0-1.768-.594-2.653-1.77-1.48 0-2.212-.739-2.212-2.212 0-1.478-.298-2.806-.885-3.979l-2.212-1.328.886-1.328c-.595-1.479-1.403-2.363-2.434-2.653-1.036-.297-2.287-1.182-3.759-2.653-2.655-4.722-5.827-9.587-9.51-14.598a304.972 304.972 0 0 1-10.395-15.04c-8.846-12.095-18.875-23.886-30.078-35.385-11.21-11.5-22.413-23.595-33.616-36.27-.298-1.48-1.106-2.51-2.435-3.096-1.326-.596-.96 0 1.107 1.768a133.42 133.42 0 0 1 3.539 4.644c1.175 1.617 2.212 2.875 3.097 3.761 1.768 1.472 3.682 3.387 5.749 5.75a32.756 32.756 0 0 1 3.096 3.538c-2.363-.297-5.016-2.142-7.962-5.528zm-77.191-72.398a17.12 17.12 0 0 1-1.984-.809c-.886-.884-1.182-1.4-.886-1.547.291-.152.664 0 1.106.443.443.441.885.884 1.327 1.326.184.184.33.38.437.587zm-2.648-113.6c-1.921-1.77-4.942-3.836-9.068-6.194-2.653-2.364-4.424-3.538-5.307-3.538-.885 0 .144 1.03 3.096 3.096 2.059 1.472 5.156 3.387 9.288 5.75a60.06 60.06 0 0 1 3.384 2.075 25.758 25.758 0 0 1-1.393-1.19zm164.264 101.885a.418.418 0 0 1-.161-.15c-.096-.189-.043-.138.16.15zm-78.603 52.844c-.468-.56-.934-1.121-1.398-1.685.575.67 1.041 1.232 1.398 1.685zm-78.545 75.227c-1.37-.879-2.742-1.758-4.118-2.636a69.707 69.707 0 0 1 3.858 2.246zm-7.559-4.37a365.063 365.063 0 0 1-7.298-3.54 2551.51 2551.51 0 0 1-25.655-15.924 7441.106 7441.106 0 0 0-26.097-16.365 140.53 140.53 0 0 0-3.317-2.434 35.143 35.143 0 0 0-3.097-1.99c-1.03-.593-1.839-.885-2.432-.885l-2.655-2.21c1.77.885 3.173 1.618 4.203 2.21 1.036.59 1.7 1.031 1.991 1.328 23.32 13.726 45.919 27.575 67.798 41.544a68.069 68.069 0 0 0-3.441-1.734zM2.869 28.031c.885.29.594.512-.884.663-1.473.146-1.176-.076.884-.663zm14.968 5.555l-.371-.248zm4.052 2.85c.443.219.833.439 1.171.66-.536-.735-1.071-1.103-1.613-1.103l-3.61-2.407a90.788 90.788 0 0 1 4.052 2.85zm1.171.66c.052.07.104.145.156.223.297.291.595.733.885 1.328.594.29.663.146.221-.444-.277-.37-.697-.74-1.262-1.108zm32.445 31.85c0-1.037.298-.816.885.664-.587.587-.885.365-.885-.665zm80.504 64.8c-1.181-.884-2.363-1.768-3.539-2.653-1.181-.884-2.211-1.479-3.095-1.769 0-.297-.221-.595-.664-.886a10.717 10.717 0 0 0-1.106-.663c-.297-.152-.373-.076-.222.222.147.29.809.732 1.992 1.327-1.479-.297-2.365-.665-2.654-1.106-.298-.443-.885-.962-1.77-1.549-1.182 0-1.99-.739-2.433-2.212-.442-1.477-1.402-2.508-2.875-3.095 0 .29-.151.441-.442.441-.595 0-1.182-.15-1.77-.44v-1.328c-.736 0-1.524-.206-2.361-.613.272-.286.47-.672.593-1.156.246-1.002-.243-1.154-1.475-.458-.051-.366-.518-.952-1.4-1.754-1.624-1.48-2.731-1.92-3.319-1.328l3.982 3.54v.234a49.213 49.213 0 0 1-1.77-1.119c-4.72-3.54-9.952-7.818-15.702-12.827a2330.492 2330.492 0 0 0-14.817-12.829c-.596 0-1.328-.22-2.212-.663-.885-.44-1.038-.96-.443-1.547-1.182-.298-1.77-1.038-1.77-2.213 0-.594.146-1.18.443-1.768-1.181-.595-2.729-.74-4.644-.444-1.922.292-2.586-.44-1.991-2.21l1.769 2.21-4.423-6.634c-.594-1.18-1.478-1.922-2.653-2.212a17.343 17.343 0 0 1-3.539-1.327c-2.067-.885-2.875-1.402-2.433-1.548.443-.152-.076-.96-1.548-2.433-1.175-.885-.733-1.036 1.327-.442.884.29 2.059.733 3.539 1.326 1.174 1.771 2.058 2.945 2.654 3.54.587.587 1.029.884 1.326.884.587 1.176 1.693 2.06 3.317 2.654 1.618.588 3.165.884 4.645.884.885 1.473 1.693 2.58 2.433 3.318.62.62 1.19 1.3 1.711 2.03a5.49 5.49 0 0 0 .721 1.51c.291.441.588.733.885.884.238.118.481-.107.726-.68a496.81 496.81 0 0 1 7.458 4.881 56.299 56.299 0 0 1 8.625 7.077c1.471 1.473 2.433 2.58 2.876 3.318.441.733 1.837 1.84 4.201 3.32.588 1.172 1.769 2.576 3.539 4.2 1.768 1.616 3.98 3.165 6.635 4.645 1.471.884 3.317 2.356 5.529 4.422 2.211 2.06 4.346 3.83 6.414 5.31.884 0 1.913.51 3.096 1.546a114.623 114.623 0 0 0 3.98 3.318c1.473.884 3.097 2.28 4.866 4.203 1.77 1.914 2.357 3.316 1.77 4.202a47.739 47.739 0 0 1-3.982-3.54zm-20.94-14.324c-.387.408-.927.613-1.618.613V118.5c.358.216.726.432 1.105.65.173.099.345.19.514.272zM78.67 85.13c-.06-.222.034-.089.281.404l2.212.884c-.053.159-.107.3-.16.426-.681-.437-1.365-.874-2.052-1.31a17.687 17.687 0 0 0-.28-.404zm17.973-1.146c-.297-.15-.442-.297-.442-.44 0-.152.291-.077.885.22.29.29.366.442.221.442-.152 0-.374-.076-.664-.222zm4.645 2.875c-.152 0-.373-.076-.664-.219-.296-.154-.442-.298-.442-.444 0-.15.29-.075.884.222.291.29.366.441.222.441zm-16.809.222c-.739-1.327-.075-1.106 1.991.663-.595.886-1.257.665-1.991-.663zm17.915 1.328c-.298-.152-.519-.222-.664-.222h.664c.587.29.809.443.662.443-.151 0-.372-.078-.662-.22zM86.912 90.4c-.885-.595-.741-.74.441-.443 1.176.291 1.03.443-.441.443zm.441 9.288a287.568 287.568 0 0 0-4.126-3.389 63.623 63.623 0 0 1 3.021 1.62c1.03.587 2.578 1.617 4.644 3.096.587.885 1.03 1.472 1.327 1.77l2.212 2.211zm-4.865-3.98c-1.48-1.183-2.212-2.068-2.212-2.655-1.479-.297-2.653-.594-3.539-.884-2.362-.595-2.95-1.182-1.769-1.769 1.473-.297 3.242.587 5.308 2.653a28.12 28.12 0 0 1 2.483 2.87l-.271-.216zm.271.216l.468.375-.297-.149a36.078 36.078 0 0 0-.17-.226zm27.154-1.543a51.92 51.92 0 0 1-2.212-1.549c-.594-.44-.594-.663 0-.663.588-1.182 1.471-.885 2.654.884.587.587 1.175 1.472 1.769 2.654.587.291.587.291 0 0-.594-.296-1.327-.739-2.211-1.326zm-8.405 1.991a1.474 1.474 0 0 1-.664-.665c-.151-.296-.151-.442 0-.442.146 0 .664.29 1.549.885-.298.29-.595.365-.885.222zm-2.212 11.943c-.297-1.039-.151-1.107.443-.222 0 1.174-.152 1.251-.443.222zm156.141 121.417a137.207 137.207 0 0 0-3.539-6.635c-.884-1.768-1.699-3.394-2.433-4.865-.573-1.147-.922-1.937-1.049-2.369.171.399.74.6 1.713.6 1.175 0 1.175 0 0 0 1.175 0 1.473.144.885.441-.594.292-.594 1.031 0 2.212.588 0 1.175.29 1.77.885.587.292 1.768 1.328 3.538 3.096v.885c0 .292.069.511.222.663.144.145.221.513.221 1.106 1.175.291 2.135.733 2.875 1.327.106.085.21.157.312.217l-1.418-1.985-2.212-2.213c0-.884-.885-2.509-2.653-4.865a28.794 28.794 0 0 0-2.655-3.097h1.77c-.595-1.18-1.037-1.92-1.327-2.212-.297-.297-.741-1.182-1.328-2.653l.885-.443a9.9 9.9 0 0 1-3.096-2.432c-.885-1.036-2.067-1.99-3.539-2.875a289.297 289.297 0 0 0-15.26-20.789 1984.725 1984.725 0 0 1-16.145-20.348c-.298-1.182-1.624-2.653-3.98-4.422-2.365-1.77-3.249-1.923-2.655-.443 3.242 4.126 6.559 7.962 9.953 11.501 3.386 3.538 6.704 7.52 9.952 11.941.588.887.884 1.474.884 1.771 0 .29-.74-.297-2.21-1.77a284.333 284.333 0 0 0-11.501-11.722c-4.133-3.98-7.375-7.892-9.731-11.72a116.23 116.23 0 0 0-16.809-16.147c-6.193-4.865-11.356-9.66-15.481-14.374-.595-.885-.962-1.7-1.106-2.434-.152-.739-.518-1.699-1.106-2.875-1.479-.297-3.539-1.182-6.192-2.653-2.655-1.48-3.692-1.48-3.097 0 2.06 2.06 4.865 4.492 8.404 7.3 3.539 2.798 6.04 5.23 7.52 7.296a17.707 17.707 0 0 1 2.211 2.655c.588.587.808.952.664 1.104-.151.146-.664-.373-1.548-1.547a478.1 478.1 0 0 0-9.068-8.846c-2.806-2.654-6.414-5.46-10.837-8.406-.594-.297-1.403-.884-2.433-1.769a264.878 264.878 0 0 0-2.875-2.43c-.885-.742-1.479-1.183-1.769-1.329-.297-.15.29.366 1.769 1.547 20.638 17.398 38.773 35.09 54.406 53.081a547.06 547.06 0 0 1 43.348 57.06 78.084 78.084 0 0 1 1.549 4.201c.442 1.328 1.395 2.578 2.875 3.76.587.588 1.472 1.175 2.654 1.771.587.29 1.03.586 1.326.884 1.175.29 2.502 1.693 3.982 4.2 1.472 2.504 2.356 3.32 2.654 2.434 0-.595-.519-1.403-1.549-2.434-1.037-1.036-1.99-2.286-2.876-3.759a209.359 209.359 0 0 1-2.432-3.759c-1.036-1.626-1.845-2.73-2.433-3.318zm4.515-2.437l.794 1.111c.587.885 1.029 1.472 1.327 1.77.884.883.732-.153-.443-3.098-.508.503-1.068.575-1.678.217zM126.28 115.61c0 .292-.298.368-.886.222-.594-.152-.297-.222.886-.222zm6.634 6.193c.588.292 1.106.588 1.548.885.442.292.955.733 1.548 1.328 1.473 1.471 2.433 2.8 2.875 3.981.443 1.174-.076.587-1.548-1.769-1.478-.595-2.584-1.404-3.317-2.434-.74-1.036-1.549-1.845-2.433-2.432.291 0 .733.144 1.327.441zm-1.327-.44a9.159 9.159 0 0 1-1.811-1.813l.041.041c.588.59 1.176 1.176 1.77 1.771zm-3.539-3.54c-.593-.885-1.181-1.48-1.768-1.769.884-.298 1.692.29 2.432 1.768.313.63.668 1.205 1.064 1.728-.58-.578-1.154-1.153-1.728-1.728zm-13.859-.015c.043.305-.203.458-.737.458.27-.18.515-.333.737-.458zm25.803 12.842c.587 0 1.326.146 2.211.443 1.471.587 2.06 1.326 1.769 2.212zm-1.327 8.846a61.8 61.8 0 0 0-4.203-3.096c-1.327-.885-2.288-1.624-2.875-2.21-1.479-1.48-2.066-2.212-1.77-2.212.291 0 .886.29 1.77.884 1.175.587 2.655 1.472 4.423 2.653a108.754 108.754 0 0 1 5.53 4.203c1.617 1.328 2.723 2.578 3.317 3.76a266.594 266.594 0 0 1-6.192-3.982zm66.348 15.924c-1.479.587-1.7 1.176-.664 1.77 1.03.588 1.107.588.222 0zm29.194 38.482c1.174.887 1.174 1.03 0 .443-1.182-.595-1.624-1.479-1.327-2.653zm7.297 25.435c.443.733.956.81 1.549.222-1.478-.887-1.99-.963-1.549-.222zm1.329 1.991c-.154-.885-.52-1.036-1.107-.444.885 1.176 1.251 1.328 1.107.444zm-53.744 57.943c1.473.59 1.769.59.885 0-.885-.593-1.182-.593-.885 0zm26.319 30.522c-1.326-1.479-2.584-2.875-3.759-4.203-1.183-1.327-2.067-2.142-2.654-2.433.587-.884 0-2.21-1.771-3.98l-2.653-2.654c0 .884.144 1.77.442 2.653 0 1.473.291 1.914.885 1.328.29 1.77 1.548 3.76 3.76 5.971a32.935 32.935 0 0 1 5.528 7.3c.886 1.47 2.281 2.942 4.203 4.421 1.914 1.474 3.165 2.06 3.759 1.77l-2.211-2.654c-.298-.595-.961-1.623-1.99-3.097a46.225 46.225 0 0 0-3.539-4.422zm14.154 19.905c-1.327-.886-1.7-.886-1.105 0 .884 1.471 1.991 3.018 3.317 4.643 1.327 1.618 2.135 3.165 2.433 4.644a33.955 33.955 0 0 1 1.99 2.212 33.248 33.248 0 0 1 1.991 2.654 73.336 73.336 0 0 1 2.212 3.096c0-.594-.374-1.547-1.106-2.875a58.909 58.909 0 0 0-2.433-3.98 81.471 81.471 0 0 0-2.654-3.76c-.885-1.182-1.48-2.212-1.769-3.097a7.52 7.52 0 0 0-2.876-3.537zm9.51 9.287c.588.292.733-.075.442-1.106a10.236 10.236 0 0 0-1.326-2.875c-.595-.884-1.037-1.403-1.327-1.547-.298-.152 0 .81.885 2.875 1.175.884 1.617 1.77 1.326 2.653zm2.212 1.77c1.176.886 1.327.732.442-.442-1.479-.595-1.624-.443-.442.441zm-91.34 7.407l-.664.997c.295-.593.517-.925.665-.997zm94.879 2.766c-1.77-2.066-2.363-2.212-1.77-.44.29 2.355 1.473 4.865 3.538 7.518a192.592 192.592 0 0 0 5.75 7.077c-.593.885-.372 2.136.664 3.76 1.031 1.617 2.137 1.395 3.318-.663-1.181-1.48-2.653-3.54-4.424-6.193-1.769-2.653-2.95-4.72-3.537-6.193-.595-1.182-1.771-2.805-3.539-4.866zM166.53 368.18c-.297 0-.519-.076-.663-.222-.154-.152.068-.222.663-.222h1.327c.291 0 .291.146 0 .444zm5.75 2.653c.291 0 .664.07 1.106.222.443.145.733.365.885.662.145.292-.222.444-1.106.444-.885-.885-1.182-1.328-.885-1.328zm7.52 5.31c1.175 1.47 2.211 1.768 3.095.883.886-.884.588-.297-.884 1.77-1.478-.596-2.806-1.329-3.981-2.213-2.363-1.769-3.248-2.805-2.653-3.097.29-.592.663-.738 1.105-.44.443.29.954.732 1.548 1.327zm83.599 2.43c0 1.328.291 1.398.885.222-.594-1.479-.885-1.547-.885-.222zm-72.099 5.531c.885 1.471.443 1.692-1.327.663-1.769-1.037-2.653-2.143-2.653-3.319zm74.311-1.106c0-1.328-.297-1.106-.884.662.587.885.884.665.884-.662zm-58.388 11.721c-1.478.587-3.026.07-4.643-1.548-1.624-1.625-2.731-2.433-3.319-2.433-1.18-.884-2.584-1.623-4.201-2.212-1.624-.593-2.288-1.182-1.99-1.769.29-.595.732-.739 1.326-.44.588.288 1.251.662 1.99 1.103.734.443 1.175.808 1.328 1.106.145.291-.077.443-.664.443zm7.741 3.537c-.152 0-.075.146.221.444l.886.884c.289.292.442.292.442 0-.885-.884-1.403-1.328-1.549-1.328zm5.75 4.868c.733.884.809.733.222-.443-.885-.595-.961-.444-.222.443zm4.866 2.432c1.03 1.327 1.252 1.55.664.662-1.48-1.768-1.7-1.99-.664-.662zm14.819 7.74c-.298.292.731 1.03 3.096 2.212a17.48 17.48 0 0 0 3.538 1.328c-1.479-1.479-2.806-2.364-3.981-2.656z"/></g><g><path fill="#ffdd7d" d="M132.029 471.68c-.297-.886-1.037-1.846-2.212-2.876-1.181-1.036-1.92-1.99-2.211-2.875.29.59.884 1.106 1.769 1.55.207.102.405.226.596.37-1.33-1.574-3.003-3.319-5.02-5.236-2.95-2.807-5.163-5.53-6.633-8.184h1.326a139.086 139.086 0 0 0-7.962-8.183c-2.654-2.51-4.721-5.087-6.193-7.74-.296.586-.22 1.327.22 2.211.444.885.368 1.031-.22.442-.594 0-.884-.222-.884-.663 0-.443-.741-.817-2.211-1.106a149.958 149.958 0 0 0-4.866-5.529 202.372 202.372 0 0 0-5.75-5.97c.29.586.587.951.883 1.105.29.144.443.511.443 1.104-1.48 0-2.433-.662-2.875-1.99-.443-1.326-1.548-2.432-3.317-3.316v-.443l-.442-.442h.442c-4.72-5.019-8.626-10.547-11.721-16.589a305.186 305.186 0 0 0-9.953-17.914l.443-.44a72.964 72.964 0 0 1-3.761-7.74c-1.036-2.51-2.433-5.24-4.201-8.185a40.534 40.534 0 0 1-2.213-4.203c-.587-1.327-.732-2.142-.441-2.43-.291-.299-.443-.742-.443-1.329v-.884l1.326.884v-2.653c1.182 1.174 1.329 2.501.443 3.981 1.479-.595 1.769-1.48.886-2.655-.886-1.182-1.175-2.067-.886-2.654 1.18 0 1.7.29 1.548.884-.145.588.22 1.618 1.106 3.097l2.212-3.539c-3.538-3.836-3.097-7.96 1.327-12.385l1.769.444c0-.596-.221-.817-.663-.665-.443.146-.222-.076.663-.663 2.356-.297 4.423-.96 6.193-1.99a91.175 91.175 0 0 1 5.307-2.876 24.038 24.038 0 0 1 5.752-1.99c2.057-.443 4.566-.367 7.517.222l4.425.884c2.653.587 4.79 1.174 6.414 1.77 1.617.586 3.462.883 5.528.883h.885c2.945 2.945 6.193 5.31 9.732 7.078 3.538 1.77 6.634 3.83 9.288 6.193 15.039 10.02 27.425 20.79 37.155 32.29 9.73 11.498 18.427 23.885 26.098 37.155a79.363 79.363 0 0 1 2.654 5.971l2.653 6.635c.884 2.212 1.693 4.27 2.432 6.193.733 1.915 1.251 3.164 1.55 3.76.587 2.06 1.104 4.491 1.547 7.298a83.46 83.46 0 0 1 .884 7.962c.146 2.502.146 4.712 0 6.634-.152 1.915-.373 3.021-.663 3.317-2.363-.296-5.163.443-8.404 2.212a197.028 197.028 0 0 0-10.174 5.971 85.385 85.385 0 0 1-10.837 5.75c-3.69 1.617-7.153 2.136-10.394 1.55-2.067-1.182-3.394-2.365-3.98-3.54-.299.291-.596.443-.886.443-.594 0-.885-.152-.885-.443-2.067-.296-2.584-.663-1.547-1.104 1.03-.444 1.104-.665.221-.665-1.183-.593-1.7-.518-1.549.221.146.733-.22 1.106-1.106 1.106-.594 0-1.18-.373-1.769-1.106-.594-.739-1.326-.662-2.212.222-1.478-1.48-2.432-2.51-2.874-3.097-.443-.594-1.548-1.036-3.317-1.327-.885-.593-1.549-1.326-1.992-2.212-.442-.885-.815-1.478-1.105-1.769-.594-1.769-1.922-3.173-3.982-4.203-2.066-1.036-2.509-1.845-1.326-2.432zm-11.944-101.292c-2.065-1.48-4.498-3.98-7.297-7.52-2.807-3.538-6.125-6.345-9.953-8.404-3.836-3.248-7.298-5.309-10.394-6.193-3.097-.885-5.828-1.328-8.184-1.328-2.364 0-4.499.222-6.414.665-1.922.441-3.469.511-4.644.22 2.06 7.962 5.453 16.215 10.173 24.77 4.714 8.551 10.174 17.03 16.366 25.435a443.026 443.026 0 0 0 19.462 24.55 2838.515 2838.515 0 0 1 19.021 22.557c2.356 1.473 4.492 3.318 6.414 5.53a56.562 56.562 0 0 0 5.972 5.971c2.653.885 4.643 2.356 5.97 4.423 1.327 2.06 3.61 3.683 6.857 4.865a251.469 251.469 0 0 1-1.328-15.039c-.296-5.018-1.182-9.142-2.654-12.385.885.587 1.55 1.396 1.992 2.432.441 1.03.807 1.84 1.104 2.434 0-2.067-.22-3.835-.663-5.309-.44-1.477-1.548-3.248-3.317-5.307l.884-2.21a222.226 222.226 0 0 0-3.318-8.626 826.23 826.23 0 0 0-4.2-9.953l-.444-.443h-1.327c-1.478-3.835-3.393-7.892-5.75-12.165-2.364-4.276-4.865-7.153-7.519-8.624 0 .587.442 1.03 1.327 1.328.885.29 1.327 1.03 1.327 2.211-.595-1.18-1.258-1.99-1.99-2.433-.74-.443-1.405-1.403-1.99-2.875v-1.769c0-1.479-.298-1.625-.885-.443l-.443 1.328c-.594-.885-1.037-1.55-1.328-1.99-.297-.444-.739-.666-1.326-.666l-.885-.884c-.298-.298-.885-.44-1.769-.44a117.94 117.94 0 0 1-4.202-7.3c-1.328-2.51-2.143-4.5-2.433-5.972zm-66.79 6.634c1.478 1.472 2.806 3.386 3.981 5.75a194.402 194.402 0 0 0 3.98 7.521c-5.01-5.02-7.665-9.442-7.962-13.27zm11.942 23.664c.588 1.915 1.472 3.905 2.655 5.972a482.189 482.189 0 0 1-4.203-5.972c-1.328-1.92-2.143-3.613-2.433-5.087 2.06 1.474 3.386 3.167 3.981 5.087zm3.175 4.203l.048.111a38.165 38.165 0 0 0-.126-.11zm4.787 5.75c.885 1.768 2.358 3.83 4.424 6.193-1.48 0-2.953-1.182-4.424-3.54-1.181-1.477-2.287-3.248-3.317-5.307A65.908 65.908 0 0 1 68.46 405c2.289 2.017 3.87 3.902 4.74 5.64zm-5.308-7.078c-.594-1.479-1.403-2.653-2.433-3.538-1.036-.884-.663-1.038 1.106-.443.587.884 1.251 1.84 1.99 2.875.733 1.03 1.395 1.84 1.991 2.434h-2.133a16.122 16.122 0 0 1-.52-1.328zm52.194 31.848c-.884-.595-1.623-1.404-2.21-2.434a52.635 52.635 0 0 0-1.77-2.875c-2.655-.884-3.982-1.768-3.982-2.653-2.066-2.364-3.98-4.5-5.75-6.413-1.769-1.922-3.096-4.5-3.98-7.742-1.48-.885-2.73-2.364-3.76-4.422-1.037-2.067-2.876-3.394-5.53-3.98.886 1.47 1.77 3.02 2.655 4.643.884 1.617 1.472 2.723 1.77 3.318 1.174 1.471 2.5 3.316 3.98 5.528 1.472 2.212 2.355 3.607 2.653 4.203.588.587 1.031 1.471 1.327 2.653.29 1.176 1.03 2.358 2.212 3.54l4.423 3.096c0 .587-.076.952-.22 1.104-.153.146-.222.513-.222 1.106.291.292.664.81 1.106 1.55.443.732.953 1.25 1.548 1.547l-2.654-1.326c.291.587.588.952.885 1.104.29.146.587.513.884 1.106-.594-.593-1.257-.96-1.99-1.106-.739-.152-1.403-.517-1.99-1.104a30.84 30.84 0 0 1-2.212-2.433 24.695 24.695 0 0 0-1.77-1.99c0-.596-.96-1.922-2.874-3.982-1.92-2.067-3.173-3.394-3.76-3.98-1.181-.885-2.363-2.213-3.538-3.982-.595-.884-.885-1.623-.885-2.212 0-.297.367-.663 1.106-1.106.732-.44-.077-1.402-2.434-2.875l-.877-.437c.587.297 1.324 1.776 2.206 4.418-.69-.099-1.255-.255-1.698-.468a647.81 647.81 0 0 0 5.677 9.536c2.945 4.865 6.193 8.916 9.732 12.164 1.175 0 2.058.366 2.654 1.106.587.733.587 1.25 0 1.548l2.211 1.327c.588 2.06 1.472 3.684 2.654 4.866 1.175 1.175 2.06 2.212 2.655 3.096l3.095 3.538a45.587 45.587 0 0 1 4.202 4.866c1.327 1.77 3.463 3.242 6.414 4.423.291.29.733.587 1.327.885 1.174.587 1.915.884 2.212.884-.595 1.474 0 2.654 1.77 3.54 1.77.885 3.386 2.21 4.864 3.981.29-.595.885-.443 1.77.441-.298-.595-.595-1.036-.885-1.327l-.44-.442c.883 0 1.768.587 2.653 1.77a31.888 31.888 0 0 0 4.864 3.98c1.77 1.176 4.126 2.358 7.077 3.54 1.473.29 2.875.587 4.204.885 1.327.29 2.578.441 3.759.441h3.982l-6.636-3.538c.886 0 1.328-.152 1.328-.443-.885-1.769-2.364-3.248-4.424-4.422-2.066-1.182-4.133-3.097-6.192-5.752-.298 1.176-.663 1.473-1.107.886-.442-.595-.518-.886-.22-.886-3.248-1.478-5.087-2.875-5.53-4.2-.442-1.329-1.845-2.586-4.202-3.76-.297-.886-.814-1.7-1.548-2.434-.74-.739-1.48-1.327-2.211-1.769a50.63 50.63 0 0 1-1.77-1.106c-.442-.297-.373-.74.221-1.327a129.215 129.215 0 0 0-5.087-2.875c-1.92-1.037-3.317-2.288-4.201-3.76l.442-1.769a9.754 9.754 0 0 1-3.76-2.655c-1.037-1.182-2.585-2.364-4.644-3.538 1.174 0 1.768-.443 1.768-1.327-.296.291-.593.443-.884.443-.594 0-.74-.298-.443-.885 1.474.29 2.579.953 3.318 1.991.732 1.03 1.396 1.838 1.99 2.432a9.36 9.36 0 0 0-3.095-4.423zm-27.351-18.604c-.398-.681-.789-1.354-1.172-2.018a6.366 6.366 0 0 1-.005.054c-.103.884.29 1.539 1.177 1.964zm-2.284-3.954c.363.637.734 1.282 1.112 1.936.128-1.29-.24-1.936-1.112-1.936zm-6.635 2.875c1.472 1.327 1.915 2.723 1.328 4.202l3.094 3.981c-.295-2.655-1.105-4.865-2.431-6.636a27.881 27.881 0 0 1-3.319-5.75c-.593 1.472-.15 2.875 1.329 4.203zm8.411-2.871a.625.625 0 0 0-.006-.004zm20.12 12.823c.283.162.482.323.598.485a20.304 20.304 0 0 0-.157-.264 29.837 29.837 0 0 1-1.106-1.99c-.593.587-.372 1.174.665 1.77zm-.222 1.77c.782 0 1.358.124 1.725.374a40.96 40.96 0 0 0-.83-1.53c.17.383-.13.767-.895 1.155zm1.725.374c.156.3.318.617.487.952 0-.414-.163-.732-.487-.952zm-.83-1.53a.725.725 0 0 0-.075-.129l.075.129zm15.029 13.32c-1.182-1.923-2.51-3.173-3.98-3.76 3.24 3.827 6.557 7.297 9.951 10.394l-2.432-2.432c-1.183-.887-2.364-2.288-3.54-4.203zm5.971 6.634l.222.221c.551.552 1.073 1.04 1.562 1.463a76.943 76.943 0 0 0-1.784-1.684zm9.952 10.837v-1.769c-.725 0-1.36-.196-1.906-.587a105.11 105.11 0 0 1 1.906 2.356zm-3.317-4.203c-.552-1.21-1.142-1.807-1.773-1.785a92.77 92.77 0 0 1 1.998 2.235 6.438 6.438 0 0 1-.225-.45zm-1.773-1.785a86.397 86.397 0 0 0-1.707-1.795c.043.11.17.272.384.485.442.442.664.953.664 1.548.224-.15.444-.23.659-.238zm-1.544-1.974c-.47-.315-.982-.712-1.534-1.19.458.446.915.903 1.371 1.369-.045-.12.008-.179.162-.179zm4.728 5.606c-.394-.473-.79-.939-1.186-1.397.332.602.727 1.068 1.186 1.397zm-27.287-8.703c0-1.182-.595-2.364-1.77-3.538-.593-1.479-.738-1.92-.441-1.327.29.59.587.145.884-1.326v-1.77h1.327c.291 0 .586.145.884.442l-1.326-1.327 8.404 4.865c.29.292.587.733.885 1.328.587.884 1.03 2.356 1.326 4.424.885 1.77 1.618 2.943 2.212 3.538.587.586 1.327 2.06 2.212 4.424.588 2.356.22 2.875-1.105 1.547-1.328-1.327-2.434-1.99-3.32-1.99l-2.21-.885-1.327-.443c-.885-1.769-1.77-3.316-2.653-4.644-.885-1.327-2.213-2.433-3.982-3.318zm16.808 9.733h.442c.588 0 .885.441.885 1.326l-1.327-.885zm1.326 1.326c.291.586.588.954.885 1.106.29.146.588.511.886 1.105l-1.77-.884zm29.636 21.232v1.326c-2.066-2.067-4.499-3.614-7.298-4.644-2.806-1.036-5.239-2.586-7.298-4.644-.298.587-.152 1.174.442 1.77.588.586 1.175.883 1.77.883-1.478.587-2.585.222-3.317-1.106-.74-1.325-1.846-2.288-3.319-2.875-.594.587-.296 1.031.885 1.328 1.175.29 1.473.733.885 1.326-.595 0-1.258-.296-1.99-.885-.675-.541-1.288-.831-1.836-.877-.2-.198-.4-.494-.598-.892-1.478-1.479-1.845-2.363-1.105-2.653.732-.297.808-.74.221-1.328-.297-.595-.594-.884-.884-.884-.298 0-.595-.595-.885-1.769-1.182-.595-2.363-1.625-3.538-3.097l2.211 1.328c1.77.885 2.8 1.472 3.096 1.77.29.29.29.586 0 .883.29 0 .587.146.884.444.291 0 .734.29 1.327.884-.297 0 .146.885 1.327 2.653.291.885 1.03 1.252 2.211 1.106 1.176-.15 1.915.068 2.213.663.587 0 2.655 1.328 6.192 3.981.885.292 2.212 1.031 3.981 2.212.588.587 1.175 1.031 1.77 1.328zm-21.076-8.398c.096.094.192.165.287.214.29.146.589.512.887 1.106a2.885 2.885 0 0 0-1.328-1.327c.05 0 .102.002.154.007z"/></g><g><path fill="#ffdd7d" d="M161.222 540.237a123.31 123.31 0 0 1 2.874 2.212c.734.587.955.733.664.443-.556-1.106-1.95-2.148-4.182-3.122.215.151.43.307.644.467zm-6.634-4.865a56.567 56.567 0 0 1-3.761-2.432c-1.036-.74-1.548-1.258-1.548-1.549l-2.653-1.769c-.595-.595-1.327-1.182-2.212-1.769-.885-.595-1.48-1.182-1.77-1.769-2.363 0-4.72-.595-7.077-1.77-1.182 0-2.141-.441-2.875-1.325-.74-.886-1.846-2.068-3.317-3.54-2.654-.885-5.682-2.805-9.068-5.75-3.393-2.951-6.268-5.163-8.626-6.634-2.363-.596-3.912-1.107-4.644-1.55a29.241 29.241 0 0 0-1.99-1.105c-1.183-.594-1.921-1.038-2.211-1.327-.298-.298-.885-1.182-1.771-2.654-1.181-.594-2.653-1.18-4.423-1.77-1.768-.593-3.393-1.624-4.865-3.097l.442-1.769c-2.364-.593-4.866-1.479-7.52-2.653a61.181 61.181 0 0 1-7.52-3.98c-1.18 0-1.844-.298-1.99-.885-.151-.596-.372-1.48-.663-2.656-1.48-.295-3.538-.44-6.192-.44-.595-2.365-2.067-3.54-4.424-3.54-.594-1.478-1.624-2.362-3.096-2.654-1.48-.297-2.502-.885-3.096-1.769h-1.77v-1.328h-.884l-1.77-.884c-1.472 0-2.798-.152-3.98-.44-.588-.886-.885-1.772-.885-2.657v-.097c-.161.065-.383.097-.664.097-.09 0-.172.002-.245.004-.18-.067-.393-.14-.638-.223-1.33-.443-1.695-.373-1.107.22l-4.423-1.326v-1.328l-1.328 1.328c0-.595-.144-.963-.442-1.106a3.844 3.844 0 0 1-.884-.665c-.587-.296-1.03-.44-1.327-.44a2 2 0 0 1-.884-.223 1.894 1.894 0 0 0-.886-.222h-.884l2.354-1.007c-.115-.169-.237-.423-.364-.762-.442-1.18-.953-1.768-1.548-1.768v1.768c0 1.177-.885 1.77-2.653 1.77.884 0 1.257-.22 1.105-.663-.145-.443-.512-.96-1.105-1.547a28 28 0 0 1-1.77-1.99c-.495-.625-.784-1.193-.863-1.708.27.1.557.226.863.38.884.441 1.326.954 1.326 1.547l4.425.443c0-.297-.733-.74-2.213-1.328-.884-.297-1.617-.44-2.212-.44-1.175-.595-1.547-.963-1.104-1.106.44-.152.075-.52-1.107-1.106l-1.768-.885-3.54-1.768c-.29 0-1.106-.222-2.432-.665a73.575 73.575 0 0 1-4.202-1.548c-1.77-.884-3.982-1.616-6.636-2.212-.587-.884-.808-1.395-.663-1.547.152-.146.442-.146.885 0 .442.152.96.22 1.548.22.594 0 .884-.29.884-.885-2.356-.587-4.271-1.325-5.75-2.212-1.472-.587-2.722-1.25-3.76-1.99-1.03-.731-1.548-1.25-1.548-1.548-.884-.884-.953-1.395-.221-1.547.74-.145 1.77 0 3.097.44 1.327.444 2.729.885 4.202 1.328 1.478.441 2.363.815 2.654 1.106 19.172 7.373 39.366 15.702 60.599 24.992 21.23 9.287 40.839 18.355 58.829 27.202a2785.298 2785.298 0 0 0 17.472 9.73c6.925 3.83 14.078 7.887 21.453 12.165 7.367 4.27 14.52 8.328 21.452 12.164 6.926 3.83 12.897 7.078 17.914 9.731a22.175 22.175 0 0 0 4.645 2.875c1.617.733 3.166 1.84 4.644 3.318 2.06.885 4.568 1.915 7.52 3.097 2.944 1.174 4.27 1.174 3.98 0-.594-1.48-1.036-2.655-1.326-3.54 0-.595-.298-1.325-.885-2.212-.595-1.478-.664-2.286-.222-2.432.443-.15.367-1.403-.22-3.759-.12-.296-.226-.544-.32-.745.094-.153.2-.347.32-.583-.595-2.066-.961-3.394-1.106-3.98-.152-.596-.221-1.037-.221-1.328v-1.326c0-.595-.443-1.923-1.328-3.98v-1.328c-.593-.596-.96-1.404-1.105-2.434-.152-1.036-.663-2.432-1.55-4.2-.593-2.067-1.325-2.95-2.21-2.656-.885.292-1.327-.739-1.327-3.097 0-.592-.076-1.179-.221-1.769a7.073 7.073 0 0 1-.221-1.768v-2.654c-.297-3.54-1.327-7.894-3.096-13.048a1038.612 1038.612 0 0 0-5.53-15.703 264.613 264.613 0 0 1-5.086-15.482c-1.48-5.018-2.067-9.434-1.77-13.269.29-2.945 1.327-5.087 3.096-6.415 1.77-1.327 3.83-2.279 6.193-2.875 2.357-.586 4.866-.954 7.52-1.106 2.653-.146 4.865-.51 6.635-1.105 2.356-.885 5.453-.733 9.289.442 3.828 1.183 6.192 3.097 7.077 5.75.588.298 1.03 1.183 1.327 2.654.29 1.48 1.029 2.807 2.21 3.981 2.06 6.78 3.982 14.225 5.752 22.338 1.768 8.108 2.944 15.702 3.538 22.78-.297.587-.442 1.617-.442 3.097 0 .586.145 1.325.442 2.211-.594.29-1.036-.373-1.327-1.99-.297-1.625-.594-3.54-.884-5.752-.298-2.21-.596-4.354-.885-6.412-.298-2.067-.594-3.394-.885-3.98-.296-.299-.443.22-.443 1.546v9.731c0 1.617-.151 2.58-.441 2.876-.297.587-.52-.74-.663-3.98-.154-3.249-.52-5.752-1.107-7.52-.884-1.183-1.921-1.77-3.096-1.77a3.9 3.9 0 0 0-1.77.441c0-2.066-.663-4.132-1.99-6.19a56.177 56.177 0 0 0-4.644-6.194 502.35 502.35 0 0 1-.63-1.254c.124.29.188.707.188 1.254 0 .884.144 1.915.442 3.097.588 4.422 1.397 9.357 2.433 14.818 1.03 5.452 1.839 10.54 2.432 15.26.29 2.654.588 4.644.884 5.97.29 1.328.589 2.434.886 3.318.29.884.587 1.991.885 3.318.29 1.326.732 3.316 1.326 5.972.885 3.537 1.396 5.528 1.549 5.971.144.441.068.663-.221.663-.298 0-.374.29-.222.884.145.587.664 2.656 1.548 6.193.885 3.83 1.473 6.705 1.77 8.625.29 1.915.588 3.54.884 4.866a58.592 58.592 0 0 0 1.106 4.202c.442 1.473.954 3.83 1.548 7.077 0 .587-.297 1.176-.884 1.77-.596.586-.298.884.884.884-.297.59 0 1.03.885 1.327.587 0 1.174.146 1.769.444 9.434 5.306 17.25 9.655 23.443 13.047a719.973 719.973 0 0 1 17.25 9.733 996.97 996.97 0 0 1 17.03 10.171c6.042 3.684 13.49 8.474 22.338 14.377 1.174 1.472 2.945 2.578 5.308 3.318 2.358.731 4.423 1.548 6.193 2.432a7.963 7.963 0 0 1 2.212 2.212l.884 1.77c.587 0 .953-.445 1.106-1.329.144-.884.663-1.036 1.549-.44 3.24-.596 6.04.067 8.403 1.99 2.357 1.914 3.387 4.048 3.096 6.412v1.328c-.594.29-.884 1.327-.884 3.096v2.212c0 .587-.374 1.326-1.107 2.21a30.902 30.902 0 0 0-1.99 2.656c-.885 1.173-1.77 2.212-2.653 3.096-.595.587-1.403 1.25-2.433 1.991-1.037.732-1.991 1.693-2.875 2.875-1.181.586-1.922 1.03-2.212 1.325-.298.292-.884.733-1.77 1.328-2.653 1.472-4.5 2.945-5.528 4.424-1.038 1.471-3.172 1.915-6.414 1.326-1.48-.884-2.586-1.402-3.318-1.548-.74-.15-1.402-.519-1.99-1.105-2.364-.885-3.691-1.548-3.982-1.99-.296-.444-.373-.818-.22-1.107a2.02 2.02 0 0 0 .22-.884c0-.298-.883-.739-2.653-1.328h-2.212c-.885-.297-1.48-.815-1.768-1.547-.298-.74-1.038-1.106-2.212-1.106-2.067 0-2.951-.596-2.654-1.769l-1.77-1.328c-.594-1.182-1.548-2.288-2.875-3.318-1.326-1.036-3.027-1.547-5.087-1.547h-2.654v-1.769h-3.537c-.886-1.479-.665-2.142.662-1.99 1.328.143 1.106-.52-.662-1.99-1.48-.596-2.433-.886-2.876-.886h-1.548c-1.182-.595-3.25-1.77-6.193-3.539a32.573 32.573 0 0 1-2.607-1.72l-1.596-1.597a24.879 24.879 0 0 0-1.383-1.29 5.87 5.87 0 0 1-.164-.259c-.048 0-.073.02-.075.056-.433-.36-.85-.672-1.253-.94-1.181-.595-1.768-.815-1.768-.663 0 .144.068.441.22.885.146.44.146.808 0 1.105-.152.29-.815.144-1.99-.443-.885-.595-1.183-.96-.885-1.106.29-.152.588-.373.885-.662.29-.298.442-.596.442-.885 0-.298-.594-.74-1.77-1.328l-8.403-1.326-1.327-1.327c-.594-.884-.594-1.328 0-1.328-.297-.595-.961-1.258-1.99-1.99a24.889 24.889 0 0 0-3.318-1.99 24.564 24.564 0 0 0-4.865-2.213c.29.59.588 1.328.883 2.212.588 1.474.734 2.502.444 3.097.587 3.242 1.105 7.443 1.548 12.605.442 5.158.807 9.656 1.105 13.493 0 .884.222 1.838.664 2.875.443 1.03.664 1.838.664 2.431 0 .887.365 3.686 1.105 8.406a800.232 800.232 0 0 1 2.432 17.03c.886 6.634 1.77 13.711 2.655 21.23.884 7.52 1.769 14.666 2.654 21.454.885 6.78 1.617 12.605 2.21 17.471.59 4.865.886 7.886.886 9.068 0 7.078.732 14.003 2.212 20.79 1.472 6.78 2.799 14.444 3.98 23-.593 2.06-.814 4.347-.663 6.856.145 2.502-.076 2.724-.663.663a745.755 745.755 0 0 1-6.413-21.01 304.326 304.326 0 0 1-5.087-20.125c-.298-1.479-.817-4.865-1.55-10.174-.738-5.309-1.7-11.5-2.874-18.577a7289.222 7289.222 0 0 1-3.76-22.78 1184.04 1184.04 0 0 0-3.981-23 3764.162 3764.162 0 0 0-3.538-19.02c-1.037-5.462-1.7-9.069-1.991-10.838-.594-2.654-1.181-5.309-1.77-7.962-.593-2.654-1.181-4.866-1.768-6.635a41.424 41.424 0 0 0-2.432-7.52c-1.038-2.364-1.55-4.279-1.55-5.75-.296-4.72-.96-9.73-1.99-15.04-1.036-5.306-3.172-9.287-6.413-11.943-1.77-1.479-3.981-2.805-6.635-3.98-2.654-1.182-4.721-2.806-6.193-4.866l-1.327-1.327c-.594-.594-1.182-1.036-1.77-1.326-.594-.297-1.181-.595-1.77-.884-.883-.298-1.477-.444-1.767-.444 0-2.066-.443-3.096-1.328-3.096-.885-.298-1.624-.739-2.211-1.326-1.48-.884-2.212-1.77-2.212-2.655-1.183 0-2.211-.517-3.096-1.548a9.853 9.853 0 0 0-3.097-2.433c-.884-.593-3.248-1.92-7.077-3.98a692.75 692.75 0 0 1-12.385-6.856 1683.42 1683.42 0 0 0-12.606-7.077c-3.98-2.211-6.711-3.614-8.184-4.201-.593-.595-1.48-1.328-2.654-2.212l-3.538-2.653a119.892 119.892 0 0 1-2.875-2.213c-.74-.594-.815-.884-.221-.884 0-.884 1.175-1.038 3.538-.443a31.19 31.19 0 0 1-4.422-2.212zM47.52 469.911c.793.293.95.44.466.44-1.072-.271-1.23-.417-.466-.44zm-17.647-9.892c-.511-.189-.96-.283-1.348-.283-2.06-.887-2.503-1.106-1.328-.665 1.182.443 2.066.665 2.654.665 0 .093.007.187.022.283zm198.262 77.263c-.379.612-.564.569-.564-.139 0-.709.185-.664.564.139zm57.306 86.611c.08.066.159.134.24.203.61.907 1.603 1.87 2.978 2.887l1.28 1.278c-.886-.884-1.77-1.625-2.654-2.21-1.245-1.245-1.858-1.961-1.844-2.158zM42.678 464.601c0-.595-.732-1.182-2.211-1.77a8.316 8.316 0 0 0-2.654-.442c-.588 0-.29.29.885.884.595.29 1.182.733 1.769 1.328zm1.549.885c.442.29 1.182.663 2.212 1.107a39.8 39.8 0 0 0 2.875 1.105c.884.29 1.036.29.443 0 0-.886-.734-1.625-2.213-2.212-.884-.297-1.618-.443-2.211-.443-1.175 0-1.548.146-1.106.443zm8.404 5.307c1.3.196 2.09.33 2.373.395-1.45-1.146-2.833-1.573-4.142-1.28-1.327.292-1.252.444.22.444-.884 0-.365.145 1.549.44zm2.373.395l.06.048c.096 0 .076-.016-.06-.048zm9.348 4.47c-.297-.295-.593-.441-.885-.441-.593-.595-.883-.595-.883 0 .587.587 1.03 1.174 1.326 1.769l.125.256zm-.317 1.584l-.125.627c.543.544.584.333.125-.627zm5.626 1.955c.587.587.442.29-.443-.884l-.884-.885c-.297-.297-.443-.15-.443.441-.593.292-.663.665-.22 1.106.442.444 1.029.733 1.768.885.429.086.81.171 1.141.258-1.148-1.15-1.455-1.457-.92-.92zm.92.92c.125.127.261.263.407.408.588 0 .663-.076.22-.222a9.041 9.041 0 0 0-.628-.185zm5.272 2.178c-2.066-.596-2.951-.817-2.653-.665.289.146.953.367 1.99.665 1.029.289 2.06.587 3.096.884 1.03.29 1.548.29 1.548 0zm6.635 2.652c0 .587.733 1.251 2.21 1.99 1.474.733 2.214.81 2.214.222-.595 0-1.038-.152-1.327-.443-.298-.298-.74-.593-1.327-.885z"/></g><g><path fill="#ffdd7d" d="M161.223 614.991c-.885-.297-1.845-.44-2.875-.44-1.038 0-1.992-.299-2.875-.887-.298-.593-.154-1.183.442-1.77.29-.297.587-.44.884-.44l-7.962-3.98c-1.48-.597-3.76-1.259-6.856-1.992-3.096-.74-4.644-1.549-4.644-2.434-.297-1.182.069-1.623 1.105-1.327 1.03.291 2.212.664 3.539 1.106 1.326.443 2.282.733 2.875.884.568.141.308-.34-.771-1.433-.54-.215-1.462-.696-2.768-1.442.038-.019.076-.037.116-.054a2.109 2.109 0 0 1-.558-.387c-.594-.297-.884-.595-.884-.884.29-.596.884-.665 1.769-.222.843.42 1.547.975 2.126 1.665.766.254 1.532.511 2.296.767 1.175.291 2.212.732 3.097 1.327l-2.653-2.212c1.175-1.182 2.059-.44 2.653 2.212l.885-2.653-7.962-3.98c-2.066-.596-3.248-.666-3.538-.223-.298.444-.74-.373-1.327-2.433-.885-1.769-2.067-3.173-3.54-4.2-1.478-1.039-2.21-1.848-2.21-2.435-.298-.297-1.258-.884-2.875-1.769a104.364 104.364 0 0 0-5.751-2.875 278.637 278.637 0 0 1-6.414-3.096c-2.067-1.036-3.538-1.99-4.423-2.875l-.923-1.154a.593.593 0 0 0 .48-.173l-.442-.885v-.44h-.441c-.298 0-.443.142-.443.44l-.885-1.327c-.885-.885-1.327-1.182-1.327-.885 0 .291.22.733.663 1.328.307.407.647.78 1.025 1.12-.338.136-.606.207-.804.207-.884 0-1.326-.297-1.326-.884.588 0 .732-.154.442-.443a2.708 2.708 0 0 0-1.126-.67c-.483-.728-.965-1.332-1.447-1.813.072.432.192.817.36 1.155.102.202.203.387.304.555a2.04 2.04 0 0 0-.524.11c-.442.143-.518.663-.221 1.547l5.309 2.212h.883c.292 0 .885.442 1.77 1.328l-1.327.441c.588.29 1.03.587 1.327.885.29.291.732.443 1.327.443h1.327c.588.29 1.25.732 1.99 1.326.483.388.936.775 1.36 1.164.158-.1.369-.193.63-.28l-.515.387c.177.166.35.332.516.5l1.84 1.226a.44.44 0 0 1-.072.1c-.296.29-.738.29-1.326 0-.594-.299-1.036-.664-1.327-1.107a.547.547 0 0 1-.11-.36l-.774.581c-.594 0-1.037-.297-1.328-.884-.296-.595-1.182-1.479-2.653-2.653 0 .29-.153.587-.443.884-.594.587-.884.587-.884 0-.297 0-1.624-.884-3.982-2.653-1.768-.595-3.172-1.182-4.201-1.77-1.037-.594-2.143-.74-3.317-.442-.298-.595-.886-1.404-1.77-2.434-.885-1.036-1.624-1.258-2.211-.663-.596.29-.596.733 0 1.328.289.29.587.441.884.441-.297 0-.74-.152-1.327-.44-.594-.298-1.48-1.039-2.654-2.213.884.29 1.618.587 2.21.884.589.29.29 0-.883-.884a19.934 19.934 0 0 1-1.945-.763 3.93 3.93 0 0 0-1.593-1.006c-.2-.067-.317-.089-.352-.066a11.245 11.245 0 0 1-.533-.377 16.381 16.381 0 0 1-3.318-2.212c-1.037-.885-1.403-1.623-1.105-2.212 1.472.59 2.654 1.176 3.538 1.77.587.29 1.029.442 1.327.442.29 0 0-.298-.885-.885a18.257 18.257 0 0 1-2.211-.884c-1.182-.595-1.77-1.328-1.77-2.212-.884-.298-1.624-.594-2.212-.885-1.182-.595-1.768-1.036-1.768-1.328l1.327.887v-1.328c0-.595-.153-1.182-.443-1.769-.298-.594-.593-1.18-.884-1.77-.885-.296-2.067-1.105-3.54-2.432-1.48-1.328-2.95-1.99-4.422-1.99.586 0 .663-.151.223-.442 1.883.503 2.768.577 2.652.22-.152-.442-.885-1.106-2.211-1.99a158.2 158.2 0 0 0-4.867-3.097c-1.92-1.182-3.171-2.067-3.76-2.653 0-.298.292-.444.885-.444.29 0 .733.146 1.328.444-.885-1.48-3.394-2.654-7.52-3.538 0-.887-.076-1.182-.222-.887-.151.292-.663.146-1.547-.44 0-.596-.443-1.258-1.328-1.99a29.368 29.368 0 0 0-2.654-1.992 240.546 240.546 0 0 0-1.99-1.327c-.384-.258-.154-.4.68-.434l-.016-.008-2.654-.884v-1.328c-1.175.29-2.06.146-2.654-.443.119-.117.119-.412 0-.885l-2.654-1.768c-1.406-.938-2.436-1.69-3.098-2.253v.04c-.29.292-.586.292-.883 0v-2.653c-.587.595-.81 1.106-.665 1.547.154.444-.366.222-1.546-.662h1.327c-.291-.885-.734-1.617-1.327-2.213-.29-.289-.733-.44-1.328-.44 0-.589-.733-1.176-2.211-1.772l-1.77-.884c.885 0 1.77.154 2.654.444.123.042.24.081.35.12-.231-.104-.495-.217-.792-.342-1.77-.733-2.502-.809-2.212-.222l-5.308-3.98c-1.472-1.175-2.356-1.915-2.654-2.21-.29-.292-1.175-.734-2.653-1.328-.29-.29-.443-.588-.443-.885 0-.884.885-.733 2.654.441.594 0 .884.298.884.885 0 .595.297.74.886.443h1.326a24.2 24.2 0 0 1 5.972 2.653c1.922 1.182 3.759 2.067 5.529 2.655 2.067 1.48 3.912 2.29 5.53 2.432 1.624.152 3.468 1.106 5.528 2.875 1.479.297 2.509.741 3.096 1.328.595.587 1.624 1.176 3.096 1.768 2.945 1.474 6.925 3.387 11.944 5.75 5.01 2.358 8.106 3.83 9.288 4.425 4.127.587 8.992 2.653 14.597 6.193 5.598 3.538 11.5 7.664 17.693 12.384 7.664 3.242 14.964 6.558 21.895 9.952 6.925 3.386 13.338 6.856 19.242 10.396.587.587 2.135 1.617 4.644 3.096 2.5 1.472 4.05 2.211 4.644 2.211.588 0 .809-.374.664-1.107-.153-.739.51-.37 1.99 1.107.588 0 .954-.152 1.106-.442.145-.297.22-.595.22-.884 0-.298.147-.52.444-.665.29-.152 1.029-.076 2.21.222l1.328 1.327c0 .587-.077 1.106-.221 1.548-.151.442-.076 1.397.22 2.875.588-.296 1.03-.442 1.329-.442.29 0 .29.587 0 1.77.587.586.732.883.44.883h-.883c0 .587.289.885.884.885.29 0 .587-.152.885-.44v7.517c-.661.658-1.173 1.08-1.536 1.269.065.148.135.315.21.5.29.291.29.59 0 .885-.298 0-.741.145-1.328.443.29 0 .587.146.885.443.289.29.289.885 0 1.77-.594 2.057-.962 3.385-1.106 3.98a871.29 871.29 0 0 0-1.106 4.422l1.77 1.771c1.175 1.174 1.326 1.912.442 2.21-.594 0-.962-.076-1.106-.219-.151-.154-.518-.222-1.106-.222h-1.327c-.884 0-1.77.441-2.654 1.326-.594.588-1.036 1.175-1.326 1.771-.596-.298-1.48-.444-2.654-.444zM111.2 575.355c-.237-.017-.52-.148-.846-.395a7.443 7.443 0 0 1-.524-.428 8.37 8.37 0 0 0 .524-.235zm10.725 8.574c.186-.346.018-1.05-.511-2.11l1.325 2.652zm-.513-2.113l.002.004zm-46.22-29.634c-.458-.122-.975-.27-1.551-.443-.885-.595-1.257-.885-1.106-.885.145 0 .51.144 1.106.442.587.291 1.105.59 1.548.884l.002.002zm-25.88-20.791c-.177.174-.62-.046-1.327-.663-1.175-1.036-1.03-1.106.444-.222zm-5.307-5.75c-.29 0-.587.146-.885.443.25 0 .392.102.43.311.46.222.988.158 1.588-.19a1.34 1.34 0 0 0-1.133-.564zm47.862 44.168c.584.389 1.233.746 1.945 1.072.22.224.426.479.618.763-1.83-1.146-2.683-1.756-2.563-1.835zm21.583-12.764a29.481 29.481 0 0 0-.876-.421l.872 1.742c-.296-.59-.592-.877-.881-.877-.297-.298-.518-.373-.663-.222-.152.146-.077.511.22 1.106 1.176.587 1.77.733 1.77.443 0-.175.204-.35.615-.524a.783.783 0 0 0-.172.524v.885c1.175.587 1.914 1.03 2.21 1.325l.885.887c-.593-.595-1.036-1.182-1.326-1.77-.298-.594-.442-.96-.442-1.107 0-.152.587-.076 1.768.222 1.77.587 2.434 1.327 1.99 2.212-.442.884.07 1.03 1.55.443-.885.29-1.328.29-1.328 0v-.887l5.308 2.213c-.594 0-.96.07-1.105.221-.153.146-.52.222-1.106.222h-1.327c1.175.884 2.356 1.326 3.538 1.326h1.328c-.595-1.478-1.77-2.654-3.54-3.538a40.07 40.07 0 0 0-5.308-2.212 26.198 26.198 0 0 0-2.102-1.24c.105-.028.217-.057.334-.086-.162 0-.308.01-.44.03-.531-.286-1.122-.59-1.772-.917zm-1.77-.44a.7.7 0 0 1 .353-.215c-.622-.244-.74-.174-.353.214zm.353-.215c.15.06.331.137.541.234l-.01-.02c-.177-.177-.354-.249-.53-.214zm25.744 18.792a23.439 23.439 0 0 0-3.537-2.212c-.595-.594-1.106-.885-1.55-.885-.441 0 .07.291 1.55.885-1.77-.296-3.173-1.105-4.203-2.432-1.037-1.328-1.258-1.99-.663-1.99h-3.096c-.298-.596-.74-1.183-1.328-1.77l-.884-.884a44.998 44.998 0 0 1-3.096-.886c-.708-.237-1.273-.474-1.698-.71.151.473-.165.71-.956.71-.594-.594-1.403-1.326-2.432-2.21-1.037-.885-1.55-1.923-1.55-3.097l-2.211 1.325c-.298-.295-.443-.738-.443-1.325-.296-.595-.442-1.106-.442-1.549a.926.926 0 0 0-.112-.443c-.071.149-.476.223-1.214.223h-.443c.587.29 1.328 1.617 2.21 3.981.886 1.471 2.434 2.501 4.646 3.095 2.212.59 4.645 1.77 7.299 3.54-1.48-.596-2.288-.885-2.433-.885-.152 0 0 .068.442.221.442.144.954.442 1.548.885.587.441.733.81.443 1.106l-4.865-2.212c-.298-1.182-.885-1.769-1.771-1.769-.594 0-1.036.144-1.326.441l2.654 1.328c1.47.884 3.24 1.617 5.308 2.212 2.059 2.058 4.05 3.538 5.97 4.422 1.916.885 4.05 2.654 6.415 5.31 1.768.586 3.165 1.173 4.202 1.767.998.57 1.237.034.713-1.614.764.428.75.377-.05-.154-.594-.885-1.258-1.549-1.99-1.99-.74-.444-.373-.374 1.106.221.884 0 .145-.886-2.213-2.655zm-19.461-11.943c0 .109.02.198.06.267a.638.638 0 0 1-.06-.267zm.06.267c.12.264.42.528.896.793a1.28 1.28 0 0 0-.072-.176c-.18-.36-.198-.609-.05-.749a1.708 1.708 0 0 0-.391.308c-.187 0-.314-.06-.382-.176zm1.266-.267c-.233 0-.397.045-.492.135.163-.09.328-.135.492-.135zm-9.288-6.194zm-.885.887c-.594-.297-1.037-.297-1.327 0zm.92-.869c.36.185.606.401.737.646.07-.145-.176-.36-.736-.646zm1.956 8.166c1.029-.44.366-.663-1.991-.663.289.885.953 1.106 1.99.663zm-6.112 7.41c.26-.018.522.016.783.105.228.343.456.714.684 1.112-.492 0-.98-.408-1.467-1.216zm-.745-2.764c-2.066-.595-2.51-.595-1.327 0 .468.234.938.586 1.408 1.055a6.431 6.431 0 0 1-.081-1.055zm29.636 7.076l-1.77-1.769c-.593-1.183-.297-1.183.886 0 1.175 1.175 2.06 1.77 2.653 1.77 0 1.174-.593 1.174-1.77 0zm-19.462 11.501a46.127 46.127 0 0 0-.109-.108c.415-.112.82-.224 1.214-.335 1.03-.298 1.25.291.663 1.77.292-1.18.146-1.77-.442-1.77-.296 0-.74.146-1.326.443zm-2.212.441c.588-.295.146-.884-1.327-1.769-.885-.595-1.77-1.036-2.654-1.327l-.443-2.21c0 .884-.151 1.326-.442 1.326h-.884c-.885-.885-2.143-1.92-3.76-3.097-1.624-1.18-3.096-2.142-4.423-2.875-1.328-.739-2.433-1.258-3.318-1.548-.564-.189-.83-.198-.795-.026l-2.302-3.07c.886 0 2.212.663 3.982 1.991 1.769 1.327 2.799 1.838 3.096 1.55 3.242 2.057 6.04 3.758 8.404 5.084 2.32 1.307 4.642 3.11 6.97 5.422-.675.183-1.376.367-2.104.55zm-18.046-11.526l.353.47c-.216-.215-.333-.372-.353-.47zm24.238 2.68c.29.291.809.665 1.549 1.106.733.443 1.25.663 1.548.663.29 0-.298-.442-1.77-1.326-1.182-.595-1.623-.74-1.327-.443zm-8.845 1.327c.085.085.166.16.242.227a159.024 159.024 0 0 0-.861-.174c.061.12.12.25.176.39a8.89 8.89 0 0 1-.187-.393l-1.362-.27c-.74-.153-1.257-.374-1.547-.664-.298-.297-.152-.297.442 0 1.03-.521 1.837-.245 2.42.826-.29-.7-.062-.68.677.058zm.242.227c.719.135 1.084-.087 1.084-.669 0 1.062-.362 1.289-1.084.669zm70.75 27.64c-.442-1.768-.663-2.95-.663-3.539v-4.866l1.327-.44c.588 0 1.029-.444 1.327-1.329.29-.884.733-1.327 1.327-1.327 2.059-2.362 4.423-3.836 7.077-4.423 2.654-.594 4.568 0 5.75 1.77.29 1.471.222 2.357-.22 2.653-.444.291-.664.732-.664 1.327l2.654.444c0 .587-.298 1.028-.886 1.325-.594.291-.738 1.176-.441 2.656h2.212c0 .29-.443.884-1.328 1.768-.296.29-.594.442-.884.442l2.212.443-.885 1.328c.587 1.471.885 2.653.885 3.537 0 .884.144 1.471.442 1.77l-.442 3.54c1.47 3.24 3.24 5.451 5.307 6.633.29.884.733 1.915 1.326 3.097 1.175 2.355 1.77 3.981 1.77 4.865-.297.587-.74.443-1.326-.443-.595-.885-1.182-1.037-1.77-.44-.884.288-2.066-.299-3.54-1.77-.592-.885-1.18-1.625-1.767-2.212-1.183.29-1.48 1.327-.885 3.096.29.885.587 1.617.885 2.212-1.183 1.472-1.991 1.837-2.433 1.104-.442-.738-.962-1.104-1.55-1.104l1.328 5.307c-.297-.298-.593-.739-.884-1.326-.594-1.182-1.48-1.77-2.655-1.77v1.77l-4.423 2.654c-.593-.596-.96-1.258-1.106-1.99a8.104 8.104 0 0 0-.663-1.99 8.289 8.289 0 0 1-.441-2.655c0-1.18-.298-1.77-.885-1.77l.885-.885c-1.48-1.479-2.51-2.653-3.097-3.538-.595-.884-1.037-1.922-1.327-3.096 0-.885.29-1.328.884-1.328h.885c0-.885-.298-2.508-.885-4.866a46.167 46.167 0 0 0-.884-3.096c-.595-.593-1.106-1.769-1.548-3.538zm5.088 20.346l-.444.444c0-.298.146-.444.443-.444h.001zm-61.927-35.828c.588 0 1.175.145 1.77.443.587 0 .884.07.884.221 0 .144-.297.068-.883-.22zm6.193 2.212c.587 0 1.327.587 2.21 1.77-.883-.595-1.767-1.037-2.652-1.327 0-.297.145-.443.442-.443zm-1.77-.222a432.114 432.114 0 0 1 0 0z"/></g><g><path fill="#ffdd7d" d="M132.029 728.223c-.297-.884-1.037-1.844-2.212-2.874-1.181-1.036-1.92-1.991-2.211-2.875.29.589.884 1.106 1.769 1.549.207.103.405.226.596.37-1.33-1.574-3.003-3.318-5.02-5.236-2.95-2.806-5.163-5.53-6.633-8.183h1.326a138.777 138.777 0 0 0-7.962-8.183c-2.654-2.51-4.721-5.088-6.193-7.741-.296.587-.22 1.328.22 2.212.444.885.368 1.03-.22.44-.594 0-.884-.22-.884-.661 0-.444-.741-.817-2.211-1.106a149.958 149.958 0 0 0-4.866-5.53 202.372 202.372 0 0 0-5.75-5.97c.29.587.587.952.883 1.106.29.144.443.51.443 1.104-1.48 0-2.433-.663-2.875-1.991-.443-1.325-1.548-2.431-3.317-3.315v-.444l-.442-.441h.442c-4.72-5.02-8.626-10.547-11.721-16.59a305.186 305.186 0 0 0-9.953-17.913l.443-.441a72.964 72.964 0 0 1-3.761-7.74c-1.036-2.51-2.433-5.24-4.201-8.184a40.534 40.534 0 0 1-2.213-4.203c-.587-1.327-.732-2.142-.441-2.431-.291-.298-.443-.741-.443-1.328v-.885l1.326.885v-2.653c1.182 1.174 1.329 2.5.443 3.98 1.479-.594 1.769-1.48.886-2.654-.886-1.183-1.175-2.067-.886-2.654 1.18 0 1.7.29 1.548.884-.145.587.22 1.618 1.106 3.097l2.212-3.54c-3.538-3.835-3.097-7.96 1.327-12.384l1.769.443c0-.595-.221-.816-.663-.664-.443.145-.222-.076.663-.663 2.356-.298 4.423-.96 6.193-1.991a91.175 91.175 0 0 1 5.307-2.875 23.994 23.994 0 0 1 5.752-1.99c2.057-.443 4.566-.368 7.517.22l4.425.886c2.653.587 4.79 1.174 6.414 1.769 1.617.587 3.462.884 5.528.884h.885c2.945 2.945 6.193 5.309 9.732 7.078 3.538 1.769 6.634 3.829 9.288 6.193 15.039 10.02 27.425 20.789 37.155 32.288 9.73 11.5 18.427 23.886 26.098 37.157a79.363 79.363 0 0 1 2.654 5.97c.885 2.21 1.769 4.424 2.653 6.636.884 2.212 1.693 4.27 2.432 6.193.733 1.915 1.251 3.164 1.55 3.759.587 2.06 1.104 4.492 1.547 7.299.442 2.799.732 5.452.884 7.962.146 2.502.146 4.712 0 6.634-.152 1.915-.373 3.02-.663 3.316-2.363-.295-5.163.444-8.404 2.213a196.308 196.308 0 0 0-10.174 5.97 85.385 85.385 0 0 1-10.837 5.75c-3.69 1.618-7.153 2.137-10.394 1.55-2.067-1.182-3.394-2.364-3.98-3.54-.299.292-.596.443-.886.443-.594 0-.885-.151-.885-.442-2.067-.296-2.584-.663-1.547-1.105 1.03-.443 1.104-.664.221-.664-1.183-.594-1.7-.518-1.549.22.146.734-.22 1.107-1.106 1.107-.594 0-1.18-.373-1.769-1.106-.594-.74-1.326-.663-2.212.222-1.478-1.48-2.432-2.51-2.874-3.097-.443-.595-1.548-1.036-3.317-1.327-.885-.594-1.549-1.326-1.992-2.213-.442-.884-.815-1.477-1.105-1.768-.594-1.77-1.922-3.173-3.982-4.203-2.066-1.036-2.509-1.845-1.326-2.432zm-11.944-101.29c-2.065-1.48-4.498-3.981-7.297-7.521-2.807-3.538-6.125-6.345-9.953-8.403-3.836-3.25-7.298-5.31-10.394-6.193-3.097-.885-5.828-1.328-8.184-1.328-2.364 0-4.499.222-6.414.665-1.922.44-3.469.51-4.644.22 2.06 7.962 5.453 16.215 10.173 24.77 4.714 8.55 10.174 17.029 16.366 25.435a443.005 443.005 0 0 0 19.462 24.548 2874.793 2874.793 0 0 1 19.021 22.558c2.356 1.474 4.492 3.319 6.414 5.53a56.574 56.574 0 0 0 5.972 5.972c2.653.884 4.643 2.356 5.97 4.423 1.327 2.06 3.61 3.683 6.857 4.865a251.428 251.428 0 0 1-1.328-15.04c-.296-5.017-1.182-9.141-2.654-12.384.885.587 1.55 1.396 1.992 2.432.441 1.03.807 1.838 1.104 2.434 0-2.067-.22-3.836-.663-5.31-.44-1.476-1.548-3.247-3.317-5.306l.884-2.211a222.226 222.226 0 0 0-3.318-8.625 826.23 826.23 0 0 0-4.2-9.953l-.444-.443h-1.327c-1.478-3.835-3.393-7.892-5.75-12.165-2.364-4.276-4.865-7.153-7.519-8.625 0 .588.442 1.03 1.327 1.328.885.29 1.327 1.03 1.327 2.212-.595-1.182-1.258-1.99-1.99-2.433-.74-.443-1.405-1.404-1.99-2.875v-1.77c0-1.48-.298-1.624-.885-.443l-.443 1.328a302.421 302.421 0 0 1-1.328-1.99c-.297-.443-.739-.665-1.326-.665l-.885-.884c-.298-.298-.885-.442-1.769-.442a117.913 117.913 0 0 1-4.202-7.3c-1.328-2.508-2.143-4.5-2.433-5.97zm-66.79 6.634c1.478 1.47 2.806 3.386 3.981 5.75a195.137 195.137 0 0 0 3.98 7.52c-5.01-5.02-7.665-9.441-7.962-13.27zm11.942 23.664c.588 1.915 1.472 3.905 2.655 5.97a474.88 474.88 0 0 1-4.203-5.97c-1.328-1.92-2.143-3.614-2.433-5.087 2.06 1.473 3.386 3.167 3.981 5.087zm3.175 4.203l.048.11a38.165 38.165 0 0 0-.126-.11zm4.787 5.749c.885 1.769 2.358 3.83 4.424 6.194-1.48 0-2.953-1.183-4.424-3.54-1.181-1.477-2.287-3.248-3.317-5.307a65.908 65.908 0 0 1-1.422-2.985c2.289 2.016 3.87 3.902 4.74 5.638zm-5.308-7.077c-.594-1.48-1.403-2.653-2.433-3.538-1.036-.884-.663-1.038 1.106-.443.587.884 1.251 1.839 1.99 2.875.733 1.03 1.395 1.839 1.991 2.434h-2.133a16.122 16.122 0 0 1-.52-1.328zm52.194 31.848c-.884-.595-1.623-1.404-2.21-2.434a52.255 52.255 0 0 0-1.77-2.875c-2.655-.885-3.982-1.77-3.982-2.653-2.066-2.364-3.98-4.5-5.75-6.413-1.769-1.923-3.096-4.5-3.98-7.742-1.48-.885-2.73-2.364-3.76-4.422-1.037-2.067-2.876-3.394-5.53-3.981.886 1.47 1.77 3.02 2.655 4.643.884 1.617 1.472 2.723 1.77 3.319 1.174 1.47 2.5 3.316 3.98 5.528 1.472 2.212 2.355 3.607 2.653 4.202.588.588 1.031 1.472 1.327 2.653.29 1.177 1.03 2.358 2.212 3.54l4.423 3.097c0 .587-.076.952-.22 1.104-.153.146-.222.513-.222 1.106.291.292.664.809 1.106 1.549.443.732.953 1.25 1.548 1.546l-2.654-1.324c.291.587.588.952.885 1.104.29.146.587.513.884 1.106-.594-.593-1.257-.96-1.99-1.106-.739-.152-1.403-.517-1.99-1.104a30.661 30.661 0 0 1-2.212-2.434 24.674 24.674 0 0 0-1.77-1.99c0-.595-.96-1.921-2.874-3.981-1.92-2.067-3.173-3.394-3.76-3.981-1.181-.885-2.363-2.213-3.538-3.981-.595-.885-.885-1.623-.885-2.212 0-.298.367-.663 1.106-1.106.732-.441-.077-1.402-2.434-2.875l-.877-.438c.587.297 1.324 1.775 2.206 4.419-.69-.1-1.255-.256-1.698-.468a652.82 652.82 0 0 0 5.678 9.536c2.944 4.865 6.192 8.916 9.731 12.164 1.176 0 2.059.366 2.655 1.106.586.733.586 1.25 0 1.547l2.21 1.328c.589 2.06 1.473 3.683 2.655 4.866 1.174 1.175 2.06 2.212 2.654 3.096l3.096 3.538a45.574 45.574 0 0 1 4.201 4.865c1.327 1.77 3.463 3.242 6.414 4.424.291.29.733.587 1.327.885 1.174.587 1.915.884 2.212.884-.595 1.474 0 2.653 1.77 3.54 1.77.884 3.386 2.21 4.864 3.98.29-.594.885-.442 1.77.442-.298-.595-.595-1.036-.885-1.328l-.44-.441c.883 0 1.768.587 2.653 1.769a31.888 31.888 0 0 0 4.864 3.98c1.77 1.177 4.126 2.359 7.077 3.54 1.473.29 2.875.588 4.204.885 1.327.29 2.578.442 3.759.442h3.982l-6.636-3.538c.886 0 1.328-.152 1.328-.443-.885-1.77-2.364-3.25-4.424-4.423-2.066-1.181-4.133-3.096-6.192-5.752-.298 1.177-.663 1.474-1.107.887-.442-.595-.518-.887-.22-.887-3.248-1.477-5.087-2.874-5.53-4.2-.442-1.328-1.845-2.585-4.202-3.76-.297-.886-.814-1.7-1.548-2.433-.74-.74-1.48-1.328-2.211-1.77a52.194 52.194 0 0 1-1.77-1.105c-.442-.298-.373-.74.221-1.328a129.292 129.292 0 0 0-5.087-2.874c-1.92-1.037-3.317-2.288-4.201-3.76l.442-1.77a9.764 9.764 0 0 1-3.76-2.654c-1.037-1.182-2.585-2.364-4.644-3.538 1.174 0 1.768-.443 1.768-1.328-.296.292-.593.444-.884.444-.594 0-.74-.298-.443-.885 1.474.29 2.579.953 3.318 1.99.732 1.03 1.396 1.839 1.99 2.432a9.363 9.363 0 0 0-3.095-4.422zM92.734 673.35c-.398-.682-.789-1.355-1.172-2.019a6.052 6.052 0 0 1-.005.055c-.103.884.29 1.538 1.177 1.964zm-2.284-3.954c.363.636.734 1.281 1.112 1.935.128-1.291-.24-1.935-1.112-1.935zm-6.635 2.875c1.472 1.327 1.915 2.723 1.328 4.202l3.094 3.98c-.295-2.655-1.105-4.864-2.431-6.635a27.907 27.907 0 0 1-3.319-5.75c-.593 1.47-.15 2.875 1.329 4.203zm8.411-2.872a.732.732 0 0 0-.006-.003zm20.12 12.824c.283.161.482.323.598.485a20.46 20.46 0 0 0-.156-.264 29.837 29.837 0 0 1-1.106-1.99c-.594.587-.373 1.174.664 1.769zm-.222 1.769c.782 0 1.358.125 1.725.375-.3-.578-.575-1.088-.83-1.531.17.383-.13.768-.896 1.156zm1.725.375c.156.3.318.616.486.952 0-.415-.162-.732-.486-.952zm-.83-1.531a.726.726 0 0 0-.075-.128l.075.128zm15.029 13.32c-1.182-1.922-2.51-3.172-3.98-3.76 3.24 3.828 6.557 7.298 9.951 10.394l-2.432-2.431c-1.183-.887-2.364-2.288-3.54-4.203zm5.971 6.634l.222.222a30.277 30.277 0 0 0 1.56 1.462 76.924 76.924 0 0 0-1.781-1.683zm9.952 10.838v-1.77c-.725 0-1.36-.196-1.906-.587a105.11 105.11 0 0 1 1.906 2.357zm-3.317-4.203c-.552-1.212-1.142-1.809-1.774-1.786.67.724 1.335 1.47 1.999 2.236a6.438 6.438 0 0 1-.225-.45zm-1.774-1.786a86.34 86.34 0 0 0-1.705-1.795c.042.111.17.273.383.486.442.442.664.952.664 1.548.224-.152.444-.231.658-.239zm-1.543-1.974a15.92 15.92 0 0 1-1.535-1.191c.459.447.916.904 1.373 1.37-.046-.12.007-.18.161-.18zm4.728 5.606c-.394-.473-.79-.938-1.186-1.396.332.602.727 1.068 1.186 1.396zm-27.287-8.702c0-1.182-.595-2.364-1.77-3.538-.593-1.48-.738-1.921-.441-1.328.29.59.587.146.884-1.325v-1.771h1.327c.291 0 .586.146.884.443l-1.326-1.328 8.404 4.866c.29.292.587.732.885 1.328.587.884 1.03 2.356 1.326 4.424.885 1.769 1.618 2.942 2.212 3.538.587.586 1.327 2.06 2.212 4.424.588 2.355.22 2.874-1.105 1.547-1.328-1.328-2.434-1.99-3.32-1.99l-2.21-.885-1.327-.443c-.885-1.77-1.77-3.317-2.653-4.644-.885-1.328-2.213-2.434-3.982-3.318zm16.808 9.733h.442c.588 0 .885.44.885 1.326l-1.327-.885zm1.326 1.326c.291.586.588.954.885 1.106.29.145.588.51.886 1.105l-1.77-.884zm29.636 21.232v1.325c-2.066-2.066-4.499-3.613-7.298-4.643-2.806-1.036-5.239-2.586-7.298-4.644-.298.587-.152 1.174.442 1.769.588.587 1.175.884 1.77.884-1.478.587-2.585.222-3.317-1.106-.74-1.326-1.846-2.288-3.319-2.875-.594.587-.296 1.03.885 1.328 1.175.289 1.473.733.885 1.325-.595 0-1.258-.295-1.99-.884-.675-.542-1.288-.832-1.836-.878-.2-.197-.4-.494-.598-.891-1.478-1.48-1.845-2.364-1.105-2.653.732-.298.808-.741.221-1.328-.297-.595-.594-.884-.884-.884-.298 0-.595-.595-.885-1.77-1.182-.594-2.363-1.624-3.538-3.096l2.211 1.328c1.77.884 2.8 1.47 3.096 1.769.29.289.29.587 0 .884.29 0 .587.146.884.444.291 0 .734.289 1.327.884-.297 0 .146.884 1.327 2.653.291.885 1.03 1.252 2.211 1.106 1.176-.151 1.915.068 2.213.663.587 0 2.655 1.328 6.192 3.98.885.292 2.212 1.03 3.981 2.213.588.587 1.175 1.03 1.77 1.328zm-21.076-8.399c.096.094.192.166.287.215.29.146.589.51.887 1.106a2.88 2.88 0 0 0-1.328-1.327c.05 0 .102.002.154.006z"/></g><g><path fill="#ffdd7d" d="M44.227 780.195c-.733-1.036-1.251-1.547-1.548-1.547.297-.885.518-.96.664-.222.15.733.815.81 1.99.222 0 .587-.29.954-.884 1.106-.59.146-.291.222.884.222 1.478-.596 3.026-.298 4.643.884 1.625 1.174 3.173 2.058 4.646 2.653 4.125 1.471 7.588 2.723 10.395 3.76 2.798 1.03 5.673 2.58 8.625 4.646 1.769.586 3.386 1.546 4.866 2.874 1.47 1.326 3.24 2.134 5.307 2.432 2.655 2.358 5.232 4.202 7.742 5.53 2.5 1.326 5.673 2.875 9.508 4.644.588 0 1.252.29 1.99.884.734.587.956 1.176.665 1.77.29 0 1.174.443 2.654 1.327l1.327 1.328 1.326 1.325c.588.292 1.328.513 2.212.665.885.144 1.03.808.443 1.991 2.059 0 3.759.441 5.086 1.325 1.328.885 2.282 1.473 2.875 1.771 5.308 3.827 10.098 7 14.376 9.51 4.272 2.501 9.655 5.376 16.145 8.624l1.548 1.55c.442.44 1.25.365 2.432-.222h-2.21c0-.298.29-.444.884-.444.29 0 .733.146 1.326.444 0-.596-.372-1.036-1.104-1.328-.74-.297-1.258-1.036-1.55-2.212.292-.296.367-.44.222-.44-.152 0-.518-.299-1.105-.886h1.327a143.637 143.637 0 0 0-19.021-21.232h.885l.886-.44c-.886.288-1.48.066-1.771-.666-.297-.739-.74-.518-1.326.665v-2.656c-.595 0-.885.146-.885.444 0-.596-.373-1.182-1.106-1.769-.74-.596-.816-1.038-.221-1.328-.595 0-1.036-.076-1.327-.222-.298-.152-.885-.814-1.77-1.99h1.77c-.885 0-1.258-.373-1.107-1.106.147-.739-.517-.517-1.99.665.588-2.364.222-3.98-1.105-4.866-1.328-.884-2.287-2.212-2.875-3.98-.885.586-.885 1.471 0 2.653a151.099 151.099 0 0 1-4.645-4.866 60.637 60.637 0 0 1-4.644-5.749 345.927 345.927 0 0 1-11.5-13.05 755.686 755.686 0 0 1-10.703-13.047c-.632-2.996-1.93-4.908-3.894-5.75-2.068-.886-3.54-2.365-4.423-4.425-2.067-.596-3.395-1.845-3.981-3.76-.595-1.92-1.77-3.172-3.54-3.759-2.363-2.656-4.575-4.866-6.634-6.637-2.067-1.768-4.423-3.98-7.077-6.634-1.472-.595-3.387-1.99-5.75-4.202-2.358-2.21-3.83-4.057-4.423-5.528v-.885c0-.595.44-1.036 1.326-1.328h-1.326c0-2.066 1.036-3.172 3.095-3.316 2.067-.154 3.096-.962 3.096-2.433 2.067-2.067 3.76-3.538 5.087-4.425 1.327-.884 2.724-2.058 4.203-3.537 4.712 2.066 9.433 4.568 14.154 7.518a897.91 897.91 0 0 0 13.71 8.406c3.54 2.653 7.37 5.154 11.502 7.518 4.127 2.358 7.81 4.865 11.059 7.521 3.829 2.944 8.473 6.413 13.933 10.394 5.454 3.981 10.906 7.962 16.366 11.943 5.454 3.981 10.54 7.664 15.26 11.058 4.713 3.386 8.253 5.971 10.617 7.74 3.24 1.771 5.155 2.504 5.749 2.212.588-.297.733-.738.442-1.327a15.278 15.278 0 0 0-.884-1.548c-.297-.443.442.07 2.212 1.548 1.47 1.473 2.875 1.99 4.2 1.55 1.329-.444 2.283.07 2.876 1.546 0 .59.443 1.693 1.329 3.318.883 1.617 1.617 2.723 2.21 3.32 0 .497-.268 1.103-.797 1.815.87 1.532 1.432 2.55 1.68 3.05.292.586.223.883-.218.883-.443 0-.962-.076-1.55-.222-.593-.15-1.036.07-1.325.664-.298 0 .219.367 1.547 1.105 1.328.733 1.99 1.398 1.99 1.991 0 .59-.884 2.212-2.654 4.865-1.77 2.656-2.654 4.127-2.654 4.425 0 .29-.662-.52-1.99-2.434-1.326-1.92-1.845-2.584-1.548-1.99.29.588.588 1.914.885 3.98.29 2.06.587 4.203.885 6.415.29 2.212.442 4.935.442 8.184-2.066-1.77-5.308-4.722-9.732-8.847a1036.773 1036.773 0 0 1-13.711-13.049c-4.721-4.576-9.145-8.703-13.27-12.386-4.133-3.689-6.787-5.825-7.962-6.412-.595-.596-1.258-1.48-1.991-2.656-.74-1.182-1.403-1.769-1.99-1.769h-1.326l-.443-.44c-.298-.298-.74-.444-1.328-.444-1.182-.595-2.433-1.547-3.76-2.875s-3.027-2.288-5.086-2.875c5.896 6.78 11.79 13.56 17.693 20.346a1327.219 1327.219 0 0 1 17.693 20.79c5.308 6.192 10.686 12.826 16.145 19.904 5.453 7.078 9.8 14.301 13.048 21.674 0 .59-.151 1.03-.442 1.328-.297.291-.152.732.442 1.327v-1.327c.885 3.83.29 6.634-1.77 8.404-2.066 1.77-4.422 3.387-7.075 4.866v-.443c-1.771 2.655-4.576 3.981-8.405 3.981h-.442l.442.443c-2.067 0-3.47-.076-4.203-.222-.74-.15-2.288-.22-4.644-.22 0-.597-.885-1.037-2.654-1.327-1.77-.297-2.654-1.182-2.654-2.655-.298 0-.442.145-.442.443-2.95-2.95-7.23-5.606-12.827-7.962v-.443c-2.655-2.364-5.681-4.574-9.07-6.634a620.24 620.24 0 0 1-9.951-6.193c.588 0 1.328.145 2.212.443.885.29 1.617.441 2.212.441 0 1.176.732 1.77 2.212 1.77-.595-1.479-1.7-2.584-3.318-3.317-1.624-.74-2.73-1.404-3.318-1.99.588 0 1.328.288 2.212.884.885.587 2.06 1.173 3.539 1.77-2.952-3.25-6.566-5.903-10.837-7.963-4.278-2.067-7.45-4.866-9.51-8.404a171.036 171.036 0 0 0 8.183 5.972c2.799 1.915 5.97 3.608 9.51 5.085-5.017-3.538-9.952-6.786-14.818-9.73a83.281 83.281 0 0 1-13.491-10.173c0-.886-1.106-1.7-3.317-2.434-2.212-.738-4.057-2.142-5.53-4.202l-.884-.44h-.442c-1.48-1.184-2.806-1.924-3.981-2.213-1.182-.298-2.068-1.182-2.654-2.654 0 1.174-.077 1.396-.222.663-.151-.739-.663-1.106-1.547-1.106v-2.212a7.87 7.87 0 0 0-1.991-.663c-.74-.152-1.404-.816-1.99-1.99v-1.328a105.379 105.379 0 0 1-9.29-6.634 104.106 104.106 0 0 0-9.29-6.634h-.441v-.444c0-.595.152-.884.442-.884-.883 0-1.326.443-1.326 1.328-2.06-2.365-4.203-3.98-6.414-4.866-2.212-.886-4.051-1.922-5.53-3.096 0 1.174-.365 1.25-1.105.22zm45.252-18.354c.03.145.06.292.087.442l-.443-.887.356.445zm99.167 30.078c0 .29 0 .29 0 0 0-.275-.064-.675-.19-1.197-.327.571-.265.969.19 1.197zm-99.523-30.523c-.594-.295-.961-.663-1.106-1.104a2.632 2.632 0 0 0-.28-.56zm-1.387-1.664l-.824-.989c.355.355.63.686.824.99zm8.906 10.511c.29.291.886.291 1.77 0l-1.327-1.326c-.594-.595-.885-.595-.885 0 0 .587.146 1.03.442 1.326zm8.847 10.617c.29.29 1.029 0 2.212-.884-1.183 0-1.846-.152-1.991-.444-.151-.297-.373-.152-.663.444 0 .29.145.587.442.884zm7.52 7.078v-1.328l-.885 1.328zm11.5 4.643c-.884-1.625-2.508-3.172-4.866-4.643 1.473 2.058 3.318 4.27 5.53 6.634 2.21 2.355 4.05 4.568 5.529 6.634.587.59 1.396 1.398 2.433 2.434 1.029 1.03 1.549 1.395 1.549 1.106-.886-1.77-2.068-3.173-3.54-4.203-1.48-1.036-2.508-2.585-3.096-4.643-1.48-.596-2.655-1.702-3.54-3.319zm-8.846-.662c.587-.596.663-1.183.222-1.77-.444-.595-.962-.443-1.55.442.886 0 1.328.145 1.328.443zm6.635 7.518l-.885-.44-.442-.444zm20.347 8.405v-.443c-.595.29-.816 0-.664-.884.145-.885-.076-1.328-.664-1.328-1.181 1.77-.74 2.655 1.328 2.655zm-3.318 2.432c-1.036-.44-1.258-1.258-.663-2.432-.595 0-1.037-.076-1.327-.22-.297-.153-.74-.223-1.327-.223.587 1.471 1.396 2.434 2.432 2.875 1.03.443 1.549 1.251 1.549 2.434.587-1.183.366-1.99-.664-2.434zm-5.972-.222c.886.292 1.329.292 1.329 0-1.183 0-1.771-.44-1.771-1.325-.128-.128-.2-.255-.219-.382-.313.885-.09 1.457.66 1.707zm-.66-1.707c.055-.158.128-.326.218-.503-.17.165-.243.333-.219.503zM107.7 811.38h-1.327v-1.328zm62.367 34.501c-.884 0-1.768-.297-2.653-.884h1.327c-2.066-.596-3.69-1.92-4.865-3.98a304.845 304.845 0 0 0-3.097-5.31c-1.559-1.82-2.892-3.469-3.992-4.941.007.024.01.049.01.075v.887l11.944 15.922 1.326 1.328zm-13.712-15.702c-1.181-1.623-2.654-3.319-4.422-5.087-2.655-1.48-4.645-3.69-5.972-6.634-1.326-2.952-3.317-4.866-5.971-5.75 2.059 3.537 4.713 6.704 7.962 9.51 3.24 2.798 5.749 5.53 7.52 8.182.611 0 1.012.07 1.2.211l-.317-.432zm.317.432l.115.155a.3.3 0 0 0-.115-.155zm-5.54-10.826c-.18-.33-.36-.655-.54-.975.01.29.014.615.014.975zm-.747-2.655c-.153-.298-.222-1.182-.222-2.653h-2.211a68.584 68.584 0 0 1 2.64 4.333c-.028-.9-.098-1.46-.207-1.68zm1.105 3.318c1.175 2.212 2.944 3.76 5.308 4.644-.594 1.176-.075 2.212 1.549 3.096 1.617.885 2.432 2.061 2.432 3.54h1.326c-.593.587-.738 1.25-.442 1.99.29.731.588 1.396.885 1.99 1.175.588 2.433 1.838 3.76 3.76 1.327 1.915 3.02 2.875 5.087 2.875a85.023 85.023 0 0 0-8.847-11.502 358.493 358.493 0 0 0-10.615-11.056h-.801c.12.219.238.44.358.663zm-41.136 9.952c-.594-.884-1.182-1.479-1.77-1.769-.594-.297-.884-.74-.884-1.327.29 0 .588.145.884.443.588.587 1.176.884 1.77.884zm62.368 9.288c-.297 0-.297.146 0 .443h.442c.29 0 .51.07.664.222.145.146.366.221.663.221 0-.595-.297-.886-.885-.886zm2.35 3.976a1.9 1.9 0 0 0-.581-.436zm.525 1.111c.145.732.954 1.106 2.432 1.106l-2.957-2.217c.257.286.431.657.525 1.111zm-42.685 2.875c0 .59.366 1.251 1.106 1.99.733.733 1.397.513 1.99-.662-.884 0-1.325-.442-1.325-1.328z"/></g></g></svg>