<svg xmlns="http://www.w3.org/2000/svg" width="72" height="92" viewBox="0 0 72 92"><g><g><path fill="#fecd30" d="M70.299 17.573a.999.999 0 0 1-.986-1.174c1.132-6.427-3.175-12.578-9.603-13.712a.999.999 0 0 1-.81-1.158.995.995 0 0 1 1.158-.81c7.513 1.325 12.55 8.515 11.223 16.029a1 1 0 0 1-.983.826z"/></g><g><path fill="#fecd30" d="M66.037 16.822a.999.999 0 0 1-.986-1.174 7.454 7.454 0 0 0-1.247-5.608 7.457 7.457 0 0 0-4.844-3.091 1 1 0 0 1 .347-1.97 9.443 9.443 0 0 1 6.135 3.913 9.446 9.446 0 0 1 1.578 7.104.998.998 0 0 1-.983.826z"/></g><g><path fill="#fecd30" d="M39.975 91.125l-35.844-6.32A4.996 4.996 0 0 1 .888 82.74a4.996 4.996 0 0 1-.832-3.755l12.393-70.28a4.992 4.992 0 0 1 2.066-3.244 4.967 4.967 0 0 1 3.754-.832l35.843 6.32a4.985 4.985 0 0 1 3.243 2.066 4.987 4.987 0 0 1 .833 3.755L45.796 87.05a5.034 5.034 0 0 1-5.821 4.075zM2.026 79.332a3 3 0 0 0 .501 2.26 3.004 3.004 0 0 0 1.952 1.244l35.843 6.32a3.034 3.034 0 0 0 3.504-2.454l12.392-70.28a3.006 3.006 0 0 0-.501-2.26 3.007 3.007 0 0 0-1.952-1.245l-35.843-6.32a3.01 3.01 0 0 0-2.26.501 3.005 3.005 0 0 0-1.243 1.953z"/></g><g><path fill="#fecd30" d="M39.625 81.077L7.898 75.482a1 1 0 0 1-.812-1.158l10.936-62.017a1 1 0 0 1 1.16-.81l31.725 5.593a1 1 0 0 1 .811 1.158L40.783 80.266a1.008 1.008 0 0 1-.41.646 1.009 1.009 0 0 1-.748.165zM9.23 73.686l29.757 5.248 10.588-60.048-29.756-5.247z"/></g><g><path fill="#fecd30" d="M30.715 83.852L15.32 81.138a.839.839 0 0 1-.679-.971l.01-.054a.837.837 0 0 1 .97-.68l15.396 2.715c.456.08.76.515.68.97l-.01.054a.837.837 0 0 1-.97.68z"/></g></g></svg>