<svg xmlns="http://www.w3.org/2000/svg" width="59" height="84" viewBox="0 0 59 84"><g><g><path fill="#fecd30" d="M28.574 83.305C27.407 81.766-.022 45.43-.022 29.595-.022 13.386 13.164.2 29.37.2s29.393 13.186 29.393 29.393c0 15.835-27.428 52.172-28.596 53.711a1.001 1.001 0 0 1-1.594 0zM1.978 29.595c0 13.71 22.803 45.23 27.393 51.433 4.59-6.204 27.393-37.725 27.393-51.434 0-15.105-12.29-27.393-27.393-27.393-15.104 0-27.393 12.288-27.393 27.393z"/></g><g><path fill="#fecd30" d="M12.9 32.029H3.402l.031-2.484c.01-.737.218-1.29.625-1.658.406-.367.992-.547 1.756-.536l4.801.064c.763.01 1.343.204 1.738.583.395.378.587.936.577 1.673zm-1.338-1.598l.011-.751c.003-.247-.067-.436-.208-.57-.142-.131-.376-.2-.702-.204l-4.94-.066c-.328-.005-.563.058-.709.186-.145.129-.22.316-.223.563l-.01.842z"/></g><g><path fill="#fecd30" d="M13.966 24.273l-1.258-.545.592-1.367 1.258.545z"/></g><g><path fill="#fecd30" d="M14.6 18.415l-3.454-3.534c-.533-.547-.81-1.1-.827-1.659-.019-.56.233-1.095.757-1.606.522-.51 1.072-.759 1.647-.743.575.015 1.13.295 1.664.842l.648.663-1.066 1.042-.713-.73c-.435-.446-.819-.505-1.152-.18-.406.396-.392.818.043 1.263l3.583 3.666c.431.443.85.465 1.257.07.333-.326.283-.71-.149-1.153l-1.22-1.25-.428.416-.948-.97 1.492-1.458 2.105 2.155c.534.547.802 1.107.803 1.683.002.576-.259 1.12-.78 1.63-.524.51-1.065.75-1.624.72-.559-.032-1.105-.32-1.639-.867z"/></g><g><path fill="#fecd30" d="M22.223 15.248l-2.79-9.079 2.15-.66c.729-.224 1.315-.217 1.76.02.444.237.776.711.994 1.42l.219.716c.287.932.164 1.642-.366 2.13.384.038.698.195.942.471.243.277.442.666.596 1.168l.43 1.4c.154.502.31.855.472 1.06l-1.425.438a3.98 3.98 0 0 1-.143-.216 3.236 3.236 0 0 1-.134-.292 6.858 6.858 0 0 1-.2-.565l-.436-1.425c-.128-.418-.294-.693-.496-.825s-.466-.148-.79-.048l-.495.152 1.136 3.697zm-.108-5.426l.557-.171c.283-.087.473-.225.572-.415.099-.19.095-.46-.013-.81l-.274-.892c-.1-.325-.23-.545-.39-.66-.16-.115-.367-.133-.62-.056l-.69.212z"/></g><g><path fill="#fecd30" d="M30.977 6.648c.134-.748.43-1.29.89-1.63.458-.339 1.046-.444 1.764-.314.72.13 1.232.433 1.542.91.31.478.397 1.09.262 1.837l-.877 4.863c-.134.747-.43 1.29-.887 1.63-.456.34-1.043.444-1.762.316-.717-.13-1.233-.434-1.544-.912-.31-.478-.4-1.09-.265-1.837zm.573 5.218c-.11.617.09.972.6 1.063.505.091.814-.17.925-.789l.91-5.045c.11-.612-.088-.964-.594-1.055-.51-.092-.82.168-.932.781z"/></g><g><path fill="#fecd30" d="M38.496 14.087l4.41-5.73 1.183.908-4.468 5.804c-.378.491-.361.893.048 1.208.406.312.798.223 1.175-.266l4.467-5.805 1.18.91-4.41 5.73c-.466.605-.983.95-1.551 1.034-.568.084-1.14-.097-1.72-.542-.577-.444-.89-.946-.94-1.505-.048-.559.16-1.14.626-1.746z"/></g><g><path fill="#fecd30" d="M42.728 21.239L51.3 17.15l.946 1.981c.317.664.375 1.252.172 1.761-.202.51-.648.928-1.336 1.258l-1.113.53c-.689.329-1.294.411-1.815.248-.522-.164-.94-.578-1.257-1.242l-.305-.639-3.22 1.538zm5.083-.773l.306.64c.106.222.247.358.422.407.174.049.41.003.704-.139l1.285-.612c.295-.141.477-.294.548-.46.07-.165.051-.36-.055-.583l-.305-.64z"/></g><g><path fill="#fecd30" d="M47.487 28.126l.583.011-.026 1.53-.676-.013c-.618-.01-.932.223-.94.7-.008.476.297.72.914.731.266.004.516-.044.752-.146.236-.103.449-.236.639-.399.19-.164.382-.346.573-.546.192-.2.392-.406.6-.616.209-.21.43-.399.663-.568a2.98 2.98 0 0 1 .828-.41c.32-.105.663-.154 1.029-.148.764.014 1.349.227 1.755.64.406.413.603.963.59 1.65-.012.687-.227 1.213-.646 1.578-.42.366-1.011.543-1.775.53l-.304-.005.024-1.412.397.007c.623.011.939-.234.947-.734.005-.249-.067-.437-.212-.564-.146-.127-.382-.192-.708-.198a1.737 1.737 0 0 0-.751.15c-.236.104-.45.241-.641.408a8.49 8.49 0 0 0-.572.558 18.16 18.16 0 0 1-.601.615 5.682 5.682 0 0 1-.662.554 3.14 3.14 0 0 1-1.857.547c-.764-.013-1.35-.213-1.755-.6-.406-.387-.604-.926-.591-1.619.012-.692.228-1.24.648-1.644.42-.404 1.01-.6 1.775-.587z"/></g></g></svg>