<svg id="30faf41d-2647-4a40-b1a5-34978296eac6" data-name="02" xmlns="http://www.w3.org/2000/svg" viewBox="0 0 1260 605"><title>power_4</title><polygon points="792.82 97.71 802.77 117.89 825.04 121.12 808.93 136.82 812.73 159 792.82 148.53 772.9 159 776.71 136.82 760.6 121.12 782.86 117.89 792.82 97.71" style="fill:none;stroke:#050505;stroke-linecap:round;stroke-linejoin:round;stroke-width:3px"/><path d="M318.14,539.26,286.25,539a31.89,31.89,0,1,1,31.89,32.17H318Z" style="fill:none;stroke:#050505;stroke-linecap:round;stroke-linejoin:round;stroke-width:3px"/><path d="M311.49,545.91l.17,31.89h-.17a32,32,0,0,1-31.89-31.89h31.89Z" style="fill:none;stroke:#050505;stroke-linecap:round;stroke-linejoin:round;stroke-width:3px"/><polygon points="922.13 430.33 895.3 393.74 868.46 430.33 878.59 430.33 878.59 455.23 912 455.23 912 430.33 922.13 430.33" style="fill:none;stroke:#050505;stroke-linecap:round;stroke-linejoin:round;stroke-width:3px"/><path d="M655.27,518.41c2.72-1.57,2.72-4.13,0-5.7l-14.44-8.34c-2.71-1.56-4.93-.28-4.93,2.85V523.9c0,3.13,2.22,4.41,4.93,2.85Z" style="fill:none;stroke:#050505;stroke-linecap:round;stroke-linejoin:round;stroke-width:3px"/><path d="M586.75,512.71c-2.71,1.57-2.71,4.13,0,5.7l14.45,8.34c2.71,1.56,4.93.28,4.93-2.85V507.22c0-3.13-2.22-4.41-4.93-2.85Z" style="fill:none;stroke:#050505;stroke-linecap:round;stroke-linejoin:round;stroke-width:3px"/><line x1="579.79" y1="504.37" x2="579.79" y2="526.75" style="fill:none;stroke:#050505;stroke-linecap:round;stroke-linejoin:round;stroke-width:3px"/><path d="M734.22,518.41c2.71-1.57,2.71-4.13,0-5.7l-14.44-8.34c-2.71-1.56-4.93-.28-4.93,2.85V523.9c0,3.13,2.22,4.41,4.93,2.85Z" style="fill:none;stroke:#050505;stroke-linecap:round;stroke-linejoin:round;stroke-width:3px"/><line x1="741.19" y1="526.75" x2="741.19" y2="504.37" style="fill:none;stroke:#050505;stroke-linecap:round;stroke-linejoin:round;stroke-width:3px"/><line x1="682.42" y1="504.37" x2="682.42" y2="526.75" style="fill:none;stroke:#050505;stroke-linecap:round;stroke-linejoin:round;stroke-width:3px"/><line x1="675.09" y1="504.37" x2="675.09" y2="526.75" style="fill:none;stroke:#050505;stroke-linecap:round;stroke-linejoin:round;stroke-width:3px"/><g id="e42bdb0f-162e-49cb-b6fa-b46245546074" data-name="3"><rect x="499.88" y="63.16" width="115.09" height="92" style="fill:none;stroke:#050505;stroke-linecap:round;stroke-linejoin:round;stroke-width:3px"/><line x1="499.88" y1="75.87" x2="602.78" y2="75.87" style="fill:none;stroke:#050505;stroke-linecap:round;stroke-linejoin:round;stroke-width:3px"/><line x1="507.1" y1="69.59" x2="511.25" y2="69.59" style="fill:none;stroke:#050505;stroke-linecap:round;stroke-linejoin:round;stroke-width:3px"/><line x1="515.4" y1="69.59" x2="519.55" y2="69.59" style="fill:none;stroke:#050505;stroke-linecap:round;stroke-linejoin:round;stroke-width:3px"/><line x1="523.7" y1="69.59" x2="527.85" y2="69.59" style="fill:none;stroke:#050505;stroke-linecap:round;stroke-linejoin:round;stroke-width:3px"/><line x1="512.78" y1="88.54" x2="525.22" y2="88.54" style="fill:none;stroke:#050505;stroke-linecap:round;stroke-linejoin:round;stroke-width:3px"/><line x1="512.78" y1="110.34" x2="530.94" y2="110.34" style="fill:none;stroke:#050505;stroke-linecap:round;stroke-linejoin:round;stroke-width:3px"/><line x1="512.78" y1="99.44" x2="520.97" y2="99.44" style="fill:none;stroke:#050505;stroke-linecap:round;stroke-linejoin:round;stroke-width:3px"/><line x1="540.21" y1="110.34" x2="548.4" y2="110.34" style="fill:none;stroke:#050505;stroke-linecap:round;stroke-linejoin:round;stroke-width:3px"/><line x1="530.27" y1="99.44" x2="533.64" y2="99.44" style="fill:none;stroke:#050505;stroke-linecap:round;stroke-linejoin:round;stroke-width:3px"/><line x1="544.31" y1="132.13" x2="552.08" y2="132.13" style="fill:none;stroke:#050505;stroke-linecap:round;stroke-linejoin:round;stroke-width:3px"/><line x1="512.78" y1="143.03" x2="535.25" y2="143.03" style="fill:none;stroke:#050505;stroke-linecap:round;stroke-linejoin:round;stroke-width:3px"/><line x1="512.78" y1="132.13" x2="520.97" y2="132.13" style="fill:none;stroke:#050505;stroke-linecap:round;stroke-linejoin:round;stroke-width:3px"/><line x1="530.94" y1="132.13" x2="534.3" y2="132.13" style="fill:none;stroke:#050505;stroke-linecap:round;stroke-linejoin:round;stroke-width:3px"/><line x1="544.31" y1="143.03" x2="547.67" y2="143.03" style="fill:none;stroke:#050505;stroke-linecap:round;stroke-linejoin:round;stroke-width:3px"/><line x1="540.21" y1="121.24" x2="526.11" y2="121.24" style="fill:none;stroke:#050505;stroke-linecap:round;stroke-linejoin:round;stroke-width:3px"/><line x1="516.14" y1="121.24" x2="512.78" y2="121.24" style="fill:none;stroke:#050505;stroke-linecap:round;stroke-linejoin:round;stroke-width:3px"/><polyline points="570.09 112.65 563.07 120.96 570.09 129.27" style="fill:none;stroke:#050505;stroke-linecap:round;stroke-linejoin:round;stroke-width:3px"/><polyline points="593 129.27 600.02 120.96 593 112.65" style="fill:none;stroke:#050505;stroke-linecap:round;stroke-linejoin:round;stroke-width:3px"/><line x1="577.85" y1="131.58" x2="585.24" y2="110.34" style="fill:none;stroke:#050505;stroke-linecap:round;stroke-linejoin:round;stroke-width:3px"/></g><line x1="159" y1="203.23" x2="151.5" y2="195.73" style="fill:none;stroke:#050505;stroke-linecap:round;stroke-linejoin:round;stroke-width:3px"/><line x1="151.5" y1="203.23" x2="159" y2="195.73" style="fill:none;stroke:#050505;stroke-linecap:round;stroke-linejoin:round;stroke-width:3px"/><circle cx="129" cy="173.23" r="4.5" style="fill:none;stroke:#050505;stroke-linecap:round;stroke-linejoin:round;stroke-width:3px"/><line x1="255.11" y1="409.75" x2="262.61" y2="417.25" style="fill:none;stroke:#050505;stroke-linecap:round;stroke-linejoin:round;stroke-width:3px"/><line x1="262.61" y1="409.75" x2="255.11" y2="417.25" style="fill:none;stroke:#050505;stroke-linecap:round;stroke-linejoin:round;stroke-width:3px"/><circle cx="285.11" cy="439.75" r="4.5" style="fill:none;stroke:#050505;stroke-linecap:round;stroke-linejoin:round;stroke-width:3px"/><circle cx="1175.54" cy="542.25" r="4.5" style="fill:none;stroke:#050505;stroke-linecap:round;stroke-linejoin:round;stroke-width:3px"/><line x1="1219.56" y1="494.95" x2="1223.06" y2="498.45" style="fill:none;stroke:#050505;stroke-linecap:round;stroke-linejoin:round;stroke-width:3px"/><line x1="1231.36" y1="506.75" x2="1234.86" y2="510.25" style="fill:none;stroke:#050505;stroke-linecap:round;stroke-linejoin:round;stroke-width:3px"/><line x1="1231.36" y1="498.45" x2="1234.86" y2="494.95" style="fill:none;stroke:#050505;stroke-linecap:round;stroke-linejoin:round;stroke-width:3px"/><line x1="1219.56" y1="510.25" x2="1223.06" y2="506.75" style="fill:none;stroke:#050505;stroke-linecap:round;stroke-linejoin:round;stroke-width:3px"/><path d="M76.89,180.83c-7.41,0-7.41-10-14.81-10s-7.4,10-14.81,10-7.4-10-14.8-10-7.41,10-14.82,10-7.41-10-14.82-10" style="fill:none;stroke:#050505;stroke-linecap:round;stroke-linejoin:round;stroke-width:3px"/><g id="84639006-526d-4d50-a186-da8b26877dcb" data-name="13"><polygon points="311.63 64.37 311.63 103.81 300.6 102.09 300.6 66.09 311.63 64.37" style="fill:none;stroke:#050505;stroke-linecap:round;stroke-linejoin:round;stroke-width:3px"/><polyline points="292.66 69.82 276.19 62.45 235.84 77.86 235.84 84.09" style="fill:none;stroke:#050505;stroke-linecap:round;stroke-linejoin:round;stroke-width:3px"/><polyline points="235.84 90.64 276.19 106.05 291.15 99.37 300.6 99.41 300.6 99.41" style="fill:none;stroke:#050505;stroke-linecap:round;stroke-linejoin:round;stroke-width:3px"/><line x1="235.84" y1="84.09" x2="270.75" y2="84.09" style="fill:none;stroke:#050505;stroke-linecap:round;stroke-linejoin:round;stroke-width:3px"/><path d="M277,78.91a5.36,5.36,0,1,1-5.36,5.36A5.36,5.36,0,0,1,277,78.91Z" style="fill:none;stroke:#050505;stroke-linecap:round;stroke-linejoin:round;stroke-width:3px"/><rect x="219.63" y="80.42" width="7.69" height="7.69" transform="translate(139.21 307.75) rotate(-90)" style="fill:none;stroke:#050505;stroke-linecap:round;stroke-linejoin:round;stroke-width:3px"/><rect x="219.63" y="42.39" width="7.69" height="7.69" transform="translate(177.25 269.71) rotate(-90)" style="fill:none;stroke:#050505;stroke-linecap:round;stroke-linejoin:round;stroke-width:3px"/><rect x="255.18" y="42.28" width="7.69" height="7.69" style="fill:none;stroke:#050505;stroke-linecap:round;stroke-linejoin:round;stroke-width:3px"/><rect x="255.18" y="118.46" width="7.69" height="7.69" style="fill:none;stroke:#050505;stroke-linecap:round;stroke-linejoin:round;stroke-width:3px"/><rect x="219.63" y="118.46" width="7.69" height="7.69" transform="translate(101.18 345.79) rotate(-90)" style="fill:none;stroke:#050505;stroke-linecap:round;stroke-linejoin:round;stroke-width:3px"/><path d="M255.18,122c-8.76-1.11-29.62-8.89-31.54-33.89" style="fill:none;stroke:#050505;stroke-linecap:round;stroke-linejoin:round;stroke-width:3px"/><path d="M224.44,74.82c0-9,10.57-26,24.6-27.78" style="fill:none;stroke:#050505;stroke-linecap:round;stroke-linejoin:round;stroke-width:3px"/><line x1="223.64" y1="55.55" x2="223.48" y2="74.82" style="fill:none;stroke:#050505;stroke-linecap:round;stroke-linejoin:round;stroke-width:3px"/><line x1="223.64" y1="88.11" x2="223.64" y2="110.01" style="fill:none;stroke:#050505;stroke-linecap:round;stroke-linejoin:round;stroke-width:3px"/></g><line x1="841.58" y1="481.75" x2="849.08" y2="474.25" style="fill:none;stroke:#050505;stroke-linecap:round;stroke-linejoin:round;stroke-width:3px"/><line x1="849.08" y1="481.75" x2="841.58" y2="474.25" style="fill:none;stroke:#050505;stroke-linecap:round;stroke-linejoin:round;stroke-width:3px"/><line x1="468.1" y1="75.27" x2="475.6" y2="67.77" style="fill:none;stroke:#050505;stroke-linecap:round;stroke-linejoin:round;stroke-width:3px"/><line x1="475.6" y1="75.27" x2="468.1" y2="67.77" style="fill:none;stroke:#050505;stroke-linecap:round;stroke-linejoin:round;stroke-width:3px"/><circle cx="498.1" cy="45.27" r="4.5" style="fill:none;stroke:#050505;stroke-linecap:round;stroke-linejoin:round;stroke-width:3px"/><line x1="812.03" y1="400.25" x2="807.08" y2="400.25" style="fill:none;stroke:#050505;stroke-linecap:round;stroke-linejoin:round;stroke-width:3px"/><line x1="795.34" y1="400.25" x2="790.39" y2="400.25" style="fill:none;stroke:#050505;stroke-linecap:round;stroke-linejoin:round;stroke-width:3px"/><line x1="801.21" y1="394.38" x2="801.21" y2="389.43" style="fill:none;stroke:#050505;stroke-linecap:round;stroke-linejoin:round;stroke-width:3px"/><line x1="801.21" y1="411.07" x2="801.21" y2="406.12" style="fill:none;stroke:#050505;stroke-linecap:round;stroke-linejoin:round;stroke-width:3px"/><g id="1e3928c7-5702-4ec8-b192-2ca359ee3e48" data-name="17"><rect x="1146.26" y="161.23" width="85.45" height="136.84" transform="translate(1418.63 -959.33) rotate(90)" style="fill:none;stroke:#050505;stroke-linecap:round;stroke-linejoin:round;stroke-width:3px"/><polygon points="1181.85 215.8 1181.85 232.28 1195.13 224.04 1181.85 215.8" style="fill:none;stroke:#050505;stroke-linecap:round;stroke-linejoin:round;stroke-width:3px"/><line x1="1166.82" y1="257.89" x2="1244.54" y2="257.89" style="fill:none;stroke:#050505;stroke-linecap:round;stroke-linejoin:round;stroke-width:3px"/><line x1="1150.36" y1="257.89" x2="1158.45" y2="257.89" style="fill:none;stroke:#050505;stroke-linecap:round;stroke-linejoin:round;stroke-width:3px"/><line x1="1160.47" y1="263.7" x2="1160.47" y2="252.09" style="fill:none;stroke:#050505;stroke-linecap:round;stroke-linejoin:round;stroke-width:3px"/><line x1="1141.29" y1="263.7" x2="1141.29" y2="252.09" style="fill:none;stroke:#050505;stroke-linecap:round;stroke-linejoin:round;stroke-width:3px"/><line x1="1132.91" y1="263.7" x2="1132.91" y2="252.09" style="fill:none;stroke:#050505;stroke-linecap:round;stroke-linejoin:round;stroke-width:3px"/><path d="M1202.85,213.46a19.93,19.93,0,1,1-7.71-7.15" style="fill:none;stroke:#050505;stroke-linecap:round;stroke-linejoin:round;stroke-width:3px"/></g><line x1="1047.26" y1="115.35" x2="1054.76" y2="122.85" style="fill:none;stroke:#050505;stroke-linecap:round;stroke-linejoin:round;stroke-width:3px"/><line x1="1054.76" y1="115.35" x2="1047.26" y2="122.85" style="fill:none;stroke:#050505;stroke-linecap:round;stroke-linejoin:round;stroke-width:3px"/><circle cx="1231" cy="55.55" r="4.5" style="fill:none;stroke:#050505;stroke-linecap:round;stroke-linejoin:round;stroke-width:3px"/><line x1="1218.8" y1="19.55" x2="1215.3" y2="16.05" style="fill:none;stroke:#050505;stroke-linecap:round;stroke-linejoin:round;stroke-width:3px"/><line x1="1207" y1="7.75" x2="1203.5" y2="4.25" style="fill:none;stroke:#050505;stroke-linecap:round;stroke-linejoin:round;stroke-width:3px"/><line x1="1207" y1="16.05" x2="1203.5" y2="19.55" style="fill:none;stroke:#050505;stroke-linecap:round;stroke-linejoin:round;stroke-width:3px"/><line x1="1218.8" y1="4.25" x2="1215.3" y2="7.75" style="fill:none;stroke:#050505;stroke-linecap:round;stroke-linejoin:round;stroke-width:3px"/><path d="M1016.74,187.82c7.4,0,7.4,10,14.8,10s7.41-10,14.81-10,7.41,10,14.81,10,7.41-10,14.81-10,7.41,10,14.82,10" style="fill:none;stroke:#050505;stroke-linecap:round;stroke-linejoin:round;stroke-width:3px"/><line x1="231" y1="581.13" x2="231" y2="586.08" style="fill:none;stroke:#050505;stroke-linecap:round;stroke-linejoin:round;stroke-width:3px"/><line x1="231" y1="597.82" x2="231" y2="602.77" style="fill:none;stroke:#050505;stroke-linecap:round;stroke-linejoin:round;stroke-width:3px"/><line x1="236.87" y1="591.95" x2="241.82" y2="591.95" style="fill:none;stroke:#050505;stroke-linecap:round;stroke-linejoin:round;stroke-width:3px"/><line x1="220.18" y1="591.95" x2="225.13" y2="591.95" style="fill:none;stroke:#050505;stroke-linecap:round;stroke-linejoin:round;stroke-width:3px"/><g id="2f86ad87-3234-4ada-981b-7dd15fff1ba3" data-name="19"><polyline points="444.68 430.4 444.68 403.82 428.39 387.51 373.01 387.51 373.01 485.25 421.83 485.25" style="fill:none;stroke:#050505;stroke-linecap:round;stroke-linejoin:round;stroke-width:3px"/><polyline points="428.39 398.01 428.39 387.52 444.67 403.81 431.68 403.81" style="fill:none;stroke:#050505;stroke-linecap:round;stroke-linejoin:round;stroke-width:3px"/><polyline points="428.39 395.67 428.39 403.81 431.68 403.81" style="fill:none;stroke:#050505;stroke-linecap:round;stroke-linejoin:round;stroke-width:3px"/><polyline points="467.92 441.47 492.84 441.47 492.84 485.25 432.24 485.25 432.24 441.47 467.92 441.47" style="fill:none;stroke:#050505;stroke-linecap:round;stroke-linejoin:round;stroke-width:3px"/><polyline points="442.48 450.42 462.67 464.07 483.1 450.25" style="fill:none;stroke:#050505;stroke-linecap:round;stroke-linejoin:round;stroke-width:3px"/><line x1="383.06" y1="423.48" x2="423.88" y2="423.48" style="fill:none;stroke:#050505;stroke-linecap:round;stroke-linejoin:round;stroke-width:3px"/><line x1="383.06" y1="433.5" x2="423.88" y2="433.5" style="fill:none;stroke:#050505;stroke-linecap:round;stroke-linejoin:round;stroke-width:3px"/><line x1="383.06" y1="443.52" x2="403.47" y2="443.52" style="fill:none;stroke:#050505;stroke-linecap:round;stroke-linejoin:round;stroke-width:3px"/><rect x="452.88" y="404.81" width="40.09" height="25.6" style="fill:none;stroke:#050505;stroke-linecap:round;stroke-linejoin:round;stroke-width:3px"/><polygon points="510.59 473.73 506.69 480.84 505.46 480.84 501.56 473.73 501.56 417.79 510.59 417.79 510.59 473.73" style="fill:none;stroke:#050505;stroke-linecap:round;stroke-linejoin:round;stroke-width:3px"/><line x1="506.08" y1="480.84" x2="506.08" y2="485.12" style="fill:none;stroke:#050505;stroke-linecap:round;stroke-linejoin:round;stroke-width:3px"/><polyline points="517.57 439.67 517.57 424.9 511.86 424.9" style="fill:none;stroke:#050505;stroke-linecap:round;stroke-linejoin:round;stroke-width:3px"/><path d="M396.7,406.51a5.88,5.88,0,1,0-5.88,5.88A5.87,5.87,0,0,0,396.7,406.51Z" style="fill:none;stroke:#050505;stroke-linecap:round;stroke-linejoin:round;stroke-width:3px"/><path d="M484.22,471.81a4.37,4.37,0,1,0-4.37,4.37A4.37,4.37,0,0,0,484.22,471.81Z" style="fill:none;stroke:#050505;stroke-linecap:round;stroke-linejoin:round;stroke-width:3px"/><line x1="461.57" y1="413.28" x2="478.88" y2="413.28" style="fill:none;stroke:#050505;stroke-linecap:round;stroke-linejoin:round;stroke-width:3px"/><line x1="461.57" y1="421.14" x2="484.27" y2="421.14" style="fill:none;stroke:#050505;stroke-linecap:round;stroke-linejoin:round;stroke-width:3px"/></g><g id="469f4f50-99b0-4537-a973-75ffafbd8e83" data-name="7"><line x1="85.26" y1="423.25" x2="116.18" y2="423.25" style="fill:none;stroke:#050505;stroke-linecap:round;stroke-linejoin:round;stroke-width:3px"/><line x1="85.26" y1="414.87" x2="116.18" y2="414.87" style="fill:none;stroke:#050505;stroke-linecap:round;stroke-linejoin:round;stroke-width:3px"/><line x1="86.2" y1="406.49" x2="119.21" y2="406.49" style="fill:none;stroke:#050505;stroke-linecap:round;stroke-linejoin:round;stroke-width:3px"/><line x1="94.33" y1="431.64" x2="107.1" y2="431.64" style="fill:none;stroke:#050505;stroke-linecap:round;stroke-linejoin:round;stroke-width:3px"/><path d="M119.65,397.92A51.46,51.46,0,0,1,128,377.23a32.91,32.91,0,1,0-54.06.71,46.71,46.71,0,0,1,8.42,27.27v1.28h36.73" style="fill:none;stroke:#050505;stroke-linecap:round;stroke-linejoin:round;stroke-width:3px"/><path d="M97.3,406S95,374.64,94.52,365.84c-.24-4.85-.61-11.46-6.86-11.46-4,0-7,2.61-7,7.31,0,7.12,8.8,6.65,13.91,6.39h5" style="fill:none;stroke:#050505;stroke-linecap:round;stroke-linejoin:round;stroke-width:3px"/><path d="M104.13,406s2.28-30.58,2.78-40.18c.25-4.85.61-11.46,6.86-11.46,4,0,7,2.61,7,7.31,0,4.11-2.47,6.14-6.38,6.24h-.59" style="fill:none;stroke:#050505;stroke-linecap:round;stroke-linejoin:round;stroke-width:3px"/><line x1="100.72" y1="316.99" x2="100.72" y2="315.36" style="fill:none;stroke:#050505;stroke-linecap:round;stroke-linejoin:round;stroke-width:3px"/><line x1="100.72" y1="316.99" x2="100.72" y2="315.36" style="fill:none;stroke:#050505;stroke-linecap:round;stroke-linejoin:round;stroke-width:3px"/><line x1="76.9" y1="324.73" x2="75.94" y2="323.41" style="fill:none;stroke:#050505;stroke-linecap:round;stroke-linejoin:round;stroke-width:3px"/><line x1="62.17" y1="345" x2="60.62" y2="344.49" style="fill:none;stroke:#050505;stroke-linecap:round;stroke-linejoin:round;stroke-width:3px"/><line x1="140.81" y1="370.55" x2="139.26" y2="370.04" style="fill:none;stroke:#050505;stroke-linecap:round;stroke-linejoin:round;stroke-width:3px"/><line x1="62.17" y1="370.04" x2="60.62" y2="370.55" style="fill:none;stroke:#050505;stroke-linecap:round;stroke-linejoin:round;stroke-width:3px"/><line x1="140.81" y1="344.49" x2="139.26" y2="345" style="fill:none;stroke:#050505;stroke-linecap:round;stroke-linejoin:round;stroke-width:3px"/><line x1="125.5" y1="323.41" x2="124.54" y2="324.73" style="fill:none;stroke:#050505;stroke-linecap:round;stroke-linejoin:round;stroke-width:3px"/></g><line x1="103.81" y1="83.92" x2="111.58" y2="83.92" style="fill:none;stroke:#050505;stroke-linecap:round;stroke-linejoin:round;stroke-width:3px"/><line x1="72.28" y1="95.05" x2="94.75" y2="95.05" style="fill:none;stroke:#050505;stroke-linecap:round;stroke-linejoin:round;stroke-width:3px"/><line x1="72.28" y1="83.92" x2="80.46" y2="83.92" style="fill:none;stroke:#050505;stroke-linecap:round;stroke-linejoin:round;stroke-width:3px"/><line x1="90.44" y1="83.92" x2="93.8" y2="83.92" style="fill:none;stroke:#050505;stroke-linecap:round;stroke-linejoin:round;stroke-width:3px"/><line x1="103.81" y1="95.05" x2="107.17" y2="95.05" style="fill:none;stroke:#050505;stroke-linecap:round;stroke-linejoin:round;stroke-width:3px"/><path d="M113.62,73.75H68.91A7.87,7.87,0,0,0,61,81.62V97.36a7.88,7.88,0,0,0,7.87,7.87H102.7l5.15,8.92,5.15-8.92h.62a7.87,7.87,0,0,0,7.87-7.87V81.62A7.87,7.87,0,0,0,113.62,73.75Z" style="fill:none;stroke:#050505;stroke-linecap:round;stroke-linejoin:round;stroke-width:3px"/><g id="983b4781-86ba-4258-9179-fbb88ca87e95" data-name="16"><polyline points="1092.05 350.08 983.97 350.08 983.97 412.36 983.97 424.86 1023.83 424.86 1052.19 424.86 1075.72 424.86" style="fill:none;stroke:#050505;stroke-linecap:round;stroke-linejoin:round;stroke-width:3px"/><line x1="1092.05" y1="379.95" x2="1092.05" y2="360.7" style="fill:none;stroke:#050505;stroke-linecap:round;stroke-linejoin:round;stroke-width:3px"/><polyline points="1052.19 429.99 1052.19 439.55 1023.83 439.55 1023.83 424.86 1052.19 424.86" style="fill:none;stroke:#050505;stroke-linecap:round;stroke-linejoin:round;stroke-width:3px"/><line x1="1013.67" y1="439.55" x2="1062.35" y2="439.55" style="fill:none;stroke:#050505;stroke-linecap:round;stroke-linejoin:round;stroke-width:3px"/><line x1="1064.54" y1="412.36" x2="983.97" y2="412.36" style="fill:none;stroke:#050505;stroke-linecap:round;stroke-linejoin:round;stroke-width:3px"/><polyline points="1122.83 442.75 1075.72 442.75 1075.72 379.95 1122.83 379.95 1122.83 392.97" style="fill:none;stroke:#050505;stroke-linecap:round;stroke-linejoin:round;stroke-width:3px"/><line x1="1096.87" y1="433.54" x2="1102.54" y2="433.54" style="fill:none;stroke:#050505;stroke-linecap:round;stroke-linejoin:round;stroke-width:3px"/><rect x="1115.35" y="403.66" width="23.64" height="39.09" style="fill:none;stroke:#050505;stroke-linecap:round;stroke-linejoin:round;stroke-width:3px"/><line x1="1126.29" y1="434.65" x2="1128.05" y2="434.65" style="fill:none;stroke:#050505;stroke-linecap:round;stroke-linejoin:round;stroke-width:3px"/></g><g id="1878370e-d19e-4761-8194-e10f7cff702d" data-name="9"><line x1="1141.24" y1="84" x2="1154.01" y2="84" style="fill:none;stroke:#050505;stroke-linecap:round;stroke-linejoin:round;stroke-width:3px"/><line x1="1144.06" y1="90.88" x2="1151.19" y2="90.88" style="fill:none;stroke:#050505;stroke-linecap:round;stroke-linejoin:round;stroke-width:3px"/><path d="M1156.24,68.35a21.23,21.23,0,0,1,1.71-3,12.46,12.46,0,0,0-11.12-19.42A12.53,12.53,0,0,0,1135.17,58a12.34,12.34,0,0,0,2.31,7.57,17.7,17.7,0,0,1,3.19,10.33v.49h13.91" style="fill:none;stroke:#050505;stroke-linecap:round;stroke-linejoin:round;stroke-width:3px"/><line x1="1147.62" y1="36.96" x2="1147.62" y2="36.13" style="fill:none;stroke:#050505;stroke-linecap:round;stroke-linejoin:round;stroke-width:3px"/><line x1="1135.41" y1="40.93" x2="1134.92" y2="40.26" style="fill:none;stroke:#050505;stroke-linecap:round;stroke-linejoin:round;stroke-width:3px"/><line x1="1127.86" y1="51.33" x2="1127.06" y2="51.07" style="fill:none;stroke:#050505;stroke-linecap:round;stroke-linejoin:round;stroke-width:3px"/><line x1="1168.19" y1="64.43" x2="1167.39" y2="64.17" style="fill:none;stroke:#050505;stroke-linecap:round;stroke-linejoin:round;stroke-width:3px"/><line x1="1127.86" y1="64.17" x2="1127.06" y2="64.43" style="fill:none;stroke:#050505;stroke-linecap:round;stroke-linejoin:round;stroke-width:3px"/><line x1="1168.19" y1="51.07" x2="1167.39" y2="51.33" style="fill:none;stroke:#050505;stroke-linecap:round;stroke-linejoin:round;stroke-width:3px"/><line x1="1160.33" y1="40.26" x2="1159.84" y2="40.93" style="fill:none;stroke:#050505;stroke-linecap:round;stroke-linejoin:round;stroke-width:3px"/><path d="M1184.67,85.49A40.52,40.52,0,0,0,1189.25,63a42.05,42.05,0,0,0-83.94.74l-12.54,27.94h12.83v20.9a10.24,10.24,0,0,0,10.24,10.24h19.53" style="fill:none;stroke:#050505;stroke-linecap:round;stroke-linejoin:round;stroke-width:3px"/><polyline points="1178.23 136.89 1178.23 122.78 1178.23 95.65" style="fill:none;stroke:#050505;stroke-linecap:round;stroke-linejoin:round;stroke-width:3px"/><line x1="1135.37" y1="122.78" x2="1135.37" y2="136.89" style="fill:none;stroke:#050505;stroke-linecap:round;stroke-linejoin:round;stroke-width:3px"/></g><polyline points="630.47 293.37 630.47 303.58 640.68 303.58" style="fill:none;stroke:#050505;stroke-linecap:round;stroke-linejoin:round;stroke-width:3px"/><polyline points="688.5 303.58 698.72 303.58 698.72 293.37" style="fill:none;stroke:#050505;stroke-linecap:round;stroke-linejoin:round;stroke-width:3px"/><polyline points="640.68 235.34 630.47 235.34 630.47 245.55" style="fill:none;stroke:#050505;stroke-linecap:round;stroke-linejoin:round;stroke-width:3px"/><polyline points="698.72 245.55 698.72 235.34 688.5 235.34" style="fill:none;stroke:#050505;stroke-linecap:round;stroke-linejoin:round;stroke-width:3px"/><path d="M671.39,269.46c0,.18,0,.35,0,.53a6.8,6.8,0,0,1-13.55,0,4.7,4.7,0,0,1,0-.53,6.8,6.8,0,1,1,13.59,0Z" style="fill:none;stroke:#050505;stroke-linecap:round;stroke-linejoin:round;stroke-width:3px"/><line x1="664.59" y1="284.33" x2="664.59" y2="276.26" style="fill:none;stroke:#050505;stroke-linecap:round;stroke-linejoin:round;stroke-width:3px"/><line x1="664.59" y1="262.66" x2="664.59" y2="255.65" style="fill:none;stroke:#050505;stroke-linecap:round;stroke-linejoin:round;stroke-width:3px"/><line x1="657.82" y1="269.99" x2="650.25" y2="269.99" style="fill:none;stroke:#050505;stroke-linecap:round;stroke-linejoin:round;stroke-width:3px"/><line x1="678.93" y1="269.99" x2="671.37" y2="269.99" style="fill:none;stroke:#050505;stroke-linecap:round;stroke-linejoin:round;stroke-width:3px"/><polyline points="1061.56 545.64 1074.25 555.64 1086.95 545.64 1099.65 555.64 1112.35 545.64 1125.06 555.64" style="fill:none;stroke:#050505;stroke-linecap:round;stroke-linejoin:round;stroke-width:3px"/></svg>