<?xml version="1.0" encoding="utf-8"?>
<!-- Generator: Adobe Illustrator 22.0.0, SVG Export Plug-In . SVG Version: 6.00 Build 0)  -->
<svg version="1.1" id="_x35_ee6abac-d248-4044-87d5-dc5a7e8c3990"
	 xmlns="http://www.w3.org/2000/svg" xmlns:xlink="http://www.w3.org/1999/xlink" x="0px" y="0px" viewBox="0 0 1260 605"
	 style="enable-background:new 0 0 1260 605;" xml:space="preserve">
<style type="text/css">
	.st0{enable-background:new    ;}
	.st1{fill:#FECD30;}
</style>
<title>power_3</title>
<g class="st0">
	<path class="st1" d="M846.5,151.2c-1.1,0-2.2,0.2-3.3,0.5c-1.1,0.3-2.2,0.7-3.2,1.2l-1.7-4.3c2.7-1.2,5.5-1.8,8.4-1.8
		c3.7,0,6.6,1.1,8.6,3.4c2,2.3,3.1,5.5,3.1,9.5c0,4.1-1,7.3-3.1,9.6c-2.1,2.2-5.1,3.3-9.1,3.3c-2.7,0-5.2-0.4-7.4-1.3v-4.5
		c2.8,0.9,5.2,1.3,7.1,1.3c2.2,0,3.9-0.5,5-1.6c1.2-1.1,1.8-2.7,1.9-4.8h-10.9v-4.4h10.9c-0.1-1.9-0.7-3.5-1.8-4.6
		C849.8,151.7,848.4,151.2,846.5,151.2z"/>
	<path class="st1" d="M884,172.3H878l-9.1-12.7v12.7h-5.3v-25.1h5.3v12.2l9-12.2h5.7l-9.2,12.1L884,172.3z"/>
	<path class="st1" d="M897.9,151.2c-2,0-3.6,0.8-4.7,2.3c-1.1,1.5-1.7,3.6-1.7,6.3c0,5.6,2.1,8.4,6.3,8.4c1.8,0,3.9-0.4,6.4-1.3v4.5
		c-2.1,0.9-4.4,1.3-6.9,1.3c-3.7,0-6.5-1.1-8.4-3.3c-1.9-2.2-2.9-5.4-2.9-9.6c0-2.6,0.5-4.9,1.4-6.9s2.3-3.5,4.1-4.5
		s3.9-1.6,6.3-1.6c2.4,0,4.9,0.6,7.4,1.8l-1.7,4.3c-0.9-0.4-1.9-0.8-2.8-1.2C899.7,151.4,898.8,151.2,897.9,151.2z"/>
	<path class="st1" d="M929.5,172.3h-5.3v-20.7H915v20.7h-5.3v-25.1h19.9V172.3z"/>
	<path class="st1" d="M950.4,172.3h-14.5v-25.1h14.5v4.4h-9.1v5.5h8.5v4.4h-8.5v6.5h9.1V172.3z"/>
	<path class="st1" d="M973,155c0,2.7-0.8,4.8-2.5,6.2c-1.7,1.4-4.1,2.1-7.2,2.1h-2.3v8.9h-5.3v-25.1h8c3,0,5.4,0.7,7,2
		C972.2,150.4,973,152.4,973,155z M960.9,159h1.8c1.6,0,2.9-0.3,3.7-1c0.8-0.6,1.2-1.6,1.2-2.8c0-1.2-0.3-2.2-1-2.8
		c-0.7-0.6-1.8-0.9-3.2-0.9h-2.4V159z"/>
	<path class="st1" d="M987.4,172.3h-5.3v-20.7h-6.8v-4.4h19v4.4h-6.8V172.3z"/>
	<path class="st1" d="M1018.7,172.3h-5.3v-10.8h-10v10.8h-5.3v-25.1h5.3v9.9h10v-9.9h5.3V172.3z"/>
	<path class="st1" d="M1047.9,159.7c0,4.2-1,7.4-3.1,9.6s-5,3.4-8.9,3.4s-6.8-1.1-8.9-3.4s-3.1-5.4-3.1-9.6c0-4.2,1-7.4,3.1-9.6
		c2.1-2.2,5-3.3,8.9-3.3c3.9,0,6.8,1.1,8.9,3.3C1046.8,152.3,1047.9,155.5,1047.9,159.7z M1029.5,159.7c0,2.8,0.5,4.9,1.6,6.3
		c1.1,1.4,2.7,2.1,4.8,2.1c4.3,0,6.4-2.8,6.4-8.5c0-5.7-2.1-8.5-6.3-8.5c-2.1,0-3.7,0.7-4.8,2.1S1029.5,156.8,1029.5,159.7z"/>
	<path class="st1" d="M1063.8,151.2c-2,0-3.6,0.8-4.7,2.3c-1.1,1.5-1.7,3.6-1.7,6.3c0,5.6,2.1,8.4,6.3,8.4c1.8,0,3.9-0.4,6.4-1.3
		v4.5c-2.1,0.9-4.4,1.3-6.9,1.3c-3.7,0-6.5-1.1-8.4-3.3c-1.9-2.2-2.9-5.4-2.9-9.6c0-2.6,0.5-4.9,1.4-6.9c1-2,2.3-3.5,4.1-4.5
		s3.9-1.6,6.3-1.6c2.4,0,4.9,0.6,7.4,1.8l-1.7,4.3c-0.9-0.4-1.9-0.8-2.8-1.2C1065.6,151.4,1064.7,151.2,1063.8,151.2z"/>
	<path class="st1" d="M1085.2,172.3h-5.3v-20.7h-6.8v-4.4h19v4.4h-6.8V172.3z"/>
	<path class="st1" d="M1113.6,164.4c0,5.2-3.5,7.9-10.4,7.9h-7.3v-25.1h5.3v9.6h2.1c3.3,0,5.8,0.7,7.6,2S1113.6,162,1113.6,164.4z
		 M1101.2,167.9h1.8c1.8,0,3.1-0.3,4-0.9s1.3-1.5,1.3-2.6c0-1.2-0.4-2-1.3-2.5c-0.8-0.5-2.3-0.8-4.4-0.8h-1.4V167.9z"/>
</g>
<g class="st0">
	<path class="st1" d="M-0.5,461.2h7.8c3.6,0,6.2,0.5,7.8,1.5c1.6,1,2.4,2.6,2.4,4.8c0,1.5-0.4,2.7-1.1,3.7c-0.7,1-1.6,1.5-2.8,1.7
		v0.2c1.6,0.4,2.7,1,3.4,2c0.7,1,1.1,2.3,1.1,3.9c0,2.3-0.8,4.1-2.5,5.4c-1.7,1.3-3.9,1.9-6.7,1.9h-9.4V461.2z M4.8,471.2h3.1
		c1.4,0,2.5-0.2,3.1-0.7c0.6-0.4,1-1.2,1-2.2c0-1-0.4-1.7-1.1-2.1c-0.7-0.4-1.8-0.6-3.3-0.6H4.8V471.2z M4.8,475.4v6.6h3.5
		c1.5,0,2.6-0.3,3.2-0.8s1-1.4,1-2.6c0-2.1-1.5-3.1-4.5-3.1H4.8z"/>
	<path class="st1" d="M38.5,486.4l-1.8-6h-9.2l-1.8,6H20l8.9-25.2h6.5l8.9,25.2H38.5z M35.4,475.9c-1.7-5.4-2.6-8.5-2.8-9.2
		c-0.2-0.7-0.4-1.3-0.5-1.7c-0.4,1.5-1.5,5.1-3.2,10.9H35.4z"/>
	<path class="st1" d="M64.8,469.1c0,2.7-0.8,4.8-2.5,6.2s-4.1,2.1-7.2,2.1h-2.3v8.9h-5.3v-25.1h8c3,0,5.4,0.7,7,2
		S64.8,466.5,64.8,469.1z M52.8,473.1h1.8c1.6,0,2.9-0.3,3.7-1s1.2-1.6,1.2-2.8c0-1.2-0.3-2.2-1-2.8s-1.8-0.9-3.2-0.9h-2.4V473.1z"
		/>
	<path class="st1" d="M69.5,461.2h4.8v12.1l-0.1,3.2l-0.2,3.7h0.1l11.6-19.1h6.4v25.1h-4.7v-12.1c0-1.6,0.1-4,0.3-7.2h-0.1L76,486.4
		h-6.4V461.2z"/>
	<path class="st1" d="M113.9,486.4l-1.8-6h-9.2l-1.8,6h-5.7l8.9-25.2h6.5l8.9,25.2H113.9z M110.8,475.9c-1.7-5.4-2.6-8.5-2.8-9.2
		c-0.2-0.7-0.4-1.3-0.5-1.7c-0.4,1.5-1.5,5.1-3.2,10.9H110.8z"/>
	<path class="st1" d="M132.5,486.4h-5.3v-20.7h-6.8v-4.4h19v4.4h-6.8V486.4z"/>
	<path class="st1" d="M143.2,461.2h4.8v12.1l-0.1,3.2l-0.2,3.7h0.1l11.6-19.1h6.4v25.1h-4.7v-12.1c0-1.6,0.1-4,0.3-7.2h-0.1
		l-11.7,19.3h-6.4V461.2z"/>
	<path class="st1" d="M172.2,461.2h7.8c3.6,0,6.2,0.5,7.8,1.5c1.6,1,2.4,2.6,2.4,4.8c0,1.5-0.4,2.7-1.1,3.7c-0.7,1-1.6,1.5-2.8,1.7
		v0.2c1.6,0.4,2.7,1,3.4,2c0.7,1,1.1,2.3,1.1,3.9c0,2.3-0.8,4.1-2.5,5.4c-1.7,1.3-3.9,1.9-6.7,1.9h-9.4V461.2z M177.5,471.2h3.1
		c1.4,0,2.5-0.2,3.1-0.7c0.6-0.4,1-1.2,1-2.2c0-1-0.4-1.7-1.1-2.1c-0.7-0.4-1.8-0.6-3.3-0.6h-2.8V471.2z M177.5,475.4v6.6h3.5
		c1.5,0,2.6-0.3,3.2-0.8s1-1.4,1-2.6c0-2.1-1.5-3.1-4.5-3.1H177.5z"/>
	<path class="st1" d="M216.5,486.4h-5.3v-10.8h-10v10.8h-5.3v-25.1h5.3v9.9h10v-9.9h5.3V486.4z"/>
	<path class="st1" d="M245.6,473.8c0,4.2-1,7.4-3.1,9.6c-2.1,2.2-5,3.4-8.9,3.4c-3.9,0-6.8-1.1-8.9-3.4c-2.1-2.2-3.1-5.4-3.1-9.6
		c0-4.2,1-7.4,3.1-9.6c2.1-2.2,5-3.3,8.9-3.3s6.8,1.1,8.9,3.3C244.6,466.4,245.6,469.6,245.6,473.8z M227.3,473.8
		c0,2.8,0.5,4.9,1.6,6.3c1.1,1.4,2.7,2.1,4.8,2.1c4.3,0,6.4-2.8,6.4-8.5c0-5.7-2.1-8.5-6.3-8.5c-2.1,0-3.7,0.7-4.8,2.1
		C227.8,468.8,227.3,470.9,227.3,473.8z"/>
	<path class="st1" d="M261.5,465.3c-2,0-3.6,0.8-4.7,2.3c-1.1,1.5-1.7,3.6-1.7,6.3c0,5.6,2.1,8.4,6.3,8.4c1.8,0,3.9-0.4,6.4-1.3v4.5
		c-2.1,0.9-4.4,1.3-6.9,1.3c-3.7,0-6.5-1.1-8.4-3.3c-1.9-2.2-2.9-5.4-2.9-9.6c0-2.6,0.5-4.9,1.4-6.9c1-2,2.3-3.5,4.1-4.5
		s3.9-1.6,6.3-1.6c2.4,0,4.9,0.6,7.4,1.8l-1.7,4.3c-0.9-0.4-1.9-0.8-2.8-1.2C263.4,465.5,262.4,465.3,261.5,465.3z"/>
	<path class="st1" d="M283,486.4h-5.3v-20.7h-6.8v-4.4h19v4.4H283V486.4z"/>
	<path class="st1" d="M311.4,478.5c0,5.2-3.5,7.9-10.4,7.9h-7.3v-25.1h5.3v9.6h2.1c3.3,0,5.8,0.7,7.6,2S311.4,476.1,311.4,478.5z
		 M299,482h1.8c1.8,0,3.1-0.3,4-0.9s1.3-1.5,1.3-2.6c0-1.2-0.4-2-1.3-2.5c-0.8-0.5-2.3-0.8-4.4-0.8H299V482z"/>
</g>
<g class="st0">
	<path class="st1" d="M582.1,451.4l-1.8-6h-9.2l-1.8,6h-5.7l8.9-25.2h6.5l8.9,25.2H582.1z M579,440.9c-1.7-5.4-2.6-8.5-2.8-9.2
		c-0.2-0.7-0.4-1.3-0.5-1.7c-0.4,1.5-1.5,5.1-3.2,10.9H579z"/>
	<path class="st1" d="M611.5,451.4h-6.1l-9.1-12.7v12.7H591v-25.1h5.3v12.2l9-12.2h5.7l-9.2,12.1L611.5,451.4z"/>
	<path class="st1" d="M624.3,451.4H619v-20.7h-6.8v-4.4h19v4.4h-6.8V451.4z"/>
	<path class="st1" d="M654.8,426.2l-7.8,17.8c-1,2.2-1.9,3.8-2.7,4.8c-0.9,1-1.9,1.7-3,2.2c-1.2,0.5-2.6,0.7-4.3,0.7
		c-1.4,0-2.8-0.2-4-0.5v-4.6c1,0.4,2.3,0.6,3.8,0.6c1,0,1.7-0.2,2.3-0.7c0.6-0.4,1.1-1.2,1.5-2.3l-8.7-18.1h5.6l6.2,14h0.2l0.3-0.9
		l5.2-13.2H654.8z"/>
	<path class="st1" d="M673.4,451.4l-1.8-6h-9.2l-1.8,6h-5.7l8.9-25.2h6.5l8.9,25.2H673.4z M670.3,440.9c-1.7-5.4-2.6-8.5-2.8-9.2
		c-0.2-0.7-0.4-1.3-0.5-1.7c-0.4,1.5-1.5,5.1-3.2,10.9H670.3z"/>
	<path class="st1" d="M702.2,451.4h-5.3v-20.7h-6.2l-0.3,2.3c-0.7,5.9-1.3,10-1.9,12.3c-0.5,2.4-1.3,4-2.4,5s-2.5,1.4-4.2,1.4
		c-1,0-1.8-0.1-2.5-0.4V447c0.7,0.2,1.3,0.3,1.9,0.3c0.6,0,1.1-0.3,1.4-0.8c0.4-0.6,0.7-1.6,1-3.1c0.3-1.5,0.7-4,1.3-7.4
		c0.5-3.4,1-6.7,1.3-9.7h15.9V451.4z"/>
	<path class="st1" d="M726.2,443.5c0,5.2-3.5,7.9-10.4,7.9h-7.3v-25.1h5.3v9.6h2.1c3.3,0,5.8,0.7,7.6,2
		C725.3,439.2,726.2,441.1,726.2,443.5z M713.9,447h1.8c1.8,0,3.1-0.3,4-0.9s1.3-1.5,1.3-2.6c0-1.2-0.4-2-1.3-2.5
		c-0.8-0.5-2.3-0.8-4.4-0.8h-1.4V447z"/>
	<path class="st1" d="M751.6,451.4h-5.3v-10.8h-10v10.8H731v-25.1h5.3v9.9h10v-9.9h5.3V451.4z"/>
	<path class="st1" d="M780.8,438.8c0,4.2-1,7.4-3.1,9.6c-2.1,2.2-5,3.4-8.9,3.4c-3.9,0-6.8-1.1-8.9-3.4c-2.1-2.2-3.1-5.4-3.1-9.6
		c0-4.2,1-7.4,3.1-9.6c2.1-2.2,5-3.3,8.9-3.3s6.8,1.1,8.9,3.3C779.7,431.4,780.8,434.6,780.8,438.8z M762.4,438.8
		c0,2.8,0.5,4.9,1.6,6.3c1.1,1.4,2.7,2.1,4.8,2.1c4.3,0,6.4-2.8,6.4-8.5c0-5.7-2.1-8.5-6.3-8.5c-2.1,0-3.7,0.7-4.8,2.1
		C763,433.8,762.4,435.9,762.4,438.8z"/>
	<path class="st1" d="M796.6,430.3c-2,0-3.6,0.8-4.7,2.3c-1.1,1.5-1.7,3.6-1.7,6.3c0,5.6,2.1,8.4,6.3,8.4c1.8,0,3.9-0.4,6.4-1.3v4.5
		c-2.1,0.9-4.4,1.3-6.9,1.3c-3.7,0-6.5-1.1-8.4-3.3c-1.9-2.2-2.9-5.4-2.9-9.6c0-2.6,0.5-4.9,1.4-6.9s2.3-3.5,4.1-4.5
		c1.8-1,3.9-1.6,6.3-1.6c2.4,0,4.9,0.6,7.4,1.8l-1.7,4.3c-0.9-0.4-1.9-0.8-2.8-1.2C798.5,430.5,797.6,430.3,796.6,430.3z"/>
	<path class="st1" d="M818.1,451.4h-5.3v-20.7h-6.8v-4.4h19v4.4h-6.8V451.4z"/>
	<path class="st1" d="M846.5,443.5c0,5.2-3.5,7.9-10.4,7.9h-7.3v-25.1h5.3v9.6h2.1c3.3,0,5.8,0.7,7.6,2
		C845.6,439.2,846.5,441.1,846.5,443.5z M834.1,447h1.8c1.8,0,3.1-0.3,4-0.9s1.3-1.5,1.3-2.6c0-1.2-0.4-2-1.3-2.5
		c-0.8-0.5-2.3-0.8-4.4-0.8h-1.4V447z"/>
</g>
<g class="st0">
	<path class="st1" d="M938.5,508.3c0,4.2-1,7.4-3.1,9.6c-2.1,2.2-5,3.4-8.9,3.4c-3.9,0-6.8-1.1-8.9-3.4c-2.1-2.2-3.1-5.4-3.1-9.6
		c0-4.2,1-7.4,3.1-9.6c2.1-2.2,5-3.3,8.9-3.3c3.9,0,6.8,1.1,8.9,3.3C937.5,500.9,938.5,504.1,938.5,508.3z M920.1,508.3
		c0,2.8,0.5,4.9,1.6,6.3c1.1,1.4,2.7,2.1,4.8,2.1c4.3,0,6.4-2.8,6.4-8.5c0-5.7-2.1-8.5-6.3-8.5c-2.1,0-3.7,0.7-4.8,2.1
		C920.7,503.3,920.1,505.5,920.1,508.3z"/>
	<path class="st1" d="M963.6,520.9h-5.3v-20.7H949v20.7h-5.3v-25.1h19.9V520.9z"/>
	<path class="st1" d="M979.6,520.9h-5.3v-20.7h-6.8v-4.4h19v4.4h-6.8V520.9z"/>
	<path class="st1" d="M990.3,495.7h4.8v12.1l-0.1,3.2l-0.2,3.7h0.1l11.6-19.1h6.4v25.1h-4.7v-12.1c0-1.6,0.1-4,0.3-7.2h-0.1
		l-11.7,19.3h-6.4V495.7z"/>
	<path class="st1" d="M1030,520.9l-6.1-19.7h-0.2c0.2,4,0.3,6.7,0.3,8v11.7h-4.8v-25.1h7.3l5.9,19.2h0.1l6.3-19.2h7.3v25.1h-5V509
		c0-0.6,0-1.2,0-1.9s0.1-2.7,0.2-5.8h-0.2l-6.5,19.7H1030z"/>
	<path class="st1" d="M1052.5,495.7h4.8v12.1l-0.1,3.2l-0.2,3.7h0.1l11.6-19.1h6.4v25.1h-4.7v-12.1c0-1.6,0.1-4,0.3-7.2h-0.1
		l-11.7,19.3h-6.4V495.7z"/>
	<path class="st1" d="M1098.9,501.6c0,1.6-0.6,3-1.7,4c-1.1,1.1-2.7,1.7-4.7,2v0.1c2.3,0.2,4.1,0.9,5.3,1.9s1.8,2.4,1.8,4.1
		c0,2.3-0.9,4.1-2.8,5.5c-1.9,1.3-4.5,2-7.8,2c-3.7,0-6.7-0.5-8.9-1.4v-4.5c1.1,0.5,2.3,0.9,3.8,1.2c1.5,0.3,2.8,0.4,4.1,0.4
		c4.2,0,6.3-1.2,6.3-3.7c0-1.1-0.7-2-2-2.6s-3.4-0.9-6-0.9h-2.4v-4.2h2.1c2.7,0,4.6-0.3,5.8-0.8c1.2-0.5,1.8-1.3,1.8-2.5
		c0-0.9-0.4-1.5-1.1-2.1c-0.8-0.5-1.9-0.8-3.4-0.8c-2.4,0-4.6,0.7-6.8,2l-2.3-3.6c1.4-1,3-1.6,4.6-2.1c1.6-0.4,3.4-0.7,5.3-0.7
		c2.7,0,4.9,0.6,6.6,1.7C1098,498.2,1098.9,499.7,1098.9,501.6z"/>
	<path class="st1" d="M1119.7,520.9l-1.8-6h-9.2l-1.8,6h-5.7l8.9-25.2h6.5l8.9,25.2H1119.7z M1116.6,510.4c-1.7-5.4-2.6-8.5-2.8-9.2
		c-0.2-0.7-0.4-1.3-0.5-1.7c-0.4,1.5-1.5,5.1-3.2,10.9H1116.6z"/>
	<path class="st1" d="M1148.5,516.6h3.7v11.6h-5.1v-7.3h-18.5v-25.1h5.3v20.7h9.2v-20.7h5.3V516.6z"/>
	<path class="st1" d="M1156.1,495.7h4.8v12.1l-0.1,3.2l-0.2,3.7h0.1l11.6-19.1h6.4v25.1h-4.7v-12.1c0-1.6,0.1-4,0.3-7.2h-0.1
		l-11.7,19.3h-6.4V495.7z"/>
	<path class="st1" d="M1193.5,511.2l-5.9,9.6h-5.9l7.2-11.1c-1.4-0.6-2.5-1.5-3.3-2.7s-1.1-2.6-1.1-4.2c0-2.3,0.8-4.1,2.5-5.3
		c1.6-1.2,4-1.9,7-1.9h8.2v25.1h-5.3v-9.6H1193.5z M1196.9,500.1h-2.6c-1.4,0-2.4,0.2-3.2,0.7c-0.8,0.5-1.1,1.3-1.1,2.5
		c0,1.1,0.4,2,1.1,2.6c0.7,0.6,1.9,1,3.4,1h2.5V500.1z"/>
</g>
<g class="st0">
	<path class="st1" d="M205.2,192.4h-5.3v-20.7h-9.3v20.7h-5.3v-25.1h19.9V192.4z"/>
	<path class="st1" d="M228.9,175.1c0,2.7-0.8,4.8-2.5,6.2s-4.1,2.1-7.2,2.1h-2.3v8.9h-5.3v-25.1h8c3,0,5.4,0.7,7,2
		S228.9,172.5,228.9,175.1z M216.9,179.1h1.8c1.6,0,2.9-0.3,3.7-1s1.2-1.6,1.2-2.8c0-1.2-0.3-2.2-1-2.8s-1.8-0.9-3.2-0.9h-2.4V179.1
		z"/>
	<path class="st1" d="M249,192.4l-1.8-6h-9.2l-1.8,6h-5.7l8.9-25.2h6.5l8.9,25.2H249z M246,181.9c-1.7-5.4-2.6-8.5-2.8-9.2
		c-0.2-0.7-0.4-1.3-0.5-1.7c-0.4,1.5-1.5,5.1-3.2,10.9H246z"/>
	<path class="st1" d="M273.8,167.2v4.4h-10.6v20.7H258v-25.1H273.8z"/>
	<path class="st1" d="M288.4,192.4l-6.1-19.7h-0.2c0.2,4,0.3,6.7,0.3,8v11.7h-4.8v-25.1h7.3l5.9,19.2h0.1l6.3-19.2h7.3v25.1h-5
		v-11.9c0-0.6,0-1.2,0-1.9s0.1-2.7,0.2-5.8h-0.2l-6.5,19.7H288.4z"/>
	<path class="st1" d="M326.3,192.4l-1.8-6h-9.2l-1.8,6h-5.7l8.9-25.2h6.5l8.9,25.2H326.3z M323.2,181.9c-1.7-5.4-2.6-8.5-2.8-9.2
		c-0.2-0.7-0.4-1.3-0.5-1.7c-0.4,1.5-1.5,5.1-3.2,10.9H323.2z"/>
	<path class="st1" d="M344.9,192.4h-5.3v-20.7h-6.8v-4.4h19v4.4h-6.8V192.4z"/>
	<path class="st1" d="M355.6,167.2h4.8v12.1l-0.1,3.2l-0.2,3.7h0.1l11.6-19.1h6.4v25.1h-4.7v-12.1c0-1.6,0.1-4,0.3-7.2h-0.1
		L362,192.4h-6.4V167.2z"/>
	<path class="st1" d="M402,173.1c0,1.6-0.6,3-1.7,4c-1.1,1.1-2.7,1.7-4.7,2v0.1c2.3,0.2,4.1,0.9,5.3,1.9c1.2,1,1.8,2.4,1.8,4.1
		c0,2.3-0.9,4.1-2.8,5.5c-1.9,1.3-4.5,2-7.8,2c-3.7,0-6.7-0.5-8.9-1.4v-4.5c1.1,0.5,2.3,0.9,3.8,1.2c1.4,0.3,2.8,0.4,4.1,0.4
		c4.2,0,6.3-1.2,6.3-3.7c0-1.1-0.7-2-2-2.6s-3.4-0.9-6-0.9H387v-4.2h2.1c2.7,0,4.6-0.3,5.8-0.8c1.2-0.5,1.8-1.3,1.8-2.5
		c0-0.9-0.4-1.5-1.1-2.1c-0.8-0.5-1.9-0.8-3.4-0.8c-2.4,0-4.6,0.7-6.8,2l-2.3-3.6c1.4-1,3-1.6,4.6-2.1c1.6-0.4,3.4-0.7,5.3-0.7
		c2.7,0,4.9,0.6,6.6,1.7C401.1,169.7,402,171.2,402,173.1z"/>
	<path class="st1" d="M418,192.4l-6.1-19.7h-0.2c0.2,4,0.3,6.7,0.3,8v11.7h-4.8v-25.1h7.3l5.9,19.2h0.1l6.3-19.2h7.3v25.1h-5v-11.9
		c0-0.6,0-1.2,0-1.9s0.1-2.7,0.2-5.8h-0.2l-6.5,19.7H418z"/>
</g>
</svg>
