<svg id="fa7f20a2-8a60-4237-bb15-72005cb85f0b" data-name="Слой 2" xmlns="http://www.w3.org/2000/svg" viewBox="0 0 1260 605"><path d="M192.37,356.91H159.59v-49.2H121.7v49.2H88.93V236.22H121.7V281h37.89V236.22h32.78Z" style="fill:#fecd30"/><path d="M292.5,356.91l-5.94-22.62H247.35l-6.11,22.62H205.41l39.38-121.19h43.5l39.88,121.19Zm-12.71-49.36-5.2-19.82q-1.81-6.6-4.42-17.09t-3.42-15q-.75,4.22-2.93,13.87t-9.7,38.06Z" style="fill:#fecd30"/><path d="M499.13,356.91H341.21V236.22H374v94h30.13v-94h32.12v94h30v-94h32.85Z" style="fill:#fecd30"/><path d="M599.19,356.91l-6-22.62H554l-6.11,22.62H512.09l39.38-121.19H595l39.87,121.19Zm-12.72-49.36-13-51.93L560.8,307.55Z" style="fill:#fecd30"/><path d="M745.55,261.23a20.79,20.79,0,0,0-18.16,9.54q-6.52,9.53-6.52,26.29,0,34.85,26.5,34.84a54.13,54.13,0,0,0,15.52-2.23A154.61,154.61,0,0,0,778,324.3v27.58q-15.12,6.67-34.18,6.68-27.33,0-41.9-15.85T687.35,296.9q0-18.75,7.06-32.94a50.54,50.54,0,0,1,20.31-21.84q13.24-7.63,31.16-7.63a85.83,85.83,0,0,1,37.4,8.5l-10,25.67a112.3,112.3,0,0,0-13.37-5.28A46.81,46.81,0,0,0,745.55,261.23Z" style="fill:#fecd30"/><path d="M801.52,236.22h29.06s.88,68.35,0,84.86h-.66l48.13-84.86h40.29V356.91H890.93s-1-69.62,0-84.86h-.66l-48.54,84.86H801.52Z" style="fill:#fecd30"/><path d="M1047.2,356.91h-32.77v-94h-23q-1.89,20.56-5.07,41.86t-6.07,29.88a40.14,40.14,0,0,1-7.31,13.67A28,28,0,0,1,962,356a47.76,47.76,0,0,1-28.57.79V331.57a27,27,0,0,0,8.09,1.65,7.33,7.33,0,0,0,6.57-3.59q2.26-3.6,4.17-12.22t5.28-32q3.38-23.4,6.27-49.16h83.38Z" style="fill:#fecd30"/><path d="M1147.34,356.91l-5.95-22.62h-39.21l-6.11,22.62h-35.83l39.38-121.19h43.51L1183,356.91Zm-12.72-49.36-5.2-19.82q-1.82-6.6-4.41-17.09t-3.43-15q-.74,4.22-2.93,13.87t-9.7,38.06Z" style="fill:#fecd30"/><path d="M737.05,266.9a20.78,20.78,0,0,0-18.16,9.54q-6.52,9.53-6.52,26.29,0,34.84,26.5,34.84a54.18,54.18,0,0,0,15.52-2.23,154.45,154.45,0,0,0,15.1-5.37v27.58q-15.11,6.68-34.17,6.68-27.33,0-41.9-15.85t-14.57-45.81q0-18.75,7.06-32.94a50.42,50.42,0,0,1,20.31-21.84q13.24-7.64,31.16-7.63a85.86,85.86,0,0,1,37.4,8.5l-10,25.67a112.44,112.44,0,0,0-13.38-5.28A46.69,46.69,0,0,0,737.05,266.9Z" style="fill:none;stroke:#050505;stroke-miterlimit:10;stroke-width:3px"/><path d="M793,241.89h29.06s-.44,68.35-1.32,84.86h.66l48.13-84.86h40.28V362.58H881.76s-.33-69.62.66-84.86h-.66l-48.54,84.86H793Z" style="fill:none;stroke:#050505;stroke-miterlimit:10;stroke-width:3px"/><path d="M1038.7,362.58h-32.78v-94h-23q-1.9,20.57-5.08,41.86t-6.06,29.88A40.16,40.16,0,0,1,964.44,354a27.86,27.86,0,0,1-10.94,7.68,47.73,47.73,0,0,1-28.56.79V337.24a26.9,26.9,0,0,0,8.09,1.65,7.31,7.31,0,0,0,6.56-3.59c1.52-2.4,2.9-6.47,4.17-12.22s3-16.43,5.28-32,4.35-32,6.28-49.16h83.38Z" style="fill:none;stroke:#050505;stroke-miterlimit:10;stroke-width:3px"/><path d="M1138.83,362.58,1132.89,340h-39.21l-6.11,22.62h-35.83l39.38-121.19h43.5l39.88,121.19Zm-12.71-49.37-5.2-19.81q-1.82-6.6-4.42-17.09t-3.42-15q-.75,4.21-2.93,13.87t-9.7,38Z" style="fill:none;stroke:#050505;stroke-miterlimit:10;stroke-width:3px"/></svg>