<svg xmlns="http://www.w3.org/2000/svg" width="380" height="402" viewBox="0 0 380 402"><g><g><path fill="#fecd30" d="M379.477 9.952c.297.431-.008.683.002 1.026-.527-.036-1.109.01-1.256-.58z"/></g><g><path fill="#fecd30" d="M333.038 6.136c-1.466.666-1.882-.26-3.204.186-1.278.21-.838.872-1.316 1.296-7.294 2.019-13.92 5.178-19.133 8.853-.051-.533-.631-.25-1.131-.052-.366-1.027-.172-1.93.32-2.751 6.618-3.72 13.077-6.26 19.385-10.254.448 2.793 4.4.288 5.079 2.722z"/></g><g><path fill="#fecd30" d="M259.676 35.036c-.654-.174-1.75.47-2.078-.312.938-.35 1.63-.247 2.078.312z"/></g><g><path fill="#fecd30" d="M279.965 90.057c-.977.904-3.328 2.196-4.197 1.558-1.21 1.538-2.277 3.14-4.804 4.474-.432-.28-.88-.533-1.237-.981.982-1.563 2.806-3.91 4.764-5.322 1.984-1.368 4.07-1.83 5.474.27z"/></g><g><path fill="#fecd30" d="M200.777 77.763c1.36-.556-.673 1.184.39.612.076.576-1.565 1.164-1.689.525.342-.388 1.624-.735 1.3-1.137z"/></g><g><path fill="#fecd30" d="M166.267 97.883c.451.45.515.915-.25 1.405-.455-.45-.52-.915.25-1.405z"/></g><g><path fill="#fecd30" d="M127.793 140.29c-2.065.764-.778 1.797-2.567 1.76-1.024 1.608-2.59 3.066-4.215 4.474-1.615 1.42-3.339 2.738-4.519 4.211-1.194 1.436-1.833 3.22-2.974 4.761a71.202 71.202 0 0 1-3.67 4.514c-1.286 1.49-2.687 2.905-3.99 4.42-2.656 2.981-5.402 5.89-7.914 8.75l-2.172 2.485a110.68 110.68 0 0 1-2.093 2.51c-1.404 1.621-2.83 3.111-4.317 4.292-.405-2.364.955-4.755 2.841-7.004.472-.562.973-1.118 1.494-1.657a70.616 70.616 0 0 1 1.637-1.534c1.092-.998 2.161-1.944 3.052-2.826.526-.855.801-1.662.898-2.427 2.357-2.276 4.284-4.636 6.126-6.875 1.863-2.214 3.545-4.405 5.236-6.494 1.691-2.089 3.393-4.076 5.29-5.878 1.956-1.733 4.111-3.277 6.635-4.542.89-1.739 2.416-2.436 3.493-4.3.295-.13.59-.265.827-.117.588-.085.743.914.902 1.477z"/></g><g><path fill="#fecd30" d="M100.796 177.954c-.52 1.032-1.9 2.965-2.762 2.067-.306 1.42-1.894 1.93-2.82 3.366-3.939 2.857-7.915 6.805-11.66 11.351-1.91 2.243-3.848 4.567-5.848 6.865-1.02 1.135-1.973 2.326-2.962 3.487a105.991 105.991 0 0 1-3.03 3.417c-1.179-.284-.434-1.244-.389-1.958 1.683-1.755 2.606-3.664 3.611-5.494 1.037-1.804 2.102-3.57 3.936-5.086 1.232-2.81 3.478-5.143 5.884-7.27 2.483-2.065 5.155-3.899 7.151-5.882 1.116-.472 2.423-1.39 3.725-2.556 1.306-1.162 2.581-2.596 3.757-3.996.475-.046 1.221 1.06 1.407 1.69z"/></g><g><path fill="#fecd30" d="M80.765 204.208l.583.434c-1.291 2.621-3.593 4.386-4.71 6.956-.547-.988.294-2.456.184-3.6 1.516-1.512 2.15-3.085 3.943-3.79z"/></g><g><path fill="#fecd30" d="M70.531 208.92c1.104.478-1.122 2.904-1.772 3.341.054-1.391 1.366-1.966 1.772-3.341z"/></g><g><path fill="#fecd30" d="M34.405 268.1c.606.777 1.445 3.59-.474 4.307.213 3.725-2.018 7.018-3.127 11.277-.772-.683-1.513 1.355-1.403 1.987.807.192-.063-1.458.856-.745-.756 2.73-2.098 5.163-2.177 7.175-.4-.058-.27-.455-.55-.586-.282-.058-.416.496-.6.854-.395-.285.76-2.898.85-1.487.252-.555-.008-.777.276-1.356-.78 1.053-1.115-.903-1.742 1.125-.295-.202.294-.977-.074-1.134.426-.473 1.015-.26 1.493-.49-.111-1.16 1.926-4.726.468-4.236-.145-1.587 3.41-3.397 2.56-5.21 1.03-1.865 1.415-3.485 1.789-5.274.189-.893.365-1.832.638-2.854a27.94 27.94 0 0 1 1.217-3.352z"/></g><g><path fill="#fecd30" d="M27.581 293.362c-.418.572-1.186 1.015-1.372.182.306-.679.833-.452 1.372-.182z"/></g><g><path fill="#fecd30" d="M27.382 295.832c-.284 1.03-.933.593-1.296 1.312-.419-.699.776-1.695 1.296-1.312z"/></g><g><path fill="#fecd30" d="M24.06 299.634c.792.46-.79 1.764-.668 3.013-.707-.39.364-1.954.668-3.013z"/></g><g><path fill="#fecd30" d="M22.714 304.564c.181.679.672 1.142.234 2.249-.395-.53-.483-1.27-.234-2.25z"/></g><g><path fill="#fecd30" d="M2.35 336.503c-.473 1.028-1.12 1.566-1.943 1.619.683-.443 1.05-1.758 1.943-1.619z"/></g><g><path fill="#fecd30" d="M64.773 293.561c-.703.37-.377-.316-.76-.678.206 2.301-1.063 3.841-2.564 5.356-.743.76-1.572 1.498-2.247 2.337-.667.842-1.23 1.761-1.53 2.835-.573-.617-.725.24-1.126.22-1.272 3.59-3.056 5.675-4.484 8.708-2.309 5.256-1.663 10.643-3.195 15.532a276.155 276.155 0 0 1-3.57 11.938l-.91 2.807-.794 2.774-1.506 5.361c-.348 1.273-.05 2.781-1.454 3.522-.626-5.219 1.126-11.88 3.396-18.21 1.094-3.183 2.13-6.353 2.946-9.298.87-2.925 1.405-5.667 1.282-8.089-1.309.76-1.88 2.598-2.364 4.54-3.257 3.333-6.677 5.596-10.339 7.558-3.643 1.971-7.417 3.68-10.995 6.055-1.125 3.094-.234 2.64-.852 5.918.477 2.637 3.616 4.4 2.814 7.2 3.991 3.737 3.085 11.495 2.348 19.181-.34 3.796-.079 5.177-1.138 9.273-.464 1.838-1.687 2.796-2.294 4.144-.086.184.233.827-.01 1.307-.418.833-1.147 1.631-1.849 2.482-.688.853-1.38 1.755-1.784 2.774-.646 1.627-.153 3.537-1.682 4.322-.29 3.035-1.908 6.528-3.744 7.981-2.24-.899.93-3.862-.464-4.693.18-.647.62-.785.928-1.178.204-2.52.834-4.736 1.672-6.79.42-1.029.89-2.017 1.386-2.986.507-.966 1.08-1.905 1.626-2.847 2.214-3.773 4.388-7.532 4.863-12.682.645-5.1.694-9.274.632-14.466-.754-.759-2.149-1.989-1.937-4.179-1.855-3.654-4.609-8.707-4.495-14.878 2.824-4.944 6.808-6.71 10.562-8.862 1.635-1.51 3.302-2.843 5.012-4.116 1.753-1.257 3.512-2.464 5.236-3.75a43.032 43.032 0 0 0 2.596-7.507c.153-.618.293-1.234.42-1.848.144-.608.286-1.21.411-1.813a63.65 63.65 0 0 0 .64-3.593c.355-2.383.586-4.738.787-7.062l.298-3.459.44-3.354c.34-.265.644-.67.878-1.388-1.089-2.458.675-5.164.725-8.235.231-1.048.904-.077 1.185-.89-.35-2.717.985-5.607 2.38-8.503 1.431-2.882 2.96-5.752 3.41-8.325 2.145-2.489 3.726-5.603 5.246-8.564.761-1.479 1.503-2.92 2.292-4.214.841-1.264 1.722-2.388 2.697-3.262l4.951-7.74 1.211-1.91 1.257-1.837 2.395-3.568c1.07-1.622 1.712-3.356 2.302-5.085.596-1.725 1.098-3.473 2.033-5.004.503-.857 2.316-2.486 3.051-3.467.514-.684.835-1.845 1.321-2.28 1.355-1.216 2.865-1.332 4.405-1.626 1.554-.287 3.073-.794 4.66-2.65.937-.8-.267-.994.017-1.61 1.71-1.559 3.44-4.316 5.114-4.249 1.002-1.383 1.897-2.78 2.758-4.179.855-1.4 1.776-2.722 2.68-4.064 1.831-2.662 3.816-5.235 6.502-7.517 1.242-2.018 2.922-3.822 4.614-5.665l5.234-5.45c.868-.906 1.69-1.842 2.52-2.747a43.88 43.88 0 0 0 2.373-2.742c1.474-1.865 2.705-3.817 3.533-5.92 1.216-1.11 1.77-2.118 2.345-3.13.29-.507.578-1.017.964-1.534a9.783 9.783 0 0 1 1.556-1.559c-2.525.258-5.033 1.074-7.606 2.108-3.172 3.77-6.729 5.394-10.3 7.13-3.48 1.815-7.005 3.716-10.09 7.83l-.542-.482c-.856 1.836-2.824 1.682-4.058 3.118-1.992 2.251-2.207 5.361-2.9 7.606-.66.083-1.332.32-2 .507-.409-1.932 1.266-4.276 2.014-6.174.304-.77.535-1.55 1.02-2.42.488-.865 1.201-1.846 2.576-2.906 1.563-1.235 3.445-1.583 4.87-2.852 1.28-1.137 2.33-3.234 3.505-3.144.465-.633.715-1.22.993-1.815 1.155-.804 2.13-.624 3.432-2.28 4.443.503 8.626-5.17 12.321-8.43.596-.918.878.23 1.373-.018 2.625-3.165 5.363-5.676 8.043-8.085 1.341-1.205 2.668-2.386 3.964-3.613 1.335-1.185 2.65-2.407 3.911-3.755 1.668-1.774 3.07-3.602 4.691-5.447 1.62-1.845 3.44-3.727 6.065-5.437.733-.748 1.112-.128 1.646-.097.706-1.795 3.041-3.686 4.07-5.507-.897-.649-3.127.424-3.224-.802 1.145-.239 2.094.244 3.18.214 5.41-3.642 8.775-8.81 13.678-13.373-.817-1.109-2.383.216-3.322-.516.547.003 1.307-.69 2.02-1.228-.73-.73-1.737-.563-2.769-.329-.602.734.986.317.46 1.171-1.435.88-2.667 1.107-3.46-.108-1.297.77-2.009 1.621-3.158.88-1.932 1.184-3.635 2.312-5.128 3.498-1.493 1.188-2.844 2.338-4.177 3.432-2.666 2.187-5.255 4.143-8.785 5.725-2.928 2.354-7.114 5.712-10.025 7.137-.679.883-1.686 1.822-2.86 2.728-1.182.898-2.519 1.78-3.82 2.595.294-1.64 1.944-1.628 2.933-2.353 4.447-3.338 8.557-7.69 13.148-10.848 2.406-1.58 4.426-2.448 7.572-5.243.511-.455.522-.908 1.013-1.45.855-.947 1.838-1.799 2.885-2.606 1.04-.819 2.161-1.569 3.311-2.289 2.281-1.468 4.571-2.964 6.392-4.925-1.08-.94-2.445-.983-3.926-.662-2.659 1.968-4.575 3.523-6.188 4.961-1.596 1.463-2.937 2.744-4.52 4.068-.865-2.56 1.052-4.116 3.354-6.784 1.073-.54 2.174-1.18 3.053-1.104 2.276-1.935 4.49-3.816 6.67-5.672l3.283-2.738 1.653-1.335 1.708-1.249c4.591-3.28 9.431-6.269 15.15-8.554-.367.396.123.221.421.013l-2.949 2.935c0-.399.341-.792.838-1.187-1.479-.596-1.826 1.948-3.058.976-.69.748-.105.52.275.991-.955.344-1.616-.15-2.923 1.18-.532.59-.413 1.183-.415 1.774 1.13-.59.955-1.182 2.085-1.77.67.466 1.554.325 2.36.405.192-.328-.032-.658.555-.987 1.148-.86.207.31.414.596 1.69-.52 4.262-1.578 3.906-3.313 2.22.058 7.544-2.037 7.65-5.044 2.124-.245 4.648-2.578 7.296-4.802 2.695-2.138 5.52-4.149 8.084-3.847 2.697-2.287 4.812-3.48 7.617-4.398 4.53-3.79 10.346-7.805 16.336-11.559 6.045-3.64 12.383-6.774 17.881-8.923 1.488-1.822 3.63-3.432 6.973-4.904 3.464-2.833 3.198-6.264 5.595-9.288-.466-.383-1.236-.19-1.95-.107.445-1.338 2.735-.436 3.046-1.524-.917-1.318-3.972 1.356-6.153.643-3.56 1.767-5.994 1.751-9.004 3.425-1.487.813-2.064 2.444-3.28 3.34-1.734 1.265-3.657.998-4.83 2.586-.618.057-.74-.872-1.475-.58-2.19 2.906-7.123 4.192-10.885 7.25-3.877 3.225-6.782 6.9-9.243 10.042-.566.444-.867.305-1.308.47-.97 1.535-1.808 1.905-3.227 3.252-.062-.853-.253-.486-.74-1.245.376-.046.59.3 1.134-.099.853-.448.393-1.013.691-1.514 2.96-.173 4.072-4.124 6.39-5.339.68-2.828 2.39-4.96 5.064-7.088 2.3-1.845 5.234-2.29 7.775-3.676 3.578-1.914 7.392-4.775 10.665-6.26.412-.283-.226-.697.271-.969 3.72-3.464 8.968-3.628 13.62-4.947 2.94-.802 5.652-4.04 8.91-2.774 3.44-2.763 7.542-5.207 11.715-6.998 2.088-.89 4.186-1.64 6.242-2.142 2.064-.478 4.071-.755 5.946-.79 2.522-1.144 4.965-2.153 6.822-2.189 2.59-1.952 4.98-2.613 7.387-3.269 2.421-.619 4.875-1.198 7.604-3.07.21-.69.49-1.366.202-2.174 2.23-.818 3.965-.859 5.35-.353 2.215-2.197 6.406-3.408 8.084-5.364 1.121.282 3.686-1.096 4.661-2.035-.279-.625-1.566-.503-.93-1.459 1.14-.164 1.256 1.207 2.053 1.547 1.133-1.1 3.643-2.229 4.376-.89 3.392-1.596 6.718-2.159 10.211-2.706 3.501-.52 7.195-.943 11.31-2.402 3.18.127 6.71-.257 8.505 1.85 1.19-.289 1.958-.715 2.847.012-1.266 1.553.088 1.59.085 3.308-.844.607-1.047.442-1.969.445-1.41 2.547.908 5.728-1.117 8.867-2.403 1.194-2.194 3.153-5.6 4.047.508.994 2.381-.022 3.763-.31.237.551.834.496.405 1.136 3.21.165 4.886 1.89 7.21 2.57 1.642 2.74.815 4.532.397 7.046-7.07 3.76-1.279 7.957.067 12.81 3.23 1.524 2.217 4.42 1.538 7.155-2.356 2.757-8.186 2.94-11.286 2.802-.349-.41-.984-.363-1.105-1.132-.643-.666-1.973-.247-2.913-.444-1.647-2.832-4.716-3.318-7.267-5.51-2.542.206-5 .76-7.389 1.545a40.991 40.991 0 0 0-3.528 1.344 61.188 61.188 0 0 0-3.399 1.678c-4.476 2.371-8.727 5.2-12.922 7.573-1.047-.587-2.02 1.031-2.975.441-4.809 3.247-11.742 6.404-16.785 6.803-.713.43-1.226.905-1.482 1.438-1.009.34-1.584-.048-2.453.065-2.484 1.363-4.51 1.877-6.64 2.572-3.074-.644-8.374 1.447-11.7 2.535-3.582 2.946-10.339 5.362-12.119 9.04-1.917.797-3.542 1.646-4.909 2.605a26.897 26.897 0 0 0-3.533 3c-2.043 2.047-3.589 4.146-5.403 6.051-3.162.726-5.539 4.257-7.79 5.091-.306.22-.017.518.077.79-3.256 2.51-6.725 3.994-9.99 6.29-1.417.488-2.91.81-4.36 1.174-1.447.367-2.89.718-4.272 1.165-6.806 2.226-11.83 6.69-17.27 9.72-1.076 2.14-3.945 2.315-6.535 3.44-3.34 1.392-6.108 4.416-8.709 4.808-1.382 1.643-3.492 3.786-5.757 5.693-1.126.962-2.318 1.834-3.433 2.614-1.11.784-2.194 1.416-3.183 1.802-.916 1.3-1.905 1.628-2.458 3.083l-4.396 3.49c-1.519 1.184-3.076 2.394-4.592 3.698-3.075 2.556-6.247 5.19-9.41 7.82-1.609 1.286-3.105 2.688-4.623 4.036-1.509 1.36-3.003 2.706-4.47 4.03l-4.284 3.906c-1.359 1.305-2.633 2.62-3.87 3.87-1.782 1.814-2.658 4.101-4.933 5.33-.319.958-.842 2.002-1.502 3.066-.657 1.066-1.39 2.208-2.227 3.28-1.657 2.156-3.599 4.145-5.326 5.451-1.229 1.981-2.644 3.925-3.307 5.891-1.769.767-2.326 2.583-3.549 3.918-1.256 1.371-2.6 2.597-4.002 3.738a56.57 56.57 0 0 1-2.142 1.654l-2.123 1.631c-2.85 2.144-5.799 4.171-8.542 6.511-.342.584-.65.24-.969.022-1.33 1.268-2.59 2.671-3.9 4.076a146.285 146.285 0 0 0-3.867 4.337c-1.255 1.478-2.466 2.981-3.559 4.512-1.036 1.573-1.968 3.166-2.74 4.767-1.5 3.113-2.082 6.328-3.25 9.175l-1.192 1.828c-.752 2.481-1.529 4.97-2.384 7.42-.839 2.46-1.84 4.824-2.772 7.23-.973 2.381-2.08 4.677-3.38 6.85-1.3 2.172-2.82 4.207-4.433 6.175-1.392 1.644-1.769 4.093-3.505 5.475-.396 1.435-.984 2.846-1.7 4.232-.718 1.384-1.455 2.801-2.31 4.157-1.68 2.726-3.602 5.338-5.216 7.762-.105 1.338-.553 2.61-1.205 3.814-.653 1.203-1.504 2.341-2.324 3.445zM370.63 25.677c1.056-1.239-.957-3.267-2.366-1.725.788-.006 1.551.031 2.19.25.081.498-1.082.625-.995 1.123.377-.094.863-.353 1.008-.104-.31.114-.244.54.163.456zm-22.4.29c1.47-1.632 5.566-1.42 6.415-2.702.768-1.158-1.257-1.586-2.314-1.448-1.045.135-5.214 2.102-4.1 4.15zm-7.514 6.226c-3.389 1.107-4.448.786-7.49 1.712 1.927 1.29 5.504-.877 7.623-.467.157-.36.172-.76-.133-1.245zm-11.245.372c-.924.504-1.248.037-2.238.65.445.52 1.4.213 1.986.497-.174-.448.723-.627.252-1.147zm1.267 5.75c-.387-1.357-1.87-.929-2.532-1.839-1.9 1.797-5.947 2.186-9.15 2.95-1.792 2.788-6.52 4.941-8.952 7.584 3.002-.55 5.46-3.788 8.787-5.418 3.895-1.813 8.125-2.556 11.847-3.277zm-4.428-4.723c-1.707.33-2.37.384-3.685 1.503.611 1.195 2.77-.106 3.962-.829l-.277-.674zm-4.268.957c-1.497.248-1.237 1.705.063 1.021-.184-.38-.22-.722-.063-1.02zm-2.166-4.339c-1.599-1.66-3.69-2.015-6.03-1.705-2.324.357-4.889 1.394-7.459 2.45-4.989 2.05-8.908 2.536-13.104 4.403-4.953 5.025-11.148 5.811-17.96 9.992 2.038 3-2.229 4.037-1.687 6.498 14.143-4.188 24.207-9.713 35.073-16.367.303-.469-.337-1.145.44-1.51 2.567-.938 2.777-2.554 4.826-3.162 1.11-.338 2.282.331 3.646.061.706-.136 1.55-1.26 2.255-.66zm-24.316 2.834c1.281-2.996 8.33-4.772 7.827-8.168-1.792-.715-3.915 1.24-6.587 1.821-1.436.311-3.28-.13-4.724.218-3.405.783-5.68 1.935-7.33 3.284-1.644 1.372-2.629 3.038-3.369 5.114-2.335.381-2.54 3.083-4.693 3.526 3.04.747 8.82-3.893 12.244-4.92 1.506-.252 2.715-.082 4.693-1.083.74-.088.957.707 1.94.208zm13.737 14.584c-.763.28-2.576.416-2.22 1.5 1.112-.86 1.811-.567 2.22-1.5zm-43.86 21.843c-6.57 1.045-12.685 3.63-18.775 6.631-6.035 3.11-11.917 6.865-18.184 10.183-1.43 2.565-3.835 6.09-3.54 8.134 1.512-2.575 4.472-3.604 7.43-4.789.885-2.435 3.735-2.948 6.05-4.586 2.07-1.466 2.56-2.776 3.958-3.664 4.75-3.077 7.656-2.758 11.744-4.526 4.43-1.865 7.761-4.665 11.65-6.738zm-55.454 34.942c-.6.32-.654-.844-1.206-.656-2.443 2.194-7.233.79-9.147 3.422.444-.264.934-.654 1.094-.139-2.293 1.05-4.298 1.633-5.82 3.701-3.54 1.136-10.02 6.131-11.215 9.133.922.914 2.298.51 3.93-.722.31-.897-.365-1.813.061-2.709 2.368-.18.286 2.472.912 3.5 1.058-2.146 4.616-3.166 5.566-5.12 1.651.937 3.071-1.713 4.807-2.808 1.29-.835 2.706-.876 3.651-1.59 1.997-1.485 3.58-3.935 6.816-5.07-.216-.338.682-.612.551-.942zm-26.357 17.027c-.036-.848-.118-1.703-1.148-1.557-.693.661-.889 1.314-.587 1.963.59-.175 1.11-.108 1.735-.406zm-6.772 18.84c-.702-.88-1.85.032-2.69-.303-.416-2.097-1.593-3.574-2.658-5.945-2.988 3.625-6.834 4.585-9.428 6.445-1.71 1.244-2 3.141-4.11 3.705-1.94 3.327-1.415 8.086-4.442 11.625-1.877 2.186-4.063 3.486-6.195 4.395-2.156.881-4.357 1.265-6.305 1.525-2.412 2.428-4.608 6.235-8.027 8.442-.9 2.533-2.85 4.734-5.022 6.866-1.08 1.07-2.236 2.103-3.3 3.18-1.042 1.1-2.03 2.21-2.857 3.353-2.713 1.161-4.325 4.413-6.669 6.993-.343.378-.7.75-1.064 1.117l-1.072 1.131-2.235 2.23c-1.504 1.485-3.005 2.994-4.29 4.641-.962 1.235-1.542 2.811-2.537 4.162-2.098 3.081-2.884 3.445-4.509 5.053-2.243 2.24-3.813 4.817-5.687 7.405 1.807 2.37.966 5.54.43 8.596 1.593-2.704 3.058-5.034 4.586-7.159 1.53-2.123 2.972-4.15 4.307-6.428 1.564-.648 2.558-2.62 4.06-3.68.487-.34 1.237-.24 1.741-.636.745-.605 1.3-1.79 2.037-2.43 1.605-1.393 3.86-2.224 5.547-3.61 1.172-.965 1.975-2.396 3.018-3.23 1.185-.976 2.801-1.03 3.993-1.943 5.35-3.975 8.312-9.998 13.031-13.642 2.582-3.537 4.735-8.07 8.64-10.995.115-2.492 4.475-5.664 6.57-6.88.457-.677.95-1.36 1.501-2.012a40.028 40.028 0 0 1 1.787-1.91c1.25-1.258 2.606-2.49 3.98-3.699l4.094-3.557a105.34 105.34 0 0 0 1.93-1.735c.633-.56 1.253-1.1 1.828-1.649 3.214-3.043 6.523-6.427 10.017-9.42zm-83.953 86.428c-.684 2.152-2.97 2.73-4.286 4.38-.622.836-.818 2.053-1.328 2.935-.76 1.316-1.929 2.218-2.83 3.467-4.55 6.065-8.124 13.556-12.302 18.233-.62.69-1.676 1.26-2.226 2.04-.18.26-.194 1.386-.339 1.64-.94 1.674-2.887 3.008-3.798 4.488-.385.627-.313 1.53-.638 2.2-1.247 2.43-4.126 5.221-5.565 8.313l-1.976 4.036c-.776 1.68-1.087 2.922-1.254 4.041-.133 1.137-.137 2.146-.335 3.347-.324 1.966-1.284 4.084-1.564 5.946-.164 1.085-.127 2.44-.246 3.848a12.772 12.772 0 0 1-.34 2.127c-.167.712-.399 1.421-.77 2.09.918 2.607-1.662 6.206-1.354 9.346 2.475-3.364 3.336-6.397 3.817-9.512.522-3.09.784-6.205 1.818-9.738 1.254-1.495 2.26-3.386 3.245-5.16 1.035-1.753 2.086-3.37 3.291-4.367.558-2.966 3.874-6.605 5.751-9.454-.088-3.297 3.2-5.49 4.848-8.463.755-1.335 1.363-2.852 2.074-4.34.722-1.48 1.464-2.982 2.34-4.365 1.617-2.554 3.535-5.137 5.231-7.865.796-.556 1.613-.812 2.394-1.463 2.271-4.026 3.25-7.646 5.618-11.717.242-1.544.217-3.973 1.927-4.802-.75-.3-.797-.82-1.203-1.23zm-29.958 67.403c-.752-.599-1.457.997-.504 1.143.621-.406.141-.37.504-1.143z"/></g><g><path fill="#fecd30" d="M210.178 72.832c.53-.493.674-1.01 1.075-1.513 1.754-.144 3.718-3.342 5.487-2.804-3.944 2.774-7.065 4.704-10.923 7 .134-1.177 4.038-3.09 4.361-2.683z"/></g><g><path fill="#fecd30" d="M202.526 76.687c1.074-.588.678-1.27 1.65-1.867.043.923-1.253 1.762-1.134 2.685-.78.413.176-.597-.516-.818z"/></g><g><path fill="#fecd30" d="M25.962 290.878c.535 2.009-1.645 5.775-1.653 8.124-.447-2.537 1.386-5.436 1.653-8.124z"/></g></g></svg>