<?xml version="1.0" encoding="utf-8"?>
<!-- Generator: Adobe Illustrator 22.0.0, SVG Export Plug-In . SVG Version: 6.00 Build 0)  -->
<svg version="1.1" id="srandart" xmlns="http://www.w3.org/2000/svg" xmlns:xlink="http://www.w3.org/1999/xlink" x="0px" y="0px"
	 viewBox="0 0 400 89.9" style="enable-background:new 0 0 400 89.9;" xml:space="preserve">
<style type="text/css">
	.st0{fill:#FECD30;}
</style>
<path class="st0" d="M32.1,89.9c2-0.9,3.7-2.2,5.2-3.8c3.7-3.9,5.5-9.5,5.5-16.7c0-3.5-0.5-6.7-1.6-9.7c-1-3-2.4-5.6-4-7.8
	s-3.5-4.2-5.4-6.2c-2-1.9-4-3.8-6-5.6s-3.8-3.6-5.5-5.3c-1.6-1.8-3-3.8-4-6s-1.6-4.6-1.6-7.1c0-3.1,0.6-5.3,1.8-6.7
	c1.2-1.4,3-2.1,5.4-2.1c4.8,0,7.2,2.9,7.2,8.8v3.8h13.6v-2.9c0-7.2-1.8-12.8-5.4-16.7C33.7,2,28.6,0,22,0S10.1,2,6.2,5.9
	s-5.9,9.5-5.9,16.7c0,3.5,0.5,6.7,1.6,9.7s2.4,5.6,4.1,7.8s3.5,4.2,5.6,6.2c2.1,1.9,4.1,3.8,6,5.6c2,1.8,3.7,3.6,5.3,5.3
	c1.6,1.8,2.9,3.8,3.9,6c1,2.2,1.5,4.6,1.5,7.1c0,5.9-2.3,8.8-6.9,8.8s-6.9-2.9-6.9-8.8v-6.4H0v5.5c0,7.2,2,12.8,5.9,16.7
	c1.6,1.6,3.5,2.8,5.5,3.8L32.1,89.9z M76.1,89.9v-76h15V1H46.8v12.9h15v76H76.1z M232.1,89.8c3.2-0.9,5.8-2.4,7.9-4.6
	c3.6-3.8,5.4-9.3,5.4-16.5V23.3c0-7.2-1.8-12.8-5.4-16.6c-3.6-3.8-8.9-5.7-16-5.7h-22.7v88.8H232.1z M385,89.9v-76c0,0,15,0,15,0V1
	h-44.4v12.9h15v76H385z M215.5,13.9h8.1c2.4,0,4.2,0.7,5.4,2c1.3,1.4,1.9,3.6,1.9,6.7v46.8c0,3.1-0.6,5.3-1.9,6.7
	c-1.3,1.4-3.1,2-5.4,2h-8.1V13.9z M321.7,13.9h6.9c2.5,0,4.4,0.7,5.5,2.2s1.7,3.8,1.7,7.1V32c0,3.5-0.7,5.9-2.2,7.4
	c-1.4,1.4-3.6,2.2-6.4,2.2h-5.6V13.9H321.7z M321.7,89.8V54.3h0h5c3.3,0,5.6,0.9,7.1,2.6c1.5,1.8,2.2,4.7,2.2,8.8v14.1
	c0,2.3,0.1,4.2,0.2,5.7s0.3,2.5,0.4,3c0.1,0.3,0.2,0.8,0.4,1.3l14.3,0.1c-0.7-2.3-1-5.6-1-9.8V66.2c0-5-0.7-9.1-2.2-12.2
	c-1.5-3.2-3.9-5.5-7.3-6.9c6.3-2.9,9.4-9,9.4-18.2v-7.1c0-7-1.7-12.2-5.1-15.6C341.7,2.7,336.3,1,329,1h-21.6v88.8L321.7,89.8z
	 M276.1,17.1l6.9,45.3h-13.8L276.1,17.1z M265,89.8l2.3-15.2h17.6l2.3,15.2l14.4,0L287.2,1h-22.1l-14.4,88.8L265,89.8z M159.7,89.8
	v-64l17.5,64h15.2V1h-12.8v53.9L164.8,1h-19.4v88.8H159.7z M114.3,17.1l6.9,45.3h-13.8L114.3,17.1z M103.2,89.8l2.3-15.2h17.6
	l2.3,15.2l14.3,0L125.4,1h-22.1L88.9,89.9L103.2,89.8z"/>
</svg>
