<?xml version="1.0" encoding="utf-8"?>
<!-- Generator: Adobe Illustrator 22.0.0, SVG Export Plug-In . SVG Version: 6.00 Build 0)  -->
<svg version="1.1" id="start" xmlns="http://www.w3.org/2000/svg" xmlns:xlink="http://www.w3.org/1999/xlink" x="0px"
     y="0px"
     viewBox="0 0 400 99.8" style="enable-background:new 0 0 400 99.8;" xml:space="preserve">
<style type="text/css">
	.st0{fill:#F1F2F2;}
</style>
    <path class="st0" d="M368.6,99.8V63.5h7.6c7.9,0,13.8-2.1,17.8-6.3s6-10.4,6-18.4v-13c0-8.1-2-14.2-6-18.4S384.1,1,376.2,1h-23.5
	v98.8H368.6z M36.3,99.7c2-1,3.8-2.4,5.3-4c4.1-4.4,6.1-10.6,6.1-18.6c0-3.9-0.6-7.5-1.7-10.8c-1.2-3.4-2.7-6.2-4.5-8.7
	c-1.8-2.4-3.8-4.7-6.1-6.9c-2.2-2.2-4.5-4.2-6.7-6.2s-4.3-4-6.1-5.9c-1.8-2-3.3-4.2-4.5-6.7s-1.7-5.1-1.7-7.9c0-3.4,0.7-5.9,2-7.5
	s3.3-2.3,6-2.3c5.4,0,8.1,3.3,8.1,9.9v4.2h15.1v-3.2c0-8.1-2-14.3-6-18.6c-4-4.4-9.7-6.5-17-6.5C17.1-0.1,11.3,2.1,6.9,6.4
	C2.6,10.8,0.4,17,0.4,25c0,3.9,0.6,7.5,1.8,10.9s2.7,6.2,4.6,8.7c1.9,2.4,3.9,4.7,6.2,6.9s4.5,4.2,6.7,6.2s4.2,4,6,5.9
	c1.8,2,3.3,4.2,4.4,6.7s1.7,5.1,1.7,7.9c0,6.5-2.6,9.8-7.7,9.8s-7.7-3.3-7.7-9.8v-7.1H0v6.1c0,8.1,2.2,14.3,6.6,18.6
	c1.7,1.6,3.5,3,5.6,4L36.3,99.7z M84.8,99.8V15.3h16.8V1H52.1v14.3h16.8v84.4L84.8,99.8z M248.6,99.8V15.3h16.8V1h-49.5v14.3h16.8
	v84.4L248.6,99.8z M330.9,99.8c2-1,3.8-2.3,5.3-3.9c4.3-4.4,6.4-10.6,6.4-18.6V1h-16v77.3c0,6.5-2.7,9.8-8.2,9.8s-8.3-3.3-8.3-9.8V1
	h-16v76.3c0,8.1,2,14.3,6.1,18.6c1.5,1.6,3.2,2.9,5.2,3.9H330.9z M368.6,15.3h7.6c2.7,0,4.6,0.7,5.9,2.1s1.9,3.9,1.9,7.3v15
	c0,3.4-0.6,5.9-1.9,7.3c-1.3,1.4-3.2,2.2-5.9,2.2h-7.6V15.3z M178.1,15.3h7.7c2.8,0,4.9,0.8,6.2,2.5s1.9,4.3,1.9,7.9v9.9
	c0,3.9-0.8,6.6-2.4,8.2c-1.6,1.6-4,2.4-7.2,2.4h-6.2V15.3z M178,99.8V60.4h0.1h5.5c3.6,0,6.3,1,7.9,2.9c1.7,2,2.5,5.2,2.5,9.9v15.7
	c0,2.6,0.1,4.7,0.2,6.3c0.2,1.7,0.3,2.8,0.5,3.4c0.1,0.3,0.2,0.7,0.3,1.2l16.2-0.1c-0.7-2.5-1-6.1-1-10.7V73.6
	c0-5.5-0.8-10.1-2.4-13.6c-1.6-3.5-4.3-6.1-8.2-7.7c7-3.3,10.5-10,10.5-20.3v-7.9c0-7.8-1.9-13.6-5.7-17.4s-9.8-5.7-18-5.7h-24.1
	v98.8H178z M127.3,19l7.7,50.4h-15.4L127.3,19z M115,99.7l2.5-16.7h19.6l2.6,16.7l16.1,0.1L139.8,1H115L99,99.8L115,99.7z"/>
</svg>
