<?xml version="1.0" encoding="utf-8"?>
<!-- Generator: Adobe Illustrator 22.0.0, SVG Export Plug-In . SVG Version: 6.00 Build 0)  -->
<svg version="1.1" id="_x30_1" xmlns="http://www.w3.org/2000/svg" xmlns:xlink="http://www.w3.org/1999/xlink" x="0px" y="0px"
	 viewBox="0 0 250 180" style="enable-background:new 0 0 250 180;" xml:space="preserve">
<style type="text/css">
	.st0{enable-background:new    ;}
	.st1{fill:#FECD30;}
	.st2{fill:#FFFFFF;}
</style>
<g class="st0">
	<g>
		<path class="st1" d="M143.4,134.6v-51c0-7.8,2-13.9,6.1-18.2c4-4.3,9.8-6.4,17.4-6.4c7.5,0,13.3,2.1,17.3,6.4c4,4.3,6,10.3,6,18.2
			v51c0,7.8-2,13.9-6,18.2c-4,4.3-9.8,6.4-17.3,6.4c-7.5,0-13.3-2.1-17.4-6.4C145.4,148.5,143.4,142.5,143.4,134.6z M158.8,135.6
			c0,6.5,2.7,9.7,8,9.7c5.3,0,8-3.2,8-9.7V82.7c0-6.4-2.7-9.6-8-9.6c-5.4,0-8,3.2-8,9.6V135.6z"/>
	</g>
	<g>
		<path class="st1" d="M209.6,83.3V72.5c2.3,0,4.3-0.2,6.1-0.7s3.2-1,4.3-1.7c1.1-0.7,2.1-1.6,3-2.8c0.9-1.2,1.6-2.3,2-3.3
			c0.5-1,1-2.3,1.6-3.9h10.4v98h-15.4V83.3H209.6z"/>
	</g>
</g>
<g>
	<path class="st2" d="M110.7,66.8c0.8,0,1.5-0.7,1.5-1.5s-0.7-1.5-1.5-1.5H79.6c-0.8,0-1.5,0.7-1.5,1.5s0.7,1.5,1.5,1.5H110.7z"/>
	<path class="st2" d="M55,66.8h11.5c0.8,0,1.5-0.7,1.5-1.5s-0.7-1.5-1.5-1.5H55c-0.8,0-1.5,0.7-1.5,1.5S54.2,66.8,55,66.8z"/>
	<path class="st2" d="M101.7,81.8c0-0.8-0.7-1.5-1.5-1.5H55c-0.8,0-1.5,0.7-1.5,1.5s0.7,1.5,1.5,1.5h45.2
		C101,83.3,101.7,82.6,101.7,81.8z"/>
	<path class="st2" d="M84.7,96.7H72.6c-0.8,0-1.5,0.7-1.5,1.5s0.7,1.5,1.5,1.5h12.1c0.8,0,1.5-0.7,1.5-1.5S85.5,96.7,84.7,96.7z"/>
	<path class="st2" d="M55,99.7h5.7c0.8,0,1.5-0.7,1.5-1.5s-0.7-1.5-1.5-1.5H55c-0.8,0-1.5,0.7-1.5,1.5S54.2,99.7,55,99.7z"/>
	<path class="st2" d="M55,116.1h29.7c0.8,0,1.5-0.7,1.5-1.5s-0.7-1.5-1.5-1.5H55c-0.8,0-1.5,0.7-1.5,1.5S54.2,116.1,55,116.1z"/>
	<path class="st2" d="M131.3,99.5c-0.8,0-1.5,0.7-1.5,1.5v33.8c0,10.7-8.7,19.4-19.4,19.4h-2.6c-0.2-0.1-0.3-0.1-0.5-0.1H37.8
		c-10,0-18.2-7.8-18.9-17.7h82.5c0.2,4.4,1.8,8.6,4.5,12.1c0.5,0.7,1.4,0.8,2.1,0.3c0.7-0.5,0.8-1.4,0.3-2.1
		c-2.5-3.3-3.9-7.3-3.9-11.5v-0.3c0-0.8-0.7-1.5-1.5-1.5H39.7c0-0.1,0-0.1,0-0.2V34.3h68c-0.1,0.2-0.2,0.5-0.2,0.8v20
		c0,0.8,0.7,1.5,1.5,1.5h19c0.7,0,1.3-0.5,1.5-1.2l0.3,0.3v5.8c0,0.8,0.7,1.5,1.5,1.5s1.5-0.7,1.5-1.5v-6.4c0-0.4-0.2-0.8-0.4-1.1
		l-22.3-22.3c-0.3-0.3-0.7-0.4-1.1-0.4H38.2c-0.8,0-1.5,0.7-1.5,1.5v100.4c0,0.1,0,0.1,0,0.2H17.4c-0.8,0-1.5,0.7-1.5,1.5v0.3
		c0,12,9.7,21.8,21.8,21.9c0.2,0.1,0.3,0.1,0.5,0.1h72.2c12.4,0,22.4-10,22.4-22.4V101C132.8,100.2,132.1,99.5,131.3,99.5z
		 M110.5,53.6V36.4l17.2,17.2H110.5z"/>
	<path class="st2" d="M101.3,102l-2.5,8.5c-0.1,0.2-0.1,0.4,0,0.7l-2.4,2.4c-0.6,0.6-0.6,1.5,0,2.1c0.3,0.3,0.7,0.4,1.1,0.4
		s0.8-0.1,1.1-0.4l2.4-2.4c0.1,0,0.2,0,0.3,0c0.1,0,0.3,0,0.4-0.1l8.5-2.4c0.2-0.1,0.5-0.2,0.7-0.4l42.8-42.9c0.6-0.6,0.6-1.5,0-2.1
		l-6.9-6.9c-0.3-0.3-0.7-0.4-1.1-0.4s-0.8,0.2-1.1,0.4l-42.8,42.8C101.5,101.5,101.3,101.7,101.3,102z M145.5,61.7l4.8,4.8l-3.4,3.4
		l-4.8-4.8L145.5,61.7z M104,103.2l36-36l4.8,4.8l-36,36.1L102,110L104,103.2z"/>
	<path class="st2" d="M151.2,76.2l-11.3,11.3c-0.6,0.6-0.6,1.5,0,2.1c0.3,0.3,0.7,0.4,1.1,0.4s0.8-0.1,1.1-0.4l11.3-11.3
		c0.6-0.6,0.6-1.5,0-2.1C152.8,75.7,151.8,75.7,151.2,76.2z"/>
</g>
<g>
	<g>
		<path class="st1" d="M37.8,10.5c-0.4,0-0.8-0.1-1.1-0.4c-0.6-0.6-0.6-1.5,0-2.1l7.5-7.5c0.6-0.6,1.5-0.6,2.1,0
			c0.6,0.6,0.6,1.5,0,2.1l-7.5,7.5C38.6,10.4,38.2,10.5,37.8,10.5z"/>
	</g>
	<g>
		<path class="st1" d="M45.3,10.5c-0.4,0-0.8-0.1-1.1-0.4l-7.5-7.5c-0.6-0.6-0.6-1.5,0-2.1c0.6-0.6,1.5-0.6,2.1,0l7.5,7.5
			c0.6,0.6,0.6,1.5,0,2.1C46.1,10.4,45.7,10.5,45.3,10.5z"/>
	</g>
</g>
<g>
	<path class="st1" d="M6,34.1c-3.3,0-6-2.7-6-6s2.7-6,6-6s6,2.7,6,6S9.3,34.1,6,34.1z M6,25.1c-1.7,0-3,1.3-3,3s1.3,3,3,3s3-1.3,3-3
		S7.7,25.1,6,25.1z"/>
</g>
<g>
	<path class="st1" d="M172.5,42c-3.3,0-6-2.7-6-6s2.7-6,6-6s6,2.7,6,6S175.8,42,172.5,42z M172.5,33c-1.7,0-3,1.3-3,3s1.3,3,3,3
		s3-1.3,3-3S174.2,33,172.5,33z"/>
</g>
<g>
	<g>
		<path class="st1" d="M191.7,180c-0.4,0-0.8-0.1-1.1-0.4c-0.6-0.6-0.6-1.5,0-2.1l3.5-3.5c0.6-0.6,1.5-0.6,2.1,0s0.6,1.5,0,2.1
			l-3.5,3.5C192.5,179.9,192.1,180,191.7,180z"/>
	</g>
	<g>
		<path class="st1" d="M203.5,168.2c-0.4,0-0.8-0.1-1.1-0.4c-0.6-0.6-0.6-1.5,0-2.1l3.5-3.5c0.6-0.6,1.5-0.6,2.1,0s0.6,1.5,0,2.1
			l-3.5,3.5C204.3,168.1,203.9,168.2,203.5,168.2z"/>
	</g>
	<g>
		<path class="st1" d="M195.2,168.2c-0.4,0-0.8-0.1-1.1-0.4l-3.5-3.5c-0.6-0.6-0.6-1.5,0-2.1s1.5-0.6,2.1,0l3.5,3.5
			c0.6,0.6,0.6,1.5,0,2.1C196,168.1,195.6,168.2,195.2,168.2z"/>
	</g>
	<g>
		<path class="st1" d="M207,180c-0.4,0-0.8-0.1-1.1-0.4l-3.5-3.5c-0.6-0.6-0.6-1.5,0-2.1s1.5-0.6,2.1,0l3.5,3.5
			c0.6,0.6,0.6,1.5,0,2.1C207.8,179.9,207.4,180,207,180z"/>
	</g>
</g>
<g>
	<g>
		<path class="st1" d="M99.6,177.9c-0.3,0-0.6-0.1-0.8-0.3l-14-9.4l-14,9.4c-0.5,0.3-1.2,0.3-1.7,0l-14-9.4l-14,9.4
			c-0.5,0.3-1.2,0.3-1.7,0l-14.9-10c-0.7-0.5-0.9-1.4-0.4-2.1c0.5-0.7,1.4-0.9,2.1-0.4l14.1,9.4l14-9.4c0.5-0.3,1.2-0.3,1.7,0
			l14,9.4l14-9.4c0.5-0.3,1.2-0.3,1.7,0l14.8,10c0.7,0.5,0.9,1.4,0.4,2.1C100.6,177.7,100.1,177.9,99.6,177.9z"/>
	</g>
</g>
</svg>
