<?xml version="1.0" encoding="utf-8"?>
<!-- Generator: Adobe Illustrator 22.0.0, SVG Export Plug-In . SVG Version: 6.00 Build 0)  -->
<svg version="1.1" id="_x30_3" xmlns="http://www.w3.org/2000/svg" xmlns:xlink="http://www.w3.org/1999/xlink" x="0px" y="0px"
	 viewBox="0 0 250 180" style="enable-background:new 0 0 250 180;" xml:space="preserve">
<style type="text/css">
	.st0{enable-background:new    ;}
	.st1{fill:#FECD30;}
	.st2{fill:#FFFFFF;}
</style>
<g class="st0">
	<g>
		<path class="st1" d="M143.4,134.3v-51c0-7.8,2-13.9,6.1-18.2c4-4.3,9.8-6.4,17.4-6.4s13.3,2.1,17.3,6.4c4,4.3,6,10.3,6,18.2v51
			c0,7.8-2,13.9-6,18.2c-4,4.3-9.8,6.4-17.3,6.4s-13.3-2.1-17.4-6.4C145.5,148.2,143.4,142.2,143.4,134.3z M158.8,135.3
			c0,6.5,2.7,9.7,8,9.7c5.3,0,8-3.2,8-9.7V82.4c0-6.4-2.7-9.6-8-9.6c-5.4,0-8,3.2-8,9.6V135.3z"/>
	</g>
	<g>
		<path class="st1" d="M199.4,134.3v-8.1h15.4v9.1c0,6.5,2.6,9.7,7.9,9.7c2.6,0,4.6-0.8,6-2.5c1.3-1.6,2-4.5,2-8.6v-7.7
			c0-4.5-0.8-7.7-2.4-9.6s-4.1-2.9-7.7-2.9h-5.2v-14h6c3.1,0,5.4-0.8,6.9-2.4c1.5-1.6,2.3-4.2,2.3-8V84c0-4.2-0.7-7.1-2-8.8
			c-1.3-1.6-3.3-2.5-6-2.5c-5.3,0-7.9,3.2-7.9,9.6v6.3h-15.4v-5.3c0-7.9,2.1-14,6.2-18.2c4.1-4.3,10-6.4,17.5-6.4s13.2,2.1,17.1,6.4
			c3.9,4.3,5.8,10.3,5.8,18.2v2.5c0,10.5-3.6,17.2-10.7,20.2c7.2,3.1,10.7,10,10.7,20.6v7.7c0,7.9-1.9,14-5.8,18.2
			c-3.9,4.3-9.6,6.4-17.1,6.4s-13.3-2.1-17.5-6.4C201.4,148.3,199.4,142.2,199.4,134.3z"/>
	</g>
</g>
<g>
	<g>
		<path class="st1" d="M43,180c-0.4,0-0.8-0.1-1.1-0.4l-7.5-7.5c-0.6-0.6-0.6-1.5,0-2.1s1.5-0.6,2.1,0l7.5,7.5
			c0.6,0.6,0.6,1.5,0,2.1C43.8,179.9,43.4,180,43,180z"/>
	</g>
	<g>
		<path class="st1" d="M35.5,180c-0.4,0-0.8-0.1-1.1-0.4c-0.6-0.6-0.6-1.5,0-2.1l7.5-7.5c0.6-0.6,1.5-0.6,2.1,0s0.6,1.5,0,2.1
			l-7.5,7.5C36.3,179.9,35.9,180,35.5,180z"/>
	</g>
</g>
<g>
	<g>
		<path class="st1" d="M1.5,106.3c-0.8,0-1.5-0.7-1.5-1.5c0-4.5,3-6.7,5.6-8.6C8,94.5,10,93,10,90.1c0-2.9-2-4.5-4.4-6.2
			C3,81.9,0,79.7,0,75.3s3-6.7,5.6-8.6C8,64.9,10,63.4,10,60.4S8,56,5.6,54.3C3,52.3,0,50.1,0,45.7S3,39,5.6,37
			C8,35.3,10,33.8,10,30.8c0-0.8,0.7-1.5,1.5-1.5S13,30,13,30.8c0,4.5-3,6.7-5.6,8.6C5,41.2,3,42.7,3,45.7s2,4.5,4.4,6.2
			C10,53.8,13,56,13,60.4s-3,6.7-5.6,8.6C5,70.8,3,72.3,3,75.3c0,2.9,2,4.5,4.4,6.2c2.6,1.9,5.6,4.1,5.6,8.6s-3,6.7-5.6,8.6
			C5,100.4,3,101.9,3,104.8C3,105.7,2.3,106.3,1.5,106.3z"/>
	</g>
</g>
<g>
	<g>
		<path class="st1" d="M158.2,12c-3.3,0-6-2.7-6-6s2.7-6,6-6s6,2.7,6,6S161.5,12,158.2,12z M158.2,3c-1.7,0-3,1.3-3,3s1.3,3,3,3
			s3-1.3,3-3S159.9,3,158.2,3z"/>
	</g>
	<g>
		<path class="st1" d="M189,33.7c-0.3,0-0.5-0.1-0.7-0.2c-0.5-0.3-0.8-0.8-0.8-1.3V13.9c0-0.5,0.3-1,0.7-1.3c0.5-0.3,1-0.3,1.5,0
			l15.8,9.1c0.5,0.3,0.8,0.8,0.8,1.3s-0.3,1-0.7,1.3l-15.8,9.2C189.5,33.6,189.3,33.7,189,33.7z M190.5,16.5v13.1l11.3-6.6
			L190.5,16.5z"/>
	</g>
</g>
<g>
	<path class="st2" d="M107.3,134.9c-0.1-0.7-0.7-1.3-1.5-1.3H65.7l0.1-10.3c0-0.2,0-0.4-0.1-0.6l-8-18.1l19-49.8
		c0.3-0.8-0.1-1.6-0.9-1.9c-0.8-0.3-1.6,0.1-1.9,0.9l-19.2,50.4c-0.1,0.4-0.1,0.8,0,1.1l8.2,18.4l-0.1,10h-1.8
		c-0.7,0-1.4,0.5-1.5,1.3l-2.1,13.8c-0.1,0.4,0.1,0.9,0.3,1.2c0.3,0.3,0.7,0.5,1.1,0.5H108c0.4,0,0.9-0.2,1.1-0.5s0.4-0.8,0.3-1.2
		L107.3,134.9z M60.6,147.5l1.6-10.8h2h0h40.3l1.7,10.8H60.6z"/>
	<path class="st2" d="M92.5,53.7c-0.2-0.6-0.8-1-1.4-1h-7.7c-0.8,0-1.5,0.7-1.5,1.5v43.3c-4,0.6-7,4-7,8.1c0,4.5,3.7,8.2,8.2,8.2
		s8.2-3.7,8.2-8.2c0-3.9-2.7-7.2-6.4-8V55.8h5.2l18.7,48.9l-8.9,20c-0.3,0.8,0,1.6,0.8,2c0.2,0.1,0.4,0.1,0.6,0.1
		c0.6,0,1.1-0.3,1.4-0.9l9.2-20.6c0.2-0.4,0.2-0.8,0-1.1L92.5,53.7z M88.3,105.6c0,2.9-2.3,5.2-5.2,5.2s-5.2-2.3-5.2-5.2
		s2.3-5.2,5.2-5.2S88.3,102.8,88.3,105.6z"/>
	<path class="st2" d="M125.8,45.2h9.6c0.8,0,1.5-0.7,1.5-1.5V34c0-0.8-0.7-1.5-1.5-1.5h-9.6c-0.8,0-1.5,0.7-1.5,1.5v9.6
		C124.3,44.5,125,45.2,125.8,45.2z M127.3,35.5h6.6v6.6h-6.6V35.5z"/>
	<path class="st2" d="M135.6,77H126c-0.8,0-1.5,0.7-1.5,1.5v9.6c0,0.8,0.7,1.5,1.5,1.5h9.6c0.8,0,1.5-0.7,1.5-1.5v-9.6
		C137.1,77.6,136.4,77,135.6,77z M134.1,86.6h-6.6V80h6.6V86.6z"/>
	<path class="st2" d="M30.9,45.2h9.6c0.8,0,1.5-0.7,1.5-1.5V34c0-0.8-0.7-1.5-1.5-1.5h-9.6c-0.8,0-1.5,0.7-1.5,1.5v9.6
		C29.4,44.5,30.1,45.2,30.9,45.2z M32.4,35.5H39v6.6h-6.6V35.5z"/>
	<path class="st2" d="M76.8,40.7v2.9c0,0.8,0.7,1.5,1.5,1.5h9.6c0.8,0,1.5-0.7,1.5-1.5V34c0-0.8-0.7-1.5-1.5-1.5h-9.6
		c-0.8,0-1.5,0.7-1.5,1.5v3.5H51c-0.8,0-1.5,0.7-1.5,1.5s0.7,1.5,1.5,1.5h13.3C44.8,47.8,36.6,65.9,34.7,77h-3.9
		c-0.8,0-1.5,0.7-1.5,1.5v9.6c0,0.8,0.7,1.5,1.5,1.5h9.6c0.8,0,1.5-0.7,1.5-1.5v-9.6c0-0.8-0.7-1.5-1.5-1.5h-2.7
		C40,64.6,50.5,43.5,76.8,40.7z M86.4,35.5v6.6h-6.6v-2.6c0.1-0.2,0.1-0.3,0.1-0.5s0-0.4-0.1-0.5v-3H86.4z M39,86.6h-6.6V80H39V86.6
		z"/>
	<path class="st2" d="M129.6,72.3c0.1,0,0.1,0,0.2,0c0.8-0.1,1.4-0.9,1.3-1.7c-1.8-14.6-15.9-25.9-27.3-30.1l15.2,0.1c0,0,0,0,0,0
		c0.8,0,1.5-0.7,1.5-1.5c0-0.8-0.7-1.5-1.5-1.5l-24.1-0.2c0,0,0,0,0,0c-0.8,0-1.5,0.7-1.5,1.5c0,0.2,0,0.4,0.1,0.6
		c-0.1,0.2-0.1,0.4-0.1,0.6c0,0.8,0.7,1.5,1.5,1.5c10.1,0,31.1,12.4,33.2,29.4C128.2,71.7,128.9,72.3,129.6,72.3z"/>
</g>
</svg>
