<svg xmlns="http://www.w3.org/2000/svg" width="160" height="935" viewBox="0 0 160 935"><g><g><path fill="none" stroke="#fff" stroke-miterlimit="20" stroke-width="3" d="M130.332 928.128v0h-9.88v0-25.936 0h11.452c10.48 0 15.719-4.042 15.719-12.127 0-8.083-5.238-12.125-15.72-12.125-4.49 0-8.718.902-12.686 2.702a42.413 42.413 0 0 0-10.723 6.943c-3.181 2.83-6.361 5.972-9.544 9.427a677.075 677.075 0 0 1-9.992 10.61 92.866 92.866 0 0 1-11.06 9.831c-3.891 2.934-8.533 5.335-13.922 7.201-5.39 1.868-11.19 2.8-17.404 2.8-12.948 0-22.922-3.436-29.922-10.31-6.998-6.876-10.498-16.14-10.498-27.79 0-11.65 3.5-20.638 10.498-26.964 7-6.325 16.974-9.488 29.922-9.488h5.165v23.915H45c-10.555 0-15.831 4.248-15.831 12.742 0 4.211 1.254 7.37 3.76 9.475 2.509 2.106 6.532 3.158 12.07 3.158 4.492 0 8.722-.92 12.688-2.763a42.268 42.268 0 0 0 10.723-7.105c3.182-2.895 6.362-6.11 9.543-9.644a313.012 313.012 0 0 1 9.993-10.578 95.5 95.5 0 0 1 11.06-9.6c3.892-2.88 8.533-5.239 13.922-7.074 5.389-1.833 11.19-2.75 17.403-2.75 12.95 0 22.924 3.22 29.922 9.655 7 6.44 10.498 15.524 10.498 27.26 0 11.736-3.498 21.092-10.498 28.07-6.998 6.978-16.971 10.465-29.922 10.465z"/></g><g><path fill="none" stroke="#fff" stroke-miterlimit="20" stroke-width="3" d="M30.965 845.716v0H7.948v0-78.258 0h23.017v26.498h137.99v25.263H30.965v26.497z"/></g><g><path fill="none" stroke="#fff" stroke-miterlimit="20" stroke-width="3" d="M168.956 756.455v0H7.949v0-68.938 0h23.017v43.675h44.91v0V696.5v0h22.906v34.693h47.156v0-43.675 0h23.018v68.938z"/></g><g><path fill="none" stroke="#fff" stroke-miterlimit="20" stroke-width="3" d="M7.949 671.91v-37.22c0-12.48 3.406-21.881 10.217-28.196 6.812-6.316 16.693-9.474 29.64-9.474h20.885c12.95 0 22.812 3.156 29.585 9.467 6.776 6.312 10.16 15.703 10.16 28.173v11.987h60.52v25.263zm77.584-37.277c0-4.19-1.16-7.298-3.48-9.318-2.32-2.022-6.25-3.032-11.79-3.032h-24.14c-5.538 0-9.448 1.01-11.733 3.032-2.282 2.02-3.424 5.128-3.424 9.318v12.014h54.567z"/></g><g><path fill="none" stroke="#fff" stroke-miterlimit="20" stroke-width="3" d="M7.95 549.64v-38.176c0-12.948 3.03-22.436 9.093-28.462 6.063-6.024 15.382-9.038 27.957-9.038h5.726c16.47 0 27.284 5.465 32.45 16.392 4.866-12.575 16.355-18.863 34.468-18.863h13.137c12.426 0 21.894 3.256 28.406 9.77 6.513 6.51 9.77 16.054 9.77 28.63v39.746zm65.57-35.188c0-5.037-1.292-8.833-3.875-11.39-2.582-2.557-6.94-3.836-13.08-3.836h-8.982c-5.763 0-9.974 1.016-12.63 3.046-2.658 2.03-3.988 5.3-3.988 9.812v12.292H73.52zm72.418-4.559c0-4.416-1.196-7.709-3.593-9.88-2.394-2.17-6.473-3.257-12.238-3.257h-14.034c-7.335 0-12.425 1.255-15.27 3.762-2.844 2.508-4.267 6.68-4.267 12.518v11.34h49.402z"/></g><g><path fill="none" stroke="#fff" stroke-miterlimit="20" stroke-width="3" d="M7.949 468.125v0-25.263 0l73.43-19.424v0l-73.43-19.423v0-25.263 0l107.675 33.234v0h53.332v25.263h-53.332v0L7.949 468.125v0z"/></g><g><path fill="none" stroke="#fff" stroke-miterlimit="20" stroke-width="3" d="M130.332 337.097v0h-9.88v0-25.936 0h11.452c10.48 0 15.719-4.042 15.719-12.127 0-8.083-5.238-12.125-15.72-12.125-4.49 0-8.718.902-12.686 2.702a42.413 42.413 0 0 0-10.723 6.943c-3.181 2.83-6.361 5.972-9.544 9.427a677.075 677.075 0 0 1-9.992 10.61 92.866 92.866 0 0 1-11.06 9.83c-3.891 2.935-8.533 5.336-13.922 7.202-5.39 1.868-11.19 2.8-17.404 2.8-12.948 0-22.922-3.436-29.922-10.311-6.998-6.875-10.498-16.14-10.498-27.79 0-11.65 3.5-20.637 10.498-26.963 7-6.325 16.974-9.488 29.922-9.488h5.165v23.915H45c-10.555 0-15.831 4.248-15.831 12.742 0 4.21 1.254 7.37 3.76 9.475 2.509 2.106 6.532 3.158 12.07 3.158 4.492 0 8.722-.921 12.688-2.763a42.268 42.268 0 0 0 10.723-7.105c3.182-2.895 6.362-6.111 9.543-9.644a313.012 313.012 0 0 1 9.993-10.578 95.5 95.5 0 0 1 11.06-9.6c3.892-2.881 8.533-5.24 13.922-7.074 5.389-1.833 11.19-2.75 17.403-2.75 12.95 0 22.924 3.219 29.922 9.655 7 6.439 10.498 15.524 10.498 27.259 0 11.737-3.498 21.093-10.498 28.07-6.998 6.979-16.971 10.466-29.922 10.466z"/></g><g><path fill="none" stroke="#fff" stroke-miterlimit="20" stroke-width="3" d="M30.965 254.685v0H7.948v0-78.258 0h23.017v26.498h137.99v25.263H30.965v26.497z"/></g><g><path fill="none" stroke="#fff" stroke-miterlimit="20" stroke-width="3" d="M168.956 165.424v0H7.949v0-68.938 0h23.017v43.675h44.91v0-34.693 0h22.906v34.693h47.156v0-43.675 0h23.018v68.938z"/></g><g><path fill="none" stroke="#fff" stroke-miterlimit="20" stroke-width="3" d="M7.949 80.879v-37.22c0-12.48 3.406-21.881 10.217-28.196 6.812-6.316 16.693-9.474 29.64-9.474h20.885c12.95 0 22.812 3.156 29.585 9.467 6.776 6.312 10.16 15.703 10.16 28.172v11.988h60.52v25.263zM85.533 43.6c0-4.19-1.16-7.297-3.48-9.317-2.32-2.022-6.25-3.032-11.79-3.032h-24.14c-5.538 0-9.448 1.01-11.733 3.032-2.282 2.02-3.424 5.128-3.424 9.318v12.014h54.567z"/></g></g></svg>