<?xml version="1.0" encoding="utf-8"?>
<!-- Generator: Adobe Illustrator 22.0.0, SVG Export Plug-In . SVG Version: 6.00 Build 0)  -->
<svg version="1.1" id="_x30_6" xmlns="http://www.w3.org/2000/svg" xmlns:xlink="http://www.w3.org/1999/xlink" x="0px" y="0px"
	 viewBox="0 0 250 180" style="enable-background:new 0 0 250 180;" xml:space="preserve">
<style type="text/css">
	.st0{enable-background:new    ;}
	.st1{fill:#FECD30;}
	.st2{fill:#FFFFFF;}
</style>
<g>
	<g class="st0">
		<path class="st1" d="M143.4,134.5v-51c0-7.8,2-13.9,6.1-18.2c4-4.3,9.8-6.4,17.4-6.4s13.3,2.1,17.3,6.4c4,4.3,6,10.3,6,18.2v51
			c0,7.8-2,13.9-6,18.2c-4,4.3-9.8,6.4-17.3,6.4s-13.3-2.1-17.4-6.4C145.4,148.4,143.4,142.4,143.4,134.5z M158.8,135.5
			c0,6.5,2.7,9.7,8,9.7c5.3,0,8-3.2,8-9.7V82.6c0-6.4-2.7-9.6-8-9.6c-5.4,0-8,3.2-8,9.6V135.5z"/>
		<path class="st1" d="M199.2,134.5V84.4c0-17,7.8-25.5,23.5-25.5c7.5,0,13.1,2.1,17,6.4c3.9,4.3,5.9,10.3,5.9,18.2V86h-14.5v-3.5
			c0-6.4-2.7-9.6-8-9.6c-2.9,0-5.1,0.9-6.5,2.7c-1.4,1.8-2.1,4.9-2.1,9.4v17.9c2.7-5.8,7.5-8.7,14.3-8.7c5.6,0,9.9,1.9,12.7,5.7
			c2.9,3.8,4.3,9.4,4.3,16.7v17.9c0,7.8-2,13.9-6,18.2c-4,4.3-9.8,6.4-17.3,6.4c-7.5,0-13.3-2.1-17.3-6.4
			C201.2,148.4,199.2,142.4,199.2,134.5z M214.6,135.5c0,6.4,2.7,9.6,8,9.6c5.3,0,7.9-3.2,7.9-9.6v-17.6c0-6.4-2.6-9.6-7.9-9.6
			c-5.3,0-8,3.2-8,9.6V135.5z"/>
	</g>
</g>
<g id="_x31_9_3_">
	<g>
		<path class="st2" d="M111.6,61.5v27.1c0,0.8,0.7,1.5,1.5,1.5s1.5-0.7,1.5-1.5V60c0-0.1,0-0.2,0-0.3c0,0,0,0,0,0
			c0-0.1-0.1-0.2-0.1-0.4c0,0,0-0.1,0-0.1c-0.1-0.1-0.1-0.2-0.2-0.3L96.6,41.3c-0.1-0.1-0.2-0.2-0.3-0.2c0,0-0.1,0-0.1,0
			c-0.1-0.1-0.2-0.1-0.3-0.1c0,0,0,0,0,0c-0.1,0-0.2,0-0.3,0H36c-0.8,0-1.5,0.7-1.5,1.5v105.2c0,0.8,0.7,1.5,1.5,1.5h52.5
			c0.8,0,1.5-0.7,1.5-1.5s-0.7-1.5-1.5-1.5h-51V43.9H94v7.3v2.5V60c0,0.8,0.7,1.5,1.5,1.5h3.6H111.6z M97,53.7v-2.5V46l12.5,12.5
			H99.1H97V53.7z"/>
		<path class="st2" d="M164.9,99H99.7c-0.8,0-1.5,0.7-1.5,1.5v47.1c0,0.8,0.7,1.5,1.5,1.5h65.2c0.8,0,1.5-0.7,1.5-1.5v-47.1
			C166.4,99.6,165.7,99,164.9,99z M163.4,146.1h-62.2V102h62.2V146.1z"/>
		<path class="st2" d="M109.9,111.3l21.7,14.7c0.3,0.2,0.5,0.3,0.8,0.3s0.6-0.1,0.8-0.3l22-14.9c0.7-0.5,0.9-1.4,0.4-2.1
			c-0.5-0.7-1.4-0.9-2.1-0.4L132.4,123l-20.9-14.1c-0.7-0.5-1.6-0.3-2.1,0.4C109,109.9,109.2,110.8,109.9,111.3z"/>
		<path class="st2" d="M90.7,79.6H46.8c-0.8,0-1.5,0.7-1.5,1.5s0.7,1.5,1.5,1.5h43.9c0.8,0,1.5-0.7,1.5-1.5S91.5,79.6,90.7,79.6z"/>
		<path class="st2" d="M90.7,90.4H46.8c-0.8,0-1.5,0.7-1.5,1.5s0.7,1.5,1.5,1.5h43.9c0.8,0,1.5-0.7,1.5-1.5S91.5,90.4,90.7,90.4z"/>
		<path class="st2" d="M46.8,101.2c-0.8,0-1.5,0.7-1.5,1.5s0.7,1.5,1.5,1.5h21.9c0.8,0,1.5-0.7,1.5-1.5s-0.7-1.5-1.5-1.5H46.8z"/>
		<path class="st2" d="M165,59.5h-43.1c-0.8,0-1.5,0.7-1.5,1.5v27.5c0,0.8,0.7,1.5,1.5,1.5H165c0.8,0,1.5-0.7,1.5-1.5V61
			C166.5,60.1,165.8,59.5,165,59.5z M163.5,87h-40.1V62.5h40.1V87z"/>
		<path class="st2" d="M194.3,46.1h-3.4c-0.1-0.2-0.3-0.3-0.5-0.4l-7.6-4.2c-0.2-0.1-0.5-0.2-0.7-0.2H131v-4.5h14.4
			c0.8,0,1.5-0.7,1.5-1.5s-0.7-1.5-1.5-1.5h-15.9c-0.8,0-1.5,0.7-1.5,1.5v6h-6.1c-0.8,0-1.5,0.7-1.5,1.5v9.7c0,0.8,0.7,1.5,1.5,1.5
			h60.2c0.3,0,0.5-0.1,0.7-0.2l7.6-4.2c0.2-0.1,0.4-0.3,0.5-0.5h3.3c0.8,0,1.5-0.7,1.5-1.5S195.1,46.1,194.3,46.1z M181.7,51h-58.3
			v-6.7h58.3l6.1,3.4L181.7,51z"/>
		<path class="st2" d="M62.9,62.9c0-4.3-3.5-7.8-7.8-7.8c-4.3,0-7.8,3.5-7.8,7.8s3.5,7.8,7.8,7.8C59.4,70.7,62.9,67.2,62.9,62.9z
			 M50.3,62.9c0-2.7,2.1-4.8,4.8-4.8c2.7,0,4.8,2.1,4.8,4.8s-2.1,4.8-4.8,4.8C52.4,67.7,50.3,65.6,50.3,62.9z"/>
		<path class="st2" d="M150.9,126.9c-3.4,0-6.2,2.8-6.2,6.2s2.8,6.2,6.2,6.2s6.2-2.8,6.2-6.2S154.3,126.9,150.9,126.9z M150.9,136.3
			c-1.8,0-3.2-1.4-3.2-3.2s1.4-3.2,3.2-3.2s3.2,1.4,3.2,3.2S152.7,136.3,150.9,136.3z"/>
		<path class="st2" d="M131.2,71.6h18.7c0.8,0,1.5-0.7,1.5-1.5s-0.7-1.5-1.5-1.5h-18.7c-0.8,0-1.5,0.7-1.5,1.5
			S130.4,71.6,131.2,71.6z"/>
		<path class="st2" d="M131.2,80.1h24.5c0.8,0,1.5-0.7,1.5-1.5s-0.7-1.5-1.5-1.5h-24.5c-0.8,0-1.5,0.7-1.5,1.5
			S130.4,80.1,131.2,80.1z"/>
	</g>
	<g>
		<path class="st1" d="M18,180c-0.3,0-0.5-0.1-0.8-0.2c-0.5-0.3-0.7-0.8-0.7-1.3v-18.2c0-0.5,0.3-1,0.7-1.3c0.5-0.3,1-0.3,1.5,0
			l15.8,9.1c0.5,0.3,0.8,0.8,0.8,1.3s-0.3,1-0.8,1.3l-15.8,9.1C18.5,179.9,18.3,180,18,180z M19.5,162.9v13l11.3-6.5L19.5,162.9z"/>
	</g>
	<g>
		<path class="st1" d="M44.7,29.5c-3.3,0-6-2.7-6-6s2.7-6,6-6s6,2.7,6,6S48,29.5,44.7,29.5z M44.7,20.5c-1.7,0-3,1.3-3,3s1.3,3,3,3
			s3-1.3,3-3S46.4,20.5,44.7,20.5z"/>
	</g>
	<g>
		<g>
			<path class="st1" d="M23.1,49.8h-4.9c-0.8,0-1.5-0.7-1.5-1.5s0.7-1.5,1.5-1.5h4.9c0.8,0,1.5,0.7,1.5,1.5S23.9,49.8,23.1,49.8z"/>
		</g>
		<g>
			<path class="st1" d="M6.4,49.8H1.5c-0.8,0-1.5-0.7-1.5-1.5s0.7-1.5,1.5-1.5h4.9c0.8,0,1.5,0.7,1.5,1.5S7.2,49.8,6.4,49.8z"/>
		</g>
		<g>
			<path class="st1" d="M12.3,43.9c-0.8,0-1.5-0.7-1.5-1.5v-4.9c0-0.8,0.7-1.5,1.5-1.5s1.5,0.7,1.5,1.5v4.9
				C13.8,43.3,13.1,43.9,12.3,43.9z"/>
		</g>
		<g>
			<path class="st1" d="M12.3,60.6c-0.8,0-1.5-0.7-1.5-1.5v-4.9c0-0.8,0.7-1.5,1.5-1.5s1.5,0.7,1.5,1.5v4.9
				C13.8,60,13.1,60.6,12.3,60.6z"/>
		</g>
	</g>
</g>
</svg>
