<?xml version="1.0" encoding="utf-8"?>
<!-- Generator: Adobe Illustrator 22.0.0, SVG Export Plug-In . SVG Version: 6.00 Build 0)  -->
<svg version="1.1" id="_x30_4" xmlns="http://www.w3.org/2000/svg" xmlns:xlink="http://www.w3.org/1999/xlink" x="0px" y="0px"
	 viewBox="0 0 250 180" style="enable-background:new 0 0 250 180;" xml:space="preserve">
<style type="text/css">
	.st0{enable-background:new    ;}
	.st1{fill:#FECD30;}
	.st2{fill:#FFFFFF;}
</style>
<g class="st0">
	<path class="st1" d="M143.4,134.7v-51c0-7.8,2-13.9,6.1-18.2c4-4.3,9.8-6.4,17.4-6.4s13.3,2.1,17.3,6.4c4,4.3,6,10.3,6,18.2v51
		c0,7.8-2,13.9-6,18.2c-4,4.3-9.8,6.4-17.3,6.4s-13.3-2.1-17.4-6.4C145.4,148.6,143.4,142.5,143.4,134.7z M158.8,135.6
		c0,6.5,2.7,9.7,8,9.7c5.3,0,8-3.2,8-9.7V82.7c0-6.4-2.7-9.6-8-9.6c-5.4,0-8,3.2-8,9.6V135.6z"/>
	<path class="st1" d="M196.8,140.4v-14l28-66.2h16.8v66.2h7v14h-7v17.8h-15.4v-17.8H196.8z M210.7,126.4h15.5V89.5L210.7,126.4z"/>
</g>
<g>
	<g>
		<path class="st1" d="M155,180c-0.4,0-0.8-0.1-1.1-0.4c-0.6-0.6-0.6-1.5,0-2.1l7.5-7.5c0.6-0.6,1.5-0.6,2.1,0s0.6,1.5,0,2.1
			l-7.5,7.5C155.8,179.9,155.4,180,155,180z"/>
	</g>
	<g>
		<path class="st1" d="M162.5,180c-0.4,0-0.8-0.1-1.1-0.4l-7.5-7.5c-0.6-0.6-0.6-1.5,0-2.1s1.5-0.6,2.1,0l7.5,7.5
			c0.6,0.6,0.6,1.5,0,2.1C163.3,179.9,162.9,180,162.5,180z"/>
	</g>
</g>
<g>
	<g>
		<g>
			<path class="st1" d="M1.5,37.5c-0.4,0-0.8-0.1-1.1-0.4c-0.6-0.6-0.6-1.5,0-2.1l7.5-7.5c0.6-0.6,1.5-0.6,2.1,0
				c0.6,0.6,0.6,1.5,0,2.1l-7.5,7.5C2.3,37.4,1.9,37.5,1.5,37.5z"/>
		</g>
		<g>
			<path class="st1" d="M9,37.5c-0.4,0-0.8-0.1-1.1-0.4l-7.5-7.5c-0.6-0.6-0.6-1.5,0-2.1c0.6-0.6,1.5-0.6,2.1,0l7.5,7.5
				c0.6,0.6,0.6,1.5,0,2.1C9.8,37.4,9.4,37.5,9,37.5z"/>
		</g>
	</g>
	<g>
		<path class="st1" d="M31.5,12c-3.3,0-6-2.7-6-6s2.7-6,6-6s6,2.7,6,6S34.8,12,31.5,12z M31.5,3c-1.7,0-3,1.3-3,3s1.3,3,3,3
			s3-1.3,3-3S33.2,3,31.5,3z"/>
	</g>
</g>
<g>
	<g>
		<path class="st1" d="M149.6,25.1h-4.9c-0.8,0-1.5-0.7-1.5-1.5s0.7-1.5,1.5-1.5h4.9c0.8,0,1.5,0.7,1.5,1.5S150.4,25.1,149.6,25.1z"
			/>
	</g>
	<g>
		<path class="st1" d="M132.9,25.1H128c-0.8,0-1.5-0.7-1.5-1.5s0.7-1.5,1.5-1.5h4.9c0.8,0,1.5,0.7,1.5,1.5S133.7,25.1,132.9,25.1z"
			/>
	</g>
	<g>
		<path class="st1" d="M138.8,19.1c-0.8,0-1.5-0.7-1.5-1.5v-5c0-0.8,0.7-1.5,1.5-1.5s1.5,0.7,1.5,1.5v5
			C140.3,18.5,139.6,19.1,138.8,19.1z"/>
	</g>
	<g>
		<path class="st1" d="M138.8,35.8c-0.8,0-1.5-0.7-1.5-1.5v-5c0-0.8,0.7-1.5,1.5-1.5s1.5,0.7,1.5,1.5v5
			C140.3,35.2,139.6,35.8,138.8,35.8z"/>
	</g>
</g>
<g>
	<g>
		<path class="st1" d="M94.3,168.4c-0.3,0-0.7-0.1-0.9-0.3l-11.8-9.3l-11.8,9.3c-0.5,0.4-1.3,0.4-1.9,0l-11.8-9.3l-11.8,9.3
			c-0.5,0.4-1.3,0.4-1.9,0l-12.7-10c-0.7-0.5-0.8-1.5-0.3-2.1c0.5-0.7,1.5-0.8,2.1-0.3l11.8,9.3l11.8-9.3c0.5-0.4,1.3-0.4,1.9,0
			l11.8,9.3l11.8-9.3c0.5-0.4,1.3-0.4,1.9,0l12.7,10c0.7,0.5,0.8,1.5,0.3,2.1C95.2,168.2,94.7,168.4,94.3,168.4z"/>
	</g>
</g>
<g>
	<path class="st2" d="M89.4,52.9c-2.4,0-4.6,1.1-6,3.1c-1.4,1.9-1.8,4.4-1.1,6.7s2.5,4,4.8,4.8c2.3,0.7,4.7,0.4,6.7-1
		c6.8,1.6,12,7,13.2,13.9c1.2,6.9-1.8,13.8-7.7,17.6c-1.6,1.1,0,3.5,1.6,2.5c6.6-4.3,10.2-12,9.1-19.8s-6.5-14.3-14.1-16.6
		c1-1.7,1.2-3.8,0.6-5.7c9.9,2.6,17.3,10.8,18.9,20.8c1.7,10.1-2.7,20.2-11.2,25.8c-0.7,0.4-0.9,1.4-0.4,2.1
		c0.5,0.7,1.4,0.9,2.1,0.4c9.9-6.6,14.8-18.6,12.2-30.2c-2.5-11.6-12-20.5-23.7-22.3C93,53.6,91.2,52.9,89.4,52.9z M93.6,62.1
		c-0.7,1.7-2.3,2.8-4.2,2.8c-2.5,0-4.5-2-4.5-4.5c0-1.8,1.1-3.5,2.8-4.2s3.6-0.3,4.9,1C93.9,58.4,94.3,60.4,93.6,62.1z"/>
	<path class="st2" d="M63.8,68.7l15.9,8.6c0.7,0.4,1.6,0.1,2-0.6l3.6-6.6c0.9-1.7-1.7-3.1-2.6-1.4l-2.9,5.3l-13.3-7.1l16.3-30
		l3.3,1.8l10,5.4l-3.3,6c-0.4,0.7-0.1,1.6,0.6,2c0.7,0.4,1.6,0.1,2-0.6l4-7.3c0.4-0.7,0.1-1.6-0.6-2l-3.3-1.8l5.9-10.3
		c0.4-0.7,0.1-1.6-0.6-2l-6.6-3.6c-0.7-0.4-1.6-0.1-2,0.6l-5.9,10.4l-3.4-1.8c-0.7-0.4-1.6-0.1-2,0.6L63.3,66.7
		C62.9,67.6,63.1,68.4,63.8,68.7z M94.1,27.9l4,2.2l-5.2,9l-4-2.2L94.1,27.9z"/>
	<path class="st2" d="M62.9,77.7l10,5.4c0.2,0.1,0.5,0.2,0.7,0.2c0.1,0,0.3,0,0.4-0.1c0.4-0.1,0.7-0.4,0.9-0.7l1.9-3.4
		c0.9-1.7-1.6-3.1-2.6-1.4L73,79.7l-7.4-4l1.2-2.1c0.9-1.7-1.6-3.1-2.6-1.4l-1.9,3.4C61.9,76.4,62.1,77.2,62.9,77.7z"/>
	<path class="st2" d="M129,128.6H26.6c-4.1,0-7.5,3.4-7.5,7.5s3.4,7.5,7.5,7.5H129c4.1,0,7.5-3.4,7.5-7.5
		C136.5,132,133.2,128.6,129,128.6z M129,140.7H26.6c-2.5,0-4.6-2-4.6-4.6c0-2.5,2-4.6,4.6-4.6H129c2.5,0,4.6,2,4.6,4.6
		S131.5,140.7,129,140.7z"/>
	<path class="st2" d="M31.4,125.7h37.4h42h13.3c2,0,2-2.9,0.1-2.9h-12.6L95.2,97.2c-1.2-1.8-3.2-2.9-5.4-2.9s-4.2,1.1-5.4,2.9
		l-5.4,8.5l-7-3.7c0.8-0.9,1.2-2.1,1-3.3c-0.2-1.2-0.9-2.2-2-2.8l-18.5-10c-1.1-0.6-2.4-0.6-3.5-0.1s-1.9,1.5-2.2,2.7l-3.2-1.7
		c-0.7-0.4-1.5-0.1-1.9,0.5L38,93c-0.4,0.7-0.2,1.7,0.6,2.1l35.2,18.7l-5.8,9H31.4C29.4,122.9,29.4,125.7,31.4,125.7z M87,98.9
		c0.6-1,1.7-1.6,2.9-1.6c1.2,0,2.3,0.6,2.9,1.6l11,17.1H76l1.2-1.8l1-1.6L87,98.9z M49.8,88.9c0.3-0.5,0.8-0.7,1.3-0.4l18.5,9.9
		c0.5,0.3,0.7,0.8,0.4,1.3s-0.8,0.6-1.3,0.4l-18.5-9.9C49.7,90,49.5,89.4,49.8,88.9z M41.4,93.2l2.1-3.2l34,18.1l-1.8,2.7l-0.3,0.5
		L41.4,93.2z M74.2,118.9h31.3c0,0,0.1,0,0.1,0l2.6,4H71.6L74.2,118.9z"/>
</g>
</svg>
