<?xml version="1.0" encoding="utf-8"?>
<!-- Generator: Adobe Illustrator 22.0.0, SVG Export Plug-In . SVG Version: 6.00 Build 0)  -->
<svg version="1.1" id="_x30_5" xmlns="http://www.w3.org/2000/svg" xmlns:xlink="http://www.w3.org/1999/xlink" x="0px" y="0px"
	 viewBox="0 0 250 180" style="enable-background:new 0 0 250 180;" xml:space="preserve">
<style type="text/css">
	.st0{enable-background:new    ;}
	.st1{fill:#FECD30;}
	.st2{fill:#FFFFFF;}
</style>
<g class="st0">
	<path class="st1" d="M143.4,134.2v-51c0-7.8,2-13.9,6.1-18.2c4-4.3,9.8-6.4,17.4-6.4s13.3,2.1,17.3,6.4c4,4.3,6,10.3,6,18.2v51
		c0,7.8-2,13.9-6,18.2c-4,4.3-9.8,6.4-17.3,6.4s-13.3-2.1-17.4-6.4C145.4,148.1,143.4,142,143.4,134.2z M158.8,135.1
		c0,6.5,2.7,9.7,8,9.7c5.3,0,8-3.2,8-9.7V82.2c0-6.4-2.7-9.6-8-9.6c-5.4,0-8,3.2-8,9.6V135.1z"/>
	<path class="st1" d="M199.4,134.2v-8.1h15.4v9.1c0,6.4,2.6,9.6,7.9,9.6c5.3,0,8-3.2,8-9.6v-21.5c0-6.4-2.7-9.6-8-9.6
		c-5.3,0-7.9,3.2-7.9,9.6v2.9h-15.4l3-56.9h41.2v14h-26.7l-1.2,23.4c2.9-4.7,7.3-7.1,13.4-7.1c5.6,0,9.9,1.9,12.7,5.7
		c2.8,3.8,4.3,9.4,4.3,16.6v21.9c0,7.9-1.9,14-5.8,18.2c-3.9,4.3-9.6,6.4-17.1,6.4c-7.5,0-13.3-2.1-17.5-6.4
		C201.5,148.1,199.4,142.1,199.4,134.2z"/>
</g>
<g>
	<g>
		<path class="st1" d="M51.5,180c-0.4,0-0.8-0.1-1.1-0.4l-7.5-7.5c-0.6-0.6-0.6-1.5,0-2.1s1.5-0.6,2.1,0l7.5,7.5
			c0.6,0.6,0.6,1.5,0,2.1C52.3,179.9,51.9,180,51.5,180z"/>
	</g>
	<g>
		<path class="st1" d="M44,180c-0.4,0-0.8-0.1-1.1-0.4c-0.6-0.6-0.6-1.5,0-2.1l7.5-7.5c0.6-0.6,1.5-0.6,2.1,0s0.6,1.5,0,2.1
			l-7.5,7.5C44.8,179.9,44.4,180,44,180z"/>
	</g>
</g>
<g>
	<path class="st1" d="M166.7,12c-3.3,0-6-2.7-6-6s2.7-6,6-6s6,2.7,6,6S170,12,166.7,12z M166.7,3c-1.7,0-3,1.3-3,3s1.3,3,3,3
		s3-1.3,3-3S168.4,3,166.7,3z"/>
</g>
<g>
	<g>
		<path class="st1" d="M215.5,29.6c-0.4,0-0.8-0.1-1.1-0.4l-3.5-3.5c-0.6-0.6-0.6-1.5,0-2.1c0.6-0.6,1.5-0.6,2.1,0l3.5,3.5
			c0.6,0.6,0.6,1.5,0,2.1C216.3,29.5,215.9,29.6,215.5,29.6z"/>
	</g>
	<g>
		<path class="st1" d="M203.7,17.8c-0.4,0-0.8-0.1-1.1-0.4l-3.5-3.5c-0.6-0.6-0.6-1.5,0-2.1c0.6-0.6,1.5-0.6,2.1,0l3.5,3.5
			c0.6,0.6,0.6,1.5,0,2.1C204.5,17.7,204.1,17.8,203.7,17.8z"/>
	</g>
	<g>
		<path class="st1" d="M200.2,29.6c-0.4,0-0.8-0.1-1.1-0.4c-0.6-0.6-0.6-1.5,0-2.1l3.5-3.5c0.6-0.6,1.5-0.6,2.1,0
			c0.6,0.6,0.6,1.5,0,2.1l-3.5,3.5C201,29.5,200.6,29.6,200.2,29.6z"/>
	</g>
	<g>
		<path class="st1" d="M212,17.8c-0.4,0-0.8-0.1-1.1-0.4c-0.6-0.6-0.6-1.5,0-2.1l3.5-3.5c0.6-0.6,1.5-0.6,2.1,0
			c0.6,0.6,0.6,1.5,0,2.1l-3.5,3.5C212.8,17.7,212.4,17.8,212,17.8z"/>
	</g>
</g>
<g>
	<g>
		<path class="st1" d="M1.5,92.6c-0.8,0-1.5-0.7-1.5-1.5c0-4.5,3-6.7,5.6-8.6C8,80.8,10,79.2,10,76.3c0-2.9-2-4.5-4.4-6.2
			C3,68.2,0,66,0,61.5s3-6.7,5.6-8.6C8,51.2,10,49.6,10,46.7c0-2.9-2-4.5-4.4-6.2C3,38.6,0,36.4,0,31.9s3-6.7,5.6-8.6
			C8,21.6,10,20,10,17.1c0-0.8,0.7-1.5,1.5-1.5s1.5,0.7,1.5,1.5c0,4.5-3,6.7-5.6,8.6C5,27.4,3,29,3,31.9s2,4.5,4.4,6.2
			C10,40,13,42.2,13,46.7s-3,6.7-5.6,8.6C5,57,3,58.6,3,61.5s2,4.5,4.4,6.2c2.6,1.9,5.6,4.1,5.6,8.6s-3,6.7-5.6,8.6
			C5,86.7,3,88.2,3,91.1C3,91.9,2.3,92.6,1.5,92.6z"/>
	</g>
</g>
<g id="_x32__1_">
	<g>
		<path class="st2" d="M159,146.2H28.3c-0.8,0-1.5-0.7-1.5-1.5v-86c0-0.8,0.7-1.5,1.5-1.5H159c0.8,0,1.5,0.7,1.5,1.5v86
			C160.5,145.5,159.8,146.2,159,146.2z M29.8,143.2h127.7v-83H29.8V143.2z"/>
	</g>
	<g>
		<path class="st2" d="M74,91H51.7c-0.5,0-0.9-0.2-1.2-0.6L27.1,59.6c-0.5-0.7-0.4-1.6,0.3-2.1c0.7-0.5,1.6-0.4,2.1,0.3L52.4,88H74
			c0.8,0,1.5,0.7,1.5,1.5S74.8,91,74,91z"/>
	</g>
	<g>
		<path class="st2" d="M135.5,91h-29c-0.8,0-1.5-0.7-1.5-1.5s0.7-1.5,1.5-1.5h28.3l13.1-17.2c0.5-0.7,1.4-0.8,2.1-0.3
			c0.7,0.5,0.8,1.4,0.3,2.1l-13.6,17.8C136.4,90.8,136,91,135.5,91z"/>
	</g>
	<g>
		<path class="st2" d="M76,60.2c-0.8,0-1.5-0.7-1.5-1.5V47c0-2.8,2.4-5.2,5.2-5.2h28c2.8,0,5.2,2.4,5.2,5.2v1.9
			c0,0.8-0.7,1.5-1.5,1.5s-1.5-0.7-1.5-1.5V47c0-1.2-1-2.2-2.2-2.2h-28c-1.2,0-2.2,1-2.2,2.2v11.7C77.5,59.5,76.8,60.2,76,60.2z"/>
	</g>
	<g>
		<path class="st2" d="M106.5,98.3H80.7c-0.8,0-1.5-0.7-1.5-1.5V82.1c0-0.8,0.7-1.5,1.5-1.5h25.8c0.8,0,1.5,0.7,1.5,1.5v14.7
			C108,97.6,107.3,98.3,106.5,98.3z M82.2,95.3H105V83.6H82.2V95.3z"/>
	</g>
	<g>
		<path class="st2" d="M138.2,128.8H49c-0.8,0-1.5-0.7-1.5-1.5V120c0-0.8,0.7-1.5,1.5-1.5s1.5,0.7,1.5,1.5v5.8h86.2v-13.2
			c0-0.8,0.7-1.5,1.5-1.5s1.5,0.7,1.5,1.5v14.7C139.7,128.1,139,128.8,138.2,128.8z"/>
	</g>
</g>
</svg>
