<?xml version="1.0" encoding="utf-8"?>
<!-- Generator: Adobe Illustrator 22.0.0, SVG Export Plug-In . SVG Version: 6.00 Build 0)  -->
<svg version="1.1" id="_x30_2" xmlns="http://www.w3.org/2000/svg" xmlns:xlink="http://www.w3.org/1999/xlink" x="0px" y="0px"
	 viewBox="0 0 250 180" style="enable-background:new 0 0 250 180;" xml:space="preserve">
<style type="text/css">
	.st0{enable-background:new    ;}
	.st1{fill:#FECD30;}
	.st2{fill:#FFFFFF;}
</style>
<g class="st0">
	<path class="st1" d="M143.5,133.7v-51c0-7.8,2-13.9,6.1-18.2c4-4.3,9.8-6.4,17.4-6.4s13.3,2.1,17.3,6.4c4,4.3,6,10.3,6,18.2v51
		c0,7.8-2,13.9-6,18.2c-4,4.3-9.8,6.4-17.3,6.4s-13.3-2.1-17.4-6.4C145.5,147.6,143.5,141.6,143.5,133.7z M158.8,134.7
		c0,6.5,2.7,9.7,8,9.7c5.3,0,8-3.2,8-9.7V81.8c0-6.4-2.7-9.6-8-9.6c-5.4,0-8,3.2-8,9.6V134.7z"/>
	<path class="st1" d="M200.2,157.3v-12c0-3.9,0.6-7.5,1.7-11c1.1-3.4,2.6-6.4,4.4-9c1.8-2.6,3.8-5.1,6-7.5c2.2-2.4,4.4-4.9,6.5-7.3
		c2.2-2.4,4.2-4.9,6-7.5c1.8-2.6,3.2-5.5,4.4-8.9c1.1-3.4,1.7-6.9,1.7-10.8c0-4.2-0.7-7.1-2-8.8c-1.3-1.6-3.3-2.5-5.9-2.5
		c-5.3,0-8,3.2-8,9.6v10.5h-14.7v-9.6c0-7.9,2-14,5.9-18.2c4-4.3,9.7-6.4,17.1-6.4c7.5,0,13.1,2.1,17,6.4c3.9,4.3,5.9,10.3,5.9,18.2
		c0,4.2-0.6,8.2-1.7,12.1c-1.1,3.9-2.6,7.3-4.4,10.2c-1.8,3-3.8,5.8-5.9,8.5c-2.2,2.7-4.3,5.2-6.5,7.6c-2.2,2.3-4.2,4.6-6,6.7
		c-1.8,2.1-3.3,4.4-4.4,6.6c-1.1,2.3-1.7,4.5-1.7,6.6c0,1,0,1.7,0.1,2.1h29v14H200.2z"/>
</g>
<g>
	<path class="st1" d="M122.5,180c-0.3,0-0.5-0.1-0.8-0.2c-0.5-0.3-0.7-0.8-0.7-1.3v-18.3c0-0.5,0.3-1,0.8-1.3c0.5-0.3,1-0.3,1.5,0
		l15.8,9.2c0.5,0.3,0.7,0.8,0.7,1.3s-0.3,1-0.8,1.3l-15.8,9.1C123,179.9,122.8,180,122.5,180z M124,162.8v13.1l11.3-6.5L124,162.8z"
		/>
</g>
<g>
	<g>
		<g>
			<path class="st1" d="M152.2,23.2h-7.8c-0.8,0-1.5-0.7-1.5-1.5s0.7-1.5,1.5-1.5h7.8c0.8,0,1.5,0.7,1.5,1.5S153,23.2,152.2,23.2z"
				/>
		</g>
		<g>
			<path class="st1" d="M135.4,34.1h-22.5c-0.8,0-1.5-0.7-1.5-1.5s0.7-1.5,1.5-1.5h22.5c0.8,0,1.5,0.7,1.5,1.5
				S136.2,34.1,135.4,34.1z"/>
		</g>
		<g>
			<path class="st1" d="M121.1,23.2h-8.2c-0.8,0-1.5-0.7-1.5-1.5s0.7-1.5,1.5-1.5h8.2c0.8,0,1.5,0.7,1.5,1.5S121.9,23.2,121.1,23.2z
				"/>
		</g>
		<g>
			<path class="st1" d="M134.4,23.2H131c-0.8,0-1.5-0.7-1.5-1.5s0.7-1.5,1.5-1.5h3.4c0.8,0,1.5,0.7,1.5,1.5S135.2,23.2,134.4,23.2z"
				/>
		</g>
		<g>
			<path class="st1" d="M147.8,34.1h-3.4c-0.8,0-1.5-0.7-1.5-1.5s0.7-1.5,1.5-1.5h3.4c0.8,0,1.5,0.7,1.5,1.5S148.6,34.1,147.8,34.1z
				"/>
		</g>
	</g>
	<g>
		<g>
			<path class="st1" d="M158,10.5c-0.4,0-0.8-0.1-1.1-0.4c-0.6-0.6-0.6-1.5,0-2.1l7.5-7.5c0.6-0.6,1.5-0.6,2.1,0
				c0.6,0.6,0.6,1.5,0,2.1l-7.5,7.5C158.8,10.4,158.4,10.5,158,10.5z"/>
		</g>
		<g>
			<path class="st1" d="M165.5,10.5c-0.4,0-0.8-0.1-1.1-0.4l-7.5-7.5c-0.6-0.6-0.6-1.5,0-2.1c0.6-0.6,1.5-0.6,2.1,0l7.5,7.5
				c0.6,0.6,0.6,1.5,0,2.1C166.3,10.4,165.9,10.5,165.5,10.5z"/>
		</g>
	</g>
</g>
<g>
	<path class="st1" d="M46.7,12c-3.3,0-6-2.7-6-6s2.7-6,6-6s6,2.7,6,6S50,12,46.7,12z M46.7,3c-1.7,0-3,1.3-3,3s1.3,3,3,3s3-1.3,3-3
		S48.4,3,46.7,3z"/>
</g>
<g>
	<g>
		<path class="st1" d="M23.1,51.3h-4.9c-0.8,0-1.5-0.7-1.5-1.5s0.7-1.5,1.5-1.5h4.9c0.8,0,1.5,0.7,1.5,1.5S23.9,51.3,23.1,51.3z"/>
	</g>
	<g>
		<path class="st1" d="M6.4,51.3H1.5c-0.8,0-1.5-0.7-1.5-1.5s0.7-1.5,1.5-1.5h4.9c0.8,0,1.5,0.7,1.5,1.5S7.2,51.3,6.4,51.3z"/>
	</g>
	<g>
		<path class="st1" d="M12.3,45.5c-0.8,0-1.5-0.7-1.5-1.5v-5c0-0.8,0.7-1.5,1.5-1.5s1.5,0.7,1.5,1.5v5
			C13.8,44.8,13.1,45.5,12.3,45.5z"/>
	</g>
	<g>
		<path class="st1" d="M12.3,62.1c-0.8,0-1.5-0.7-1.5-1.5v-4.9c0-0.8,0.7-1.5,1.5-1.5s1.5,0.7,1.5,1.5v4.9
			C13.8,61.4,13.1,62.1,12.3,62.1z"/>
	</g>
</g>
<g>
	<path class="st2" d="M86.5,99.6h-13c-0.8,0-1.5,0.7-1.5,1.5s0.7,1.5,1.5,1.5h13c0.8,0,1.5-0.7,1.5-1.5S87.3,99.6,86.5,99.6z"/>
	<path class="st2" d="M83.6,106.5h-7.2c-0.8,0-1.5,0.7-1.5,1.5s0.7,1.5,1.5,1.5h7.2c0.8,0,1.5-0.7,1.5-1.5S84.4,106.5,83.6,106.5z"
		/>
	<path class="st2" d="M79.1,60.8c-7.2,0.4-13.1,6.5-13.3,13.7c-0.1,3.1,0.8,6.1,2.7,8.6c1.9,2.6,2.9,6,2.9,9.6v0.5
		c0,0.8,0.7,1.5,1.5,1.5H87c0.8,0,1.5-0.7,1.5-1.5s-0.7-1.5-1.5-1.5H74.4c-0.2-3.9-1.4-7.6-3.5-10.4c-1.5-2-2.2-4.3-2.1-6.8
		c0.2-5.7,4.8-10.5,10.5-10.9c3.1-0.2,6.1,0.8,8.4,3c2.3,2.1,3.5,5,3.5,8.1c0,2.2-0.7,4.5-1.9,6.2c0,0,0,0.1-0.1,0.1
		c-0.6,1-1.2,2.1-1.8,3.3c-0.3,0.8,0,1.6,0.7,2c0.8,0.3,1.6,0,2-0.7c0.5-1,1-1.9,1.6-2.9c1.6-2.3,2.4-5.1,2.4-7.9
		c0-4-1.6-7.6-4.5-10.3C86.8,61.9,83.1,60.6,79.1,60.8z"/>
	<path class="st2" d="M81.5,53.2v-0.8c0-0.8-0.7-1.5-1.5-1.5s-1.5,0.7-1.5,1.5v0.8c0,0.8,0.7,1.5,1.5,1.5S81.5,54,81.5,53.2z"/>
	<path class="st2" d="M67.6,58.8c0.3,0,0.6-0.1,0.9-0.3c0.7-0.5,0.8-1.4,0.3-2.1l-0.5-0.7c-0.5-0.7-1.4-0.8-2.1-0.3
		c-0.7,0.5-0.8,1.4-0.3,2.1l0.5,0.7C66.7,58.6,67.1,58.8,67.6,58.8z"/>
	<path class="st2" d="M59.5,69.3c0.1,0,0.2,0,0.4,0c0.7,0,1.3-0.5,1.5-1.1c0.2-0.8-0.3-1.6-1.1-1.8l-0.8-0.2
		c-0.8-0.2-1.6,0.3-1.8,1.1c-0.2,0.8,0.3,1.6,1.1,1.8L59.5,69.3z"/>
	<path class="st2" d="M101.4,79.8l-0.8-0.3c-0.8-0.3-1.6,0.1-1.9,0.9c-0.3,0.8,0.1,1.6,0.9,1.9l0.8,0.3c0.2,0.1,0.4,0.1,0.5,0.1
		c0.6,0,1.2-0.4,1.4-1C102.6,81,102.2,80.1,101.4,79.8z"/>
	<path class="st2" d="M57.7,81.7c0.2,0.6,0.8,1,1.4,1c0.2,0,0.4,0,0.5-0.1l0.8-0.3c0.8-0.3,1.2-1.2,0.9-1.9
		c-0.3-0.8-1.2-1.2-1.9-0.9l-0.8,0.3C57.8,80.1,57.4,81,57.7,81.7z"/>
	<path class="st2" d="M100.1,69.3c0.1,0,0.2,0,0.4,0l0.8-0.2c0.8-0.2,1.3-1,1.1-1.8c-0.2-0.8-1-1.3-1.8-1.1l-0.8,0.2
		c-0.8,0.2-1.3,1-1.1,1.8C98.8,68.9,99.4,69.3,100.1,69.3z"/>
	<path class="st2" d="M93.8,55.4c-0.7-0.5-1.6-0.3-2.1,0.3l-0.5,0.7c-0.5,0.7-0.3,1.6,0.3,2.1c0.3,0.2,0.6,0.3,0.9,0.3
		c0.5,0,0.9-0.2,1.2-0.6l0.5-0.7C94.6,56.8,94.4,55.9,93.8,55.4z"/>
	<path class="st2" d="M123.9,79.6c-1.6-21.7-19-39.3-40.7-41c-12.1-0.9-23.7,3-32.7,11c-8.9,7.9-14.2,18.7-14.9,30.5l-12.7,28.1
		c-0.2,0.5-0.2,1,0.1,1.4s0.8,0.7,1.3,0.7h11.5V130c0,6.6,5.3,11.9,11.9,11.9h18.4v12.9c0,0.8,0.7,1.5,1.5,1.5s1.5-0.7,1.5-1.5
		v-14.3c0,0,0,0,0,0c0,0,0,0,0,0c0-0.8-0.7-1.5-1.5-1.5H47.7c-4.9,0-8.9-4-8.9-8.9v-21.2c0-0.8-0.7-1.5-1.5-1.5H26.6L38.5,81
		c0.1-0.2,0.1-0.4,0.1-0.5c0.6-11.1,5.5-21.3,13.9-28.7c8.4-7.4,19.3-11.1,30.5-10.2c20.2,1.5,36.5,18,37.9,38.2
		c0.5,8.2-1.1,15.8-4.5,22.1c-0.4,0.7-0.1,1.6,0.6,2c0.7,0.4,1.6,0.1,2-0.6C122.7,96.6,124.4,88.4,123.9,79.6z"/>
	<path class="st2" d="M111.1,111.4c-0.8,0-1.5,0.7-1.5,1.5v41.9c0,0.8,0.7,1.5,1.5,1.5s1.5-0.7,1.5-1.5v-41.9
		C112.6,112.1,111.9,111.4,111.1,111.4z"/>
</g>
</svg>
