<svg xmlns="http://www.w3.org/2000/svg" width="41" height="39" viewBox="0 0 41 39"><g><g><path fill="#fecd30" d="M32.445 9.35v.002z"/></g><g><path fill="#fecd30" d="M31.424 12.001c-.564.156-1.01.132-1.01.132l.02-.108c.524-.42 1.85-1.71 2.024-2.315.077-.26-.013-.35-.013-.359l-1.694.718-1.417.64c-.977-1.035-2.458-1.694-4.112-1.694-2.945 0-5.333 2.085-5.333 4.66 0 .471.07 1.33.218 1.758 0 .134.005-.136 0 0-1.897-.052-4.328-.83-6.492-1.927-4.27-2.163-4.537-3.66-4.537-3.66-.67.712-1.016 3.07-.337 4.918.435 1.183 1.931 2.246 1.931 2.246s-.669.012-1.369-.225c-.7-.237-.966-.472-.966-.472-.416 1.016.42 2.832 1.865 4.133.842.76 2.38 1.236 2.38 1.236l-2.402.067c-.136 2.335 4.897 3.723 4.897 3.723-1.474 1.134-3.186 1.825-5.021 1.825a9.582 9.582 0 0 1-2.742-.402c2.424 1.997 5.54 3.377 8.926 3.198 8.988-.472 14.06-8.197 14.302-15.784l.012.015s.42-.21 1.32-1.11a9.28 9.28 0 0 0 1.46-1.954s-1.345.585-1.91.741z"/></g><g><path fill="#fecd30" d="M32.445 9.352c.007.143 0 .014 0 0"/></g><g><path fill="#fecd30" d="M12.517 39.01C5.588 39.01-.05 33.37-.05 26.44V12.681C-.05 5.753 5.588.115 12.517.115h15.614C35.061.114 40.7 5.751 40.7 12.68v13.76c0 6.93-5.639 12.569-12.568 12.569zm0-36.102c-5.39 0-9.774 4.384-9.774 9.773v13.76c0 5.39 4.384 9.775 9.774 9.775h15.614c5.39 0 9.775-4.386 9.775-9.776V12.681c0-5.388-4.386-9.773-9.775-9.773z"/></g></g></svg>