<?xml version="1.0" encoding="utf-8"?>
<!-- Generator: Adobe Illustrator 22.0.0, SVG Export Plug-In . SVG Version: 6.00 Build 0)  -->
<svg version="1.1" id="Слой_1" xmlns="http://www.w3.org/2000/svg" xmlns:xlink="http://www.w3.org/1999/xlink" x="0px" y="0px"
	 viewBox="0 0 167 893.2" style="enable-background:new 0 0 167 893.2;" xml:space="preserve">
<style type="text/css">
	.st0{fill:none;stroke:#FFFFFF;stroke-width:2;}
</style>
<g id="Black_x5F_back">
</g>
<g id="Слой_35">
	<g>
		<path class="st0" d="M2.9,893.2v-25.3l127-13.6l-127-12V817L131,804.4L2.9,791.3v-22l161.2,17.8v33.7l-85.9,9.6l85.9,9.6v35.5
			L2.9,893.2z"/>
		<path class="st0" d="M164.1,757.9H2.9v-69h23v43.7h45v-34.7h22.9v34.7H141v-43.7h23v69H164.1z"/>
		<path class="st0" d="M125.4,604.2H41.6c-13,0-22.9-3.2-29.9-9.6c-7-6.4-10.5-15.8-10.5-28.2s3.5-22,10.5-28.8s17-10.2,29.9-10.2
			h15.7v25.3H40c-10.6,0-15.8,4.4-15.8,13.1c0,8.8,5.3,13.2,15.8,13.2h87c10.5,0,15.7-4.4,15.7-13.2c0-8.7-5.2-13.1-15.7-13.1h-23
			v-25.3h21.5c13,0,22.9,3.4,30,10.2c7,6.8,10.5,16.4,10.5,28.8c0,12.4-3.5,21.8-10.5,28.2C148.4,600.9,138.4,604.2,125.4,604.2z"/>
		<path class="st0" d="M164.1,513.2H2.9V475c0-12.9,3-22.4,9.1-28.4s15.4-9,28-9h12.7c16.6,0,27.5,5.5,32.7,16.6
			c2.5-6,6.7-10.3,12.4-12.9c5.7-2.6,13-3.9,21.9-3.9h24.8c8.9,0,15.4-0.8,19.6-2.4v25.3c-1.9,0.6-3.3,1-4.2,1.2s-2.7,0.5-5.4,0.7
			c-2.7,0.3-6,0.4-10.2,0.4H119c-7.4,0-12.7,1.3-15.8,3.9c-3.1,2.6-4.7,6.8-4.7,12.6v8.8h65.6V513.2z M75.5,488v-9.9
			c0-5-1.3-8.8-3.9-11.4c-2.6-2.5-7-3.8-13.2-3.8H42.6c-5.8,0-10,1-12.6,3c-2.7,2-4,5.3-4,9.8v12.2L75.5,488L75.5,488z"/>
		<path class="st0" d="M164.1,420.8H2.9v-69h23v43.7h45v-34.7h22.9v34.7H141v-43.7h23v69H164.1z"/>
		<path class="st0" d="M164.1,342.8L2.9,317.1V278l161.2-25.6v25.3l-29.2,4.4v31l29.2,4.4L164.1,342.8L164.1,342.8z M112.9,309.8
			v-24.4l-81.1,12.2L112.9,309.8z"/>
		<path class="st0" d="M26,249.9H3v-78.3h23v26.5h138.1v25.3H26V249.9z"/>
		<path class="st0" d="M164.1,160.6H2.9v-69h23v43.7h45v-34.7h22.9v34.7H141V91.6h23v69H164.1z"/>
	</g>
</g>
</svg>
